<?xml version="1.0" encoding="utf-8"?>
<!-- Generator: Adobe Illustrator 22.0.1, SVG Export Plug-In . SVG Version: 6.00 Build 0)  -->
<svg version="1.1" id="Layer_1" xmlns="http://www.w3.org/2000/svg" xmlns:xlink="http://www.w3.org/1999/xlink" x="0px" y="0px"
	 viewBox="0 0 169.1 169.1" style="enable-background:new 0 0 169.1 169.1;" xml:space="preserve">
<style type="text/css">
	.st0{fill:#FFDBDB;}
</style>
<g>
	<path class="st0" d="M114.3,18.2H54.8c-20.2,0-36.6,16.4-36.6,36.6v59.4c0,20.2,16.4,36.6,36.6,36.6h59.4
		c20.2,0,36.6-16.4,36.6-36.6V54.8C150.9,34.6,134.4,18.2,114.3,18.2z M139.1,114.3c0,13.7-11.1,24.8-24.8,24.8H54.8
		c-13.7,0-24.8-11.1-24.8-24.8V54.8C30,41.1,41.1,30,54.8,30h59.4c13.7,0,24.8,11.1,24.8,24.8V114.3L139.1,114.3z"/>
	<path class="st0" d="M84.5,51.2c-18.4,0-33.3,14.9-33.3,33.3c0,18.4,14.9,33.3,33.3,33.3c18.4,0,33.3-14.9,33.3-33.3
		C117.8,66.2,102.9,51.2,84.5,51.2z M84.5,106.4c-12,0-21.8-9.8-21.8-21.8c0-12,9.8-21.8,21.8-21.8c12,0,21.8,9.8,21.8,21.8
		C106.4,96.6,96.6,106.4,84.5,106.4z"/>
	<path class="st0" d="M119.1,41.5c-2.2,0-4.4,0.9-6,2.5c-1.6,1.6-2.5,3.8-2.5,6c0,2.2,0.9,4.4,2.5,6c1.6,1.6,3.8,2.5,6,2.5
		c2.2,0,4.4-0.9,6-2.5c1.6-1.6,2.5-3.8,2.5-6c0-2.2-0.9-4.4-2.5-6C123.6,42.4,121.4,41.5,119.1,41.5z"/>
</g>
</svg>
