<?xml version="1.0" encoding="utf-8"?>
<!-- Generator: Adobe Illustrator 16.0.0, SVG Export Plug-In . SVG Version: 6.00 Build 0)  -->
<!DOCTYPE svg PUBLIC "-//W3C//DTD SVG 1.1//EN" "http://www.w3.org/Graphics/SVG/1.1/DTD/svg11.dtd">
<svg version="1.1" id="Layer_1" xmlns="http://www.w3.org/2000/svg" xmlns:xlink="http://www.w3.org/1999/xlink" x="0px" y="0px"
	 width="169.062px" height="169.062px" viewBox="0 0 169.062 169.062" enable-background="new 0 0 169.062 169.062"
	 xml:space="preserve">
<g>
	<path d="M114.253,18.198H54.808c-20.187,0-36.609,16.424-36.609,36.612v59.444c0,20.187,16.423,36.611,36.609,36.611h59.445
		c20.188,0,36.612-16.426,36.612-36.611V54.81C150.865,34.622,134.441,18.198,114.253,18.198z M139.094,114.254
		c0,13.696-11.144,24.839-24.84,24.839H54.808c-13.696,0.001-24.839-11.143-24.839-24.839V54.81
		c0-13.697,11.143-24.841,24.839-24.841h59.445c13.696,0,24.841,11.144,24.841,24.841V114.254L139.094,114.254z"/>
	<path d="M84.531,51.223c-18.368,0-33.311,14.942-33.311,33.311c0,18.366,14.943,33.308,33.311,33.308
		c18.367,0,33.309-14.941,33.309-33.308C117.84,66.165,102.899,51.223,84.531,51.223z M84.531,106.37
		c-12.042,0-21.841-9.796-21.841-21.838c0-12.043,9.798-21.841,21.841-21.841c12.042,0,21.84,9.798,21.84,21.841
		C106.371,96.574,96.573,106.37,84.531,106.37z"/>
	<path d="M119.12,41.527c-2.239,0-4.441,0.906-6.022,2.495c-1.59,1.581-2.503,3.782-2.503,6.03c0,2.24,0.913,4.441,2.503,6.03
		c1.581,1.58,3.783,2.495,6.022,2.495c2.247,0,4.44-0.915,6.03-2.495c1.589-1.589,2.495-3.791,2.495-6.03
		c0-2.248-0.906-4.449-2.495-6.03C123.569,42.433,121.367,41.527,119.12,41.527z"/>
</g>
</svg>
