<?xml version="1.0" encoding="utf-8"?>
<!-- Generator: Adobe Illustrator 24.2.0, SVG Export Plug-In . SVG Version: 6.00 Build 0)  -->
<svg version="1.1" id="Layer_1" xmlns="http://www.w3.org/2000/svg" xmlns:xlink="http://www.w3.org/1999/xlink" x="0px" y="0px"
	 viewBox="0 0 724.74 308.2" style="enable-background:new 0 0 724.74 308.2;" xml:space="preserve">
<g>
	<path d="M25.55,104.68c-3.56,1.14-7.26,3.7-7.26,12.39v85.74h59.96c15.95,0,27.63-7.41,32.47-16.95l-4.42,18.52H-1.37
		c3.56-1.14,7.26-3.99,7.26-12.96v-74.35c0-8.69-3.7-11.25-7.26-12.39H25.55z M41.64,171.9c3.56-1.14,7.26-3.85,7.26-12.82v-42.02
		c0-8.55-3.7-11.25-7.26-12.39h62.95l4.42,19.09c-2.28-4.27-7.41-17.38-28.06-17.38H61.3v31.62h12.68c8.55,0,12.96-4.27,14.81-10.4
		v22.22c-1.85-5.84-6.27-10.11-14.81-10.11H61.3v30.48h19.37c20.94,0,28.06-13.1,30.34-17.38l-4.98,19.08H41.64z"/>
	<path d="M121.87,104.68h124.91l3.7,17.8c-2.28-4.27-11.25-16.09-26.21-16.09h-9.4v85.17c0,8.83,3.99,11.68,7.41,12.82h-26.92
		c3.56-1.14,7.26-3.99,7.26-13.1v-84.89h-36.89v85.17c0,8.83,3.85,11.68,7.26,12.82h-26.92c3.56-1.14,7.41-3.99,7.41-13.1v-84.89
		h-9.12c-15.1,0-23.79,11.96-26.06,16.24L121.87,104.68z"/>
	<path d="M258.62,104.68h65.52l4.13,19.09c-2.28-4.27-9.68-17.38-30.34-17.38h-19.65v46.43h12.68c9.68,0,14.67-4.42,16.52-10.54
		v22.36c-1.85-6.12-6.84-10.11-16.52-10.11h-12.68v48.14h19.37c20.94,0,30.34-13.25,32.62-17.52l-4.7,19.23h-66.94
		c3.56-1.14,7.26-3.99,7.26-12.96v-74.35C265.88,108.38,262.18,105.82,258.62,104.68z"/>
	<path d="M344.64,104.68h34.61c28.49,0,39.03,15.1,39.03,30.34c0,12.11-6.69,25.21-25.64,29.62l18.66,29.91
		c2.85,4.84,8.26,8.55,11.68,9.83h-18.94l-24.07-39.17H364.3v26.49c0.14,8.69,3.85,11.54,7.26,12.68h-26.92
		c3.56-1.14,7.26-3.99,7.26-12.96v-74.35C351.91,108.52,348.2,105.82,344.64,104.68z M377.97,163.64
		c18.09,0,27.77-12.39,27.77-28.63c0-15.67-7.98-28.63-27.77-28.63H364.3v57.25H377.97z"/>
	<path d="M460.35,104.68c-3.56,1.14-7.26,3.7-7.26,12.39v85.74h65.94c15.95,0,27.77-7.41,32.62-16.95l-4.42,18.52h-113.8
		c3.56-1.14,7.26-3.99,7.26-12.96v-74.35c0-8.69-3.7-11.25-7.26-12.39H460.35z M501.52,104.68c-3.56,1.14-7.41,3.7-7.41,12.25v28.06
		c0,23.36,12.68,33.19,27.49,33.19c16.38,0,26.78-9.97,26.78-31.19v-27.49c0-10.54-7.55-13.67-11.11-14.81h23.64
		c-3.56,1.14-10.83,4.27-10.83,14.95v27.35c0,25.64-13.25,35.04-32.76,35.04c-25.92,0-35.46-15.1-35.46-35.89v-29.05
		c0-8.4-3.85-11.25-7.26-12.39H501.52z"/>
	<path d="M598.61,104.11c-11.96,0-21.79,6.27-21.93,17.66c-0.28,25.64,58.4,24.21,57.97,57.82c-0.29,18.66-17.09,26.06-33.19,26.06
		c-12.39,0-20.94-6.41-27.49-6.41c-2.85,0-5.41,1.14-7.69,4.42v-30.91c5.41,15.95,19.51,30.62,35.04,30.91
		c11.54,0,24.92-4.7,25.07-18.37c0.29-25.07-58.68-21.93-57.82-57.11c0.43-16.38,14.1-25.64,30.48-25.64
		c12.53,0,20.22,7.12,24.92,7.12c3.85,0,5.41-2.56,6.98-5.7c-0.14,4.42-1.57,20.79-1.57,25.21
		C625.53,116.22,612.56,104.11,598.61,104.11z"/>
	<path d="M644.18,104.68h75.49l3.7,17.8c-2.28-4.13-10.82-15.52-25.78-15.52h-9.54v84.46c0,8.97,3.85,11.82,7.26,12.96h-26.92
		c3.56-1.14,7.26-3.85,7.26-12.96l0.28-84.46h-9.54c-10.82,0-20.65,6.27-25.78,15.67L644.18,104.68z"/>
</g>
</svg>
