<?xml version="1.0" encoding="utf-8"?>
<!-- Generator: Adobe Illustrator 16.0.0, SVG Export Plug-In . SVG Version: 6.00 Build 0)  -->
<!DOCTYPE svg PUBLIC "-//W3C//DTD SVG 1.1//EN" "http://www.w3.org/Graphics/SVG/1.1/DTD/svg11.dtd">
<svg version="1.1" id="Layer_1" xmlns="http://www.w3.org/2000/svg" xmlns:xlink="http://www.w3.org/1999/xlink" x="0px" y="0px"
	 width="724.737px" height="308.2px" viewBox="0 0 724.737 308.2" enable-background="new 0 0 724.737 308.2" xml:space="preserve">
<g>
	<path stroke="#000000" stroke-miterlimit="10" d="M315.085,122.431c20.565,0,35.113,18.406,67.695,18.406
		c30.097,0,27.462-27.109,39.895-27.109c8.959,0-4.824,27.948-39.895,27.948c-35.884,0-44.778-18.017-67.757-18.017
		c-8.447,0-10.542,13.487-17,13.487c-1.92,0-3.038-1.288-3.038-3.006C294.985,130.757,301.103,122.431,315.085,122.431z"/>
	<path d="M73.848,130.681c-1.552-0.209-3.126-0.333-4.741-0.333c-13.982,0-20.1,8.325-20.1,11.708c0,1.719,1.118,3.006,3.038,3.006
		c6.458,0,10.438-12.963,18.885-12.963c1.722,0,2.017-0.695,3.599-0.508C74.448,131.305,73.862,130.973,73.848,130.681z"/>
	<path d="M288.353,146.463c-25.135,0-55.686,50.313-55.686,67.44c0,8.205,6.114,13.441,15.365,13.441
		c14.662,0,31.288-18.197,44.024-30.504l0.141-1.967c4.549-5.414-27.087,30.9-44.166,30.9c-9.339,0-8.815-10.225-8.815-12.307
		c0-22.518,38.052-65.369,48.961-65.369c2.792,0,5.656,0.882,5.656,4.677c0,12.909-73.381,47.862-73.381,68.286l1.396,2.182
		c0-24.699,73.695-52.277,73.695-70.432C295.545,148.709,291.692,146.463,288.353,146.463z"/>
	<path d="M423.958,146.463c-25.135,0-55.686,50.313-55.686,67.44c0,8.205,8.001,13.441,17.252,13.441
		c15.228,0,28.514-14.326,40.141-25.277l0.067-4.674c0,0-26.126,28.17-42.095,28.17c-9.34,0-8.815-10.014-8.815-12.096
		c0-22.518,38.053-65.369,48.961-65.369c2.793,0,5.656,0.882,5.656,4.677c0,6.11-44.185,34.903-48.596,38.348
		c-3.783,2.957-5.203,6.164-1.745,3.648c15.364-11.172,51.842-32.885,51.842-41.961
		C430.941,148.709,427.297,146.463,423.958,146.463z"/>
	<path d="M452.545,132.678c-5.875,0-14.035,12.148-14.035,18.607c0,7.855,11.772,9.115,14.521,9.115
		c6.808,0,18.589-3.062,18.589-0.656c0,3.295-35.87,32.725-35.87,55.186c0,6.285,5.442,12.393,11.389,12.393
		c12.201,0,29.584-21.039,34.614-28.951l1.379-3.816c-1.182,2.344-23.965,30.475-34.438,30.475c-2.602,0-7.654-1.502-7.654-7.264
		c0-22.102,33.854-42.59,33.854-58.15c0-6.808-12.175-0.369-21.928-0.369s-9.744-6.875-9.744-10.448
		c0-7.855,5.752-15.339,9.354-15.339c2.473,0,4,5.521,4,11.958c0,11.509-4.55,22.892-30.843,51.978l-0.067,4.674
		c10.302-10.936,34.052-32.977,34.052-57.46C459.717,133.086,455.928,132.678,452.545,132.678z"/>
	<path stroke="#000000" stroke-miterlimit="10" d="M614.49,119.142c20.564,0,35.111,18.406,67.695,18.406
		c30.096,0,27.461-27.11,39.893-27.11c8.961,0-4.822,27.948-39.893,27.948c-35.885,0-44.779-18.018-67.758-18.018
		c-8.447,0-10.541,13.488-17,13.488c-1.92,0-3.039-1.288-3.039-3.006C594.389,127.467,600.508,119.142,614.49,119.142z"/>
	<g>
		<path d="M603.412,183.45c2.602,20.361,6.684,42.072-9.406,42.072c-13.301,0,5.377-15.535-3.002-15.535
			c-14.488,0-6.982,17.279,3.002,17.279c25.357,0,18.137-29.82,14.715-52.383C607.1,177.651,605.314,180.53,603.412,183.45z"/>
		<path d="M614.895,141.738c1.023,0,1.742,0.334,2.201,0.949c0.008-1.613-0.674-2.521-2.201-2.521
			c-13.666,0-13.854,22.584-12.023,38.791c1.881-2.809,3.654-5.557,5.268-8.182C606.604,159.021,606.877,141.738,614.895,141.738z"
			/>
		<path d="M608.139,170.776c0.174,1.336,0.371,2.707,0.582,4.107c7.893-13.459,12.143-27.159,8.375-32.196
			C617.078,146.358,613.482,162.079,608.139,170.776z"/>
		<path d="M602.852,178.249c0,0,0.297,3.123,0.561,5.201l2.812-3.584l2.496-4.98l-0.582-4.105L602.852,178.249z"/>
	</g>
	<path d="M337.838,191.997c19.874-16.588,90.205-103.668,90.205-120.917c0-33.514-120.164,153.5-87.521,153.5
		c10.808,0,20.875-11.068,29.428-17.787l-0.196,1.145c0,0-18.816,19.26-29.231,19.26c-10.647,0-10.997-11.17-10.997-12.742
		c0-28.451,71.216-148.891,94.955-148.891c0,0,4.365-1.571,4.365,6.284c0,17.852-70.151,104.139-90.334,121.086
		C337.221,194.015,336.92,192.763,337.838,191.997z"/>
	<path d="M480.553,200.94c19.873-16.588,93.967-112.464,93.967-129.714c0-33.513-120.164,153.499-87.52,153.499
		c10.809,0,22.648-12.582,31.201-19.303l-0.197,1.146c0,0-20.588,20.775-31.004,20.775c-10.646,0-10.998-11.172-10.998-12.742
		c0-28.451,71.217-148.892,94.957-148.892c0,0,4.363-1.571,4.363,6.283c0,17.852-73.914,112.935-94.098,129.882
		C479.936,202.96,479.635,201.708,480.553,200.94z"/>
	<path d="M374.141,68.972h-6.004c-30.021,26.694-81.428,121.457-81.428,145.631c0,1.57,0.349,12.742,10.997,12.742
		c13.164,0,48.251-47.258,48.251-47.258l0.004-2.816c-8.56,13.594-39.542,47.455-48.255,47.455
		C271.246,224.726,345.182,97.671,374.141,68.972z"/>
	<path d="M667.168,194.106c-12.539,14.471-29.176,30.619-35.193,30.619c-26.461,0,48.523-127.055,77.484-155.754h-6.006
		c-30.02,26.694-82.475,125.018-82.475,149.191c0,1.57,0.35,9.182,10.996,9.182c8.01,0,24.135-17.494,35.535-31.195
		C667.188,195.528,667.045,194.819,667.168,194.106z"/>
	<path d="M335.347,12.938c-92.391,0-114.544,233.51-247.801,233.51c-31.804,0-49.528-14.439-49.528-26.98
		c0-8.275,6.828-19.729,30.121-19.195C129.897,201.687,201.463,308.2,288.206,308.2c64.017,0,72.541-41.582,72.541-50.016
		c0-5.355-1.527-20.271-14.065-20.271l-0.622,0.879c0,0,12.315,1.205,12.412,19.236c0.086,16.27-21.558,45.594-67.017,45.453
		c-94.677-0.293-163.337-105.844-222.643-105.844c-26.966,0-34.178,10.332-34.178,21.721c0,15.58,18.078,30.344,61.079,30.344
		c122.898,0,166.888-233.391,238.373-233.391c7.824,0,14.458,7.423,14.458,15.334c0,42.817-81.289,128.687-155.023,128.687
		c-53.681,0-79.289-22.327-79.289-65.765c0-39.638,41.742-90.721,108.345-90.721c81.91,0,78.187,58.205,78.187,58.205
		s0.621,44.678-48.401,44.678c-49.021,0-107.758-35.104-170.848-35.104C13.96,71.625,0,110.493,0,130.97s12.837,52.705,51.31,52.705
		s42.816-26.285,42.816-30.987c0-17.332-10.17-22.64-24.634-22.64c-24.539,0-19.423,14.11-19.423,14.11l1.862-0.414
		c-0.546,2.792,2.621-11.647,15.99-11.647c13.918,0,22.992,5.792,22.992,19.968s-13.334,29.129-40.017,29.129
		c-22.624,0-45.906-17.604-45.906-50.846c0-32.888,31.368-56.752,75.558-56.752c44.19,0,131.687,35.203,171.814,35.203
		c40.127,0,51.503-31.439,51.503-47.573S297.454,0,222.371,0c-75.084,0-114.538,56.536-114.538,97.903
		c0,40.333,30.151,64.857,85.686,64.607c67.921-0.305,156.459-80.975,156.459-129.997C349.978,20.259,344.136,12.938,335.347,12.938
		z"/>
	<path d="M605.406,175.407c-15.197,20.699-40.344,50.381-45.967,50.381c-6.396,0-4.951-12.256-2.219-19.699
		c2.73-7.443,23.506-41.205,28.076-49.992h-7.082c-10.992,16.787-37.703,68.861-54.838,68.861
		c-16.572,0,21.662-55.168,29.258-68.861h-7.078c-4.838,8.473-31.678,48.688-31.678,63.73c0,5.648,3.541,7.504,8.029,7.504
		c6.531,0,22.047-10.77,32.932-27.371c0,0-13.473,27.486,3.4,27.486c11.215,0,32.287-27.668,47.795-49.318
		C605.736,177.591,605.529,175.981,605.406,175.407z"/>
	<path d="M615.525,140.229c0,0,2.951,0.304,2.951,6.687l-1.381-4.228L615.525,140.229z"/>
</g>
</svg>
