<?xml version="1.0" encoding="UTF-8"?>
<svg width="11px" height="22px" viewBox="0 0 11 22" version="1.1" xmlns="http://www.w3.org/2000/svg" xmlns:xlink="http://www.w3.org/1999/xlink">
    <!-- Generator: Sketch 49.1 (51147) - http://www.bohemiancoding.com/sketch -->
    <title>Page 1</title>
    <desc>Created with Sketch.</desc>
    <defs>
        <polygon id="path-1" points="0 0 11 0 11 22 0 22"></polygon>
    </defs>
    <g id="Page-1" stroke="none" stroke-width="1" fill="none" fill-rule="evenodd">
        <g id="LandingPage_2-Copy-3" transform="translate(-1232.000000, -2497.000000)">
            <g id="Footer" transform="translate(123.000000, 2367.000000)">
                <g id="Group-4" transform="translate(1109.000000, 130.000000)">
                    <g id="Page-1">
                        <mask id="mask-2" fill="white">
                            <use xlink:href="#path-1"></use>
                        </mask>
                        <g id="Clip-2"></g>
                        <path d="M10.5857723,0.00457746845 L7.94737247,0 C4.98322077,0 3.06765572,2.12508973 3.06765572,5.41422968 L3.06765572,7.91055211 L0.414862707,7.91055211 C0.185629895,7.91055211 0,8.11150297 0,8.35937289 L0,11.9762596 C0,12.2241295 0.185841559,12.4248515 0.414862707,12.4248515 L3.06765572,12.4248515 L3.06765572,21.5514081 C3.06765572,21.799278 3.25328561,22 3.48251842,22 L6.94365872,22 C7.17289153,22 7.35852143,21.7990491 7.35852143,21.5514081 L7.35852143,12.4248515 L10.4602552,12.4248515 C10.689488,12.4248515 10.8751179,12.2241295 10.8751179,11.9762596 L10.8763878,8.35937289 C10.8763878,8.24035871 10.8325733,8.12637974 10.7548923,8.04215432 C10.6774231,7.9579289 10.5715908,7.91055211 10.4613135,7.91055211 L7.35852143,7.91055211 L7.35852143,5.79438844 C7.35852143,4.77727495 7.58267429,4.26093651 8.80821259,4.26093651 L10.585349,4.26024989 C10.8143701,4.26024989 11,4.05929902 11,3.81165798 L11,0.453169377 C11,0.205757207 10.8145818,0.0050352153 10.5857723,0.00457746845" id="Fill-1" fill="#FFFFFF" mask="url(#mask-2)"></path>
                    </g>
                </g>
            </g>
        </g>
    </g>
</svg>