<?xml version="1.0" encoding="utf-8"?>
<!-- Generator: Adobe Illustrator 22.0.1, SVG Export Plug-In . SVG Version: 6.00 Build 0)  -->
<svg version="1.1" id="Capa_1" xmlns="http://www.w3.org/2000/svg" xmlns:xlink="http://www.w3.org/1999/xlink" x="0px" y="0px"
	 viewBox="0 0 478.2 456.4" style="enable-background:new 0 0 478.2 456.4;" xml:space="preserve">
<style type="text/css">
	.st0{fill:#FFFFFF;}
</style>
<g>
	<path id="LinkedIn_3_" class="st0" d="M478.2,279.7v176.7H375.6v-165c0-41.5-14.8-69.7-51.9-69.7c-28.4,0-45.1,19.1-52.6,37.5
		c-2.7,6.6-3.5,15.9-3.5,25v172.2H165.2c0,0,1.4-279.3,0-308.3h102.4v43.7c-0.1,0.4-0.4,0.7-0.6,1.1h0.6v-1.1
		c13.7-21,37.9-50.9,92.4-50.9C427.7,140.9,478.2,185,478.2,279.7z M58-0.5c-35,0-58,23-58,53.3c0,29.5,22.3,53.3,56.7,53.3h0.6
		c35.8,0,58-23.8,58-53.3C114.6,22.5,93.1-0.5,58-0.5z M6.1,456.4h102.5V148.1H6.1V456.4z"/>
</g>
</svg>
