<?xml version="1.0" encoding="utf-8"?>
<!-- Generator: Adobe Illustrator 22.0.1, SVG Export Plug-In . SVG Version: 6.00 Build 0)  -->
<svg version="1.1" id="Layer_1" xmlns="http://www.w3.org/2000/svg" xmlns:xlink="http://www.w3.org/1999/xlink" x="0px" y="0px"
	 viewBox="0 0 334 78.9" style="enable-background:new 0 0 334 78.9;" xml:space="preserve">
<style type="text/css">
	.st0{fill:#FFFFFF;}
</style>
<g>
	<path class="st0" d="M311.1,25.5c2.9,0,5.2,0.9,6.9,2.8c1.8,1.9,2.6,4.5,2.6,7.8c0,3.3-0.9,6-2.6,7.8c-1.8,1.9-4.1,2.8-6.9,2.8
		c-2.8,0-5.1-1-6.9-2.9c-1.8-1.9-2.7-4.5-2.7-7.8c0-3.3,0.9-5.9,2.7-7.8C306,26.4,308.3,25.5,311.1,25.5 M315.4,13.7
		c-3.3,0-6.2,0.8-8.6,2.3c-2.4,1.5-4.2,3.6-5.3,6.2V0h-13.4v58h13.4v-7.9c1.1,2.6,2.8,4.7,5.3,6.2c2.4,1.5,5.3,2.3,8.6,2.3
		c3.6,0,6.8-0.9,9.7-2.7c2.8-1.8,5.1-4.4,6.7-7.8c1.6-3.4,2.5-7.4,2.5-11.9c0-4.6-0.8-8.6-2.5-12c-1.6-3.4-3.9-6-6.7-7.8
		C322.3,14.6,319,13.7,315.4,13.7 M258.5,25.3c2.6,0,4.7,0.9,6.4,2.8c1.7,1.9,2.6,4.5,2.6,8c0,3.5-0.9,6.2-2.6,8
		c-1.7,1.8-3.9,2.7-6.4,2.7c-2.6,0-4.7-0.9-6.5-2.7c-1.8-1.8-2.6-4.5-2.6-8c0-3.5,0.9-6.2,2.6-8C253.8,26.3,255.9,25.3,258.5,25.3
		 M258.5,13.7c-4.3,0-8.2,0.9-11.7,2.7c-3.5,1.8-6.2,4.4-8.1,7.8c-2,3.4-2.9,7.4-2.9,11.9c0,4.5,1,8.5,2.9,11.9c2,3.4,4.7,6,8.1,7.8
		c3.5,1.8,7.3,2.7,11.7,2.7c4.3,0,8.2-0.9,11.6-2.7c3.4-1.8,6.1-4.4,8.1-7.8c2-3.4,2.9-7.4,2.9-11.9c0-4.5-1-8.5-2.9-11.9
		c-2-3.4-4.7-6-8.1-7.8C266.7,14.6,262.8,13.7,258.5,13.7 M211.7,13.8c-3.2,0-6.1,0.8-8.7,2.4c-2.6,1.6-4.7,3.8-6.2,6.5
		c-1.3-2.9-3.2-5.1-5.8-6.6c-2.6-1.5-5.5-2.3-8.9-2.3c-3.2,0-6,0.7-8.4,2.1c-2.4,1.4-4.1,3.3-5.3,5.8v-7.5H155V58h13.4V34.8
		c0-3,0.8-5.4,2.4-7c1.6-1.6,3.7-2.4,6.4-2.4c2.6,0,4.6,0.8,6,2.3c1.5,1.5,2.2,3.7,2.2,6.5V58h13.4V34.8c0-3,0.8-5.3,2.3-6.9
		c1.5-1.6,3.6-2.5,6.3-2.5c2.6,0,4.6,0.8,6.1,2.3c1.5,1.5,2.2,3.7,2.2,6.5V58h13.3V32.6c0-5.9-1.5-10.5-4.6-13.8
		C221.4,15.5,217.1,13.8,211.7,13.8 M100.4,14.3l18.4,42.1l-10.3,22.5h14.7l27.3-64.6h-14.8l-9.8,26.8l-10.5-26.8H100.4z M73.1,25.5
		c2.8,0,5.1,1,6.9,2.9c1.8,1.9,2.7,4.5,2.7,7.8c0,3.2-0.9,5.8-2.7,7.8c-1.8,1.9-4.1,2.9-6.9,2.9c-2.9,0-5.2-0.9-6.9-2.8
		c-1.8-1.9-2.6-4.5-2.6-7.8c0-3.3,0.9-6,2.6-7.8C67.9,26.4,70.2,25.5,73.1,25.5 M68.8,13.7c-3.6,0-6.8,0.9-9.7,2.7
		c-2.9,1.8-5.1,4.4-6.7,7.8c-1.6,3.4-2.5,7.4-2.5,12c0,4.5,0.8,8.5,2.5,11.9c1.6,3.4,3.9,6,6.7,7.8c2.8,1.8,6.1,2.7,9.7,2.7
		c3.3,0,6.2-0.8,8.6-2.3c2.4-1.5,4.2-3.6,5.3-6.2V58H96V14.3H82.7v7.9c-1.2-2.6-2.9-4.7-5.3-6.2C75,14.5,72.1,13.7,68.8,13.7
		 M23,25.5c2.9,0,5.2,0.9,6.9,2.8c1.8,1.9,2.6,4.5,2.6,7.8c0,3.3-0.9,6-2.6,7.8c-1.8,1.9-4.1,2.8-6.9,2.8c-2.8,0-5.1-1-6.9-2.9
		c-1.8-1.9-2.7-4.5-2.7-7.8c0-3.3,0.9-5.9,2.7-7.8S20.2,25.5,23,25.5 M27.3,13.7c-3.3,0-6.2,0.8-8.6,2.3c-2.4,1.5-4.2,3.6-5.3,6.2
		v-7.9H0v64.6h13.4V50.1c1.1,2.6,2.8,4.7,5.3,6.2c2.4,1.5,5.3,2.3,8.6,2.3c3.6,0,6.8-0.9,9.7-2.7c2.8-1.8,5.1-4.4,6.7-7.8
		c1.6-3.4,2.5-7.4,2.5-11.9c0-4.6-0.8-8.6-2.5-12c-1.6-3.4-3.9-6-6.7-7.8C34.1,14.6,30.9,13.7,27.3,13.7"/>
</g>
</svg>
