<?xml version="1.0" encoding="UTF-8"?>
<svg width="23px" height="21px" viewBox="0 0 23 21" version="1.1" xmlns="http://www.w3.org/2000/svg" xmlns:xlink="http://www.w3.org/1999/xlink">
    <!-- Generator: Sketch 49.1 (51147) - http://www.bohemiancoding.com/sketch -->
    <title>Page 1</title>
    <desc>Created with Sketch.</desc>
    <defs>
        <polygon id="path-1" points="0 0 23 0 23 21 0 21"></polygon>
    </defs>
    <g id="Page-1" stroke="none" stroke-width="1" fill="none" fill-rule="evenodd">
        <g id="LandingPage_2-Copy-3" transform="translate(-1265.000000, -2498.000000)">
            <g id="Footer" transform="translate(123.000000, 2367.000000)">
                <g id="Group-4" transform="translate(1109.000000, 130.000000)">
                    <g id="Page-1" transform="translate(33.000000, 1.000000)">
                        <mask id="mask-2" fill="white">
                            <use xlink:href="#path-1"></use>
                        </mask>
                        <g id="Clip-2"></g>
                        <path d="M23,2.48463044 C22.1534708,2.90626188 21.2451573,3.1922075 20.290806,3.31986707 C21.2652635,2.6639537 22.0111863,1.62358309 22.3647179,0.387709985 C21.4506543,0.995127927 20.4416968,1.43619133 19.366633,1.67528902 C18.5057476,0.64298689 17.281221,0 15.9230162,0 C13.3173224,0 11.2045886,2.37479758 11.2045886,5.30209668 C11.2045886,5.71726488 11.2462667,6.12275934 11.3267669,6.51051157 C7.4060121,6.28915612 3.929361,4.17770393 1.60248628,0.969274962 C1.19573888,1.75120042 0.964347981,2.66230621 0.964347981,3.63487616 C0.964347981,5.4749567 1.79794902,7.09853979 3.06272559,8.04842502 C2.28948087,8.01936156 1.56223621,7.78026388 0.925563604,7.38283791 L0.925563604,7.44907557 C0.925563604,10.0177281 2.55251561,12.1614965 4.70978384,12.6494079 C4.31453646,12.7689567 3.89775473,12.8351944 3.46657919,12.8351944 C3.16190386,12.8351944 2.86726286,12.8012729 2.57837186,12.7366405 C3.17911631,14.8448822 4.9210685,16.3780222 6.98494605,16.4200121 C5.37092217,17.8416717 3.33579467,18.6865821 1.12534824,18.6865821 C0.744494681,18.6865821 0.369353545,18.6607291 0,18.6138812 C2.0883057,20.1211682 4.56753688,21 7.23215888,21 C15.9115914,21 20.6559128,12.9192165 20.6559128,5.91116212 L20.6400909,5.22458003 C21.5670826,4.48139178 22.3690398,3.54764352 23,2.48463044" id="Fill-1" fill="#FFFFFF" mask="url(#mask-2)"></path>
                    </g>
                </g>
            </g>
        </g>
    </g>
</svg>