<?xml version="1.0" encoding="utf-8"?>
<!-- Generator: Adobe Illustrator 22.1.0, SVG Export Plug-In . SVG Version: 6.00 Build 0)  -->
<svg version="1.1" id="Layer_1" xmlns="http://www.w3.org/2000/svg" xmlns:xlink="http://www.w3.org/1999/xlink" x="0px" y="0px"
	 viewBox="0 0 80 80" style="enable-background:new 0 0 80 80;" xml:space="preserve">
<style type="text/css">
	.st0{fill:#64FAFA;}
</style>
<path class="st0" d="M40,9.9L11,21.3V27h3v5h2v26h-3v5h-3v7h60v-7h-3v-5h-3V32h2v-5h3v-5.7L40,9.9z M40,12.1l27,10.6V25h-3v5h-2v30
	h3v5h1h2v3H12v-3h3v-5h3V30h-2v-5h-3v-2.3L40,12.1z M18,25c-0.6,0-1,0.4-1,1s0.4,1,1,1s1-0.4,1-1S18.6,25,18,25z M22,25
	c-0.6,0-1,0.4-1,1s0.4,1,1,1s1-0.4,1-1S22.6,25,22,25z M26,25c-0.6,0-1,0.4-1,1s0.4,1,1,1s1-0.4,1-1S26.6,25,26,25z M30,25
	c-0.6,0-1,0.4-1,1s0.4,1,1,1s1-0.4,1-1S30.6,25,30,25z M34,25c-0.6,0-1,0.4-1,1s0.4,1,1,1s1-0.4,1-1S34.6,25,34,25z M38,25
	c-0.6,0-1,0.4-1,1s0.4,1,1,1s1-0.4,1-1S38.6,25,38,25z M42,25c-0.6,0-1,0.4-1,1s0.4,1,1,1s1-0.4,1-1S42.6,25,42,25z M46,25
	c-0.6,0-1,0.4-1,1s0.4,1,1,1s1-0.4,1-1S46.6,25,46,25z M50,25c-0.6,0-1,0.4-1,1s0.4,1,1,1s1-0.4,1-1S50.6,25,50,25z M54,25
	c-0.6,0-1,0.4-1,1s0.4,1,1,1s1-0.4,1-1S54.6,25,54,25z M58,25c-0.6,0-1,0.4-1,1s0.4,1,1,1s1-0.4,1-1S58.6,25,58,25z M62,25
	c-0.6,0-1,0.4-1,1s0.4,1,1,1s1-0.4,1-1S62.6,25,62,25z M20,30c-0.6,0-1,0.4-1,1s0.4,1,1,1s1-0.4,1-1S20.6,30,20,30z M22,30v30h11
	c0.6,0,1-0.4,1-1c0-0.6-0.4-1-1-1c0,0,0,0,0,0h-9V32h9c0.6,0,1-0.4,1-1c0-0.6-0.4-1-1-1c0,0,0,0,0,0H22z M47,30c-0.6,0-1,0.4-1,1
	c0,0.6,0.4,1,1,1c0,0,0,0,0,0h9v26h-9c-0.6,0-1,0.4-1,1c0,0.6,0.4,1,1,1c0,0,0,0,0,0h11V30H47z M60,30c-0.6,0-1,0.4-1,1s0.4,1,1,1
	s1-0.4,1-1S60.6,30,60,30z M39.1,32.9v1.9c-3.8,0.3-6,2.5-6,5.7c0,2.7,1.7,4.6,4.8,5.4l1.2,0.3v6.3c-2.1-0.2-3.4-1.4-3.5-3h-2.9
	c0,3.2,2.5,5.4,6.5,5.7V57H41v-1.8c4.1-0.3,6.4-2.5,6.4-5.9c0-2.9-1.6-4.6-5.1-5.5L41,43.5v-6c1.8,0.2,3.1,1.4,3.1,2.9H47
	c-0.1-3.1-2.4-5.3-6.1-5.6v-1.9H39.1z M39.1,37.5v5.6c-2-0.4-3.1-1.4-3.1-2.8C36,38.8,37.3,37.6,39.1,37.5z M41,46.6
	c2.4,0.5,3.5,1.4,3.5,3c0,1.8-1.3,2.9-3.5,3V46.6z M20,58c-0.6,0-1,0.4-1,1s0.4,1,1,1s1-0.4,1-1S20.6,58,20,58z M60,58
	c-0.6,0-1,0.4-1,1s0.4,1,1,1s1-0.4,1-1S60.6,58,60,58z M18,63c-0.6,0-1,0.4-1,1s0.4,1,1,1s1-0.4,1-1S18.6,63,18,63z M22,63
	c-0.6,0-1,0.4-1,1s0.4,1,1,1s1-0.4,1-1S22.6,63,22,63z M26,63c-0.6,0-1,0.4-1,1s0.4,1,1,1s1-0.4,1-1S26.6,63,26,63z M30,63
	c-0.6,0-1,0.4-1,1s0.4,1,1,1s1-0.4,1-1S30.6,63,30,63z M34,63c-0.6,0-1,0.4-1,1s0.4,1,1,1s1-0.4,1-1S34.6,63,34,63z M38,63
	c-0.6,0-1,0.4-1,1s0.4,1,1,1s1-0.4,1-1S38.6,63,38,63z M42,63c-0.6,0-1,0.4-1,1s0.4,1,1,1s1-0.4,1-1S42.6,63,42,63z M46,63
	c-0.6,0-1,0.4-1,1s0.4,1,1,1s1-0.4,1-1S46.6,63,46,63z M50,63c-0.6,0-1,0.4-1,1s0.4,1,1,1s1-0.4,1-1S50.6,63,50,63z M54,63
	c-0.6,0-1,0.4-1,1s0.4,1,1,1s1-0.4,1-1S54.6,63,54,63z M58,63c-0.6,0-1,0.4-1,1s0.4,1,1,1s1-0.4,1-1S58.6,63,58,63z M62,63
	c-0.6,0-1,0.4-1,1s0.4,1,1,1s1-0.4,1-1S62.6,63,62,63z"/>
</svg>
