<?xml version="1.0" encoding="utf-8"?>
<!-- Generator: Adobe Illustrator 22.1.0, SVG Export Plug-In . SVG Version: 6.00 Build 0)  -->
<svg version="1.1" id="Layer_1" xmlns="http://www.w3.org/2000/svg" xmlns:xlink="http://www.w3.org/1999/xlink" x="0px" y="0px"
	 viewBox="0 0 80 80" style="enable-background:new 0 0 80 80;" xml:space="preserve">
<style type="text/css">
	.st0{fill:#64FAFA;}
</style>
<g id="surface1">
	<path class="st0" d="M38.1,8.9l-13.3,1.3l5.3,5.3L9.3,36.3l1.4,1.4l20.8-20.8l5.3,5.3l0.2-2.1L38.1,8.9z M57,9v60h-2V25H41v44h-2
		V41H25v28h-2V55H9v14H5v2h70v-2h-4V9H57z M59,11h10v58H59V11z M35.9,11.1l-0.7,6.7l-6-6L35.9,11.1z M43,27h10v42H43V27z M45,29
		c-0.6,0-1,0.4-1,1s0.4,1,1,1s1-0.4,1-1S45.6,29,45,29z M51,29c-0.6,0-1,0.4-1,1s0.4,1,1,1s1-0.4,1-1S51.6,29,51,29z M48,32
		c-0.6,0-1,0.4-1,1s0.4,1,1,1s1-0.4,1-1S48.6,32,48,32z M45,35c-0.6,0-1,0.4-1,1s0.4,1,1,1s1-0.4,1-1S45.6,35,45,35z M51,35
		c-0.6,0-1,0.4-1,1s0.4,1,1,1s1-0.4,1-1S51.6,35,51,35z M48,38c-0.6,0-1,0.4-1,1s0.4,1,1,1s1-0.4,1-1S48.6,38,48,38z M45,41
		c-0.6,0-1,0.4-1,1s0.4,1,1,1s1-0.4,1-1S45.6,41,45,41z M51,41c-0.6,0-1,0.4-1,1s0.4,1,1,1s1-0.4,1-1S51.6,41,51,41z M27,43h10v26
		H27V43z M48,44c-0.6,0-1,0.4-1,1s0.4,1,1,1s1-0.4,1-1S48.6,44,48,44z M45,47c-0.6,0-1,0.4-1,1s0.4,1,1,1s1-0.4,1-1S45.6,47,45,47z
		 M51,47c-0.6,0-1,0.4-1,1s0.4,1,1,1s1-0.4,1-1S51.6,47,51,47z M48,50c-0.6,0-1,0.4-1,1s0.4,1,1,1s1-0.4,1-1S48.6,50,48,50z M45,53
		c-0.6,0-1,0.4-1,1s0.4,1,1,1s1-0.4,1-1S45.6,53,45,53z M51,53c-0.6,0-1,0.4-1,1s0.4,1,1,1s1-0.4,1-1S51.6,53,51,53z M48,56
		c-0.6,0-1,0.4-1,1s0.4,1,1,1s1-0.4,1-1S48.6,56,48,56z M11,57h10v12H11V57z M13,59c-0.6,0-1,0.4-1,1s0.4,1,1,1s1-0.4,1-1
		S13.6,59,13,59z M19,59c-0.6,0-1,0.4-1,1s0.4,1,1,1s1-0.4,1-1S19.6,59,19,59z M45,59c-0.6,0-1,0.4-1,1s0.4,1,1,1s1-0.4,1-1
		S45.6,59,45,59z M51,59c-0.6,0-1,0.4-1,1s0.4,1,1,1s1-0.4,1-1S51.6,59,51,59z M16,62c-0.6,0-1,0.4-1,1s0.4,1,1,1s1-0.4,1-1
		S16.6,62,16,62z M48,62c-0.6,0-1,0.4-1,1s0.4,1,1,1s1-0.4,1-1S48.6,62,48,62z M13,65c-0.6,0-1,0.4-1,1s0.4,1,1,1s1-0.4,1-1
		S13.6,65,13,65z M19,65c-0.6,0-1,0.4-1,1s0.4,1,1,1s1-0.4,1-1S19.6,65,19,65z M45,65c-0.6,0-1,0.4-1,1s0.4,1,1,1s1-0.4,1-1
		S45.6,65,45,65z M51,65c-0.6,0-1,0.4-1,1s0.4,1,1,1s1-0.4,1-1S51.6,65,51,65z"/>
</g>
</svg>
