<?xml version="1.0" encoding="utf-8"?>
<!-- Generator: Adobe Illustrator 22.1.0, SVG Export Plug-In . SVG Version: 6.00 Build 0)  -->
<svg version="1.1" id="Layer_1" xmlns="http://www.w3.org/2000/svg" xmlns:xlink="http://www.w3.org/1999/xlink" x="0px" y="0px"
	 viewBox="0 0 80 80" style="enable-background:new 0 0 80 80;" xml:space="preserve">
<style type="text/css">
	.st0{fill:#64FAFA;}
</style>
<g id="surface1">
	<path class="st0" d="M19,10c-2.2,0-4,1.8-4,4v50c0,2.2,1.8,4,4,4h15.5l5.5,5.5l5.5-5.5H61c2.2,0,4-1.8,4-4V14c0-2.2-1.8-4-4-4H19z
		 M19,12h42c1.1,0,2,0.9,2,2v50c0,1.1-0.9,2-2,2H44.7L40,70.7L35.3,66H19c-1.1,0-2-0.9-2-2V14C17,12.9,17.9,12,19,12z M22,16
		c-0.6,0-1,0.4-1,1s0.4,1,1,1s1-0.4,1-1S22.6,16,22,16z M26,16c-0.6,0-1,0.4-1,1s0.4,1,1,1s1-0.4,1-1S26.6,16,26,16z M30,16
		c-0.6,0-1,0.4-1,1s0.4,1,1,1s1-0.4,1-1S30.6,16,30,16z M34,16c-0.6,0-1,0.4-1,1s0.4,1,1,1s1-0.4,1-1S34.6,16,34,16z M38,16
		c-0.6,0-1,0.4-1,1s0.4,1,1,1s1-0.4,1-1S38.6,16,38,16z M42,16c-0.6,0-1,0.4-1,1s0.4,1,1,1s1-0.4,1-1S42.6,16,42,16z M46,16
		c-0.6,0-1,0.4-1,1s0.4,1,1,1s1-0.4,1-1S46.6,16,46,16z M50,16c-0.6,0-1,0.4-1,1s0.4,1,1,1s1-0.4,1-1S50.6,16,50,16z M54,16
		c-0.6,0-1,0.4-1,1s0.4,1,1,1s1-0.4,1-1S54.6,16,54,16z M58,16c-0.6,0-1,0.4-1,1s0.4,1,1,1s1-0.4,1-1S58.6,16,58,16z M22,20
		c-0.6,0-1,0.4-1,1s0.4,1,1,1s1-0.4,1-1S22.6,20,22,20z M58,20c-0.6,0-1,0.4-1,1s0.4,1,1,1s1-0.4,1-1S58.6,20,58,20z M22,24
		c-0.6,0-1,0.4-1,1s0.4,1,1,1s1-0.4,1-1S22.6,24,22,24z M58,24c-0.6,0-1,0.4-1,1s0.4,1,1,1s1-0.4,1-1S58.6,24,58,24z M22,28
		c-0.6,0-1,0.4-1,1s0.4,1,1,1s1-0.4,1-1S22.6,28,22,28z M40,28c-3.9,0-7,3.1-7,7c0,2.4,1.2,4.5,3.1,5.8C32.5,42.3,30,45.9,30,50h2
		c0-4.4,3.6-8,8-8s8,3.6,8,8h2c0-4.1-2.5-7.7-6.1-9.2c1.9-1.3,3.1-3.4,3.1-5.8C47,31.1,43.9,28,40,28z M58,28c-0.6,0-1,0.4-1,1
		s0.4,1,1,1s1-0.4,1-1S58.6,28,58,28z M40,30c2.8,0,5,2.2,5,5s-2.2,5-5,5s-5-2.2-5-5S37.2,30,40,30z M22,32c-0.6,0-1,0.4-1,1
		s0.4,1,1,1s1-0.4,1-1S22.6,32,22,32z M58,32c-0.6,0-1,0.4-1,1s0.4,1,1,1s1-0.4,1-1S58.6,32,58,32z M22,36c-0.6,0-1,0.4-1,1
		s0.4,1,1,1s1-0.4,1-1S22.6,36,22,36z M58,36c-0.6,0-1,0.4-1,1s0.4,1,1,1s1-0.4,1-1S58.6,36,58,36z M22,40c-0.6,0-1,0.4-1,1
		s0.4,1,1,1s1-0.4,1-1S22.6,40,22,40z M58,40c-0.6,0-1,0.4-1,1s0.4,1,1,1s1-0.4,1-1S58.6,40,58,40z M22,44c-0.6,0-1,0.4-1,1
		s0.4,1,1,1s1-0.4,1-1S22.6,44,22,44z M58,44c-0.6,0-1,0.4-1,1s0.4,1,1,1s1-0.4,1-1S58.6,44,58,44z M22,48c-0.6,0-1,0.4-1,1
		s0.4,1,1,1s1-0.4,1-1S22.6,48,22,48z M58,48c-0.6,0-1,0.4-1,1s0.4,1,1,1s1-0.4,1-1S58.6,48,58,48z M22,52c-0.6,0-1,0.4-1,1
		s0.4,1,1,1s1-0.4,1-1S22.6,52,22,52z M58,52c-0.6,0-1,0.4-1,1s0.4,1,1,1s1-0.4,1-1S58.6,52,58,52z M22,56c-0.6,0-1,0.4-1,1
		s0.4,1,1,1s1-0.4,1-1S22.6,56,22,56z M58,56c-0.6,0-1,0.4-1,1s0.4,1,1,1s1-0.4,1-1S58.6,56,58,56z M22,60c-0.6,0-1,0.4-1,1
		s0.4,1,1,1s1-0.4,1-1S22.6,60,22,60z M26,60c-0.6,0-1,0.4-1,1s0.4,1,1,1s1-0.4,1-1S26.6,60,26,60z M30,60c-0.6,0-1,0.4-1,1
		s0.4,1,1,1s1-0.4,1-1S30.6,60,30,60z M34,60c-0.6,0-1,0.4-1,1s0.4,1,1,1s1-0.4,1-1S34.6,60,34,60z M38,60c-0.6,0-1,0.4-1,1
		s0.4,1,1,1s1-0.4,1-1S38.6,60,38,60z M42,60c-0.6,0-1,0.4-1,1s0.4,1,1,1s1-0.4,1-1S42.6,60,42,60z M46,60c-0.6,0-1,0.4-1,1
		s0.4,1,1,1s1-0.4,1-1S46.6,60,46,60z M50,60c-0.6,0-1,0.4-1,1s0.4,1,1,1s1-0.4,1-1S50.6,60,50,60z M54,60c-0.6,0-1,0.4-1,1
		s0.4,1,1,1s1-0.4,1-1S54.6,60,54,60z M58,60c-0.6,0-1,0.4-1,1s0.4,1,1,1s1-0.4,1-1S58.6,60,58,60z"/>
</g>
</svg>
