<?xml version="1.0" encoding="utf-8"?>
<!-- Generator: Adobe Illustrator 22.1.0, SVG Export Plug-In . SVG Version: 6.00 Build 0)  -->
<svg version="1.1" id="Layer_1" xmlns="http://www.w3.org/2000/svg" xmlns:xlink="http://www.w3.org/1999/xlink" x="0px" y="0px"
	 viewBox="0 0 80 80" style="enable-background:new 0 0 80 80;" xml:space="preserve">
<style type="text/css">
	.st0{fill:#64FAFA;}
</style>
<path class="st0" d="M52,6c-8.8,0-16,7.2-16,16c0,2.1,0.4,4.1,1.2,6H5v42h70V40.2c3-2.4,5-6.1,5-10.2c0-7.1-5.7-12.9-12.8-13
	C65.1,10.6,59.1,6,52,6z M52,8c7.7,0,14,6.3,14,14s-6.3,14-14,14s-14-6.3-14-14S44.3,8,52,8z M52,10c-0.6,0-1,0.4-1,1s0.4,1,1,1
	s1-0.4,1-1S52.6,10,52,10z M47.8,10.8c-0.6,0-1,0.4-1,1s0.4,1,1,1s1-0.4,1-1S48.3,10.8,47.8,10.8z M56.2,10.8c-0.6,0-1,0.4-1,1
	s0.4,1,1,1s1-0.4,1-1S56.8,10.8,56.2,10.8z M44.2,13.2c-0.6,0-1,0.4-1,1s0.4,1,1,1s1-0.4,1-1S44.8,13.2,44.2,13.2z M59.8,13.2
	c-0.6,0-1,0.4-1,1s0.4,1,1,1s1-0.4,1-1S60.3,13.2,59.8,13.2z M48.3,16.4L47.8,23h2.4c0.4-0.6,1-1,1.8-1c1.1,0,1.9,0.8,1.9,1.9
	c0,1.1-0.8,1.9-1.9,1.9c-1,0-1.8-0.6-1.9-1.4h-2.5c0,2,1.8,3.5,4.3,3.5c2.7,0,4.5-1.6,4.5-4.1c0-2.2-1.5-3.8-3.7-3.8
	c-1.1,0-1.9,0.4-2.4,1.1h-0.1l0.2-2.7h5.3v-2.1H48.3z M41.8,16.8c-0.6,0-1,0.4-1,1s0.4,1,1,1s1-0.4,1-1S42.4,16.8,41.8,16.8z
	 M62.2,16.8c-0.6,0-1,0.4-1,1s0.4,1,1,1s1-0.4,1-1S62.7,16.8,62.2,16.8z M67.7,19C73.5,19.4,78,24.2,78,30c0,6.1-4.9,11-11,11
	c-3.5,0-6.7-1.7-8.7-4.3C64,34.3,68,28.6,68,22C68,21,67.9,20,67.7,19z M41,21c-0.6,0-1,0.4-1,1s0.4,1,1,1s1-0.4,1-1S41.6,21,41,21z
	 M63,21c-0.6,0-1,0.4-1,1s0.4,1,1,1s1-0.4,1-1S63.6,21,63,21z M71,22.1c-0.6,0-1,0.4-1,1s0.4,1,1,1s1-0.4,1-1S71.6,22.1,71,22.1z
	 M73.9,25c-0.6,0-1,0.4-1,1s0.4,1,1,1s1-0.4,1-1S74.5,25,73.9,25z M41.8,25.2c-0.6,0-1,0.4-1,1s0.4,1,1,1s1-0.4,1-1
	S42.4,25.2,41.8,25.2z M62.2,25.2c-0.6,0-1,0.4-1,1s0.4,1,1,1s1-0.4,1-1S62.7,25.2,62.2,25.2z M44.2,28.8c-0.6,0-1,0.4-1,1
	s0.4,1,1,1s1-0.4,1-1S44.8,28.8,44.2,28.8z M59.8,28.8c-0.6,0-1,0.4-1,1s0.4,1,1,1s1-0.4,1-1S60.3,28.8,59.8,28.8z M75,29
	c-0.6,0-1,0.4-1,1s0.4,1,1,1s1-0.4,1-1S75.6,29,75,29z M7,30h31.2c2.8,4.8,7.9,8,13.8,8c1.5,0,2.9-0.2,4.3-0.6
	C58.7,40.8,62.6,43,67,43c2.2,0,4.2-0.5,6-1.5V68H7V30z M47.8,31.2c-0.6,0-1,0.4-1,1s0.4,1,1,1s1-0.4,1-1S48.3,31.2,47.8,31.2z
	 M56.2,31.2c-0.6,0-1,0.4-1,1s0.4,1,1,1s1-0.4,1-1S56.8,31.2,56.2,31.2z M18,32c-0.6,0-1,0.4-1,1s0.4,1,1,1s1-0.4,1-1S18.6,32,18,32
	z M22,32c-0.6,0-1,0.4-1,1s0.4,1,1,1s1-0.4,1-1S22.6,32,22,32z M26,32c-0.6,0-1,0.4-1,1s0.4,1,1,1s1-0.4,1-1S26.6,32,26,32z M30,32
	c-0.6,0-1,0.4-1,1s0.4,1,1,1s1-0.4,1-1S30.6,32,30,32z M34,32c-0.6,0-1,0.4-1,1s0.4,1,1,1s1-0.4,1-1S34.6,32,34,32z M38,32
	c-0.6,0-1,0.4-1,1s0.4,1,1,1s1-0.4,1-1S38.6,32,38,32z M52,32c-0.6,0-1,0.4-1,1s0.4,1,1,1s1-0.4,1-1S52.6,32,52,32z M73.9,33
	c-0.6,0-1,0.4-1,1s0.4,1,1,1s1-0.4,1-1S74.5,33,73.9,33z M71,35.9c-0.6,0-1,0.4-1,1s0.4,1,1,1s1-0.4,1-1S71.6,35.9,71,35.9z
	 M63,35.9c-0.6,0-1,0.4-1,1s0.4,1,1,1s1-0.4,1-1S63.6,35.9,63,35.9z M16.9,36c-0.6,0-1,0.4-1,1s0.4,1,1,1s1-0.4,1-1S17.5,36,16.9,36
	z M67,37c-0.6,0-1,0.4-1,1s0.4,1,1,1s1-0.4,1-1S67.6,37,67,37z M40,38c-6.1,0-11,4.9-11,11s4.9,11,11,11s11-4.9,11-11S46.1,38,40,38
	z M14,38.9c-0.6,0-1,0.4-1,1s0.4,1,1,1s1-0.4,1-1S14.6,38.9,14,38.9z M10,40c-0.6,0-1,0.4-1,1s0.4,1,1,1s1-0.4,1-1S10.6,40,10,40z
	 M40,40c5,0,9,4,9,9s-4,9-9,9s-9-4-9-9S35,40,40,40z M10,44c-0.6,0-1,0.4-1,1s0.4,1,1,1s1-0.4,1-1S10.6,44,10,44z M70,44
	c-0.6,0-1,0.4-1,1s0.4,1,1,1s1-0.4,1-1S70.6,44,70,44z M19,45c-2.2,0-4,1.8-4,4s1.8,4,4,4s4-1.8,4-4S21.2,45,19,45z M60,45
	c-2.2,0-4,1.8-4,4s1.8,4,4,4s4-1.8,4-4S62.2,45,60,45z M19,47c1.1,0,2,0.9,2,2s-0.9,2-2,2s-2-0.9-2-2S17.9,47,19,47z M60,47
	c1.1,0,2,0.9,2,2s-0.9,2-2,2s-2-0.9-2-2S58.9,47,60,47z M10,48c-0.6,0-1,0.4-1,1s0.4,1,1,1s1-0.4,1-1S10.6,48,10,48z M70,48
	c-0.6,0-1,0.4-1,1s0.4,1,1,1s1-0.4,1-1S70.6,48,70,48z M10,52c-0.6,0-1,0.4-1,1s0.4,1,1,1s1-0.4,1-1S10.6,52,10,52z M70,52
	c-0.6,0-1,0.4-1,1s0.4,1,1,1s1-0.4,1-1S70.6,52,70,52z M10,56c-0.6,0-1,0.4-1,1s0.4,1,1,1s1-0.4,1-1S10.6,56,10,56z M70,56
	c-0.6,0-1,0.4-1,1s0.4,1,1,1s1-0.4,1-1S70.6,56,70,56z M66,57.1c-0.6,0-1,0.4-1,1s0.4,1,1,1s1-0.4,1-1S66.6,57.1,66,57.1z M14,57.1
	c-0.6,0-1,0.4-1,1s0.4,1,1,1s1-0.4,1-1S14.6,57.1,14,57.1z M16.9,60c-0.6,0-1,0.4-1,1s0.4,1,1,1s1-0.4,1-1S17.5,60,16.9,60z
	 M63.1,60c-0.6,0-1,0.4-1,1s0.4,1,1,1s1-0.4,1-1S63.6,60,63.1,60z M18,64c-0.6,0-1,0.4-1,1s0.4,1,1,1s1-0.4,1-1S18.6,64,18,64z
	 M22,64c-0.6,0-1,0.4-1,1s0.4,1,1,1s1-0.4,1-1S22.6,64,22,64z M26,64c-0.6,0-1,0.4-1,1s0.4,1,1,1s1-0.4,1-1S26.6,64,26,64z M30,64
	c-0.6,0-1,0.4-1,1s0.4,1,1,1s1-0.4,1-1S30.6,64,30,64z M34,64c-0.6,0-1,0.4-1,1s0.4,1,1,1s1-0.4,1-1S34.6,64,34,64z M38,64
	c-0.6,0-1,0.4-1,1s0.4,1,1,1s1-0.4,1-1S38.6,64,38,64z M42,64c-0.6,0-1,0.4-1,1s0.4,1,1,1s1-0.4,1-1S42.6,64,42,64z M46,64
	c-0.6,0-1,0.4-1,1s0.4,1,1,1s1-0.4,1-1S46.6,64,46,64z M50,64c-0.6,0-1,0.4-1,1s0.4,1,1,1s1-0.4,1-1S50.6,64,50,64z M54,64
	c-0.6,0-1,0.4-1,1s0.4,1,1,1s1-0.4,1-1S54.6,64,54,64z M58,64c-0.6,0-1,0.4-1,1s0.4,1,1,1s1-0.4,1-1S58.6,64,58,64z M62,64
	c-0.6,0-1,0.4-1,1s0.4,1,1,1s1-0.4,1-1S62.6,64,62,64z"/>
</svg>
