<?xml version="1.0" encoding="UTF-8"?>
<svg width="78px" height="80px" viewBox="0 0 78 80" version="1.1" xmlns="http://www.w3.org/2000/svg" xmlns:xlink="http://www.w3.org/1999/xlink">
    <!-- Generator: Sketch 49.1 (51147) - http://www.bohemiancoding.com/sketch -->
    <title>Page 1</title>
    <desc>Created with Sketch.</desc>
    <defs></defs>
    <g id="Page-1" stroke="none" stroke-width="1" fill="none" fill-rule="evenodd">
        <g id="Products" transform="translate(-1209.000000, -1130.000000)" fill="#64FAFA">
            <path d="M1278.19355,1200 C1277.50035,1200 1276.93548,1200.56125 1276.93548,1201.25 C1276.93548,1201.93875 1277.50035,1202.5 1278.19355,1202.5 C1278.88674,1202.5 1279.45161,1201.93875 1279.45161,1201.25 C1279.45161,1200.56125 1278.88674,1200 1278.19355,1200 Z M1273.16129,1200 C1272.4681,1200 1271.90323,1200.56125 1271.90323,1201.25 C1271.90323,1201.93875 1272.4681,1202.5 1273.16129,1202.5 C1273.85448,1202.5 1274.41935,1201.93875 1274.41935,1201.25 C1274.41935,1200.56125 1273.85448,1200 1273.16129,1200 Z M1268.12903,1200 C1267.43584,1200 1266.87097,1200.56125 1266.87097,1201.25 C1266.87097,1201.93875 1267.43584,1202.5 1268.12903,1202.5 C1268.82223,1202.5 1269.3871,1201.93875 1269.3871,1201.25 C1269.3871,1200.56125 1268.82223,1200 1268.12903,1200 Z M1263.09677,1200 C1262.40358,1200 1261.83871,1200.56125 1261.83871,1201.25 C1261.83871,1201.93875 1262.40358,1202.5 1263.09677,1202.5 C1263.78997,1202.5 1264.35484,1201.93875 1264.35484,1201.25 C1264.35484,1200.56125 1263.78997,1200 1263.09677,1200 Z M1258.06452,1200 C1257.37132,1200 1256.80645,1200.56125 1256.80645,1201.25 C1256.80645,1201.93875 1257.37132,1202.5 1258.06452,1202.5 C1258.75771,1202.5 1259.32258,1201.93875 1259.32258,1201.25 C1259.32258,1200.56125 1258.75771,1200 1258.06452,1200 Z M1253.03226,1200 C1252.33906,1200 1251.77419,1200.56125 1251.77419,1201.25 C1251.77419,1201.93875 1252.33906,1202.5 1253.03226,1202.5 C1253.72545,1202.5 1254.29032,1201.93875 1254.29032,1201.25 C1254.29032,1200.56125 1253.72545,1200 1253.03226,1200 Z M1248,1200 C1247.30681,1200 1246.74194,1200.56125 1246.74194,1201.25 C1246.74194,1201.93875 1247.30681,1202.5 1248,1202.5 C1248.69319,1202.5 1249.25806,1201.93875 1249.25806,1201.25 C1249.25806,1200.56125 1248.69319,1200 1248,1200 Z M1242.96774,1200 C1242.27455,1200 1241.70968,1200.56125 1241.70968,1201.25 C1241.70968,1201.93875 1242.27455,1202.5 1242.96774,1202.5 C1243.66094,1202.5 1244.22581,1201.93875 1244.22581,1201.25 C1244.22581,1200.56125 1243.66094,1200 1242.96774,1200 Z M1237.93548,1200 C1237.24229,1200 1236.67742,1200.56125 1236.67742,1201.25 C1236.67742,1201.93875 1237.24229,1202.5 1237.93548,1202.5 C1238.62868,1202.5 1239.19355,1201.93875 1239.19355,1201.25 C1239.19355,1200.56125 1238.62868,1200 1237.93548,1200 Z M1232.90323,1200 C1232.21003,1200 1231.64516,1200.56125 1231.64516,1201.25 C1231.64516,1201.93875 1232.21003,1202.5 1232.90323,1202.5 C1233.59642,1202.5 1234.16129,1201.93875 1234.16129,1201.25 C1234.16129,1200.56125 1233.59642,1200 1232.90323,1200 Z M1227.87097,1200 C1227.17777,1200 1226.6129,1200.56125 1226.6129,1201.25 C1226.6129,1201.93875 1227.17777,1202.5 1227.87097,1202.5 C1228.56416,1202.5 1229.12903,1201.93875 1229.12903,1201.25 C1229.12903,1200.56125 1228.56416,1200 1227.87097,1200 Z M1222.83871,1200 C1222.14552,1200 1221.58065,1200.56125 1221.58065,1201.25 C1221.58065,1201.93875 1222.14552,1202.5 1222.83871,1202.5 C1223.5319,1202.5 1224.09677,1201.93875 1224.09677,1201.25 C1224.09677,1200.56125 1223.5319,1200 1222.83871,1200 Z M1217.80645,1200 C1217.11326,1200 1216.54839,1200.56125 1216.54839,1201.25 C1216.54839,1201.93875 1217.11326,1202.5 1217.80645,1202.5 C1218.49965,1202.5 1219.06452,1201.93875 1219.06452,1201.25 C1219.06452,1200.56125 1218.49965,1200 1217.80645,1200 Z M1278.19355,1195 C1277.50035,1195 1276.93548,1195.56125 1276.93548,1196.25 C1276.93548,1196.93875 1277.50035,1197.5 1278.19355,1197.5 C1278.88674,1197.5 1279.45161,1196.93875 1279.45161,1196.25 C1279.45161,1195.56125 1278.88674,1195 1278.19355,1195 Z M1217.80645,1195 C1217.11326,1195 1216.54839,1195.56125 1216.54839,1196.25 C1216.54839,1196.93875 1217.11326,1197.5 1217.80645,1197.5 C1218.49965,1197.5 1219.06452,1196.93875 1219.06452,1196.25 C1219.06452,1195.56125 1218.49965,1195 1217.80645,1195 Z M1278.19355,1190 C1277.50035,1190 1276.93548,1190.56125 1276.93548,1191.25 C1276.93548,1191.93875 1277.50035,1192.5 1278.19355,1192.5 C1278.88674,1192.5 1279.45161,1191.93875 1279.45161,1191.25 C1279.45161,1190.56125 1278.88674,1190 1278.19355,1190 Z M1217.80645,1190 C1217.11326,1190 1216.54839,1190.56125 1216.54839,1191.25 C1216.54839,1191.93875 1217.11326,1192.5 1217.80645,1192.5 C1218.49965,1192.5 1219.06452,1191.93875 1219.06452,1191.25 C1219.06452,1190.56125 1218.49965,1190 1217.80645,1190 Z M1278.19355,1185 C1277.50035,1185 1276.93548,1185.56125 1276.93548,1186.25 C1276.93548,1186.93875 1277.50035,1187.5 1278.19355,1187.5 C1278.88674,1187.5 1279.45161,1186.93875 1279.45161,1186.25 C1279.45161,1185.56125 1278.88674,1185 1278.19355,1185 Z M1217.80645,1185 C1217.11326,1185 1216.54839,1185.56125 1216.54839,1186.25 C1216.54839,1186.93875 1217.11326,1187.5 1217.80645,1187.5 C1218.49965,1187.5 1219.06452,1186.93875 1219.06452,1186.25 C1219.06452,1185.56125 1218.49965,1185 1217.80645,1185 Z M1278.19355,1180 C1277.50035,1180 1276.93548,1180.56125 1276.93548,1181.25 C1276.93548,1181.93875 1277.50035,1182.5 1278.19355,1182.5 C1278.88674,1182.5 1279.45161,1181.93875 1279.45161,1181.25 C1279.45161,1180.56125 1278.88674,1180 1278.19355,1180 Z M1217.80645,1180 C1217.11326,1180 1216.54839,1180.56125 1216.54839,1181.25 C1216.54839,1181.93875 1217.11326,1182.5 1217.80645,1182.5 C1218.49965,1182.5 1219.06452,1181.93875 1219.06452,1181.25 C1219.06452,1180.56125 1218.49965,1180 1217.80645,1180 Z M1278.19355,1175 C1277.50035,1175 1276.93548,1175.56125 1276.93548,1176.25 C1276.93548,1176.93875 1277.50035,1177.5 1278.19355,1177.5 C1278.88674,1177.5 1279.45161,1176.93875 1279.45161,1176.25 C1279.45161,1175.56125 1278.88674,1175 1278.19355,1175 Z M1217.80645,1175 C1217.11326,1175 1216.54839,1175.56125 1216.54839,1176.25 C1216.54839,1176.93875 1217.11326,1177.5 1217.80645,1177.5 C1218.49965,1177.5 1219.06452,1176.93875 1219.06452,1176.25 C1219.06452,1175.56125 1218.49965,1175 1217.80645,1175 Z M1278.19355,1170 C1277.50035,1170 1276.93548,1170.56125 1276.93548,1171.25 C1276.93548,1171.93875 1277.50035,1172.5 1278.19355,1172.5 C1278.88674,1172.5 1279.45161,1171.93875 1279.45161,1171.25 C1279.45161,1170.56125 1278.88674,1170 1278.19355,1170 Z M1217.80645,1170 C1217.11326,1170 1216.54839,1170.56125 1216.54839,1171.25 C1216.54839,1171.93875 1217.11326,1172.5 1217.80645,1172.5 C1218.49965,1172.5 1219.06452,1171.93875 1219.06452,1171.25 C1219.06452,1170.56125 1218.49965,1170 1217.80645,1170 Z M1266.87097,1165 C1266.17777,1165 1265.6129,1165.56125 1265.6129,1166.25 C1265.6129,1166.93875 1266.17777,1167.5 1266.87097,1167.5 C1267.56416,1167.5 1268.12903,1166.93875 1268.12903,1166.25 C1268.12903,1165.56125 1267.56416,1165 1266.87097,1165 Z M1229.12903,1165 C1228.43584,1165 1227.87097,1165.56125 1227.87097,1166.25 C1227.87097,1166.93875 1228.43584,1167.5 1229.12903,1167.5 C1229.82223,1167.5 1230.3871,1166.93875 1230.3871,1166.25 C1230.3871,1165.56125 1229.82223,1165 1229.12903,1165 Z M1248,1162.5 C1254.27019,1162.5 1259.32258,1167.52 1259.32258,1173.75 C1259.32258,1174.9225 1259.13639,1176.04 1258.80174,1177.095 L1255.11058,1180 L1240.88942,1180 L1237.19323,1177.09 C1236.86361,1176.035 1236.67742,1174.9175 1236.67742,1173.75 C1236.67742,1167.52 1241.72981,1162.5 1248,1162.5 Z M1266.87097,1161.25 C1266.17777,1161.25 1265.6129,1161.81125 1265.6129,1162.5 C1265.6129,1163.18875 1266.17777,1163.75 1266.87097,1163.75 C1267.56416,1163.75 1268.12903,1163.18875 1268.12903,1162.5 C1268.12903,1161.81125 1267.56416,1161.25 1266.87097,1161.25 Z M1229.12903,1161.25 C1228.43584,1161.25 1227.87097,1161.81125 1227.87097,1162.5 C1227.87097,1163.18875 1228.43584,1163.75 1229.12903,1163.75 C1229.82223,1163.75 1230.3871,1163.18875 1230.3871,1162.5 C1230.3871,1161.81125 1229.82223,1161.25 1229.12903,1161.25 Z M1211.51613,1160.0825 L1240.01381,1182.5 L1255.98619,1182.5 L1284.48387,1160.0825 L1284.48387,1207.5 L1211.51613,1207.5 L1211.51613,1160.0825 Z M1266.87097,1157.5 C1266.17777,1157.5 1265.6129,1158.06125 1265.6129,1158.75 C1265.6129,1159.43875 1266.17777,1160 1266.87097,1160 C1267.56416,1160 1268.12903,1159.43875 1268.12903,1158.75 C1268.12903,1158.06125 1267.56416,1157.5 1266.87097,1157.5 Z M1229.12903,1157.5 C1228.43584,1157.5 1227.87097,1158.06125 1227.87097,1158.75 C1227.87097,1159.43875 1228.43584,1160 1229.12903,1160 C1229.82223,1160 1230.3871,1159.43875 1230.3871,1158.75 C1230.3871,1158.06125 1229.82223,1157.5 1229.12903,1157.5 Z M1266.87097,1153.75 C1266.17777,1153.75 1265.6129,1154.31125 1265.6129,1155 C1265.6129,1155.68875 1266.17777,1156.25 1266.87097,1156.25 C1267.56416,1156.25 1268.12903,1155.68875 1268.12903,1155 C1268.12903,1154.31125 1267.56416,1153.75 1266.87097,1153.75 Z M1229.12903,1153.75 C1228.43584,1153.75 1227.87097,1154.31125 1227.87097,1155 C1227.87097,1155.68875 1228.43584,1156.25 1229.12903,1156.25 C1229.82223,1156.25 1230.3871,1155.68875 1230.3871,1155 C1230.3871,1154.31125 1229.82223,1153.75 1229.12903,1153.75 Z M1266.87097,1150 C1266.17777,1150 1265.6129,1150.56125 1265.6129,1151.25 C1265.6129,1151.93875 1266.17777,1152.5 1266.87097,1152.5 C1267.56416,1152.5 1268.12903,1151.93875 1268.12903,1151.25 C1268.12903,1150.56125 1267.56416,1150 1266.87097,1150 Z M1229.12903,1150 C1228.43584,1150 1227.87097,1150.56125 1227.87097,1151.25 C1227.87097,1151.93875 1228.43584,1152.5 1229.12903,1152.5 C1229.82223,1152.5 1230.3871,1151.93875 1230.3871,1151.25 C1230.3871,1150.56125 1229.82223,1150 1229.12903,1150 Z M1222.83871,1149.60875 L1222.83871,1165.80125 L1212.31752,1157.525 L1222.83871,1149.60875 Z M1273.16129,1149.60875 L1283.68752,1157.52 L1273.16129,1165.80125 L1273.16129,1149.60875 Z M1266.87097,1146.25 C1266.17777,1146.25 1265.6129,1146.81125 1265.6129,1147.5 C1265.6129,1148.18875 1266.17777,1148.75 1266.87097,1148.75 C1267.56416,1148.75 1268.12903,1148.18875 1268.12903,1147.5 C1268.12903,1146.81125 1267.56416,1146.25 1266.87097,1146.25 Z M1248,1146.25 C1249.40526,1146.25 1250.51613,1147.35375 1250.51613,1148.75 C1250.51613,1150.14625 1249.40526,1151.25 1248,1151.25 C1246.59474,1151.25 1245.48387,1150.14625 1245.48387,1148.75 C1245.48387,1147.35375 1246.59474,1146.25 1248,1146.25 Z M1229.12903,1146.25 C1228.43584,1146.25 1227.87097,1146.81125 1227.87097,1147.5 C1227.87097,1148.18875 1228.43584,1148.75 1229.12903,1148.75 C1229.82223,1148.75 1230.3871,1148.18875 1230.3871,1147.5 C1230.3871,1146.81125 1229.82223,1146.25 1229.12903,1146.25 Z M1248,1143.75 C1245.23352,1143.75 1242.96774,1146.00125 1242.96774,1148.75 C1242.96774,1151.49875 1245.23352,1153.75 1248,1153.75 C1250.76648,1153.75 1253.03226,1151.49875 1253.03226,1148.75 C1253.03226,1146.00125 1250.76648,1143.75 1248,1143.75 Z M1266.87097,1142.5 C1266.17777,1142.5 1265.6129,1143.06125 1265.6129,1143.75 C1265.6129,1144.43875 1266.17777,1145 1266.87097,1145 C1267.56416,1145 1268.12903,1144.43875 1268.12903,1143.75 C1268.12903,1143.06125 1267.56416,1142.5 1266.87097,1142.5 Z M1229.12903,1142.5 C1228.43584,1142.5 1227.87097,1143.06125 1227.87097,1143.75 C1227.87097,1144.43875 1228.43584,1145 1229.12903,1145 C1229.82223,1145 1230.3871,1144.43875 1230.3871,1143.75 C1230.3871,1143.06125 1229.82223,1142.5 1229.12903,1142.5 Z M1263.09677,1141.25 C1262.40358,1141.25 1261.83871,1141.81125 1261.83871,1142.5 C1261.83871,1143.18875 1262.40358,1143.75 1263.09677,1143.75 C1263.78997,1143.75 1264.35484,1143.18875 1264.35484,1142.5 C1264.35484,1141.81125 1263.78997,1141.25 1263.09677,1141.25 Z M1232.90323,1141.25 C1232.21003,1141.25 1231.64516,1141.81125 1231.64516,1142.5 C1231.64516,1143.18875 1232.21003,1143.75 1232.90323,1143.75 C1233.59642,1143.75 1234.16129,1143.18875 1234.16129,1142.5 C1234.16129,1141.81125 1233.59642,1141.25 1232.90323,1141.25 Z M1260.58065,1138.75 C1259.88745,1138.75 1259.32258,1139.31125 1259.32258,1140 C1259.32258,1140.68875 1259.88745,1141.25 1260.58065,1141.25 C1261.27384,1141.25 1261.83871,1140.68875 1261.83871,1140 C1261.83871,1139.31125 1261.27384,1138.75 1260.58065,1138.75 Z M1235.41935,1138.75 C1234.72616,1138.75 1234.16129,1139.31125 1234.16129,1140 C1234.16129,1140.68875 1234.72616,1141.25 1235.41935,1141.25 C1236.11255,1141.25 1236.67742,1140.68875 1236.67742,1140 C1236.67742,1139.31125 1236.11255,1138.75 1235.41935,1138.75 Z M1259.32258,1135 C1258.62939,1135 1258.06452,1135.56125 1258.06452,1136.25 C1258.06452,1136.93875 1258.62939,1137.5 1259.32258,1137.5 C1260.01577,1137.5 1260.58065,1136.93875 1260.58065,1136.25 C1260.58065,1135.56125 1260.01577,1135 1259.32258,1135 Z M1255.54839,1135 C1254.85519,1135 1254.29032,1135.56125 1254.29032,1136.25 C1254.29032,1136.93875 1254.85519,1137.5 1255.54839,1137.5 C1256.24158,1137.5 1256.80645,1136.93875 1256.80645,1136.25 C1256.80645,1135.56125 1256.24158,1135 1255.54839,1135 Z M1251.77419,1135 C1251.081,1135 1250.51613,1135.56125 1250.51613,1136.25 C1250.51613,1136.93875 1251.081,1137.5 1251.77419,1137.5 C1252.46739,1137.5 1253.03226,1136.93875 1253.03226,1136.25 C1253.03226,1135.56125 1252.46739,1135 1251.77419,1135 Z M1248,1135 C1247.30681,1135 1246.74194,1135.56125 1246.74194,1136.25 C1246.74194,1136.93875 1247.30681,1137.5 1248,1137.5 C1248.69319,1137.5 1249.25806,1136.93875 1249.25806,1136.25 C1249.25806,1135.56125 1248.69319,1135 1248,1135 Z M1244.22581,1135 C1243.53261,1135 1242.96774,1135.56125 1242.96774,1136.25 C1242.96774,1136.93875 1243.53261,1137.5 1244.22581,1137.5 C1244.919,1137.5 1245.48387,1136.93875 1245.48387,1136.25 C1245.48387,1135.56125 1244.919,1135 1244.22581,1135 Z M1240.45161,1135 C1239.75842,1135 1239.19355,1135.56125 1239.19355,1136.25 C1239.19355,1136.93875 1239.75842,1137.5 1240.45161,1137.5 C1241.14481,1137.5 1241.70968,1136.93875 1241.70968,1136.25 C1241.70968,1135.56125 1241.14481,1135 1240.45161,1135 Z M1236.67742,1135 C1235.98423,1135 1235.41935,1135.56125 1235.41935,1136.25 C1235.41935,1136.93875 1235.98423,1137.5 1236.67742,1137.5 C1237.37061,1137.5 1237.93548,1136.93875 1237.93548,1136.25 C1237.93548,1135.56125 1237.37061,1135 1236.67742,1135 Z M1225.35484,1132.5 L1270.64516,1132.5 L1270.64516,1167.77875 L1268.1089,1169.775 C1267.99694,1169.18 1267.47987,1168.75 1266.87097,1168.75 C1266.17777,1168.75 1265.6129,1169.31125 1265.6129,1170 C1265.6129,1170.4975 1265.91232,1170.9475 1266.37026,1171.1475 L1261.79468,1174.74125 C1261.81858,1174.41375 1261.83871,1174.0825 1261.83871,1173.75 C1261.83871,1166.1725 1255.62765,1160 1248,1160 C1240.37361,1160 1234.16129,1166.1725 1234.16129,1173.75 C1234.16129,1174.0825 1234.18142,1174.41375 1234.20029,1174.74125 L1229.63477,1171.1475 C1230.09271,1170.9475 1230.3871,1170.4975 1230.3871,1170 C1230.3871,1169.31125 1229.82223,1168.75 1229.12903,1168.75 C1228.52013,1168.75 1227.99929,1169.18 1227.8911,1169.775 L1225.35484,1167.77875 L1225.35484,1132.5 Z M1222.83871,1130 L1222.83871,1146.48 L1209,1156.875 L1209,1210 L1287,1210 L1287,1156.875 L1273.16129,1146.48 L1273.16129,1130 L1222.83871,1130 Z" id="Page-1"></path>
        </g>
    </g>
</svg>