<?xml version="1.0" encoding="UTF-8"?>
<svg width="78px" height="80px" viewBox="0 0 78 80" version="1.1" xmlns="http://www.w3.org/2000/svg" xmlns:xlink="http://www.w3.org/1999/xlink">
    <!-- Generator: Sketch 49.1 (51147) - http://www.bohemiancoding.com/sketch -->
    <title>Fill 4</title>
    <desc>Created with Sketch.</desc>
    <defs></defs>
    <g id="Page-1" stroke="none" stroke-width="1" fill="none" fill-rule="evenodd">
        <g id="Products" transform="translate(-856.000000, -735.000000)" fill="#64FAFA">
            <path d="M858.228571,812.759355 L931.771429,812.759355 L931.771429,810.519085 L858.228571,810.519085 L858.228571,812.759355 Z M858.228571,808.278628 L931.771429,808.278628 L931.771429,806.03817 L858.228571,806.03817 L858.228571,808.278628 Z M919.514286,799.316798 C918.898967,799.316798 918.4,799.818239 918.4,800.437027 C918.4,801.055627 918.898967,801.557256 919.514286,801.557256 C920.129604,801.557256 920.628571,801.055627 920.628571,800.437027 C920.628571,799.818239 920.129604,799.316798 919.514286,799.316798 Z M915.057143,799.316798 C914.441824,799.316798 913.942857,799.818239 913.942857,800.437027 C913.942857,801.055627 914.441824,801.557256 915.057143,801.557256 C915.672461,801.557256 916.171429,801.055627 916.171429,800.437027 C916.171429,799.818239 915.672461,799.316798 915.057143,799.316798 Z M910.6,799.316798 C909.984495,799.316798 909.485714,799.818239 909.485714,800.437027 C909.485714,801.055627 909.984495,801.557256 910.6,801.557256 C911.215505,801.557256 911.714286,801.055627 911.714286,800.437027 C911.714286,799.818239 911.215505,799.316798 910.6,799.316798 Z M906.142857,799.316798 C905.527539,799.316798 905.028571,799.818239 905.028571,800.437027 C905.028571,801.055627 905.527539,801.557256 906.142857,801.557256 C906.758362,801.557256 907.257143,801.055627 907.257143,800.437027 C907.257143,799.818239 906.758362,799.316798 906.142857,799.316798 Z M901.685714,799.316798 C901.070396,799.316798 900.571429,799.818239 900.571429,800.437027 C900.571429,801.055627 901.070396,801.557256 901.685714,801.557256 C902.301033,801.557256 902.8,801.055627 902.8,800.437027 C902.8,799.818239 902.301033,799.316798 901.685714,799.316798 Z M897.228571,799.316798 C896.613067,799.316798 896.114286,799.818239 896.114286,800.437027 C896.114286,801.055627 896.613067,801.557256 897.228571,801.557256 C897.844076,801.557256 898.342857,801.055627 898.342857,800.437027 C898.342857,799.818239 897.844076,799.316798 897.228571,799.316798 Z M892.771429,799.316798 C892.15611,799.316798 891.657143,799.818239 891.657143,800.437027 C891.657143,801.055627 892.15611,801.557256 892.771429,801.557256 C893.386933,801.557256 893.885714,801.055627 893.885714,800.437027 C893.885714,799.818239 893.386933,799.316798 892.771429,799.316798 Z M888.314286,799.316798 C887.698967,799.316798 887.2,799.818239 887.2,800.437027 C887.2,801.055627 887.698967,801.557256 888.314286,801.557256 C888.929604,801.557256 889.428571,801.055627 889.428571,800.437027 C889.428571,799.818239 888.929604,799.316798 888.314286,799.316798 Z M883.857143,799.316798 C883.241638,799.316798 882.742857,799.818239 882.742857,800.437027 C882.742857,801.055627 883.241638,801.557256 883.857143,801.557256 C884.472648,801.557256 884.971429,801.055627 884.971429,800.437027 C884.971429,799.818239 884.472648,799.316798 883.857143,799.316798 Z M879.4,799.316798 C878.784682,799.316798 878.285714,799.818239 878.285714,800.437027 C878.285714,801.055627 878.784682,801.557256 879.4,801.557256 C880.015318,801.557256 880.514286,801.055627 880.514286,800.437027 C880.514286,799.818239 880.015318,799.316798 879.4,799.316798 Z M874.942857,799.316798 C874.327352,799.316798 873.828571,799.818239 873.828571,800.437027 C873.828571,801.055627 874.327352,801.557256 874.942857,801.557256 C875.558176,801.557256 876.057143,801.055627 876.057143,800.437027 C876.057143,799.818239 875.558176,799.316798 874.942857,799.316798 Z M870.485714,799.316798 C869.870396,799.316798 869.371429,799.818239 869.371429,800.437027 C869.371429,801.055627 869.870396,801.557256 870.485714,801.557256 C871.101219,801.557256 871.6,801.055627 871.6,800.437027 C871.6,799.818239 871.101219,799.316798 870.485714,799.316798 Z M920.706885,794.838133 C920.09138,794.838133 919.592785,795.339574 919.592785,795.958362 C919.592785,796.576962 920.09138,797.078403 920.706885,797.078403 C921.32239,797.078403 921.82117,796.576962 921.82117,795.958362 C921.82117,795.339574 921.32239,794.838133 920.706885,794.838133 Z M869.28864,794.833821 C868.673322,794.833821 868.174355,795.335075 868.174355,795.953863 C868.174355,796.57265 868.673322,797.074279 869.28864,797.074279 C869.904145,797.074279 870.402926,796.57265 870.402926,795.953863 C870.402926,795.335075 869.904145,794.833821 869.28864,794.833821 Z M866.026334,791.556178 C865.411015,791.556178 864.912048,792.057619 864.912048,792.676406 C864.912048,793.295194 865.411015,793.796448 866.026334,793.796448 C866.641839,793.796448 867.14062,793.295194 867.14062,792.676406 C867.14062,792.057619 866.641839,791.556178 866.026334,791.556178 Z M923.969191,791.554116 C923.353686,791.554116 922.855092,792.055369 922.855092,792.674157 C922.855092,793.292945 923.353686,793.794386 923.969191,793.794386 C924.584696,793.794386 925.083477,793.292945 925.083477,792.674157 C925.083477,792.055369 924.584696,791.554116 923.969191,791.554116 Z M928.428571,790.354969 C927.813253,790.354969 927.314286,790.856597 927.314286,791.475197 C927.314286,792.093798 927.813253,792.595426 928.428571,792.595426 C929.04389,792.595426 929.542857,792.093798 929.542857,791.475197 C929.542857,790.856597 929.04389,790.354969 928.428571,790.354969 Z M861.571429,790.354969 C860.955924,790.354969 860.457143,790.856597 860.457143,791.475197 C860.457143,792.093798 860.955924,792.595426 861.571429,792.595426 C862.186933,792.595426 862.685714,792.093798 862.685714,791.475197 C862.685714,790.856597 862.186933,790.354969 861.571429,790.354969 Z M928.428571,785.874054 C927.813253,785.874054 927.314286,786.375682 927.314286,786.994283 C927.314286,787.612883 927.813253,788.114511 928.428571,788.114511 C929.04389,788.114511 929.542857,787.612883 929.542857,786.994283 C929.542857,786.375682 929.04389,785.874054 928.428571,785.874054 Z M861.571429,785.874054 C860.955924,785.874054 860.457143,786.375682 860.457143,786.994283 C860.457143,787.612883 860.955924,788.114511 861.571429,788.114511 C862.186933,788.114511 862.685714,787.612883 862.685714,786.994283 C862.685714,786.375682 862.186933,785.874054 861.571429,785.874054 Z M928.428571,781.393139 C927.813253,781.393139 927.314286,781.89458 927.314286,782.513368 C927.314286,783.132155 927.813253,783.633597 928.428571,783.633597 C929.04389,783.633597 929.542857,783.132155 929.542857,782.513368 C929.542857,781.89458 929.04389,781.393139 928.428571,781.393139 Z M861.571429,781.393139 C860.955924,781.393139 860.457143,781.89458 860.457143,782.513368 C860.457143,783.132155 860.955924,783.633597 861.571429,783.633597 C862.186933,783.633597 862.685714,783.132155 862.685714,782.513368 C862.685714,781.89458 862.186933,781.393139 861.571429,781.393139 Z M917.285714,780.27291 C918.52959,780.27291 919.514286,781.262671 919.514286,782.513368 C919.514286,783.764065 918.52959,784.753825 917.285714,784.753825 C916.041839,784.753825 915.057143,783.764065 915.057143,782.513368 C915.057143,781.262671 916.041839,780.27291 917.285714,780.27291 Z M871.6,780.27291 C872.844062,780.27291 873.828571,781.262671 873.828571,782.513368 C873.828571,783.764065 872.844062,784.753825 871.6,784.753825 C870.356124,784.753825 869.371429,783.764065 869.371429,782.513368 C869.371429,781.262671 870.356124,780.27291 871.6,780.27291 Z M917.285714,778.032453 C914.837306,778.032453 912.828571,780.051901 912.828571,782.513368 C912.828571,784.974834 914.837306,786.994283 917.285714,786.994283 C919.734122,786.994283 921.742857,784.974834 921.742857,782.513368 C921.742857,780.051901 919.734122,778.032453 917.285714,778.032453 Z M871.6,778.032453 C869.151592,778.032453 867.142857,780.051901 867.142857,782.513368 C867.142857,784.974834 869.151592,786.994283 871.6,786.994283 C874.048408,786.994283 876.057143,784.974834 876.057143,782.513368 C876.057143,780.051901 874.048408,778.032453 871.6,778.032453 Z M928.428571,776.912224 C927.813253,776.912224 927.314286,777.413853 927.314286,778.032453 C927.314286,778.651241 927.813253,779.152682 928.428571,779.152682 C929.04389,779.152682 929.542857,778.651241 929.542857,778.032453 C929.542857,777.413853 929.04389,776.912224 928.428571,776.912224 Z M861.571429,776.912224 C860.955924,776.912224 860.457143,777.413853 860.457143,778.032453 C860.457143,778.651241 860.955924,779.152682 861.571429,779.152682 C862.186933,779.152682 862.685714,778.651241 862.685714,778.032453 C862.685714,777.413853 862.186933,776.912224 861.571429,776.912224 Z M928.428571,772.43131 C927.813253,772.43131 927.314286,772.932938 927.314286,773.551538 C927.314286,774.170138 927.813253,774.671767 928.428571,774.671767 C929.04389,774.671767 929.542857,774.170138 929.542857,773.551538 C929.542857,772.932938 929.04389,772.43131 928.428571,772.43131 Z M895,772.43131 C900.551664,772.43131 905.028571,776.932095 905.028571,782.513368 C905.028571,788.094641 900.551664,792.595426 895,792.595426 C889.44815,792.595426 884.971429,788.094641 884.971429,782.513368 C884.971429,776.932095 889.44815,772.43131 895,772.43131 Z M861.571429,772.43131 C860.955924,772.43131 860.457143,772.932938 860.457143,773.551538 C860.457143,774.170138 860.955924,774.671767 861.571429,774.671767 C862.186933,774.671767 862.685714,774.170138 862.685714,773.551538 C862.685714,772.932938 862.186933,772.43131 861.571429,772.43131 Z M923.969191,771.23235 C923.353686,771.23235 922.855092,771.733791 922.855092,772.352579 C922.855092,772.971179 923.353686,773.472807 923.969191,773.472807 C924.584696,773.472807 925.083477,772.971179 925.083477,772.352579 C925.083477,771.733791 924.584696,771.23235 923.969191,771.23235 Z M866.026334,771.230101 C865.411015,771.230101 864.912048,771.731542 864.912048,772.350329 C864.912048,772.969117 865.411015,773.470558 866.026334,773.470558 C866.641839,773.470558 867.14062,772.969117 867.14062,772.350329 C867.14062,771.731542 866.641839,771.230101 866.026334,771.230101 Z M895,770.190852 C888.243804,770.190852 882.742857,775.721138 882.742857,782.513368 C882.742857,789.305598 888.243804,794.835883 895,794.835883 C901.756196,794.835883 907.257143,789.305598 907.257143,782.513368 C907.257143,775.721138 901.756196,770.190852 895,770.190852 Z M869.290878,767.952644 C868.675559,767.952644 868.176592,768.454085 868.176592,769.072873 C868.176592,769.691473 868.675559,770.193102 869.290878,770.193102 C869.906196,770.193102 870.405164,769.691473 870.405164,769.072873 C870.405164,768.454085 869.906196,767.952644 869.290878,767.952644 Z M920.706885,767.948145 C920.09138,767.948145 919.592785,768.449774 919.592785,769.068374 C919.592785,769.687162 920.09138,770.188603 920.706885,770.188603 C921.32239,770.188603 921.82117,769.687162 921.82117,769.068374 C921.82117,768.449774 921.32239,767.948145 920.706885,767.948145 Z M919.514286,763.46948 C918.898967,763.46948 918.4,763.971109 918.4,764.589709 C918.4,765.208496 918.898967,765.709937 919.514286,765.709937 C920.129604,765.709937 920.628571,765.208496 920.628571,764.589709 C920.628571,763.971109 920.129604,763.46948 919.514286,763.46948 Z M915.057143,763.46948 C914.441824,763.46948 913.942857,763.971109 913.942857,764.589709 C913.942857,765.208496 914.441824,765.709937 915.057143,765.709937 C915.672461,765.709937 916.171429,765.208496 916.171429,764.589709 C916.171429,763.971109 915.672461,763.46948 915.057143,763.46948 Z M910.6,763.46948 C909.984495,763.46948 909.485714,763.971109 909.485714,764.589709 C909.485714,765.208496 909.984495,765.709937 910.6,765.709937 C911.215505,765.709937 911.714286,765.208496 911.714286,764.589709 C911.714286,763.971109 911.215505,763.46948 910.6,763.46948 Z M906.142857,763.46948 C905.527539,763.46948 905.028571,763.971109 905.028571,764.589709 C905.028571,765.208496 905.527539,765.709937 906.142857,765.709937 C906.758362,765.709937 907.257143,765.208496 907.257143,764.589709 C907.257143,763.971109 906.758362,763.46948 906.142857,763.46948 Z M901.685714,763.46948 C901.070396,763.46948 900.571429,763.971109 900.571429,764.589709 C900.571429,765.208496 901.070396,765.709937 901.685714,765.709937 C902.301033,765.709937 902.8,765.208496 902.8,764.589709 C902.8,763.971109 902.301033,763.46948 901.685714,763.46948 Z M897.228571,763.46948 C896.613067,763.46948 896.114286,763.971109 896.114286,764.589709 C896.114286,765.208496 896.613067,765.709937 897.228571,765.709937 C897.844076,765.709937 898.342857,765.208496 898.342857,764.589709 C898.342857,763.971109 897.844076,763.46948 897.228571,763.46948 Z M892.771429,763.46948 C892.15611,763.46948 891.657143,763.971109 891.657143,764.589709 C891.657143,765.208496 892.15611,765.709937 892.771429,765.709937 C893.386933,765.709937 893.885714,765.208496 893.885714,764.589709 C893.885714,763.971109 893.386933,763.46948 892.771429,763.46948 Z M888.314286,763.46948 C887.698967,763.46948 887.2,763.971109 887.2,764.589709 C887.2,765.208496 887.698967,765.709937 888.314286,765.709937 C888.929604,765.709937 889.428571,765.208496 889.428571,764.589709 C889.428571,763.971109 888.929604,763.46948 888.314286,763.46948 Z M883.857143,763.46948 C883.241638,763.46948 882.742857,763.971109 882.742857,764.589709 C882.742857,765.208496 883.241638,765.709937 883.857143,765.709937 C884.472648,765.709937 884.971429,765.208496 884.971429,764.589709 C884.971429,763.971109 884.472648,763.46948 883.857143,763.46948 Z M879.4,763.46948 C878.784682,763.46948 878.285714,763.971109 878.285714,764.589709 C878.285714,765.208496 878.784682,765.709937 879.4,765.709937 C880.015318,765.709937 880.514286,765.208496 880.514286,764.589709 C880.514286,763.971109 880.015318,763.46948 879.4,763.46948 Z M874.942857,763.46948 C874.327352,763.46948 873.828571,763.971109 873.828571,764.589709 C873.828571,765.208496 874.327352,765.709937 874.942857,765.709937 C875.558176,765.709937 876.057143,765.208496 876.057143,764.589709 C876.057143,763.971109 875.558176,763.46948 874.942857,763.46948 Z M870.485714,763.46948 C869.870396,763.46948 869.371429,763.971109 869.371429,764.589709 C869.371429,765.208496 869.870396,765.709937 870.485714,765.709937 C871.101219,765.709937 871.6,765.208496 871.6,764.589709 C871.6,763.971109 871.101219,763.46948 870.485714,763.46948 Z M858.228571,803.797713 L931.771429,803.797713 L931.771429,761.229023 L858.228571,761.229023 L858.228571,803.797713 Z M895,738.16817 L903.452983,746.66605 L898.342857,746.66605 L898.342857,758.988565 L891.657143,758.988565 L891.657143,746.66605 L886.547017,746.66605 L895,738.16817 Z M895,735 L881.167083,748.906507 L889.428571,748.906507 L889.428571,758.988565 L856,758.988565 L856,760.108794 L856,806.03817 L856,815 L934,815 L934,795.956112 L934,758.988565 L900.571429,758.988565 L900.571429,748.906507 L908.832917,748.906507 L895,735 Z" id="Fill-4"></path>
        </g>
    </g>
</svg>