<?xml version="1.0" encoding="UTF-8"?>
<svg width="108px" height="80px" viewBox="0 0 108 80" version="1.1" xmlns="http://www.w3.org/2000/svg" xmlns:xlink="http://www.w3.org/1999/xlink">
    <!-- Generator: Sketch 49.1 (51147) - http://www.bohemiancoding.com/sketch -->
    <title>Page 1</title>
    <desc>Created with Sketch.</desc>
    <defs></defs>
    <g id="Page-1" stroke="none" stroke-width="1" fill="none" fill-rule="evenodd">
        <g id="Products" transform="translate(-841.000000, -1129.000000)" fill="#64FAFA">
            <path d="M935.114286,1198.23077 C934.264171,1198.23077 933.571429,1198.92154 933.571429,1199.76923 C933.571429,1200.61692 934.264171,1201.30769 935.114286,1201.30769 C935.9644,1201.30769 936.657143,1200.61692 936.657143,1199.76923 C936.657143,1198.92154 935.9644,1198.23077 935.114286,1198.23077 Z M928.942857,1198.23077 C928.092743,1198.23077 927.4,1198.92154 927.4,1199.76923 C927.4,1200.61692 928.092743,1201.30769 928.942857,1201.30769 C929.792971,1201.30769 930.485714,1200.61692 930.485714,1199.76923 C930.485714,1198.92154 929.792971,1198.23077 928.942857,1198.23077 Z M922.771429,1198.23077 C921.921314,1198.23077 921.228571,1198.92154 921.228571,1199.76923 C921.228571,1200.61692 921.921314,1201.30769 922.771429,1201.30769 C923.621543,1201.30769 924.314286,1200.61692 924.314286,1199.76923 C924.314286,1198.92154 923.621543,1198.23077 922.771429,1198.23077 Z M916.6,1198.23077 C915.749886,1198.23077 915.057143,1198.92154 915.057143,1199.76923 C915.057143,1200.61692 915.749886,1201.30769 916.6,1201.30769 C917.450114,1201.30769 918.142857,1200.61692 918.142857,1199.76923 C918.142857,1198.92154 917.450114,1198.23077 916.6,1198.23077 Z M910.428571,1198.23077 C909.578457,1198.23077 908.885714,1198.92154 908.885714,1199.76923 C908.885714,1200.61692 909.578457,1201.30769 910.428571,1201.30769 C911.278686,1201.30769 911.971429,1200.61692 911.971429,1199.76923 C911.971429,1198.92154 911.278686,1198.23077 910.428571,1198.23077 Z M904.257143,1198.23077 C903.407029,1198.23077 902.714286,1198.92154 902.714286,1199.76923 C902.714286,1200.61692 903.407029,1201.30769 904.257143,1201.30769 C905.107257,1201.30769 905.8,1200.61692 905.8,1199.76923 C905.8,1198.92154 905.107257,1198.23077 904.257143,1198.23077 Z M898.085714,1198.23077 C897.2356,1198.23077 896.542857,1198.92154 896.542857,1199.76923 C896.542857,1200.61692 897.2356,1201.30769 898.085714,1201.30769 C898.935829,1201.30769 899.628571,1200.61692 899.628571,1199.76923 C899.628571,1198.92154 898.935829,1198.23077 898.085714,1198.23077 Z M891.914286,1198.23077 C891.064171,1198.23077 890.371429,1198.92154 890.371429,1199.76923 C890.371429,1200.61692 891.064171,1201.30769 891.914286,1201.30769 C892.7644,1201.30769 893.457143,1200.61692 893.457143,1199.76923 C893.457143,1198.92154 892.7644,1198.23077 891.914286,1198.23077 Z M885.742857,1198.23077 C884.892743,1198.23077 884.2,1198.92154 884.2,1199.76923 C884.2,1200.61692 884.892743,1201.30769 885.742857,1201.30769 C886.592971,1201.30769 887.285714,1200.61692 887.285714,1199.76923 C887.285714,1198.92154 886.592971,1198.23077 885.742857,1198.23077 Z M879.571429,1198.23077 C878.721314,1198.23077 878.028571,1198.92154 878.028571,1199.76923 C878.028571,1200.61692 878.721314,1201.30769 879.571429,1201.30769 C880.421543,1201.30769 881.114286,1200.61692 881.114286,1199.76923 C881.114286,1198.92154 880.421543,1198.23077 879.571429,1198.23077 Z M873.4,1198.23077 C872.549886,1198.23077 871.857143,1198.92154 871.857143,1199.76923 C871.857143,1200.61692 872.549886,1201.30769 873.4,1201.30769 C874.250114,1201.30769 874.942857,1200.61692 874.942857,1199.76923 C874.942857,1198.92154 874.250114,1198.23077 873.4,1198.23077 Z M867.228571,1198.23077 C866.378457,1198.23077 865.685714,1198.92154 865.685714,1199.76923 C865.685714,1200.61692 866.378457,1201.30769 867.228571,1201.30769 C868.078686,1201.30769 868.771429,1200.61692 868.771429,1199.76923 C868.771429,1198.92154 868.078686,1198.23077 867.228571,1198.23077 Z M861.057143,1198.23077 C860.207029,1198.23077 859.514286,1198.92154 859.514286,1199.76923 C859.514286,1200.61692 860.207029,1201.30769 861.057143,1201.30769 C861.907257,1201.30769 862.6,1200.61692 862.6,1199.76923 C862.6,1198.92154 861.907257,1198.23077 861.057143,1198.23077 Z M854.885714,1198.23077 C854.0356,1198.23077 853.342857,1198.92154 853.342857,1199.76923 C853.342857,1200.61692 854.0356,1201.30769 854.885714,1201.30769 C855.735829,1201.30769 856.428571,1200.61692 856.428571,1199.76923 C856.428571,1198.92154 855.735829,1198.23077 854.885714,1198.23077 Z M893.457143,1178.23077 L933.571429,1178.23077 L933.571429,1175.15385 L893.457143,1175.15385 L893.457143,1178.23077 Z M893.457143,1169 L927.4,1169 L927.4,1165.92308 L893.457143,1165.92308 L893.457143,1169 Z M893.457143,1159.76923 L933.571429,1159.76923 L933.571429,1156.69231 L893.457143,1156.69231 L893.457143,1159.76923 Z M868.771429,1156.69231 C872.2012,1156.69231 874.942857,1159.42615 874.942857,1162.84615 C874.942857,1166.26615 872.2012,1169 868.771429,1169 C865.341657,1169 862.6,1166.26615 862.6,1162.84615 C862.6,1159.42615 865.341657,1156.69231 868.771429,1156.69231 Z M868.771429,1153.61538 C863.678457,1153.61538 859.514286,1157.76769 859.514286,1162.84615 C859.514286,1165.89231 861.021657,1168.60308 863.3236,1170.28615 C859.248914,1172.3 856.428571,1176.48154 856.428571,1181.30769 L859.514286,1181.30769 C859.514286,1176.19385 863.642971,1172.07692 868.771429,1172.07692 C873.899886,1172.07692 878.028571,1176.19385 878.028571,1181.30769 L881.114286,1181.30769 C881.114286,1176.48154 878.293943,1172.3 874.219257,1170.28615 C876.5212,1168.60308 878.028571,1165.89231 878.028571,1162.84615 C878.028571,1157.76769 873.8644,1153.61538 868.771429,1153.61538 Z M847.171429,1132.07692 L942.828571,1132.07692 C944.551943,1132.07692 945.914286,1133.43538 945.914286,1135.15385 L945.914286,1202.84615 C945.914286,1204.56462 944.551943,1205.92308 942.828571,1205.92308 L847.171429,1205.92308 C845.448057,1205.92308 844.085714,1204.56462 844.085714,1202.84615 L844.085714,1135.15385 C844.085714,1133.43538 845.448057,1132.07692 847.171429,1132.07692 Z M847.171429,1129 C843.778686,1129 841,1131.77077 841,1135.15385 L841,1202.84615 C841,1206.22923 843.778686,1209 847.171429,1209 L942.828571,1209 C946.221314,1209 949,1206.22923 949,1202.84615 L949,1135.15385 C949,1131.77077 946.221314,1129 942.828571,1129 L847.171429,1129 Z" id="Page-1"></path>
        </g>
    </g>
</svg>