<?xml version="1.0" encoding="UTF-8"?>
<svg width="110px" height="110px" viewBox="0 0 110 110" version="1.1" xmlns="http://www.w3.org/2000/svg" xmlns:xlink="http://www.w3.org/1999/xlink">
    <!-- Generator: Sketch 49.1 (51147) - http://www.bohemiancoding.com/sketch -->
    <title>Page 1</title>
    <desc>Created with Sketch.</desc>
    <defs></defs>
    <g id="Page-1" stroke="none" stroke-width="1" fill="none" fill-rule="evenodd">
        <g id="LandingPage_2-Copy" transform="translate(-1099.000000, -1263.000000)" fill="#64FAFA">
            <g id="Group-6" transform="translate(960.000000, 1263.000000)">
                <path d="M189,98.3333333 C188.081667,98.3333333 187.333333,99.0816667 187.333333,100 C187.333333,100.918333 188.081667,101.666667 189,101.666667 C189.918333,101.666667 190.666667,100.918333 190.666667,100 C190.666667,99.0816667 189.918333,98.3333333 189,98.3333333 M179,98.3333333 C178.081667,98.3333333 177.333333,99.0816667 177.333333,100 C177.333333,100.918333 178.081667,101.666667 179,101.666667 C179.918333,101.666667 180.666667,100.918333 180.666667,100 C180.666667,99.0816667 179.918333,98.3333333 179,98.3333333 M224,93.3333333 C223.081667,93.3333333 222.333333,94.0816667 222.333333,95 C222.333333,95.9183333 223.081667,96.6666667 224,96.6666667 C224.918333,96.6666667 225.666667,95.9183333 225.666667,95 C225.666667,94.0816667 224.918333,93.3333333 224,93.3333333 M214,93.3333333 C213.081667,93.3333333 212.333333,94.0816667 212.333333,95 C212.333333,95.9183333 213.081667,96.6666667 214,96.6666667 C214.918333,96.6666667 215.666667,95.9183333 215.666667,95 C215.666667,94.0816667 214.918333,93.3333333 214,93.3333333 M184,93.3333333 C183.081667,93.3333333 182.333333,94.0816667 182.333333,95 C182.333333,95.9183333 183.081667,96.6666667 184,96.6666667 C184.918333,96.6666667 185.666667,95.9183333 185.666667,95 C185.666667,94.0816667 184.918333,93.3333333 184,93.3333333 M174,93.3333333 C173.081667,93.3333333 172.333333,94.0816667 172.333333,95 C172.333333,95.9183333 173.081667,96.6666667 174,96.6666667 C174.918333,96.6666667 175.666667,95.9183333 175.666667,95 C175.666667,94.0816667 174.918333,93.3333333 174,93.3333333 M229,88.3333333 C228.081667,88.3333333 227.333333,89.0816667 227.333333,90 C227.333333,90.9183333 228.081667,91.6666667 229,91.6666667 C229.918333,91.6666667 230.666667,90.9183333 230.666667,90 C230.666667,89.0816667 229.918333,88.3333333 229,88.3333333 M219,88.3333333 C218.081667,88.3333333 217.333333,89.0816667 217.333333,90 C217.333333,90.9183333 218.081667,91.6666667 219,91.6666667 C219.918333,91.6666667 220.666667,90.9183333 220.666667,90 C220.666667,89.0816667 219.918333,88.3333333 219,88.3333333 M179,88.3333333 C178.081667,88.3333333 177.333333,89.0816667 177.333333,90 C177.333333,90.9183333 178.081667,91.6666667 179,91.6666667 C179.918333,91.6666667 180.666667,90.9183333 180.666667,90 C180.666667,89.0816667 179.918333,88.3333333 179,88.3333333 M169,88.3333333 C168.081667,88.3333333 167.333333,89.0816667 167.333333,90 C167.333333,90.9183333 168.081667,91.6666667 169,91.6666667 C169.918333,91.6666667 170.666667,90.9183333 170.666667,90 C170.666667,89.0816667 169.918333,88.3333333 169,88.3333333 M234,83.3333333 C233.081667,83.3333333 232.333333,84.0816667 232.333333,85 C232.333333,85.9183333 233.081667,86.6666667 234,86.6666667 C234.918333,86.6666667 235.666667,85.9183333 235.666667,85 C235.666667,84.0816667 234.918333,83.3333333 234,83.3333333 M224,83.3333333 C223.081667,83.3333333 222.333333,84.0816667 222.333333,85 C222.333333,85.9183333 223.081667,86.6666667 224,86.6666667 C224.918333,86.6666667 225.666667,85.9183333 225.666667,85 C225.666667,84.0816667 224.918333,83.3333333 224,83.3333333 M184,83.3333333 C183.081667,83.3333333 182.333333,84.0816667 182.333333,85 C182.333333,85.9183333 183.081667,86.6666667 184,86.6666667 C184.918333,86.6666667 185.666667,85.9183333 185.666667,85 C185.666667,84.0816667 184.918333,83.3333333 184,83.3333333 M174,83.3333333 C173.081667,83.3333333 172.333333,84.0816667 172.333333,85 C172.333333,85.9183333 173.081667,86.6666667 174,86.6666667 C174.918333,86.6666667 175.666667,85.9183333 175.666667,85 C175.666667,84.0816667 174.918333,83.3333333 174,83.3333333 M164,83.3333333 C163.081667,83.3333333 162.333333,84.0816667 162.333333,85 C162.333333,85.9183333 163.081667,86.6666667 164,86.6666667 C164.918333,86.6666667 165.666667,85.9183333 165.666667,85 C165.666667,84.0816667 164.918333,83.3333333 164,83.3333333 M229,78.3333333 C228.081667,78.3333333 227.333333,79.0816667 227.333333,80 C227.333333,80.9183333 228.081667,81.6666667 229,81.6666667 C229.918333,81.6666667 230.666667,80.9183333 230.666667,80 C230.666667,79.0816667 229.918333,78.3333333 229,78.3333333 M219,78.3333333 C218.081667,78.3333333 217.333333,79.0816667 217.333333,80 C217.333333,80.9183333 218.081667,81.6666667 219,81.6666667 C219.918333,81.6666667 220.666667,80.9183333 220.666667,80 C220.666667,79.0816667 219.918333,78.3333333 219,78.3333333 M189,78.3333333 C188.081667,78.3333333 187.333333,79.0816667 187.333333,80 C187.333333,80.9183333 188.081667,81.6666667 189,81.6666667 C189.918333,81.6666667 190.666667,80.9183333 190.666667,80 C190.666667,79.0816667 189.918333,78.3333333 189,78.3333333 M179,78.3333333 C178.081667,78.3333333 177.333333,79.0816667 177.333333,80 C177.333333,80.9183333 178.081667,81.6666667 179,81.6666667 C179.918333,81.6666667 180.666667,80.9183333 180.666667,80 C180.666667,79.0816667 179.918333,78.3333333 179,78.3333333 M169,78.3333333 C168.081667,78.3333333 167.333333,79.0816667 167.333333,80 C167.333333,80.9183333 168.081667,81.6666667 169,81.6666667 C169.918333,81.6666667 170.666667,80.9183333 170.666667,80 C170.666667,79.0816667 169.918333,78.3333333 169,78.3333333 M159,78.3333333 C158.081667,78.3333333 157.333333,79.0816667 157.333333,80 C157.333333,80.9183333 158.081667,81.6666667 159,81.6666667 C159.918333,81.6666667 160.666667,80.9183333 160.666667,80 C160.666667,79.0816667 159.918333,78.3333333 159,78.3333333 M234,73.3333333 C233.081667,73.3333333 232.333333,74.0816667 232.333333,75 C232.333333,75.9183333 233.081667,76.6666667 234,76.6666667 C234.918333,76.6666667 235.666667,75.9183333 235.666667,75 C235.666667,74.0816667 234.918333,73.3333333 234,73.3333333 M224,73.3333333 C223.081667,73.3333333 222.333333,74.0816667 222.333333,75 C222.333333,75.9183333 223.081667,76.6666667 224,76.6666667 C224.918333,76.6666667 225.666667,75.9183333 225.666667,75 C225.666667,74.0816667 224.918333,73.3333333 224,73.3333333 M184,73.3333333 C183.081667,73.3333333 182.333333,74.0816667 182.333333,75 C182.333333,75.9183333 183.081667,76.6666667 184,76.6666667 C184.918333,76.6666667 185.666667,75.9183333 185.666667,75 C185.666667,74.0816667 184.918333,73.3333333 184,73.3333333 M174,73.3333333 C173.081667,73.3333333 172.333333,74.0816667 172.333333,75 C172.333333,75.9183333 173.081667,76.6666667 174,76.6666667 C174.918333,76.6666667 175.666667,75.9183333 175.666667,75 C175.666667,74.0816667 174.918333,73.3333333 174,73.3333333 M164,73.3333333 C163.081667,73.3333333 162.333333,74.0816667 162.333333,75 C162.333333,75.9183333 163.081667,76.6666667 164,76.6666667 C164.918333,76.6666667 165.666667,75.9183333 165.666667,75 C165.666667,74.0816667 164.918333,73.3333333 164,73.3333333 M154,73.3333333 C153.081667,73.3333333 152.333333,74.0816667 152.333333,75 C152.333333,75.9183333 153.081667,76.6666667 154,76.6666667 C154.918333,76.6666667 155.666667,75.9183333 155.666667,75 C155.666667,74.0816667 154.918333,73.3333333 154,73.3333333 M239,68.3333333 C238.081667,68.3333333 237.333333,69.0816667 237.333333,70 C237.333333,70.9183333 238.081667,71.6666667 239,71.6666667 C239.918333,71.6666667 240.666667,70.9183333 240.666667,70 C240.666667,69.0816667 239.918333,68.3333333 239,68.3333333 M229,68.3333333 C228.081667,68.3333333 227.333333,69.0816667 227.333333,70 C227.333333,70.9183333 228.081667,71.6666667 229,71.6666667 C229.918333,71.6666667 230.666667,70.9183333 230.666667,70 C230.666667,69.0816667 229.918333,68.3333333 229,68.3333333 M219,68.3333333 C218.081667,68.3333333 217.333333,69.0816667 217.333333,70 C217.333333,70.9183333 218.081667,71.6666667 219,71.6666667 C219.918333,71.6666667 220.666667,70.9183333 220.666667,70 C220.666667,69.0816667 219.918333,68.3333333 219,68.3333333 M179,68.3333333 C178.081667,68.3333333 177.333333,69.0816667 177.333333,70 C177.333333,70.9183333 178.081667,71.6666667 179,71.6666667 C179.918333,71.6666667 180.666667,70.9183333 180.666667,70 C180.666667,69.0816667 179.918333,68.3333333 179,68.3333333 M169,68.3333333 C168.081667,68.3333333 167.333333,69.0816667 167.333333,70 C167.333333,70.9183333 168.081667,71.6666667 169,71.6666667 C169.918333,71.6666667 170.666667,70.9183333 170.666667,70 C170.666667,69.0816667 169.918333,68.3333333 169,68.3333333 M159,68.3333333 C158.081667,68.3333333 157.333333,69.0816667 157.333333,70 C157.333333,70.9183333 158.081667,71.6666667 159,71.6666667 C159.918333,71.6666667 160.666667,70.9183333 160.666667,70 C160.666667,69.0816667 159.918333,68.3333333 159,68.3333333 M234,63.3333333 C233.081667,63.3333333 232.333333,64.0816667 232.333333,65 C232.333333,65.9183333 233.081667,66.6666667 234,66.6666667 C234.918333,66.6666667 235.666667,65.9183333 235.666667,65 C235.666667,64.0816667 234.918333,63.3333333 234,63.3333333 M224,63.3333333 C223.081667,63.3333333 222.333333,64.0816667 222.333333,65 C222.333333,65.9183333 223.081667,66.6666667 224,66.6666667 C224.918333,66.6666667 225.666667,65.9183333 225.666667,65 C225.666667,64.0816667 224.918333,63.3333333 224,63.3333333 M214,63.3333333 C213.081667,63.3333333 212.333333,64.0816667 212.333333,65 C212.333333,65.9183333 213.081667,66.6666667 214,66.6666667 C214.918333,66.6666667 215.666667,65.9183333 215.666667,65 C215.666667,64.0816667 214.918333,63.3333333 214,63.3333333 M204,63.3333333 C203.081667,63.3333333 202.333333,64.0816667 202.333333,65 C202.333333,65.9183333 203.081667,66.6666667 204,66.6666667 C204.918333,66.6666667 205.666667,65.9183333 205.666667,65 C205.666667,64.0816667 204.918333,63.3333333 204,63.3333333 M174,63.3333333 C173.081667,63.3333333 172.333333,64.0816667 172.333333,65 C172.333333,65.9183333 173.081667,66.6666667 174,66.6666667 C174.918333,66.6666667 175.666667,65.9183333 175.666667,65 C175.666667,64.0816667 174.918333,63.3333333 174,63.3333333 M164,63.3333333 C163.081667,63.3333333 162.333333,64.0816667 162.333333,65 C162.333333,65.9183333 163.081667,66.6666667 164,66.6666667 C164.918333,66.6666667 165.666667,65.9183333 165.666667,65 C165.666667,64.0816667 164.918333,63.3333333 164,63.3333333 M154,63.3333333 C153.081667,63.3333333 152.333333,64.0816667 152.333333,65 C152.333333,65.9183333 153.081667,66.6666667 154,66.6666667 C154.918333,66.6666667 155.666667,65.9183333 155.666667,65 C155.666667,64.0816667 154.918333,63.3333333 154,63.3333333 M239,58.3333333 C238.081667,58.3333333 237.333333,59.0816667 237.333333,60 C237.333333,60.9183333 238.081667,61.6666667 239,61.6666667 C239.918333,61.6666667 240.666667,60.9183333 240.666667,60 C240.666667,59.0816667 239.918333,58.3333333 239,58.3333333 M229,58.3333333 C228.081667,58.3333333 227.333333,59.0816667 227.333333,60 C227.333333,60.9183333 228.081667,61.6666667 229,61.6666667 C229.918333,61.6666667 230.666667,60.9183333 230.666667,60 C230.666667,59.0816667 229.918333,58.3333333 229,58.3333333 M219,58.3333333 C218.081667,58.3333333 217.333333,59.0816667 217.333333,60 C217.333333,60.9183333 218.081667,61.6666667 219,61.6666667 C219.918333,61.6666667 220.666667,60.9183333 220.666667,60 C220.666667,59.0816667 219.918333,58.3333333 219,58.3333333 M209,58.3333333 C208.081667,58.3333333 207.333333,59.0816667 207.333333,60 C207.333333,60.9183333 208.081667,61.6666667 209,61.6666667 C209.918333,61.6666667 210.666667,60.9183333 210.666667,60 C210.666667,59.0816667 209.918333,58.3333333 209,58.3333333 M199,58.3333333 C198.081667,58.3333333 197.333333,59.0816667 197.333333,60 C197.333333,60.9183333 198.081667,61.6666667 199,61.6666667 C199.918333,61.6666667 200.666667,60.9183333 200.666667,60 C200.666667,59.0816667 199.918333,58.3333333 199,58.3333333 M169,58.3333333 C168.081667,58.3333333 167.333333,59.0816667 167.333333,60 C167.333333,60.9183333 168.081667,61.6666667 169,61.6666667 C169.918333,61.6666667 170.666667,60.9183333 170.666667,60 C170.666667,59.0816667 169.918333,58.3333333 169,58.3333333 M159,58.3333333 C158.081667,58.3333333 157.333333,59.0816667 157.333333,60 C157.333333,60.9183333 158.081667,61.6666667 159,61.6666667 C159.918333,61.6666667 160.666667,60.9183333 160.666667,60 C160.666667,59.0816667 159.918333,58.3333333 159,58.3333333 M149,58.3333333 C148.081667,58.3333333 147.333333,59.0816667 147.333333,60 C147.333333,60.9183333 148.081667,61.6666667 149,61.6666667 C149.918333,61.6666667 150.666667,60.9183333 150.666667,60 C150.666667,59.0816667 149.918333,58.3333333 149,58.3333333 M234,53.3333333 C233.081667,53.3333333 232.333333,54.0816667 232.333333,55 C232.333333,55.9183333 233.081667,56.6666667 234,56.6666667 C234.918333,56.6666667 235.666667,55.9183333 235.666667,55 C235.666667,54.0816667 234.918333,53.3333333 234,53.3333333 M224,53.3333333 C223.081667,53.3333333 222.333333,54.0816667 222.333333,55 C222.333333,55.9183333 223.081667,56.6666667 224,56.6666667 C224.918333,56.6666667 225.666667,55.9183333 225.666667,55 C225.666667,54.0816667 224.918333,53.3333333 224,53.3333333 M214,53.3333333 C213.081667,53.3333333 212.333333,54.0816667 212.333333,55 C212.333333,55.9183333 213.081667,56.6666667 214,56.6666667 C214.918333,56.6666667 215.666667,55.9183333 215.666667,55 C215.666667,54.0816667 214.918333,53.3333333 214,53.3333333 M204,53.3333333 C203.081667,53.3333333 202.333333,54.0816667 202.333333,55 C202.333333,55.9183333 203.081667,56.6666667 204,56.6666667 C204.918333,56.6666667 205.666667,55.9183333 205.666667,55 C205.666667,54.0816667 204.918333,53.3333333 204,53.3333333 M239,48.3333333 C238.081667,48.3333333 237.333333,49.0816667 237.333333,50 C237.333333,50.9183333 238.081667,51.6666667 239,51.6666667 C239.918333,51.6666667 240.666667,50.9183333 240.666667,50 C240.666667,49.0816667 239.918333,48.3333333 239,48.3333333 M229,48.3333333 C228.081667,48.3333333 227.333333,49.0816667 227.333333,50 C227.333333,50.9183333 228.081667,51.6666667 229,51.6666667 C229.918333,51.6666667 230.666667,50.9183333 230.666667,50 C230.666667,49.0816667 229.918333,48.3333333 229,48.3333333 M219,48.3333333 C218.081667,48.3333333 217.333333,49.0816667 217.333333,50 C217.333333,50.9183333 218.081667,51.6666667 219,51.6666667 C219.918333,51.6666667 220.666667,50.9183333 220.666667,50 C220.666667,49.0816667 219.918333,48.3333333 219,48.3333333 M209,48.3333333 C208.081667,48.3333333 207.333333,49.0816667 207.333333,50 C207.333333,50.9183333 208.081667,51.6666667 209,51.6666667 C209.918333,51.6666667 210.666667,50.9183333 210.666667,50 C210.666667,49.0816667 209.918333,48.3333333 209,48.3333333 M149,48.3333333 C148.081667,48.3333333 147.333333,49.0816667 147.333333,50 C147.333333,50.9183333 148.081667,51.6666667 149,51.6666667 C149.918333,51.6666667 150.666667,50.9183333 150.666667,50 C150.666667,49.0816667 149.918333,48.3333333 149,48.3333333 M234,43.3333333 C233.081667,43.3333333 232.333333,44.0816667 232.333333,45 C232.333333,45.9183333 233.081667,46.6666667 234,46.6666667 C234.918333,46.6666667 235.666667,45.9183333 235.666667,45 C235.666667,44.0816667 234.918333,43.3333333 234,43.3333333 M224,43.3333333 C223.081667,43.3333333 222.333333,44.0816667 222.333333,45 C222.333333,45.9183333 223.081667,46.6666667 224,46.6666667 C224.918333,46.6666667 225.666667,45.9183333 225.666667,45 C225.666667,44.0816667 224.918333,43.3333333 224,43.3333333 M214,43.3333333 C213.081667,43.3333333 212.333333,44.0816667 212.333333,45 C212.333333,45.9183333 213.081667,46.6666667 214,46.6666667 C214.918333,46.6666667 215.666667,45.9183333 215.666667,45 C215.666667,44.0816667 214.918333,43.3333333 214,43.3333333 M204,43.3333333 C203.081667,43.3333333 202.333333,44.0816667 202.333333,45 C202.333333,45.9183333 203.081667,46.6666667 204,46.6666667 C204.918333,46.6666667 205.666667,45.9183333 205.666667,45 C205.666667,44.0816667 204.918333,43.3333333 204,43.3333333 M154,43.3333333 C153.081667,43.3333333 152.333333,44.0816667 152.333333,45 C152.333333,45.9183333 153.081667,46.6666667 154,46.6666667 C154.918333,46.6666667 155.666667,45.9183333 155.666667,45 C155.666667,44.0816667 154.918333,43.3333333 154,43.3333333 M239,38.3333333 C238.081667,38.3333333 237.333333,39.0816667 237.333333,40 C237.333333,40.9183333 238.081667,41.6666667 239,41.6666667 C239.918333,41.6666667 240.666667,40.9183333 240.666667,40 C240.666667,39.0816667 239.918333,38.3333333 239,38.3333333 M229,38.3333333 C228.081667,38.3333333 227.333333,39.0816667 227.333333,40 C227.333333,40.9183333 228.081667,41.6666667 229,41.6666667 C229.918333,41.6666667 230.666667,40.9183333 230.666667,40 C230.666667,39.0816667 229.918333,38.3333333 229,38.3333333 M219,38.3333333 C218.081667,38.3333333 217.333333,39.0816667 217.333333,40 C217.333333,40.9183333 218.081667,41.6666667 219,41.6666667 C219.918333,41.6666667 220.666667,40.9183333 220.666667,40 C220.666667,39.0816667 219.918333,38.3333333 219,38.3333333 M209,38.3333333 C208.081667,38.3333333 207.333333,39.0816667 207.333333,40 C207.333333,40.9183333 208.081667,41.6666667 209,41.6666667 C209.918333,41.6666667 210.666667,40.9183333 210.666667,40 C210.666667,39.0816667 209.918333,38.3333333 209,38.3333333 M159,38.3333333 C158.081667,38.3333333 157.333333,39.0816667 157.333333,40 C157.333333,40.9183333 158.081667,41.6666667 159,41.6666667 C159.918333,41.6666667 160.666667,40.9183333 160.666667,40 C160.666667,39.0816667 159.918333,38.3333333 159,38.3333333 M149,38.3333333 C148.081667,38.3333333 147.333333,39.0816667 147.333333,40 C147.333333,40.9183333 148.081667,41.6666667 149,41.6666667 C149.918333,41.6666667 150.666667,40.9183333 150.666667,40 C150.666667,39.0816667 149.918333,38.3333333 149,38.3333333 M234,33.3333333 C233.081667,33.3333333 232.333333,34.0816667 232.333333,35 C232.333333,35.9183333 233.081667,36.6666667 234,36.6666667 C234.918333,36.6666667 235.666667,35.9183333 235.666667,35 C235.666667,34.0816667 234.918333,33.3333333 234,33.3333333 M224,33.3333333 C223.081667,33.3333333 222.333333,34.0816667 222.333333,35 C222.333333,35.9183333 223.081667,36.6666667 224,36.6666667 C224.918333,36.6666667 225.666667,35.9183333 225.666667,35 C225.666667,34.0816667 224.918333,33.3333333 224,33.3333333 M214,33.3333333 C213.081667,33.3333333 212.333333,34.0816667 212.333333,35 C212.333333,35.9183333 213.081667,36.6666667 214,36.6666667 C214.918333,36.6666667 215.666667,35.9183333 215.666667,35 C215.666667,34.0816667 214.918333,33.3333333 214,33.3333333 M174,33.3333333 C173.081667,33.3333333 172.333333,34.0816667 172.333333,35 C172.333333,35.9183333 173.081667,36.6666667 174,36.6666667 C174.918333,36.6666667 175.666667,35.9183333 175.666667,35 C175.666667,34.0816667 174.918333,33.3333333 174,33.3333333 M164,33.3333333 C163.081667,33.3333333 162.333333,34.0816667 162.333333,35 C162.333333,35.9183333 163.081667,36.6666667 164,36.6666667 C164.918333,36.6666667 165.666667,35.9183333 165.666667,35 C165.666667,34.0816667 164.918333,33.3333333 164,33.3333333 M154,33.3333333 C153.081667,33.3333333 152.333333,34.0816667 152.333333,35 C152.333333,35.9183333 153.081667,36.6666667 154,36.6666667 C154.918333,36.6666667 155.666667,35.9183333 155.666667,35 C155.666667,34.0816667 154.918333,33.3333333 154,33.3333333 M229,28.3333333 C228.081667,28.3333333 227.333333,29.0816667 227.333333,30 C227.333333,30.9183333 228.081667,31.6666667 229,31.6666667 C229.918333,31.6666667 230.666667,30.9183333 230.666667,30 C230.666667,29.0816667 229.918333,28.3333333 229,28.3333333 M219,28.3333333 C218.081667,28.3333333 217.333333,29.0816667 217.333333,30 C217.333333,30.9183333 218.081667,31.6666667 219,31.6666667 C219.918333,31.6666667 220.666667,30.9183333 220.666667,30 C220.666667,29.0816667 219.918333,28.3333333 219,28.3333333 M209,28.3333333 C208.081667,28.3333333 207.333333,29.0816667 207.333333,30 C207.333333,30.9183333 208.081667,31.6666667 209,31.6666667 C209.918333,31.6666667 210.666667,30.9183333 210.666667,30 C210.666667,29.0816667 209.918333,28.3333333 209,28.3333333 M179,28.3333333 C178.081667,28.3333333 177.333333,29.0816667 177.333333,30 C177.333333,30.9183333 178.081667,31.6666667 179,31.6666667 C179.918333,31.6666667 180.666667,30.9183333 180.666667,30 C180.666667,29.0816667 179.918333,28.3333333 179,28.3333333 M169,28.3333333 C168.081667,28.3333333 167.333333,29.0816667 167.333333,30 C167.333333,30.9183333 168.081667,31.6666667 169,31.6666667 C169.918333,31.6666667 170.666667,30.9183333 170.666667,30 C170.666667,29.0816667 169.918333,28.3333333 169,28.3333333 M159,28.3333333 C158.081667,28.3333333 157.333333,29.0816667 157.333333,30 C157.333333,30.9183333 158.081667,31.6666667 159,31.6666667 C159.918333,31.6666667 160.666667,30.9183333 160.666667,30 C160.666667,29.0816667 159.918333,28.3333333 159,28.3333333 M234,23.3333333 C233.081667,23.3333333 232.333333,24.0816667 232.333333,25 C232.333333,25.9183333 233.081667,26.6666667 234,26.6666667 C234.918333,26.6666667 235.666667,25.9183333 235.666667,25 C235.666667,24.0816667 234.918333,23.3333333 234,23.3333333 M224,23.3333333 C223.081667,23.3333333 222.333333,24.0816667 222.333333,25 C222.333333,25.9183333 223.081667,26.6666667 224,26.6666667 C224.918333,26.6666667 225.666667,25.9183333 225.666667,25 C225.666667,24.0816667 224.918333,23.3333333 224,23.3333333 M214,23.3333333 C213.081667,23.3333333 212.333333,24.0816667 212.333333,25 C212.333333,25.9183333 213.081667,26.6666667 214,26.6666667 C214.918333,26.6666667 215.666667,25.9183333 215.666667,25 C215.666667,24.0816667 214.918333,23.3333333 214,23.3333333 M174,23.3333333 C173.081667,23.3333333 172.333333,24.0816667 172.333333,25 C172.333333,25.9183333 173.081667,26.6666667 174,26.6666667 C174.918333,26.6666667 175.666667,25.9183333 175.666667,25 C175.666667,24.0816667 174.918333,23.3333333 174,23.3333333 M164,23.3333333 C163.081667,23.3333333 162.333333,24.0816667 162.333333,25 C162.333333,25.9183333 163.081667,26.6666667 164,26.6666667 C164.918333,26.6666667 165.666667,25.9183333 165.666667,25 C165.666667,24.0816667 164.918333,23.3333333 164,23.3333333 M154,23.3333333 C153.081667,23.3333333 152.333333,24.0816667 152.333333,25 C152.333333,25.9183333 153.081667,26.6666667 154,26.6666667 C154.918333,26.6666667 155.666667,25.9183333 155.666667,25 C155.666667,24.0816667 154.918333,23.3333333 154,23.3333333 M229,18.3333333 C228.081667,18.3333333 227.333333,19.0816667 227.333333,20 C227.333333,20.9183333 228.081667,21.6666667 229,21.6666667 C229.918333,21.6666667 230.666667,20.9183333 230.666667,20 C230.666667,19.0816667 229.918333,18.3333333 229,18.3333333 M219,18.3333333 C218.081667,18.3333333 217.333333,19.0816667 217.333333,20 C217.333333,20.9183333 218.081667,21.6666667 219,21.6666667 C219.918333,21.6666667 220.666667,20.9183333 220.666667,20 C220.666667,19.0816667 219.918333,18.3333333 219,18.3333333 M199,18.3333333 C198.081667,18.3333333 197.333333,19.0816667 197.333333,20 C197.333333,20.9183333 198.081667,21.6666667 199,21.6666667 C199.918333,21.6666667 200.666667,20.9183333 200.666667,20 C200.666667,19.0816667 199.918333,18.3333333 199,18.3333333 M189,18.3333333 C188.081667,18.3333333 187.333333,19.0816667 187.333333,20 C187.333333,20.9183333 188.081667,21.6666667 189,21.6666667 C189.918333,21.6666667 190.666667,20.9183333 190.666667,20 C190.666667,19.0816667 189.918333,18.3333333 189,18.3333333 M179,18.3333333 C178.081667,18.3333333 177.333333,19.0816667 177.333333,20 C177.333333,20.9183333 178.081667,21.6666667 179,21.6666667 C179.918333,21.6666667 180.666667,20.9183333 180.666667,20 C180.666667,19.0816667 179.918333,18.3333333 179,18.3333333 M169,18.3333333 C168.081667,18.3333333 167.333333,19.0816667 167.333333,20 C167.333333,20.9183333 168.081667,21.6666667 169,21.6666667 C169.918333,21.6666667 170.666667,20.9183333 170.666667,20 C170.666667,19.0816667 169.918333,18.3333333 169,18.3333333 M159,18.3333333 C158.081667,18.3333333 157.333333,19.0816667 157.333333,20 C157.333333,20.9183333 158.081667,21.6666667 159,21.6666667 C159.918333,21.6666667 160.666667,20.9183333 160.666667,20 C160.666667,19.0816667 159.918333,18.3333333 159,18.3333333 M224,13.3333333 C223.081667,13.3333333 222.333333,14.0816667 222.333333,15 C222.333333,15.9183333 223.081667,16.6666667 224,16.6666667 C224.918333,16.6666667 225.666667,15.9183333 225.666667,15 C225.666667,14.0816667 224.918333,13.3333333 224,13.3333333 M194,13.3333333 C193.081667,13.3333333 192.333333,14.0816667 192.333333,15 C192.333333,15.9183333 193.081667,16.6666667 194,16.6666667 C194.918333,16.6666667 195.666667,15.9183333 195.666667,15 C195.666667,14.0816667 194.918333,13.3333333 194,13.3333333 M184,13.3333333 C183.081667,13.3333333 182.333333,14.0816667 182.333333,15 C182.333333,15.9183333 183.081667,16.6666667 184,16.6666667 C184.918333,16.6666667 185.666667,15.9183333 185.666667,15 C185.666667,14.0816667 184.918333,13.3333333 184,13.3333333 M174,13.3333333 C173.081667,13.3333333 172.333333,14.0816667 172.333333,15 C172.333333,15.9183333 173.081667,16.6666667 174,16.6666667 C174.918333,16.6666667 175.666667,15.9183333 175.666667,15 C175.666667,14.0816667 174.918333,13.3333333 174,13.3333333 M164,13.3333333 C163.081667,13.3333333 162.333333,14.0816667 162.333333,15 C162.333333,15.9183333 163.081667,16.6666667 164,16.6666667 C164.918333,16.6666667 165.666667,15.9183333 165.666667,15 C165.666667,14.0816667 164.918333,13.3333333 164,13.3333333 M199,8.33333333 C198.081667,8.33333333 197.333333,9.08166667 197.333333,10 C197.333333,10.9183333 198.081667,11.6666667 199,11.6666667 C199.918333,11.6666667 200.666667,10.9183333 200.666667,10 C200.666667,9.08166667 199.918333,8.33333333 199,8.33333333 M189,8.33333333 C188.081667,8.33333333 187.333333,9.08166667 187.333333,10 C187.333333,10.9183333 188.081667,11.6666667 189,11.6666667 C189.918333,11.6666667 190.666667,10.9183333 190.666667,10 C190.666667,9.08166667 189.918333,8.33333333 189,8.33333333 M179,8.33333333 C178.081667,8.33333333 177.333333,9.08166667 177.333333,10 C177.333333,10.9183333 178.081667,11.6666667 179,11.6666667 C179.918333,11.6666667 180.666667,10.9183333 180.666667,10 C180.666667,9.08166667 179.918333,8.33333333 179,8.33333333 M245.666667,55 C245.666667,54.0816667 244.918333,53.3333333 244,53.3333333 C243.081667,53.3333333 242.333333,54.0816667 242.333333,55 C242.333333,55.9183333 243.081667,56.6666667 244,56.6666667 C244.918333,56.6666667 245.666667,55.9183333 245.666667,55 M142.333333,55 C142.333333,55.9183333 143.081667,56.6666667 144,56.6666667 C144.918333,56.6666667 145.666667,55.9183333 145.666667,55 C145.666667,54.0816667 144.918333,53.3333333 144,53.3333333 C143.081667,53.3333333 142.333333,54.0816667 142.333333,55 M194,3.33333333 C212.848333,3.33333333 229.318333,13.405 238.348333,28.4633333 C237.75,28.7233333 237.333333,29.31 237.333333,30 C237.333333,30.9183333 238.081667,31.6666667 239,31.6666667 C239.358333,31.6666667 239.663333,31.53 239.936667,31.3416667 C241.883333,35.1166667 243.375,39.1533333 244.345,43.405 C244.235,43.3783333 244.123333,43.3333333 244,43.3333333 C243.081667,43.3333333 242.333333,44.0816667 242.333333,45 C242.333333,45.9183333 243.081667,46.6666667 244,46.6666667 C244.351667,46.6666667 244.663333,46.53 244.931667,46.3483333 C245.406667,49.16 245.666667,52.05 245.666667,55 C245.666667,57.95 245.406667,60.84 244.931667,63.6516667 C244.663333,63.47 244.351667,63.3333333 244,63.3333333 C243.081667,63.3333333 242.333333,64.0816667 242.333333,65 C242.333333,65.9183333 243.081667,66.6666667 244,66.6666667 C244.123333,66.6666667 244.235,66.6216667 244.345,66.595 C243.375,70.8466667 241.883333,74.8833333 239.936667,78.6583333 C239.663333,78.47 239.358333,78.3333333 239,78.3333333 C238.081667,78.3333333 237.333333,79.0816667 237.333333,80 C237.333333,80.69 237.75,81.2766667 238.348333,81.5366667 C233.966667,88.8416667 227.841667,94.9666667 220.536667,99.3483333 C220.276667,98.75 219.69,98.3333333 219,98.3333333 C218.081667,98.3333333 217.333333,99.0816667 217.333333,100 C217.333333,100.358333 217.47,100.663333 217.658333,100.936667 C210.568333,104.59 202.528333,106.666667 194,106.666667 C191.05,106.666667 188.16,106.406667 185.348333,105.931667 C185.53,105.663333 185.666667,105.351667 185.666667,105 C185.666667,104.081667 184.918333,103.333333 184,103.333333 C183.081667,103.333333 182.333333,104.081667 182.333333,105 C182.333333,105.123333 182.378333,105.235 182.405,105.345 C159.443333,100.091667 142.333333,79.5633333 142.333333,55 C142.333333,52.05 142.593333,49.16 143.068333,46.3483333 C143.336667,46.53 143.648333,46.6666667 144,46.6666667 C144.918333,46.6666667 145.666667,45.9183333 145.666667,45 C145.666667,44.0816667 144.918333,43.3333333 144,43.3333333 C143.876667,43.3333333 143.765,43.3783333 143.648333,43.405 C144.625,39.1533333 146.116667,35.1166667 148.063333,31.3416667 C148.336667,31.53 148.641667,31.6666667 149,31.6666667 C149.918333,31.6666667 150.666667,30.9183333 150.666667,30 C150.666667,29.31 150.25,28.7233333 149.651667,28.4633333 C154.033333,21.1583333 160.158333,15.0333333 167.463333,10.6516667 C167.723333,11.25 168.31,11.6666667 169,11.6666667 C169.918333,11.6666667 170.666667,10.9183333 170.666667,10 C170.666667,9.64166667 170.53,9.33666667 170.341667,9.06166667 C174.116667,7.11666667 178.153333,5.625 182.405,4.64833333 C182.378333,4.765 182.333333,4.87666667 182.333333,5 C182.333333,5.91833333 183.081667,6.66666667 184,6.66666667 C184.918333,6.66666667 185.666667,5.91833333 185.666667,5 C185.666667,4.64833333 185.53,4.33666667 185.348333,4.06833333 C188.16,3.59333333 191.05,3.33333333 194,3.33333333 M194,0 C163.641667,0 139,24.6416667 139,55 C139,85.3583333 163.641667,110 194,110 C224.358333,110 249,85.3583333 249,55 C249,24.6416667 224.358333,0 194,0" id="Page-1"></path>
            </g>
        </g>
    </g>
</svg>