<?xml version="1.0" encoding="UTF-8"?>
<svg width="113px" height="80px" viewBox="0 0 113 80" version="1.1" xmlns="http://www.w3.org/2000/svg" xmlns:xlink="http://www.w3.org/1999/xlink">
    <!-- Generator: Sketch 49.1 (51147) - http://www.bohemiancoding.com/sketch -->
    <title>Page 1</title>
    <desc>Created with Sketch.</desc>
    <defs></defs>
    <g id="Page-1" stroke="none" stroke-width="1" fill="none" fill-rule="evenodd">
        <g id="Products" transform="translate(-138.000000, -1129.000000)" fill="#64FAFA">
            <path d="M239.367647,1194 C238.452015,1194 237.705882,1194.74833 237.705882,1195.66667 C237.705882,1196.585 238.452015,1197.33333 239.367647,1197.33333 C240.283279,1197.33333 241.029412,1196.585 241.029412,1195.66667 C241.029412,1194.74833 240.283279,1194 239.367647,1194 Z M149.632353,1194 C148.716721,1194 147.970588,1194.74833 147.970588,1195.66667 C147.970588,1196.585 148.716721,1197.33333 149.632353,1197.33333 C150.547985,1197.33333 151.294118,1196.585 151.294118,1195.66667 C151.294118,1194.74833 150.547985,1194 149.632353,1194 Z M239.367647,1187.33333 C238.452015,1187.33333 237.705882,1188.08167 237.705882,1189 C237.705882,1189.91833 238.452015,1190.66667 239.367647,1190.66667 C240.283279,1190.66667 241.029412,1189.91833 241.029412,1189 C241.029412,1188.08167 240.283279,1187.33333 239.367647,1187.33333 Z M149.632353,1187.33333 C148.716721,1187.33333 147.970588,1188.08167 147.970588,1189 C147.970588,1189.91833 148.716721,1190.66667 149.632353,1190.66667 C150.547985,1190.66667 151.294118,1189.91833 151.294118,1189 C151.294118,1188.08167 150.547985,1187.33333 149.632353,1187.33333 Z M239.367647,1180.66667 C238.452015,1180.66667 237.705882,1181.415 237.705882,1182.33333 C237.705882,1183.25167 238.452015,1184 239.367647,1184 C240.283279,1184 241.029412,1183.25167 241.029412,1182.33333 C241.029412,1181.415 240.283279,1180.66667 239.367647,1180.66667 Z M149.632353,1180.66667 C148.716721,1180.66667 147.970588,1181.415 147.970588,1182.33333 C147.970588,1183.25167 148.716721,1184 149.632353,1184 C150.547985,1184 151.294118,1183.25167 151.294118,1182.33333 C151.294118,1181.415 150.547985,1180.66667 149.632353,1180.66667 Z M239.367647,1174 C238.452015,1174 237.705882,1174.74833 237.705882,1175.66667 C237.705882,1176.585 238.452015,1177.33333 239.367647,1177.33333 C240.283279,1177.33333 241.029412,1176.585 241.029412,1175.66667 C241.029412,1174.74833 240.283279,1174 239.367647,1174 Z M149.632353,1174 C148.716721,1174 147.970588,1174.74833 147.970588,1175.66667 C147.970588,1176.585 148.716721,1177.33333 149.632353,1177.33333 C150.547985,1177.33333 151.294118,1176.585 151.294118,1175.66667 C151.294118,1174.74833 150.547985,1174 149.632353,1174 Z M206.002735,1173.94833 C208.475441,1173.94833 210.040824,1176.265 210.040824,1179.99 C210.040824,1183.635 208.417279,1186.05667 206.002735,1186.05667 C203.548309,1186.05667 201.926426,1183.66167 201.926426,1179.99 C201.926426,1176.325 203.523382,1173.94833 206.002735,1173.94833 Z M206.002735,1170.42 C201.049015,1170.42 197.524412,1174.39 197.524412,1179.99 C197.524412,1185.62167 201.049015,1189.59167 206.002735,1189.59167 C210.948147,1189.59167 214.441176,1185.62167 214.441176,1179.99 C214.441176,1174.365 210.948147,1170.42 206.002735,1170.42 Z M239.367647,1167.33333 C238.452015,1167.33333 237.705882,1168.08167 237.705882,1169 C237.705882,1169.91833 238.452015,1170.66667 239.367647,1170.66667 C240.283279,1170.66667 241.029412,1169.91833 241.029412,1169 C241.029412,1168.08167 240.283279,1167.33333 239.367647,1167.33333 Z M149.632353,1167.33333 C148.716721,1167.33333 147.970588,1168.08167 147.970588,1169 C147.970588,1169.91833 148.716721,1170.66667 149.632353,1170.66667 C150.547985,1170.66667 151.294118,1169.91833 151.294118,1169 C151.294118,1168.08167 150.547985,1167.33333 149.632353,1167.33333 Z M239.367647,1160.66667 C238.452015,1160.66667 237.705882,1161.415 237.705882,1162.33333 C237.705882,1163.25167 238.452015,1164 239.367647,1164 C240.283279,1164 241.029412,1163.25167 241.029412,1162.33333 C241.029412,1161.415 240.283279,1160.66667 239.367647,1160.66667 Z M149.632353,1160.66667 C148.716721,1160.66667 147.970588,1161.415 147.970588,1162.33333 C147.970588,1163.25167 148.716721,1164 149.632353,1164 C150.547985,1164 151.294118,1163.25167 151.294118,1162.33333 C151.294118,1161.415 150.547985,1160.66667 149.632353,1160.66667 Z M239.367647,1154 C238.452015,1154 237.705882,1154.74833 237.705882,1155.66667 C237.705882,1156.585 238.452015,1157.33333 239.367647,1157.33333 C240.283279,1157.33333 241.029412,1156.585 241.029412,1155.66667 C241.029412,1154.74833 240.283279,1154 239.367647,1154 Z M149.632353,1154 C148.716721,1154 147.970588,1154.74833 147.970588,1155.66667 C147.970588,1156.585 148.716721,1157.33333 149.632353,1157.33333 C150.547985,1157.33333 151.294118,1156.585 151.294118,1155.66667 C151.294118,1154.74833 150.547985,1154 149.632353,1154 Z M183.0305,1151.94333 C185.503206,1151.94333 187.073574,1154.25333 187.073574,1157.985 C187.073574,1161.62333 185.451691,1164.05167 183.0305,1164.05167 C180.582721,1164.05167 178.959176,1161.65 178.959176,1157.985 C178.959176,1154.31333 180.556132,1151.94333 183.0305,1151.94333 Z M206.599309,1149.09833 L192.682029,1168.16 L177.525074,1188.90167 L182.588471,1188.90167 L196.206632,1170.22333 L211.611191,1149.09833 L206.599309,1149.09833 Z M183.0305,1148.40833 C178.076779,1148.40833 174.558824,1152.37833 174.558824,1157.985 C174.558824,1163.61 178.076779,1167.58 183.0305,1167.58 C187.982559,1167.58 191.475588,1163.61 191.475588,1157.985 C191.475588,1152.35333 187.982559,1148.40833 183.0305,1148.40833 Z M239.367647,1147.33333 C238.452015,1147.33333 237.705882,1148.08167 237.705882,1149 C237.705882,1149.91833 238.452015,1150.66667 239.367647,1150.66667 C240.283279,1150.66667 241.029412,1149.91833 241.029412,1149 C241.029412,1148.08167 240.283279,1147.33333 239.367647,1147.33333 Z M149.632353,1147.33333 C148.716721,1147.33333 147.970588,1148.08167 147.970588,1149 C147.970588,1149.91833 148.716721,1150.66667 149.632353,1150.66667 C150.547985,1150.66667 151.294118,1149.91833 151.294118,1149 C151.294118,1148.08167 150.547985,1147.33333 149.632353,1147.33333 Z M239.367647,1140.66667 C238.452015,1140.66667 237.705882,1141.415 237.705882,1142.33333 C237.705882,1143.25167 238.452015,1144 239.367647,1144 C240.283279,1144 241.029412,1143.25167 241.029412,1142.33333 C241.029412,1141.415 240.283279,1140.66667 239.367647,1140.66667 Z M149.632353,1140.66667 C148.716721,1140.66667 147.970588,1141.415 147.970588,1142.33333 C147.970588,1143.25167 148.716721,1144 149.632353,1144 C150.547985,1144 151.294118,1143.25167 151.294118,1142.33333 C151.294118,1141.415 150.547985,1140.66667 149.632353,1140.66667 Z M146.308824,1132.33333 L242.691176,1132.33333 C245.463,1132.33333 247.676471,1134.55333 247.676471,1137.33333 L247.676471,1200.66667 C247.676471,1203.44667 245.463,1205.66667 242.691176,1205.66667 L146.308824,1205.66667 C143.537,1205.66667 141.323529,1203.44667 141.323529,1200.66667 L141.323529,1137.33333 C141.323529,1134.55333 143.537,1132.33333 146.308824,1132.33333 Z M146.308824,1129 C141.738971,1129 138,1132.75 138,1137.33333 L138,1200.66667 C138,1205.25 141.738971,1209 146.308824,1209 L242.691176,1209 C247.261029,1209 251,1205.25 251,1200.66667 L251,1137.33333 C251,1132.75 247.261029,1129 242.691176,1129 L146.308824,1129 Z" id="Page-1"></path>
        </g>
    </g>
</svg>