<?xml version="1.0" encoding="UTF-8"?>
<svg width="140px" height="140px" viewBox="0 0 140 140" version="1.1" xmlns="http://www.w3.org/2000/svg" xmlns:xlink="http://www.w3.org/1999/xlink">
    <!-- Generator: Sketch 49.1 (51147) - http://www.bohemiancoding.com/sketch -->
    <title>Page 1</title>
    <desc>Created with Sketch.</desc>
    <defs></defs>
    <g id="Page-1" stroke="none" stroke-width="1" fill="none" fill-rule="evenodd">
        <path d="M96.5241458,110.451792 C95.4348019,110.451792 94.5542653,111.332329 94.5542653,112.421673 C94.5542653,113.511017 95.4348019,114.391553 96.5241458,114.391553 C97.6134897,114.391553 98.4940263,113.511017 98.4940263,112.421673 C98.4940263,111.332329 97.6134897,110.451792 96.5241458,110.451792 Z M88.6446237,110.451792 C87.5552798,110.451792 86.6747432,111.332329 86.6747432,112.421673 C86.6747432,113.511017 87.5552798,114.391553 88.6446237,114.391553 C89.7339676,114.391553 90.6145042,113.511017 90.6145042,112.421673 C90.6145042,111.332329 89.7339676,110.451792 88.6446237,110.451792 Z M80.7651016,110.451792 C79.6757577,110.451792 78.7952211,111.332329 78.7952211,112.421673 C78.7952211,113.511017 79.6757577,114.391553 80.7651016,114.391553 C81.8544455,114.391553 82.7349821,113.511017 82.7349821,112.421673 C82.7349821,111.332329 81.8544455,110.451792 80.7651016,110.451792 Z M72.8855795,110.451792 C71.7962356,110.451792 70.915699,111.332329 70.915699,112.421673 C70.915699,113.511017 71.7962356,114.391553 72.8855795,114.391553 C73.9749234,114.391553 74.85546,113.511017 74.85546,112.421673 C74.85546,111.332329 73.9749234,110.451792 72.8855795,110.451792 Z M65.0060574,104.542151 L135.921756,104.542151 L135.921756,134.090358 C135.921756,135.203341 135.064858,136.060239 133.951876,136.060239 L66.9759379,136.060239 C65.8629554,136.060239 65.0060574,135.203341 65.0060574,134.090358 L65.0060574,104.542151 Z M57.1265353,104.542151 C56.0391612,104.542151 55.1566547,105.422687 55.1566547,106.512031 C55.1566547,107.601375 56.0391612,108.481912 57.1265353,108.481912 C58.2139093,108.481912 59.0964158,107.601375 59.0964158,106.512031 C59.0964158,105.422687 58.2139093,104.542151 57.1265353,104.542151 Z M49.2470132,104.542151 C48.1596391,104.542151 47.2771326,105.422687 47.2771326,106.512031 C47.2771326,107.601375 48.1596391,108.481912 49.2470132,108.481912 C50.3343872,108.481912 51.2168937,107.601375 51.2168937,106.512031 C51.2168937,105.422687 50.3343872,104.542151 49.2470132,104.542151 Z M41.3674911,104.542151 C40.280117,104.542151 39.3976105,105.422687 39.3976105,106.512031 C39.3976105,107.601375 40.280117,108.481912 41.3674911,108.481912 C42.4548651,108.481912 43.3373716,107.601375 43.3373716,106.512031 C43.3373716,105.422687 42.4548651,104.542151 41.3674911,104.542151 Z M33.487969,104.542151 C32.4005949,104.542151 31.5180884,105.422687 31.5180884,106.512031 C31.5180884,107.601375 32.4005949,108.481912 33.487969,108.481912 C34.575343,108.481912 35.4578495,107.601375 35.4578495,106.512031 C35.4578495,105.422687 34.575343,104.542151 33.487969,104.542151 Z M25.6084468,104.542151 C24.5210728,104.542151 23.6385663,105.422687 23.6385663,106.512031 C23.6385663,107.601375 24.5210728,108.481912 25.6084468,108.481912 C26.6958209,108.481912 27.5783274,107.601375 27.5783274,106.512031 C27.5783274,105.422687 26.6958209,104.542151 25.6084468,104.542151 Z M17.7289247,104.542151 C16.6415507,104.542151 15.7590442,105.422687 15.7590442,106.512031 C15.7590442,107.601375 16.6415507,108.481912 17.7289247,108.481912 C18.8162988,108.481912 19.6988053,107.601375 19.6988053,106.512031 C19.6988053,105.422687 18.8162988,104.542151 17.7289247,104.542151 Z M11.8192832,98.6325089 L61.0662963,98.6325089 L61.0662963,114.391553 L3.93976105,114.391553 L3.93976105,108.481912 L11.8192832,108.481912 L11.8192832,98.6325089 Z M66.9759379,90.7529868 L133.951876,90.7529868 C135.064858,90.7529868 135.921756,91.6098849 135.921756,92.7228674 L135.921756,96.6626284 L65.0060574,96.6626284 L65.0060574,92.7228674 C65.0060574,91.6098849 65.8629554,90.7529868 66.9759379,90.7529868 Z M88.6446237,86.8132258 L92.5843848,86.8132258 L92.5843848,43.4758542 L88.6446237,43.4758542 L88.6446237,86.8132258 Z M68.9458184,86.8132258 L72.8855795,86.8132258 L72.8855795,43.4758542 L68.9458184,43.4758542 L68.9458184,86.8132258 Z M49.2470132,94.6927479 L53.1867742,94.6927479 L53.1867742,43.4758542 L49.2470132,43.4758542 L49.2470132,94.6927479 Z M29.5482079,94.6927479 L33.487969,94.6927479 L33.487969,43.4758542 L29.5482079,43.4758542 L29.5482079,94.6927479 Z M104.403668,29.6866905 C103.314324,29.6866905 102.433787,30.569197 102.433787,31.656571 C102.433787,32.7439451 103.314324,33.6264516 104.403668,33.6264516 C105.493012,33.6264516 106.373548,32.7439451 106.373548,31.656571 C106.373548,30.569197 105.493012,29.6866905 104.403668,29.6866905 Z M96.5241458,29.6866905 C95.4348019,29.6866905 94.5542653,30.569197 94.5542653,31.656571 C94.5542653,32.7439451 95.4348019,33.6264516 96.5241458,33.6264516 C97.6134897,33.6264516 98.4940263,32.7439451 98.4940263,31.656571 C98.4940263,30.569197 97.6134897,29.6866905 96.5241458,29.6866905 Z M88.6446237,29.6866905 C87.5552798,29.6866905 86.6747432,30.569197 86.6747432,31.656571 C86.6747432,32.7439451 87.5552798,33.6264516 88.6446237,33.6264516 C89.7339676,33.6264516 90.6145042,32.7439451 90.6145042,31.656571 C90.6145042,30.569197 89.7339676,29.6866905 88.6446237,29.6866905 Z M80.7651016,29.6866905 C79.6757577,29.6866905 78.7952211,30.569197 78.7952211,31.656571 C78.7952211,32.7439451 79.6757577,33.6264516 80.7651016,33.6264516 C81.8544455,33.6264516 82.7349821,32.7439451 82.7349821,31.656571 C82.7349821,30.569197 81.8544455,29.6866905 80.7651016,29.6866905 Z M72.8855795,29.6866905 C71.7962356,29.6866905 70.915699,30.569197 70.915699,31.656571 C70.915699,32.7439451 71.7962356,33.6264516 72.8855795,33.6264516 C73.9749234,33.6264516 74.85546,32.7439451 74.85546,31.656571 C74.85546,30.569197 73.9749234,29.6866905 72.8855795,29.6866905 Z M65.0060574,29.6866905 C63.9167135,29.6866905 63.0361769,30.569197 63.0361769,31.656571 C63.0361769,32.7439451 63.9167135,33.6264516 65.0060574,33.6264516 C66.0954013,33.6264516 66.9759379,32.7439451 66.9759379,31.656571 C66.9759379,30.569197 66.0954013,29.6866905 65.0060574,29.6866905 Z M57.1265353,29.6866905 C56.0391612,29.6866905 55.1566547,30.569197 55.1566547,31.656571 C55.1566547,32.7439451 56.0391612,33.6264516 57.1265353,33.6264516 C58.2139093,33.6264516 59.0964158,32.7439451 59.0964158,31.656571 C59.0964158,30.569197 58.2139093,29.6866905 57.1265353,29.6866905 Z M49.2470132,29.6866905 C48.1596391,29.6866905 47.2771326,30.569197 47.2771326,31.656571 C47.2771326,32.7439451 48.1596391,33.6264516 49.2470132,33.6264516 C50.3343872,33.6264516 51.2168937,32.7439451 51.2168937,31.656571 C51.2168937,30.569197 50.3343872,29.6866905 49.2470132,29.6866905 Z M41.3674911,29.6866905 C40.280117,29.6866905 39.3976105,30.569197 39.3976105,31.656571 C39.3976105,32.7439451 40.280117,33.6264516 41.3674911,33.6264516 C42.4548651,33.6264516 43.3373716,32.7439451 43.3373716,31.656571 C43.3373716,30.569197 42.4548651,29.6866905 41.3674911,29.6866905 Z M33.487969,29.6866905 C32.4005949,29.6866905 31.5180884,30.569197 31.5180884,31.656571 C31.5180884,32.7439451 32.4005949,33.6264516 33.487969,33.6264516 C34.575343,33.6264516 35.4578495,32.7439451 35.4578495,31.656571 C35.4578495,30.569197 34.575343,29.6866905 33.487969,29.6866905 Z M25.6084468,29.6866905 C24.5210728,29.6866905 23.6385663,30.569197 23.6385663,31.656571 C23.6385663,32.7439451 24.5210728,33.6264516 25.6084468,33.6264516 C26.6958209,33.6264516 27.5783274,32.7439451 27.5783274,31.656571 C27.5783274,30.569197 26.6958209,29.6866905 25.6084468,29.6866905 Z M17.7289247,29.6866905 C16.6415507,29.6866905 15.7590442,30.569197 15.7590442,31.656571 C15.7590442,32.7439451 16.6415507,33.6264516 17.7289247,33.6264516 C18.8162988,33.6264516 19.6988053,32.7439451 19.6988053,31.656571 C19.6988053,30.569197 18.8162988,29.6866905 17.7289247,29.6866905 Z M61.0662963,13.9276463 C63.264683,13.9276463 65.0060574,15.6690207 65.0060574,17.8674073 C65.0060574,20.065794 63.264683,21.8071684 61.0662963,21.8071684 C58.8679097,21.8071684 57.1265353,20.065794 57.1265353,17.8674073 C57.1265353,15.6690207 58.8679097,13.9276463 61.0662963,13.9276463 Z M61.0662963,9.98788523 C56.7384688,9.98788523 53.1867742,13.5395798 53.1867742,17.8674073 C53.1867742,22.1952349 56.7384688,25.7469294 61.0662963,25.7469294 C65.3941238,25.7469294 68.9458184,22.1952349 68.9458184,17.8674073 C68.9458184,13.5395798 65.3941238,9.98788523 61.0662963,9.98788523 Z M61.0662963,4.21613529 L116.222951,25.1342966 L116.222951,29.6866905 L110.313309,29.6866905 L110.313309,39.5360931 L104.403668,39.5360931 L104.403668,86.8132258 L96.5241458,86.8132258 L96.5241458,39.5360931 L84.7048627,39.5360931 L84.7048627,86.8132258 L76.8253405,86.8132258 L76.8253405,39.5360931 L65.0060574,39.5360931 L65.0060574,87.1815934 C62.7269056,88.0030336 61.0662963,90.1758118 61.0662963,92.7228674 L61.0662963,94.6927479 L57.1265353,94.6927479 L57.1265353,39.5360931 L45.3072521,39.5360931 L45.3072521,94.6927479 L37.42773,94.6927479 L37.42773,39.5360931 L25.6084468,39.5360931 L25.6084468,94.6927479 L17.7289247,94.6927479 L17.7289247,39.5360931 L11.8192832,39.5360931 L11.8192832,29.6866905 L5.90964158,29.6866905 L5.90964158,25.1342966 L61.0662963,4.21613529 Z M61.0662963,0 L1.96988053,22.4193049 L1.96988053,33.6260025 L7.87952211,33.6260025 L7.87952211,43.4754467 L13.7891637,43.4754467 L13.7891637,94.6925566 L7.87952211,94.6925566 L7.87952211,104.542001 L0,104.542001 L0,118.331223 L61.0662963,118.331223 L61.0662963,134.090333 C61.0662963,137.330801 63.7354844,140 66.9759379,140 L133.951876,140 C137.192329,140 139.861517,137.330801 139.861517,134.090333 L139.861517,92.7226678 C139.861517,89.4822006 137.192329,86.8130013 133.951876,86.8130013 L108.343429,86.8130013 L108.343429,43.4754467 L114.253071,43.4754467 L114.253071,33.6260025 L120.162712,33.6260025 L120.162712,22.4193049 L61.0662963,0 Z" fill="#64FAFA"></path>
    </g>
</svg>