<?xml version="1.0" encoding="UTF-8"?>
<svg width="85px" height="80px" viewBox="0 0 85 80" version="1.1" xmlns="http://www.w3.org/2000/svg" xmlns:xlink="http://www.w3.org/1999/xlink">
    <!-- Generator: Sketch 49.1 (51147) - http://www.bohemiancoding.com/sketch -->
    <title>Fill 1</title>
    <desc>Created with Sketch.</desc>
    <defs></defs>
    <g id="Page-1" stroke="none" stroke-width="1" fill="none" fill-rule="evenodd">
        <g id="Products-Copy" transform="translate(-1205.000000, -735.000000)" fill="#64FAFA">
            <path d="M1244.9487,795.645161 C1244.23968,795.645161 1243.66152,796.224731 1243.66152,796.935484 C1243.66152,797.646237 1244.23968,798.225806 1244.9487,798.225806 C1245.65772,798.225806 1246.23588,797.646237 1246.23588,796.935484 C1246.23588,796.224731 1245.65772,795.645161 1244.9487,795.645161 M1241.08716,794.354839 C1240.37814,794.354839 1239.79998,794.934409 1239.79998,795.645161 C1239.79998,796.355914 1240.37814,796.935484 1241.08716,796.935484 C1241.79618,796.935484 1242.37434,796.355914 1242.37434,795.645161 C1242.37434,794.934409 1241.79618,794.354839 1241.08716,794.354839 M1237.22562,793.064516 C1236.5166,793.064516 1235.93844,793.644086 1235.93844,794.354839 C1235.93844,795.065591 1236.5166,795.645161 1237.22562,795.645161 C1237.93464,795.645161 1238.5128,795.065591 1238.5128,794.354839 C1238.5128,793.644086 1237.93464,793.064516 1237.22562,793.064516 M1233.36408,791.774194 C1232.65506,791.774194 1232.0769,792.353763 1232.0769,793.064516 C1232.0769,793.775269 1232.65506,794.354839 1233.36408,794.354839 C1234.0731,794.354839 1234.65126,793.775269 1234.65126,793.064516 C1234.65126,792.353763 1234.0731,791.774194 1233.36408,791.774194 M1259.10768,775 C1258.39866,775 1257.8205,775.57957 1257.8205,776.290323 C1257.8205,777.001075 1258.39866,777.580645 1259.10768,777.580645 C1259.8167,777.580645 1260.39486,777.001075 1260.39486,776.290323 C1260.39486,775.57957 1259.8167,775 1259.10768,775 M1225.641,775 C1224.37892,775 1223.17219,775.241935 1222.06093,775.660215 C1222.02081,775.665376 1222.07101,775.640215 1221.92534,775.685376 L1221.96053,775.675484 C1219.17486,776.522151 1205.99134,780.206667 1205.99134,780.206667 C1205.52882,780.317634 1205.16691,780.670323 1205.04612,781.124086 C1204.92041,781.582581 1205.05621,782.071613 1205.39817,782.39914 C1205.73498,782.72172 1206.22776,782.837634 1206.67527,782.696559 C1206.67527,782.696559 1219.56702,779.097849 1222.61913,778.170323 C1222.70967,778.155269 1222.8002,778.135054 1222.88558,778.099785 C1223.75035,777.767097 1224.67068,777.580645 1225.641,777.580645 C1227.0539,777.580645 1228.36618,777.963656 1229.50748,778.629032 C1229.55274,778.659355 1229.60316,778.679355 1229.64842,778.69957 L1229.67846,778.714624 C1237.78876,782.555484 1254.26574,790.821505 1254.30586,790.846882 L1254.31594,790.846882 C1254.23549,790.806452 1254.24557,790.811398 1254.40154,790.912258 C1254.43157,790.932473 1254.46182,790.952688 1254.48692,790.967742 C1255.70867,791.627957 1256.53332,792.878065 1256.53332,794.354839 C1256.53332,795.130968 1256.30699,795.836774 1255.91483,796.446667 C1254.78362,798.210753 1252.59133,798.583656 1250.54493,797.595699 C1250.51983,797.585591 1250.49473,797.575699 1250.47457,797.56043 L1249.59456,797.202581 C1249.16722,797.011183 1248.66436,797.071613 1248.29237,797.358925 C1247.92037,797.641075 1247.72923,798.109892 1247.79959,798.573548 C1247.86502,799.037204 1248.18167,799.430538 1248.62424,799.596774 L1249.4991,799.954624 L1249.42873,799.919355 C1252.01811,801.169247 1255.18071,800.887097 1257.20201,798.911398 L1258.60482,799.873978 C1258.9618,800.12086 1259.42454,800.166237 1259.82679,800 L1280.94447,791.250108 L1280.40643,790.176344 C1280.71321,790.786237 1281.43725,791.053333 1282.06067,790.786237 C1282.5232,790.589677 1283.02606,790.483871 1283.5641,790.483871 C1285.71112,790.483871 1287.42564,792.202581 1287.42564,794.354839 C1287.42564,795.826667 1286.60614,797.071613 1285.3994,797.736989 C1284.8161,798.054409 1284.5696,798.775269 1284.84635,799.390108 L1284.36365,798.301505 L1258.98712,811.804516 C1259.02723,811.784301 1258.99205,811.799355 1258.93177,811.81957 C1258.87127,811.839785 1258.81099,811.859785 1258.75564,811.890108 C1258.06185,812.222796 1257.32279,812.419355 1256.53332,812.419355 C1255.7741,812.419355 1255.06014,812.243011 1254.39639,811.935484 C1254.36614,811.925376 1254.33611,811.910323 1254.30586,811.900215 C1254.21039,811.864946 1254.19537,811.854839 1254.26059,811.890108 L1222.28232,798.326667 C1221.99056,798.205591 1221.66877,798.190538 1221.37229,798.291398 L1205.92613,803.452688 C1205.25229,803.679355 1204.88523,804.410323 1205.11156,805.085591 C1205.33767,805.761075 1206.06686,806.129032 1206.74048,805.902151 L1221.72412,800.892043 L1253.22484,814.249032 C1253.42092,814.339785 1253.46125,814.339785 1253.41599,814.31957 C1254.35627,814.743011 1255.41197,815 1256.53332,815 C1257.74499,815 1258.87642,814.697634 1259.87205,814.213763 C1259.94735,814.188602 1260.01772,814.173333 1260.1134,814.123011 C1260.12842,814.117849 1260.14343,814.107957 1260.15352,814.102796 L1286.62609,800.020215 C1286.84233,799.904301 1287.01846,799.732903 1287.13903,799.521075 C1288.7982,798.361935 1290,796.542366 1290,794.354839 C1290,790.806452 1287.10385,787.903226 1283.5641,787.903226 C1282.86023,787.903226 1282.20655,788.094839 1281.57305,788.306452 L1281.5679,788.306452 C1281.39692,788.306452 1281.22615,788.336774 1281.07019,788.407312 L1259.48483,797.348817 L1258.42397,796.627957 C1258.72046,795.892043 1259.10768,795.191613 1259.10768,794.354839 C1259.10768,791.905161 1257.71495,789.77828 1255.70867,788.694624 L1255.7992,788.749892 C1255.84447,788.775269 1255.75908,788.694624 1255.52782,788.568602 C1255.51774,788.563441 1255.50765,788.558495 1255.49242,788.553333 C1255.49242,788.553333 1238.93521,780.236989 1230.74939,776.366022 C1230.73952,776.36086 1230.72944,776.355914 1230.72429,776.350753 C1230.57863,776.290323 1230.56854,776.290323 1230.63376,776.315484 C1229.15565,775.488817 1227.45614,775 1225.641,775 M1253.89868,773.618925 C1253.4561,773.63914 1253.05901,773.881075 1252.84276,774.264086 C1252.48578,774.878925 1252.69688,775.670323 1253.31537,776.028172 C1253.60692,776.19957 1253.95896,776.244946 1254.29084,776.154194 C1254.62272,776.068602 1254.90418,775.851828 1255.07023,775.554409 C1255.24614,775.256989 1255.29141,774.904301 1255.20088,774.576559 C1255.11034,774.243871 1254.8941,773.96172 1254.60255,773.790323 C1254.38631,773.664301 1254.14003,773.608817 1253.89868,773.618925 M1264.22122,773.613978 C1264.01012,773.618925 1263.79881,773.679355 1263.61281,773.790323 C1263.31612,773.956559 1263.09987,774.238925 1263.00955,774.571613 C1262.92396,774.904301 1262.96922,775.256989 1263.1402,775.549462 C1263.49718,776.169247 1264.2815,776.381075 1264.89999,776.023226 C1265.51333,775.665376 1265.72464,774.878925 1265.36767,774.25914 C1265.1364,773.850753 1264.69383,773.603871 1264.22122,773.613978 M1267.96198,769.843656 C1267.52455,769.863871 1267.12746,770.105806 1266.91121,770.483871 C1266.55423,771.103871 1266.76533,771.890108 1267.37889,772.247957 C1267.99738,772.605806 1268.7817,772.394194 1269.13867,771.774194 C1269.49565,771.159355 1269.28456,770.372903 1268.66607,770.015054 C1268.45475,769.889032 1268.20847,769.833763 1267.96198,769.843656 M1250.15771,769.83871 C1249.94146,769.843656 1249.73036,769.904301 1249.54436,770.010108 C1249.24767,770.181505 1249.03142,770.463656 1248.94604,770.796344 C1248.85551,771.124086 1248.90077,771.476774 1249.07175,771.774194 C1249.42873,772.389032 1250.21799,772.60086 1250.83154,772.243011 C1251.44489,771.890108 1251.66113,771.09871 1251.30415,770.483871 C1251.06774,770.075699 1250.63031,769.828602 1250.15771,769.83871 M1269.40512,764.677419 C1268.6961,764.677419 1268.11794,765.256989 1268.11794,765.967742 C1268.11794,766.678495 1268.6961,767.258065 1269.40512,767.258065 C1270.11414,767.258065 1270.6923,766.678495 1270.6923,765.967742 C1270.6923,765.256989 1270.11414,764.677419 1269.40512,764.677419 M1248.81024,764.677419 C1248.10122,764.677419 1247.52306,765.256989 1247.52306,765.967742 C1247.52306,766.678495 1248.10122,767.258065 1248.81024,767.258065 C1249.51926,767.258065 1250.09742,766.678495 1250.09742,765.967742 C1250.09742,765.256989 1249.51926,764.677419 1248.81024,764.677419 M1250.12767,759.516129 C1249.69024,759.54129 1249.29293,759.783226 1249.07175,760.16129 C1248.90077,760.45871 1248.85551,760.811398 1248.94604,761.13914 C1249.03142,761.471828 1249.24767,761.753978 1249.54436,761.925376 C1249.84106,762.096774 1250.19289,762.142151 1250.51983,762.056559 C1250.85171,761.965806 1251.13317,761.749032 1251.30415,761.451613 C1251.66113,760.836774 1251.44489,760.045376 1250.83154,759.692473 C1250.62023,759.566452 1250.37395,759.506022 1250.12767,759.516129 M1267.99223,759.516129 C1267.77598,759.521075 1267.56488,759.58172 1267.37889,759.687527 C1267.08219,759.858925 1266.86594,760.141075 1266.78056,760.473763 C1266.69003,760.801505 1266.7353,761.154194 1266.91121,761.451613 C1267.26325,762.066452 1268.05251,762.27828 1268.66607,761.92043 C1269.27941,761.567527 1269.49565,760.776129 1269.13867,760.16129 C1268.90226,759.753118 1268.46484,759.506022 1267.99223,759.516129 M1264.19612,755.74086 C1263.75869,755.761075 1263.36138,756.003011 1263.1402,756.386022 C1262.96922,756.678495 1262.92396,757.031183 1263.00955,757.363871 C1263.09987,757.696559 1263.31612,757.978925 1263.61281,758.145161 C1264.22615,758.503011 1265.01562,758.291398 1265.36767,757.676344 C1265.72464,757.056559 1265.51333,756.270108 1264.89999,755.912258 C1264.68375,755.786237 1264.4424,755.730753 1264.19612,755.74086 M1253.92378,755.74086 C1253.71268,755.74086 1253.50137,755.801505 1253.31537,755.907312 C1252.69688,756.265161 1252.48578,757.056559 1252.84276,757.671398 C1253.19974,758.286237 1253.98406,758.503011 1254.60255,758.145161 C1254.8941,757.973763 1255.11034,757.691613 1255.20088,757.358925 C1255.29141,757.031183 1255.24614,756.678495 1255.07023,756.381075 C1254.83896,755.972688 1254.39639,755.725806 1253.92378,755.74086 M1259.10768,754.354839 C1258.39866,754.354839 1257.8205,754.934409 1257.8205,755.645161 C1257.8205,756.355914 1258.39866,756.935484 1259.10768,756.935484 C1259.8167,756.935484 1260.39486,756.355914 1260.39486,755.645161 C1260.39486,754.934409 1259.8167,754.354839 1259.10768,754.354839 M1277.45493,753.382151 C1277.10803,753.372043 1276.77122,753.508172 1276.52473,753.755054 C1276.02702,754.264086 1276.02702,755.080645 1276.52988,755.584731 C1277.03273,756.083656 1277.84731,756.083656 1278.34995,755.584731 C1278.85281,755.080645 1278.85281,754.25914 1278.34995,753.755054 C1278.11375,753.518065 1277.79196,753.382151 1277.45493,753.382151 M1259.10768,751.774194 C1266.92623,751.774194 1273.26666,758.130108 1273.26666,765.967742 C1273.26666,773.805376 1266.92623,780.16129 1259.10768,780.16129 C1251.28914,780.16129 1244.9487,773.805376 1244.9487,765.967742 C1244.9487,758.130108 1251.28914,751.774194 1259.10768,751.774194 M1279.70256,747.903226 C1278.99354,747.903226 1278.41538,748.482796 1278.41538,749.193548 C1278.41538,749.904301 1278.99354,750.483871 1279.70256,750.483871 C1280.41158,750.483871 1280.98974,749.904301 1280.98974,749.193548 C1280.98974,748.482796 1280.41158,747.903226 1279.70256,747.903226 M1277.46008,742.434409 C1277.11318,742.424301 1276.77616,742.56043 1276.52988,742.807527 C1276.28853,743.049462 1276.15273,743.376989 1276.15273,743.719785 C1276.15273,744.062581 1276.28853,744.390108 1276.52988,744.637204 C1277.03273,745.136129 1277.84731,745.136129 1278.34995,744.632043 C1278.85281,744.127957 1278.85281,743.311398 1278.34995,742.807527 C1278.11375,742.570538 1277.79196,742.434409 1277.46008,742.434409 M1266.53407,742.429462 C1266.18717,742.424301 1265.85529,742.56043 1265.60901,742.807527 C1265.10615,743.311398 1265.10615,744.127957 1265.60901,744.632043 C1266.11166,745.136129 1266.92623,745.136129 1267.42909,744.632043 C1267.93194,744.127957 1267.93194,743.311398 1267.42909,742.807527 C1267.19289,742.570538 1266.87109,742.434409 1266.53407,742.429462 M1271.97948,740.16129 C1271.27046,740.16129 1270.6923,740.74086 1270.6923,741.451613 C1270.6923,742.162366 1271.27046,742.741935 1271.97948,742.741935 C1272.6885,742.741935 1273.26666,742.162366 1273.26666,741.451613 C1273.26666,740.74086 1272.6885,740.16129 1271.97948,740.16129 M1271.97948,737.580645 C1278.3802,737.580645 1283.5641,742.777204 1283.5641,749.193548 C1283.5641,754.60172 1279.86346,759.127957 1274.87564,760.423441 C1274.46331,759.238925 1273.91519,758.12 1273.26173,757.076559 C1273.26173,757.026237 1273.26666,756.98086 1273.26666,756.935484 C1273.26666,756.335699 1272.85433,755.816559 1272.27618,755.68043 C1270.39067,753.261075 1267.86651,751.370968 1264.95534,750.277204 C1265.3224,750.04043 1265.54358,749.632043 1265.54358,749.193548 C1265.54358,748.482796 1264.96542,747.903226 1264.2564,747.903226 C1263.54738,747.903226 1262.96922,748.482796 1262.96922,749.193548 C1262.96922,749.364946 1263.0044,749.536344 1263.06984,749.697634 C1262.20507,749.48086 1261.31005,749.329677 1260.39486,749.25914 L1260.39486,749.193548 C1260.39486,742.777204 1265.57876,737.580645 1271.97948,737.580645 M1271.97948,735 C1264.18604,735 1257.8205,741.381075 1257.8205,749.193548 L1257.8205,749.25914 C1249.20755,749.924301 1242.37434,757.162366 1242.37434,765.967742 C1242.37434,775.206667 1249.89126,782.741935 1259.10768,782.741935 C1268.3241,782.741935 1275.84102,775.206667 1275.84102,765.967742 C1275.84102,764.919355 1275.73032,763.90129 1275.54433,762.908172 C1281.6284,761.315484 1286.13846,755.771183 1286.13846,749.193548 C1286.13846,741.381075 1279.77293,735 1271.97948,735" id="Fill-1"></path>
        </g>
    </g>
</svg>