<?xml version="1.0" encoding="UTF-8"?>
<svg width="114px" height="110px" viewBox="0 0 114 110" version="1.1" xmlns="http://www.w3.org/2000/svg" xmlns:xlink="http://www.w3.org/1999/xlink">
    <!-- Generator: Sketch 49.1 (51147) - http://www.bohemiancoding.com/sketch -->
    <title>Page 1</title>
    <desc>Created with Sketch.</desc>
    <defs></defs>
    <g id="Page-1" stroke="none" stroke-width="1" fill="none" fill-rule="evenodd">
        <g id="LandingPage_2-Copy" transform="translate(-663.000000, -1142.000000)" fill="#64FAFA">
            <path d="M759.9,1221.65517 L771.3,1221.65517 C772.3678,1221.65517 773.2,1222.48397 773.2,1223.55172 L773.2,1227.34483 C773.2,1228.41828 772.3754,1229.24138 771.3,1229.24138 L759.9,1229.24138 C758.8246,1229.24138 758,1228.41828 758,1227.34483 L758,1223.55172 C758,1222.47828 758.8246,1221.65517 759.9,1221.65517 Z M759.9,1217.86207 C756.7745,1217.86207 754.2,1220.4319 754.2,1223.55172 L754.2,1227.34483 C754.2,1230.46466 756.7745,1233.03448 759.9,1233.03448 L763.7,1233.03448 L763.7,1252 L767.5,1252 L767.5,1233.03448 L771.3,1233.03448 C774.4255,1233.03448 777,1230.46466 777,1227.34483 L777,1223.55172 C777,1220.4319 774.4255,1217.86207 771.3,1217.86207 L759.9,1217.86207 Z M765.6,1210.27586 C764.5531,1210.27586 763.7,1211.12741 763.7,1212.17241 C763.7,1213.21741 764.5531,1214.06897 765.6,1214.06897 C766.6469,1214.06897 767.5,1213.21741 767.5,1212.17241 C767.5,1211.12741 766.6469,1210.27586 765.6,1210.27586 Z M668.7,1206.48276 L680.1,1206.48276 C681.1678,1206.48276 682,1207.31345 682,1208.37931 L682,1212.17241 C682,1213.24586 681.1754,1214.06897 680.1,1214.06897 L668.7,1214.06897 C667.6246,1214.06897 666.8,1213.24586 666.8,1212.17241 L666.8,1208.37931 C666.8,1207.30586 667.6246,1206.48276 668.7,1206.48276 Z M765.6,1202.68966 C764.5531,1202.68966 763.7,1203.54121 763.7,1204.58621 C763.7,1205.63121 764.5531,1206.48276 765.6,1206.48276 C766.6469,1206.48276 767.5,1205.63121 767.5,1204.58621 C767.5,1203.54121 766.6469,1202.68966 765.6,1202.68966 Z M668.7,1202.68966 C665.5745,1202.68966 663,1205.25948 663,1208.37931 L663,1212.17241 C663,1215.29224 665.5745,1217.86207 668.7,1217.86207 L672.5,1217.86207 L672.5,1252 L676.3,1252 L676.3,1217.86207 L680.1,1217.86207 C683.2255,1217.86207 685.8,1215.29224 685.8,1212.17241 L685.8,1208.37931 C685.8,1205.25948 683.2255,1202.68966 680.1,1202.68966 L668.7,1202.68966 Z M765.6,1195.10345 C764.5531,1195.10345 763.7,1195.955 763.7,1197 C763.7,1198.045 764.5531,1198.89655 765.6,1198.89655 C766.6469,1198.89655 767.5,1198.045 767.5,1197 C767.5,1195.955 766.6469,1195.10345 765.6,1195.10345 Z M674.4,1195.10345 C673.3531,1195.10345 672.5,1195.955 672.5,1197 C672.5,1198.045 673.3531,1198.89655 674.4,1198.89655 C675.4469,1198.89655 676.3,1198.045 676.3,1197 C676.3,1195.955 675.4469,1195.10345 674.4,1195.10345 Z M765.6,1187.51724 C764.5531,1187.51724 763.7,1188.36879 763.7,1189.41379 C763.7,1190.45879 764.5531,1191.31034 765.6,1191.31034 C766.6469,1191.31034 767.5,1190.45879 767.5,1189.41379 C767.5,1188.36879 766.6469,1187.51724 765.6,1187.51724 Z M674.4,1187.51724 C673.3531,1187.51724 672.5,1188.36879 672.5,1189.41379 C672.5,1190.45879 673.3531,1191.31034 674.4,1191.31034 C675.4469,1191.31034 676.3,1190.45879 676.3,1189.41379 C676.3,1188.36879 675.4469,1187.51724 674.4,1187.51724 Z M765.6,1179.93103 C764.5531,1179.93103 763.7,1180.78259 763.7,1181.82759 C763.7,1182.87259 764.5531,1183.72414 765.6,1183.72414 C766.6469,1183.72414 767.5,1182.87259 767.5,1181.82759 C767.5,1180.78259 766.6469,1179.93103 765.6,1179.93103 Z M674.4,1179.93103 C673.3531,1179.93103 672.5,1180.78259 672.5,1181.82759 C672.5,1182.87259 673.3531,1183.72414 674.4,1183.72414 C675.4469,1183.72414 676.3,1182.87259 676.3,1181.82759 C676.3,1180.78259 675.4469,1179.93103 674.4,1179.93103 Z M765.6,1172.34483 C764.5531,1172.34483 763.7,1173.19638 763.7,1174.24138 C763.7,1175.28638 764.5531,1176.13793 765.6,1176.13793 C766.6469,1176.13793 767.5,1175.28638 767.5,1174.24138 C767.5,1173.19638 766.6469,1172.34483 765.6,1172.34483 Z M674.4,1172.34483 C673.3531,1172.34483 672.5,1173.19638 672.5,1174.24138 C672.5,1175.28638 673.3531,1176.13793 674.4,1176.13793 C675.4469,1176.13793 676.3,1175.28638 676.3,1174.24138 C676.3,1173.19638 675.4469,1172.34483 674.4,1172.34483 Z M714.3,1168.55172 L725.7,1168.55172 C726.7697,1168.55172 727.6,1169.38241 727.6,1170.44828 L727.6,1174.24138 C727.6,1175.31483 726.7754,1176.13793 725.7,1176.13793 L714.3,1176.13793 C713.2246,1176.13793 712.4,1175.31483 712.4,1174.24138 L712.4,1170.44828 C712.4,1169.37483 713.2246,1168.55172 714.3,1168.55172 Z M765.6,1164.75862 C764.5531,1164.75862 763.7,1165.61017 763.7,1166.65517 C763.7,1167.70017 764.5531,1168.55172 765.6,1168.55172 C766.6469,1168.55172 767.5,1167.70017 767.5,1166.65517 C767.5,1165.61017 766.6469,1164.75862 765.6,1164.75862 Z M714.3,1164.75862 C711.1745,1164.75862 708.6,1167.32845 708.6,1170.44828 L708.6,1174.24138 C708.6,1177.36121 711.1745,1179.93103 714.3,1179.93103 L718.1,1179.93103 L718.1,1252 L721.9,1252 L721.9,1179.93103 L725.7,1179.93103 C728.8255,1179.93103 731.4,1177.36121 731.4,1174.24138 L731.4,1170.44828 C731.4,1167.32845 728.8255,1164.75862 725.7,1164.75862 L714.3,1164.75862 Z M674.4,1164.75862 C673.3531,1164.75862 672.5,1165.61017 672.5,1166.65517 C672.5,1167.70017 673.3531,1168.55172 674.4,1168.55172 C675.4469,1168.55172 676.3,1167.70017 676.3,1166.65517 C676.3,1165.61017 675.4469,1164.75862 674.4,1164.75862 Z M765.6,1157.17241 C764.5531,1157.17241 763.7,1158.02397 763.7,1159.06897 C763.7,1160.11397 764.5531,1160.96552 765.6,1160.96552 C766.6469,1160.96552 767.5,1160.11397 767.5,1159.06897 C767.5,1158.02397 766.6469,1157.17241 765.6,1157.17241 Z M720,1157.17241 C718.9531,1157.17241 718.1,1158.02397 718.1,1159.06897 C718.1,1160.11397 718.9531,1160.96552 720,1160.96552 C721.0469,1160.96552 721.9,1160.11397 721.9,1159.06897 C721.9,1158.02397 721.0469,1157.17241 720,1157.17241 Z M674.4,1157.17241 C673.3531,1157.17241 672.5,1158.02397 672.5,1159.06897 C672.5,1160.11397 673.3531,1160.96552 674.4,1160.96552 C675.4469,1160.96552 676.3,1160.11397 676.3,1159.06897 C676.3,1158.02397 675.4469,1157.17241 674.4,1157.17241 Z M765.6,1149.58621 C764.5531,1149.58621 763.7,1150.43776 763.7,1151.48276 C763.7,1152.52776 764.5531,1153.37931 765.6,1153.37931 C766.6469,1153.37931 767.5,1152.52776 767.5,1151.48276 C767.5,1150.43776 766.6469,1149.58621 765.6,1149.58621 Z M720,1149.58621 C718.9531,1149.58621 718.1,1150.43776 718.1,1151.48276 C718.1,1152.52776 718.9531,1153.37931 720,1153.37931 C721.0469,1153.37931 721.9,1152.52776 721.9,1151.48276 C721.9,1150.43776 721.0469,1149.58621 720,1149.58621 Z M674.4,1149.58621 C673.3531,1149.58621 672.5,1150.43776 672.5,1151.48276 C672.5,1152.52776 673.3531,1153.37931 674.4,1153.37931 C675.4469,1153.37931 676.3,1152.52776 676.3,1151.48276 C676.3,1150.43776 675.4469,1149.58621 674.4,1149.58621 Z M765.6,1142 C764.5531,1142 763.7,1142.85155 763.7,1143.89655 C763.7,1144.94155 764.5531,1145.7931 765.6,1145.7931 C766.6469,1145.7931 767.5,1144.94155 767.5,1143.89655 C767.5,1142.85155 766.6469,1142 765.6,1142 Z M720,1142 C718.9531,1142 718.1,1142.85155 718.1,1143.89655 C718.1,1144.94155 718.9531,1145.7931 720,1145.7931 C721.0469,1145.7931 721.9,1144.94155 721.9,1143.89655 C721.9,1142.85155 721.0469,1142 720,1142 Z M674.4,1142 C673.3531,1142 672.5,1142.85155 672.5,1143.89655 C672.5,1144.94155 673.3531,1145.7931 674.4,1145.7931 C675.4469,1145.7931 676.3,1144.94155 676.3,1143.89655 C676.3,1142.85155 675.4469,1142 674.4,1142 Z" id="Page-1"></path>
        </g>
    </g>
</svg>