<?xml version="1.0" encoding="UTF-8"?>
<svg width="82px" height="80px" viewBox="0 0 82 80" version="1.1" xmlns="http://www.w3.org/2000/svg" xmlns:xlink="http://www.w3.org/1999/xlink">
    <!-- Generator: Sketch 49.1 (51147) - http://www.bohemiancoding.com/sketch -->
    <title>Fill 1</title>
    <desc>Created with Sketch.</desc>
    <defs></defs>
    <g id="Page-1" stroke="none" stroke-width="1" fill="none" fill-rule="evenodd">
        <g id="Products" transform="translate(-154.000000, -735.000000)" fill="#64FAFA">
            <path d="M226.590164,805.631713 C225.849475,805.631713 225.245902,806.232621 225.245902,806.970039 C225.245902,807.707457 225.849475,808.308366 226.590164,808.308366 C227.330852,808.308366 227.934426,807.707457 227.934426,806.970039 C227.934426,806.232621 227.330852,805.631713 226.590164,805.631713 Z M221.213115,805.631713 C220.472426,805.631713 219.868852,806.232621 219.868852,806.970039 C219.868852,807.707457 220.472426,808.308366 221.213115,808.308366 C221.953803,808.308366 222.557377,807.707457 222.557377,806.970039 C222.557377,806.232621 221.953803,805.631713 221.213115,805.631713 Z M215.836066,805.631713 C215.095377,805.631713 214.491803,806.232621 214.491803,806.970039 C214.491803,807.707457 215.095377,808.308366 215.836066,808.308366 C216.576754,808.308366 217.180328,807.707457 217.180328,806.970039 C217.180328,806.232621 216.576754,805.631713 215.836066,805.631713 Z M210.459016,805.631713 C209.718328,805.631713 209.114754,806.232621 209.114754,806.970039 C209.114754,807.707457 209.718328,808.308366 210.459016,808.308366 C211.199705,808.308366 211.803279,807.707457 211.803279,806.970039 C211.803279,806.232621 211.199705,805.631713 210.459016,805.631713 Z M205.081967,805.631713 C204.341279,805.631713 203.737705,806.232621 203.737705,806.970039 C203.737705,807.707457 204.341279,808.308366 205.081967,808.308366 C205.822656,808.308366 206.42623,807.707457 206.42623,806.970039 C206.42623,806.232621 205.822656,805.631713 205.081967,805.631713 Z M199.704918,805.631713 C198.96423,805.631713 198.360656,806.232621 198.360656,806.970039 C198.360656,807.707457 198.96423,808.308366 199.704918,808.308366 C200.445607,808.308366 201.04918,807.707457 201.04918,806.970039 C201.04918,806.232621 200.445607,805.631713 199.704918,805.631713 Z M194.327869,805.631713 C193.58718,805.631713 192.983607,806.232621 192.983607,806.970039 C192.983607,807.707457 193.58718,808.308366 194.327869,808.308366 C195.068557,808.308366 195.672131,807.707457 195.672131,806.970039 C195.672131,806.232621 195.068557,805.631713 194.327869,805.631713 Z M188.95082,805.631713 C188.210131,805.631713 187.606557,806.232621 187.606557,806.970039 C187.606557,807.707457 188.210131,808.308366 188.95082,808.308366 C189.691508,808.308366 190.295082,807.707457 190.295082,806.970039 C190.295082,806.232621 189.691508,805.631713 188.95082,805.631713 Z M183.57377,805.631713 C182.833082,805.631713 182.229508,806.232621 182.229508,806.970039 C182.229508,807.707457 182.833082,808.308366 183.57377,808.308366 C184.314459,808.308366 184.918033,807.707457 184.918033,806.970039 C184.918033,806.232621 184.314459,805.631713 183.57377,805.631713 Z M178.196721,805.631713 C177.456033,805.631713 176.852459,806.232621 176.852459,806.970039 C176.852459,807.707457 177.456033,808.308366 178.196721,808.308366 C178.93741,808.308366 179.540984,807.707457 179.540984,806.970039 C179.540984,806.232621 178.93741,805.631713 178.196721,805.631713 Z M172.819672,805.631713 C172.078984,805.631713 171.47541,806.232621 171.47541,806.970039 C171.47541,807.707457 172.078984,808.308366 172.819672,808.308366 C173.560361,808.308366 174.163934,807.707457 174.163934,806.970039 C174.163934,806.232621 173.560361,805.631713 172.819672,805.631713 Z M167.442623,805.631713 C166.701934,805.631713 166.098361,806.232621 166.098361,806.970039 C166.098361,807.707457 166.701934,808.308366 167.442623,808.308366 C168.183311,808.308366 168.786885,807.707457 168.786885,806.970039 C168.786885,806.232621 168.183311,805.631713 167.442623,805.631713 Z M162.065574,805.631713 C161.324885,805.631713 160.721311,806.232621 160.721311,806.970039 C160.721311,807.707457 161.324885,808.308366 162.065574,808.308366 C162.806262,808.308366 163.409836,807.707457 163.409836,806.970039 C163.409836,806.232621 162.806262,805.631713 162.065574,805.631713 Z M226.590164,800.278405 C225.849475,800.278405 225.245902,800.879314 225.245902,801.616732 C225.245902,802.35415 225.849475,802.955059 226.590164,802.955059 C227.330852,802.955059 227.934426,802.35415 227.934426,801.616732 C227.934426,800.879314 227.330852,800.278405 226.590164,800.278405 Z M162.065574,800.278405 C161.324885,800.278405 160.721311,800.879314 160.721311,801.616732 C160.721311,802.35415 161.324885,802.955059 162.065574,802.955059 C162.806262,802.955059 163.409836,802.35415 163.409836,801.616732 C163.409836,800.879314 162.806262,800.278405 162.065574,800.278405 Z M226.590164,794.925098 C225.849475,794.925098 225.245902,795.526007 225.245902,796.263425 C225.245902,797.000843 225.849475,797.601752 226.590164,797.601752 C227.330852,797.601752 227.934426,797.000843 227.934426,796.263425 C227.934426,795.526007 227.330852,794.925098 226.590164,794.925098 Z M162.065574,794.925098 C161.324885,794.925098 160.721311,795.526007 160.721311,796.263425 C160.721311,797.000843 161.324885,797.601752 162.065574,797.601752 C162.806262,797.601752 163.409836,797.000843 163.409836,796.263425 C163.409836,795.526007 162.806262,794.925098 162.065574,794.925098 Z M226.590164,789.571791 C225.849475,789.571791 225.245902,790.1727 225.245902,790.910118 C225.245902,791.647536 225.849475,792.248445 226.590164,792.248445 C227.330852,792.248445 227.934426,791.647536 227.934426,790.910118 C227.934426,790.1727 227.330852,789.571791 226.590164,789.571791 Z M162.065574,789.571791 C161.324885,789.571791 160.721311,790.1727 160.721311,790.910118 C160.721311,791.647536 161.324885,792.248445 162.065574,792.248445 C162.806262,792.248445 163.409836,791.647536 163.409836,790.910118 C163.409836,790.1727 162.806262,789.571791 162.065574,789.571791 Z M162.065574,784.218484 C161.324885,784.218484 160.721311,784.819393 160.721311,785.556811 C160.721311,786.294229 161.324885,786.895138 162.065574,786.895138 C162.806262,786.895138 163.409836,786.294229 163.409836,785.556811 C163.409836,784.819393 162.806262,784.218484 162.065574,784.218484 Z M162.065574,778.865177 C161.324885,778.865177 160.721311,779.466086 160.721311,780.203504 C160.721311,780.940922 161.324885,781.541831 162.065574,781.541831 C162.806262,781.541831 163.409836,780.940922 163.409836,780.203504 C163.409836,779.466086 162.806262,778.865177 162.065574,778.865177 Z M222.557377,777.52685 C221.071967,777.52685 219.868852,778.724653 219.868852,780.203504 C219.868852,781.682355 221.071967,782.880157 222.557377,782.880157 C224.042787,782.880157 225.245902,781.682355 225.245902,780.203504 C225.245902,778.724653 224.042787,777.52685 222.557377,777.52685 Z M222.557377,774.850197 L233.311475,774.850197 L233.311475,785.556811 L222.557377,785.556811 C219.574459,785.556811 217.180328,783.173251 217.180328,780.203504 C217.180328,777.233757 219.574459,774.850197 222.557377,774.850197 Z M162.065574,773.51187 C161.324885,773.51187 160.721311,774.112779 160.721311,774.850197 C160.721311,775.587615 161.324885,776.188523 162.065574,776.188523 C162.806262,776.188523 163.409836,775.587615 163.409836,774.850197 C163.409836,774.112779 162.806262,773.51187 162.065574,773.51187 Z M226.590164,768.158563 C225.849475,768.158563 225.245902,768.759471 225.245902,769.49689 C225.245902,770.234308 225.849475,770.835216 226.590164,770.835216 C227.330852,770.835216 227.934426,770.234308 227.934426,769.49689 C227.934426,768.759471 227.330852,768.158563 226.590164,768.158563 Z M162.065574,768.158563 C161.324885,768.158563 160.721311,768.759471 160.721311,769.49689 C160.721311,770.234308 161.324885,770.835216 162.065574,770.835216 C162.806262,770.835216 163.409836,770.234308 163.409836,769.49689 C163.409836,768.759471 162.806262,768.158563 162.065574,768.158563 Z M226.590164,762.805256 C225.849475,762.805256 225.245902,763.406164 225.245902,764.143582 C225.245902,764.881 225.849475,765.481909 226.590164,765.481909 C227.330852,765.481909 227.934426,764.881 227.934426,764.143582 C227.934426,763.406164 227.330852,762.805256 226.590164,762.805256 Z M162.065574,762.805256 C161.324885,762.805256 160.721311,763.406164 160.721311,764.143582 C160.721311,764.881 161.324885,765.481909 162.065574,765.481909 C162.806262,765.481909 163.409836,764.881 163.409836,764.143582 C163.409836,763.406164 162.806262,762.805256 162.065574,762.805256 Z M226.590164,757.451949 C225.849475,757.451949 225.245902,758.052857 225.245902,758.790275 C225.245902,759.527693 225.849475,760.128602 226.590164,760.128602 C227.330852,760.128602 227.934426,759.527693 227.934426,758.790275 C227.934426,758.052857 227.330852,757.451949 226.590164,757.451949 Z M162.065574,757.451949 C161.324885,757.451949 160.721311,758.052857 160.721311,758.790275 C160.721311,759.527693 161.324885,760.128602 162.065574,760.128602 C162.806262,760.128602 163.409836,759.527693 163.409836,758.790275 C163.409836,758.052857 162.806262,757.451949 162.065574,757.451949 Z M226.590164,752.098641 C225.849475,752.098641 225.245902,752.69955 225.245902,753.436968 C225.245902,754.174386 225.849475,754.775295 226.590164,754.775295 C227.330852,754.775295 227.934426,754.174386 227.934426,753.436968 C227.934426,752.69955 227.330852,752.098641 226.590164,752.098641 Z M221.213115,752.098641 C220.472426,752.098641 219.868852,752.69955 219.868852,753.436968 C219.868852,754.174386 220.472426,754.775295 221.213115,754.775295 C221.953803,754.775295 222.557377,754.174386 222.557377,753.436968 C222.557377,752.69955 221.953803,752.098641 221.213115,752.098641 Z M215.836066,752.098641 C215.095377,752.098641 214.491803,752.69955 214.491803,753.436968 C214.491803,754.174386 215.095377,754.775295 215.836066,754.775295 C216.576754,754.775295 217.180328,754.174386 217.180328,753.436968 C217.180328,752.69955 216.576754,752.098641 215.836066,752.098641 Z M210.459016,752.098641 C209.718328,752.098641 209.114754,752.69955 209.114754,753.436968 C209.114754,754.174386 209.718328,754.775295 210.459016,754.775295 C211.199705,754.775295 211.803279,754.174386 211.803279,753.436968 C211.803279,752.69955 211.199705,752.098641 210.459016,752.098641 Z M205.081967,752.098641 C204.341279,752.098641 203.737705,752.69955 203.737705,753.436968 C203.737705,754.174386 204.341279,754.775295 205.081967,754.775295 C205.822656,754.775295 206.42623,754.174386 206.42623,753.436968 C206.42623,752.69955 205.822656,752.098641 205.081967,752.098641 Z M199.704918,752.098641 C198.96423,752.098641 198.360656,752.69955 198.360656,753.436968 C198.360656,754.174386 198.96423,754.775295 199.704918,754.775295 C200.445607,754.775295 201.04918,754.174386 201.04918,753.436968 C201.04918,752.69955 200.445607,752.098641 199.704918,752.098641 Z M194.327869,752.098641 C193.58718,752.098641 192.983607,752.69955 192.983607,753.436968 C192.983607,754.174386 193.58718,754.775295 194.327869,754.775295 C195.068557,754.775295 195.672131,754.174386 195.672131,753.436968 C195.672131,752.69955 195.068557,752.098641 194.327869,752.098641 Z M188.95082,752.098641 C188.210131,752.098641 187.606557,752.69955 187.606557,753.436968 C187.606557,754.174386 188.210131,754.775295 188.95082,754.775295 C189.691508,754.775295 190.295082,754.174386 190.295082,753.436968 C190.295082,752.69955 189.691508,752.098641 188.95082,752.098641 Z M183.57377,752.098641 C182.833082,752.098641 182.229508,752.69955 182.229508,753.436968 C182.229508,754.174386 182.833082,754.775295 183.57377,754.775295 C184.314459,754.775295 184.918033,754.174386 184.918033,753.436968 C184.918033,752.69955 184.314459,752.098641 183.57377,752.098641 Z M178.196721,752.098641 C177.456033,752.098641 176.852459,752.69955 176.852459,753.436968 C176.852459,754.174386 177.456033,754.775295 178.196721,754.775295 C178.93741,754.775295 179.540984,754.174386 179.540984,753.436968 C179.540984,752.69955 178.93741,752.098641 178.196721,752.098641 Z M172.819672,752.098641 C172.078984,752.098641 171.47541,752.69955 171.47541,753.436968 C171.47541,754.174386 172.078984,754.775295 172.819672,754.775295 C173.560361,754.775295 174.163934,754.174386 174.163934,753.436968 C174.163934,752.69955 173.560361,752.098641 172.819672,752.098641 Z M167.442623,752.098641 C166.701934,752.098641 166.098361,752.69955 166.098361,753.436968 C166.098361,754.174386 166.701934,754.775295 167.442623,754.775295 C168.183311,754.775295 168.786885,754.174386 168.786885,753.436968 C168.786885,752.69955 168.183311,752.098641 167.442623,752.098641 Z M162.065574,752.098641 C161.324885,752.098641 160.721311,752.69955 160.721311,753.436968 C160.721311,754.174386 161.324885,754.775295 162.065574,754.775295 C162.806262,754.775295 163.409836,754.174386 163.409836,753.436968 C163.409836,752.69955 162.806262,752.098641 162.065574,752.098641 Z M156.688525,747.754433 C157.118689,747.957858 157.597246,748.083661 158.121508,748.083661 L227.934426,748.083661 C230.176656,748.083661 231.967213,749.866312 231.967213,752.098641 L231.967213,772.173543 L222.557377,772.173543 C218.119967,772.173543 214.491803,775.785687 214.491803,780.203504 L214.491803,781.541831 L214.764689,781.541831 C215.431443,785.30119 218.593148,788.233464 222.557377,788.233464 L231.967213,788.233464 L231.967213,808.308366 C231.967213,810.540695 230.176656,812.323346 227.934426,812.323346 L160.721311,812.323346 C158.479082,812.323346 156.688525,810.540695 156.688525,808.308366 L156.688525,747.754433 Z M225.050984,737.684862 C226.626459,737.571104 227.934426,738.783628 227.934426,740.357501 L227.934426,745.407008 L158.121508,745.407008 C157.313607,745.407008 156.688525,744.784686 156.688525,743.980351 C156.688525,743.210813 157.26118,742.604551 158.02741,742.547003 L158.032787,742.547003 L225.050984,737.684862 Z M224.852033,735.013562 L157.843246,739.881056 C155.691082,740.026934 154,741.830998 154,743.980351 L154,808.308366 C154,811.988765 157.02459,815 160.721311,815 L227.934426,815 C231.631148,815 234.655738,811.988765 234.655738,808.308366 L234.655738,787.857395 C235.45423,787.386304 236,786.533789 236,785.556811 L236,774.850197 C236,773.873218 235.45423,773.020704 234.655738,772.549613 L234.655738,752.098641 C234.655738,749.369793 232.991541,747.017015 230.622951,745.977135 L230.622951,740.357501 C230.622951,737.267304 227.950557,734.794076 224.852033,735.013562 Z" id="Fill-1"></path>
        </g>
    </g>
</svg>