<?xml version="1.0" encoding="UTF-8"?>
<svg width="90px" height="80px" viewBox="0 0 90 80" version="1.1" xmlns="http://www.w3.org/2000/svg" xmlns:xlink="http://www.w3.org/1999/xlink">
    <!-- Generator: Sketch 49.1 (51147) - http://www.bohemiancoding.com/sketch -->
    <title>Page 1</title>
    <desc>Created with Sketch.</desc>
    <defs></defs>
    <g id="Page-1" stroke="none" stroke-width="1" fill="none" fill-rule="evenodd">
        <g id="Products" transform="translate(-1203.000000, -342.000000)" fill="#64FAFA">
            <path d="M1267.6875,413.578947 C1266.91289,413.578947 1266.28125,414.209357 1266.28125,414.982456 C1266.28125,415.755556 1266.91289,416.385965 1267.6875,416.385965 C1268.46211,416.385965 1269.09375,415.755556 1269.09375,414.982456 C1269.09375,414.209357 1268.46211,413.578947 1267.6875,413.578947 M1267.6875,410.77193 C1270.03312,410.77193 1271.90625,412.641404 1271.90625,414.982456 C1271.90625,417.323509 1270.03312,419.192982 1267.6875,419.192982 C1265.34188,419.192982 1263.46875,417.323509 1263.46875,414.982456 C1263.46875,412.641404 1265.34188,410.77193 1267.6875,410.77193 M1210.03125,402.350877 C1209.25664,402.350877 1208.625,402.981287 1208.625,403.754386 C1208.625,404.527485 1209.25664,405.157895 1210.03125,405.157895 C1210.80586,405.157895 1211.4375,404.527485 1211.4375,403.754386 C1211.4375,402.981287 1210.80586,402.350877 1210.03125,402.350877 M1210.03125,399.54386 C1212.37687,399.54386 1214.25,401.413333 1214.25,403.754386 C1214.25,406.095439 1212.37687,407.964912 1210.03125,407.964912 C1207.68563,407.964912 1205.8125,406.095439 1205.8125,403.754386 C1205.8125,401.413333 1207.68563,399.54386 1210.03125,399.54386 M1248,398.140351 C1247.22539,398.140351 1246.59375,398.77076 1246.59375,399.54386 C1246.59375,400.316959 1247.22539,400.947368 1248,400.947368 C1248.77461,400.947368 1249.40625,400.316959 1249.40625,399.54386 C1249.40625,398.77076 1248.77461,398.140351 1248,398.140351 M1248,395.333333 C1250.34562,395.333333 1252.21875,397.202807 1252.21875,399.54386 C1252.21875,401.884912 1250.34562,403.754386 1248,403.754386 C1245.65438,403.754386 1243.78125,401.884912 1243.78125,399.54386 C1243.78125,397.202807 1245.65438,395.333333 1248,395.333333 M1229.71875,391.122807 C1228.94414,391.122807 1228.3125,391.753216 1228.3125,392.526316 C1228.3125,393.299415 1228.94414,393.929825 1229.71875,393.929825 C1230.49336,393.929825 1231.125,393.299415 1231.125,392.526316 C1231.125,391.753216 1230.49336,391.122807 1229.71875,391.122807 M1229.71875,388.315789 C1232.06437,388.315789 1233.9375,390.185263 1233.9375,392.526316 C1233.9375,394.867368 1232.06437,396.736842 1229.71875,396.736842 C1227.37313,396.736842 1225.5,394.867368 1225.5,392.526316 C1225.5,390.185263 1227.37313,388.315789 1229.71875,388.315789 M1285.96875,386.912281 C1285.19414,386.912281 1284.5625,387.54269 1284.5625,388.315789 C1284.5625,389.088889 1285.19414,389.719298 1285.96875,389.719298 C1286.74336,389.719298 1287.375,389.088889 1287.375,388.315789 C1287.375,387.54269 1286.74336,386.912281 1285.96875,386.912281 M1285.96875,384.105263 C1288.31437,384.105263 1290.1875,385.974737 1290.1875,388.315789 C1290.1875,390.656842 1288.31437,392.526316 1285.96875,392.526316 C1283.62313,392.526316 1281.75,390.656842 1281.75,388.315789 C1281.75,385.974737 1283.62313,384.105263 1285.96875,384.105263 M1285.96875,381.298246 C1282.10156,381.298246 1278.9375,384.45614 1278.9375,388.315789 C1278.9375,390.201637 1279.70109,391.917661 1280.93156,393.184094 L1270.4175,408.518596 L1270.41211,408.518596 C1269.57727,408.162339 1268.6543,407.964912 1267.6875,407.964912 C1265.96273,407.964912 1264.39711,408.61731 1263.17203,409.653567 L1254.26227,402.663392 C1254.73453,401.720468 1255.03125,400.667836 1255.03125,399.54386 C1255.03125,395.684211 1251.86719,392.526316 1248,392.526316 C1245.52266,392.526316 1243.34719,393.831111 1242.09492,395.77193 L1236.6457,393.683041 C1236.71156,393.304795 1236.75,392.920936 1236.75,392.526316 C1236.75,388.666667 1233.58594,385.508772 1229.71875,385.508772 C1225.85156,385.508772 1222.6875,388.666667 1222.6875,392.526316 C1222.6875,393.288421 1222.84125,394.012164 1223.06648,394.69731 L1215.28266,399.143626 C1213.99172,397.679766 1212.12422,396.736842 1210.03125,396.736842 C1206.16406,396.736842 1203,399.894737 1203,403.754386 C1203,407.614035 1206.16406,410.77193 1210.03125,410.77193 C1213.89844,410.77193 1217.0625,407.614035 1217.0625,403.754386 C1217.0625,402.992281 1216.90875,402.268538 1216.68352,401.577778 L1224.46734,397.137076 C1225.75828,398.600936 1227.62578,399.54386 1229.71875,399.54386 C1232.19609,399.54386 1234.37156,398.244444 1235.62383,396.298246 L1241.07305,398.387135 C1241.00719,398.76538 1240.96875,399.149006 1240.96875,399.54386 C1240.96875,403.403509 1244.13281,406.561404 1248,406.561404 C1249.72477,406.561404 1251.29039,405.909006 1252.51547,404.872749 L1261.42523,411.857544 C1260.94734,412.805848 1260.65625,413.85848 1260.65625,414.982456 C1260.65625,418.842105 1263.82031,422 1267.6875,422 C1271.55469,422 1274.71875,418.842105 1274.71875,414.982456 C1274.71875,413.096374 1273.95516,411.380585 1272.72469,410.113918 L1283.23875,394.779649 L1283.24414,394.779649 C1284.07922,395.135906 1285.00195,395.333333 1285.96875,395.333333 C1289.83594,395.333333 1293,392.175439 1293,388.315789 C1293,384.45614 1289.83594,381.298246 1285.96875,381.298246 M1248,367.263158 C1247.22539,367.263158 1246.59375,367.893567 1246.59375,368.666667 C1246.59375,369.439766 1247.22539,370.070175 1248,370.070175 C1248.77461,370.070175 1249.40625,369.439766 1249.40625,368.666667 C1249.40625,367.893567 1248.77461,367.263158 1248,367.263158 M1248,364.45614 C1250.34562,364.45614 1252.21875,366.325614 1252.21875,368.666667 C1252.21875,371.007719 1250.34562,372.877193 1248,372.877193 C1245.65438,372.877193 1243.78125,371.007719 1243.78125,368.666667 C1243.78125,366.325614 1245.65438,364.45614 1248,364.45614 M1210.03125,364.45614 C1209.25664,364.45614 1208.625,365.08655 1208.625,365.859649 C1208.625,366.632749 1209.25664,367.263158 1210.03125,367.263158 C1210.80586,367.263158 1211.4375,366.632749 1211.4375,365.859649 C1211.4375,365.08655 1210.80586,364.45614 1210.03125,364.45614 M1210.03125,361.649123 C1212.37687,361.649123 1214.25,363.518596 1214.25,365.859649 C1214.25,368.200702 1212.37687,370.070175 1210.03125,370.070175 C1207.68563,370.070175 1205.8125,368.200702 1205.8125,365.859649 C1205.8125,363.518596 1207.68563,361.649123 1210.03125,361.649123 M1285.96875,358.842105 C1285.19414,358.842105 1284.5625,359.472515 1284.5625,360.245614 C1284.5625,361.018713 1285.19414,361.649123 1285.96875,361.649123 C1286.74336,361.649123 1287.375,361.018713 1287.375,360.245614 C1287.375,359.472515 1286.74336,358.842105 1285.96875,358.842105 M1285.96875,356.035088 C1288.31437,356.035088 1290.1875,357.904561 1290.1875,360.245614 C1290.1875,362.586667 1288.31437,364.45614 1285.96875,364.45614 C1283.62313,364.45614 1281.75,362.586667 1281.75,360.245614 C1281.75,357.904561 1283.62313,356.035088 1285.96875,356.035088 M1267.6875,353.22807 C1266.91289,353.22807 1266.28125,353.85848 1266.28125,354.631579 C1266.28125,355.404678 1266.91289,356.035088 1267.6875,356.035088 C1268.46211,356.035088 1269.09375,355.404678 1269.09375,354.631579 C1269.09375,353.85848 1268.46211,353.22807 1267.6875,353.22807 M1267.6875,350.421053 C1270.03312,350.421053 1271.90625,352.290526 1271.90625,354.631579 C1271.90625,356.972632 1270.03312,358.842105 1267.6875,358.842105 C1265.34188,358.842105 1263.46875,356.972632 1263.46875,354.631579 C1263.46875,352.290526 1265.34188,350.421053 1267.6875,350.421053 M1229.71875,347.614035 C1228.94414,347.614035 1228.3125,348.244444 1228.3125,349.017544 C1228.3125,349.790643 1228.94414,350.421053 1229.71875,350.421053 C1230.49336,350.421053 1231.125,349.790643 1231.125,349.017544 C1231.125,348.244444 1230.49336,347.614035 1229.71875,347.614035 M1229.71875,344.807018 C1232.06437,344.807018 1233.9375,346.676491 1233.9375,349.017544 C1233.9375,351.358596 1232.06437,353.22807 1229.71875,353.22807 C1227.37313,353.22807 1225.5,351.358596 1225.5,349.017544 C1225.5,346.676491 1227.37313,344.807018 1229.71875,344.807018 M1229.71875,342 C1225.85156,342 1222.6875,345.157895 1222.6875,349.017544 C1222.6875,350.250994 1223.03906,351.391345 1223.60484,352.400234 L1214.31586,360.344327 C1213.12945,359.417778 1211.65172,358.842105 1210.03125,358.842105 C1206.16406,358.842105 1203,362 1203,365.859649 C1203,369.719298 1206.16406,372.877193 1210.03125,372.877193 C1213.89844,372.877193 1217.0625,369.719298 1217.0625,365.859649 C1217.0625,364.626199 1216.71094,363.485848 1216.14516,362.476959 L1225.43414,354.532865 C1226.62055,355.459415 1228.09828,356.035088 1229.71875,356.035088 C1231.05352,356.035088 1232.28961,355.640468 1233.35531,354.987836 L1242.29813,364.598596 C1241.46867,365.749942 1240.96875,367.14807 1240.96875,368.666667 C1240.96875,372.526316 1244.13281,375.684211 1248,375.684211 C1251.86719,375.684211 1255.03125,372.526316 1255.03125,368.666667 C1255.03125,367.652398 1254.80063,366.693099 1254.41062,365.821287 L1262.91937,359.752281 C1264.17727,360.92 1265.84719,361.649123 1267.6875,361.649123 C1270.33523,361.649123 1272.62039,360.152515 1273.81781,357.986901 L1278.97055,359.565848 C1278.94852,359.790643 1278.9375,360.015439 1278.9375,360.245614 C1278.9375,364.105263 1282.10156,367.263158 1285.96875,367.263158 C1289.83594,367.263158 1293,364.105263 1293,360.245614 C1293,356.385965 1289.83594,353.22807 1285.96875,353.22807 C1283.32102,353.22807 1281.03586,354.724678 1279.83844,356.890292 L1274.6857,355.311345 C1274.70773,355.092164 1274.71875,354.861754 1274.71875,354.631579 C1274.71875,350.77193 1271.55469,347.614035 1267.6875,347.614035 C1263.82031,347.614035 1260.65625,350.77193 1260.65625,354.631579 C1260.65625,355.645848 1260.88687,356.60538 1261.27688,357.476959 L1252.76813,363.545965 C1251.51023,362.378246 1249.84031,361.649123 1248,361.649123 C1246.66523,361.649123 1245.42914,362.043977 1244.36344,362.696374 L1235.42062,353.085614 C1236.25008,351.934269 1236.75,350.53614 1236.75,349.017544 C1236.75,345.157895 1233.58594,342 1229.71875,342" id="Page-1"></path>
        </g>
    </g>
</svg>