<?xml version="1.0" encoding="UTF-8"?>
<svg width="101px" height="110px" viewBox="0 0 101 110" version="1.1" xmlns="http://www.w3.org/2000/svg" xmlns:xlink="http://www.w3.org/1999/xlink">
    <!-- Generator: Sketch 49.1 (51147) - http://www.bohemiancoding.com/sketch -->
    <title>Fill 1</title>
    <desc>Created with Sketch.</desc>
    <defs></defs>
    <g id="Page-1" stroke="none" stroke-width="1" fill="none" fill-rule="evenodd">
        <g id="LandingPage_2-Copy" transform="translate(-234.000000, -1253.000000)" fill="#64FAFA">
            <g id="Group-3" transform="translate(91.000000, 1190.000000)">
                <path d="M193.364425,158.015356 C192.55468,158.029287 191.868573,158.600462 191.697917,159.382345 C191.527261,160.171194 191.91559,160.973974 192.636525,161.32051 C192.636525,161.32051 192.657421,161.334441 192.711405,161.362304 L193.493288,161.750633 L194.343085,161.32051 C195.077951,160.967009 195.46628,160.145073 195.269504,159.349259 C195.077951,158.553445 194.350051,157.994459 193.535081,158.022321 C193.528116,158.015356 193.528116,158.015356 193.52115,158.022321 C193.467167,158.015356 193.411443,158.015356 193.364425,158.015356 Z M186.663564,154.29401 L185.535144,155.368446 L185.724956,156.920023 L186.146372,157.369301 L186.290907,157.472043 L187.833777,157.729768 L188.956972,156.648366 L188.772385,155.103755 L188.350969,154.654477 L188.201209,154.553476 L186.663564,154.29401 Z M199.145833,154.090267 L198.60252,154.375855 L198.459726,154.485562 L197.792775,155.892604 L198.513709,157.273525 L200.058321,157.51906 L200.601634,157.240438 L200.737462,157.130731 L201.411379,155.716724 L200.683479,154.335803 L199.145833,154.090267 Z M181.099829,149.696745 L179.868668,150.661474 L179.915685,152.226982 L180.290084,152.702381 L180.425912,152.82602 L181.937437,153.226539 L183.161632,152.260068 L183.119839,150.703267 L182.738475,150.219162 L182.609612,150.10423 L181.099829,149.696745 Z M204.500602,149.404192 L203.983409,149.736797 L203.859771,149.858694 L203.323423,151.328426 L204.180186,152.627501 L205.736987,152.723278 L206.254179,152.390672 L206.377818,152.267034 L206.914165,150.797302 L206.057402,149.491261 L204.500602,149.404192 Z M176.079407,144.519599 L174.759435,145.350241 L174.637538,146.907042 L174.964919,147.424234 L175.079851,147.553097 L176.542617,148.117306 L177.855623,147.288406 L177.984486,145.729863 L177.657105,145.212671 L177.535208,145.076843 L176.079407,144.519599 Z M210.914134,144.1452 L209.357333,144.206149 L208.880193,144.587513 L208.765261,144.723341 L208.383897,146.233124 L209.364298,147.44513 L210.921099,147.389406 L211.396498,147.002818 L211.513171,146.86699 L211.894535,145.350241 L210.914134,144.1452 Z M171.651057,138.846156 L170.244016,139.520073 L169.937532,141.050754 L170.209188,141.601032 L170.31193,141.750792 L171.692851,142.471726 L173.092927,141.804775 L173.399411,140.26887 L173.141686,139.71685 L173.031978,139.574056 L171.651057,138.846156 Z M215.267604,138.377723 L213.722993,138.602362 L213.294611,139.037709 L213.193611,139.185727 L212.975937,140.730338 L214.078236,141.832637 L215.621106,141.601032 L216.056453,141.165685 L216.159195,141.022891 L216.376868,139.47828 L215.267604,138.377723 Z M167.706814,132.758264 L166.257979,133.34337 L165.855718,134.853153 L166.094288,135.417363 L166.183099,135.574088 L167.522226,136.376868 L168.964096,135.798727 L169.366356,134.281978 L169.127786,133.717768 L169.038975,133.568009 L167.706814,132.758264 Z M219.16483,132.261968 L217.635892,132.582383 L217.226665,133.036886 L217.137855,133.186645 L217.008992,134.745187 L218.172239,135.777831 L219.702919,135.466122 L220.110404,135.002913 L220.199215,134.853153 L220.328078,133.296353 L219.16483,132.261968 Z M164.52878,126.302938 L163.018997,126.705199 L162.433891,128.154034 L162.590616,128.744364 L162.672461,128.908055 L163.896657,129.874525 L165.399474,129.472264 L165.984581,128.02343 L165.827856,127.433099 L165.747752,127.276374 L164.52878,126.302938 Z M222.45083,125.839729 L220.974132,126.3308 L220.620631,126.841027 L220.545751,127.002976 L220.608441,128.561518 L221.88662,129.446144 L223.368541,128.949848 L223.716819,128.446587 L223.791698,128.282896 L223.729008,126.717389 L222.45083,125.839729 Z M161.822663,119.589887 L160.285018,119.868509 L159.590204,121.268585 L159.699911,121.867623 L159.76086,122.038279 L160.90321,123.098784 L162.440856,122.820162 L163.13567,121.42531 L163.025963,120.821049 L162.965014,120.650393 L161.822663,119.589887 Z M225.287551,119.161506 L223.838716,119.725716 L223.511335,120.249873 L223.450386,120.411822 L223.574025,121.970365 L224.899221,122.7923 L226.355022,122.221125 L226.682402,121.703932 L226.750317,121.541983 L226.614488,119.983441 L225.287551,119.161506 Z M159.76086,112.671353 L158.211025,112.800215 L157.380382,114.120187 L157.4274,114.733156 L157.476159,114.902071 L158.508802,116.072283 L160.067344,115.943421 L160.896245,114.623449 L160.842262,114.01048 L160.795244,113.841565 L159.76086,112.671353 Z M227.485182,112.263868 L226.090331,112.970871 L225.818674,113.52115 L225.769915,113.698772 L226.050279,115.229452 L227.450355,115.922524 L228.845206,115.215521 L229.116863,114.663501 L229.165622,114.494586 L228.880034,112.963906 L227.485182,112.263868 Z M158.211025,105.583903 L156.652482,105.61699 L155.741736,106.876013 L155.753926,107.494206 L155.788754,107.664862 L156.741293,108.902989 L158.30506,108.868161 L159.217547,107.603913 L159.203616,106.990945 L159.168788,106.815065 L158.211025,105.583903 Z M229.170846,105.21647 L227.831719,106.01925 L227.593148,106.58346 L227.560062,106.75934 L227.939685,108.270865 L229.383295,108.868161 L230.722423,108.072347 L230.960993,107.501171 L230.994079,107.332257 L230.614457,105.813766 L229.170846,105.21647 Z M155.611132,98.3327634 L154.625507,99.5360626 L154.597644,100.154255 L154.618541,100.331877 L155.496201,101.623987 L157.059967,101.684935 L158.047334,100.481636 L158.073455,99.8686677 L158.047334,99.6927875 L157.169675,98.4006776 L155.611132,98.3327634 Z M230.321903,98.0663311 L229.035018,98.9509562 L228.838241,99.529097 L228.810379,99.7067186 L229.30145,101.18864 L230.776406,101.691901 L232.056326,100.807276 L232.253103,100.229135 L232.280965,100.046289 L231.803825,98.5695922 L230.321903,98.0663311 Z M214.438703,97.6518807 L189.146783,122.031313 L176.331909,108.889058 L172.5827,112.535524 L189.031852,129.40435 L218.064273,101.406313 L214.438703,97.6518807 Z M155.107871,90.9858473 L154.019504,92.0951114 L153.937658,92.6993731 L153.937658,92.8282358 L153.944624,92.9379433 L154.747404,94.2770707 L156.29898,94.4407611 L157.359486,93.291445 L157.420434,92.6784764 L157.420434,92.6244934 L157.413469,92.5705104 L157.413469,92.5565793 L156.659448,91.1895897 L155.107871,90.9858473 Z M230.947062,90.8430534 L229.722866,91.8077824 L229.566141,92.4068199 L229.55221,92.5844415 L230.130351,94.0332763 L231.640134,94.4337956 L232.866071,93.4621011 L233.021055,92.8700291 L233.034986,92.6924075 L232.456845,91.2435727 L230.947062,90.8430534 Z M231.375443,83.6319656 C230.654509,83.6458967 230.015419,84.11433 229.776849,84.7952128 C229.538279,85.483061 229.750728,86.2370821 230.307972,86.7072568 L230.314938,86.7142224 C230.811234,87.210518 231.565255,87.3533118 232.218275,87.0746897 C232.866071,86.7960676 233.287487,86.1552368 233.280522,85.4482333 L233.280522,83.741673 L231.640134,83.6389311 C231.681928,83.6389311 231.6471,83.6389311 231.546099,83.6319656 C231.492116,83.625 231.436392,83.625 231.375443,83.6319656 Z M155.57108,83.6319656 C155.529287,83.625 155.489235,83.6319656 155.454407,83.6319656 C155.353407,83.6389311 155.325545,83.6389311 155.367338,83.6389311 L153.72695,83.741673 L153.72695,85.4551988 C153.713019,86.1761335 154.148366,86.829154 154.822283,87.093845 C155.489235,87.3602774 156.257187,87.1896213 156.748259,86.658498 C157.277641,86.1761335 157.462228,85.4151469 157.202761,84.7412297 C156.93807,84.0673126 156.292015,83.625 155.57108,83.6319656 Z M162.365976,82.8361512 L162.190096,82.8640134 L160.931073,83.7747594 L160.896245,85.3333017 L162.129148,86.2910651 L162.74734,86.3049962 L162.917996,86.2788754 L164.182244,85.3594225 L164.210106,83.8026216 L162.978945,82.8500823 L162.365976,82.8361512 Z M224.594478,82.8030648 L223.117781,83.3132915 L222.640641,84.7952128 L223.539197,86.0681674 L224.124303,86.2510132 L224.301925,86.2788754 L225.769915,85.7756142 L226.254021,84.2919516 L225.348499,83.0137728 L224.763393,82.8291857 L224.594478,82.8030648 Z M217.635892,81.6467832 L216.138298,82.0873544 L215.594985,83.5501203 L216.437817,84.8631269 L217.015957,85.0738349 L217.193579,85.1086626 L218.689431,84.6663501 L219.22752,83.2035841 L218.375982,81.8905775 L217.804806,81.6798696 L217.635892,81.6467832 Z M169.937532,81.6258865 L169.331529,81.6398176 L169.155648,81.672904 L167.924487,82.6324088 L167.950608,84.1892097 L169.223563,85.1016971 L169.83479,85.087766 L170.012411,85.0546796 L171.243573,84.1021403 L171.208745,82.5366325 L169.937532,81.6258865 Z M210.806168,80.1091375 L209.282453,80.4347771 L208.629433,81.8574911 L209.376488,83.2244807 L209.935474,83.4752406 L210.104388,83.5239995 L211.628103,83.1966185 L212.274158,81.7756459 L211.534068,80.4086563 L210.968117,80.156155 L210.806168,80.1091375 Z M176.849101,80.0812753 L176.229167,80.1091375 L176.058511,80.156155 L174.862177,81.1557118 L174.944022,82.7142541 L176.250063,83.5779825 L176.856066,83.5431548 L177.031947,83.5031028 L178.230022,82.5035461 L178.141211,80.9450038 L176.849101,80.0812753 Z M203.990375,78.2179901 L202.452729,78.4966122 L201.757915,79.891464 L202.459695,81.2845745 L203.003008,81.5579724 L203.173664,81.6049899 L204.71131,81.3263678 L205.411348,79.9384815 L204.71131,78.5436297 L204.15929,78.2650076 L203.990375,78.2179901 Z M183.596979,78.1431104 L182.990976,78.2179901 L182.827286,78.2650076 L181.691901,79.339444 L181.874747,80.8910208 L183.222581,81.672904 L183.833808,81.5980243 L184.004464,81.5510068 L185.132884,80.4765704 L184.950038,78.9249937 L183.596979,78.1431104 Z M197.336531,75.9663754 L195.786696,76.1492211 L195.003071,77.504021 L195.623005,78.9319592 L196.154129,79.2384435 L196.316078,79.2993921 L197.867655,79.114805 L198.642572,77.7617465 L198.031345,76.3268427 L197.500222,76.0203584 L197.336531,75.9663754 Z M190.235151,75.8375127 L189.629148,75.9454787 L189.467199,76.0133929 L188.404952,77.1557434 L188.69054,78.6864235 L190.092357,79.3882029 L190.69836,79.2715299 L190.86205,79.2105813 L191.91559,78.0612652 L191.630003,76.5305851 L190.235151,75.8375127 Z M193.500253,66.850209 C195.501108,67.8166793 214.539704,76.633327 240.456782,77.0547429 C240.110246,115.704851 228.314083,138.757345 216.573645,152.178223 C205.083967,165.301323 194.303033,168.987842 193.500253,169.259498 C192.697473,168.987842 181.91654,165.301323 170.426862,152.178223 C158.686424,138.757345 146.892002,115.704851 146.543725,77.0547429 C172.460803,76.633327 191.50114,67.8166793 193.500253,66.850209 Z M193.500253,63 L192.71837,63.3883295 C192.71837,63.3883295 172.16825,73.6538121 144.741388,73.6538121 L143,73.6538121 L143,75.3952001 C143,115.800627 155.346441,140.227077 167.81478,154.464666 C180.276152,168.70922 192.963906,172.831085 192.963906,172.831085 L193.500253,173 L194.038342,172.831085 C194.038342,172.831085 206.724354,168.70922 219.185727,154.464666 C231.654065,140.227077 244.000507,115.800627 244.000507,75.3952001 L244.000507,73.6538121 L242.259119,73.6538121 C214.832257,73.6538121 194.282137,63.3883295 194.282137,63.3883295 L193.500253,63 Z" id="Fill-1"></path>
            </g>
        </g>
    </g>
</svg>