<?xml version="1.0" encoding="UTF-8"?>
<svg width="80px" height="80px" viewBox="0 0 80 80" version="1.1" xmlns="http://www.w3.org/2000/svg" xmlns:xlink="http://www.w3.org/1999/xlink">
    <!-- Generator: Sketch 49.1 (51147) - http://www.bohemiancoding.com/sketch -->
    <title>Page 1</title>
    <desc>Created with Sketch.</desc>
    <defs></defs>
    <g id="Page-1" stroke="none" stroke-width="1" fill="none" fill-rule="evenodd">
        <g id="Products" transform="translate(-505.000000, -1129.000000)" fill="#64FAFA">
            <path d="M566.333333,1199.66667 C565.596,1199.66667 565,1200.26267 565,1201 C565,1201.73733 565.596,1202.33333 566.333333,1202.33333 C567.070667,1202.33333 567.666667,1201.73733 567.666667,1201 C567.666667,1200.26267 567.070667,1199.66667 566.333333,1199.66667 Z M561,1199.66667 C560.262667,1199.66667 559.666667,1200.26267 559.666667,1201 C559.666667,1201.73733 560.262667,1202.33333 561,1202.33333 C561.737333,1202.33333 562.333333,1201.73733 562.333333,1201 C562.333333,1200.26267 561.737333,1199.66667 561,1199.66667 Z M574.333333,1206.33333 L582.333333,1206.33333 L582.333333,1195.66667 L574.333333,1195.66667 L574.333333,1206.33333 Z M561,1194.33333 C560.262667,1194.33333 559.666667,1194.92933 559.666667,1195.66667 C559.666667,1196.404 560.262667,1197 561,1197 C561.737333,1197 562.333333,1196.404 562.333333,1195.66667 C562.333333,1194.92933 561.737333,1194.33333 561,1194.33333 Z M571.666667,1193 L571.666667,1194.33333 L571.666667,1199.66667 C570.929333,1199.66667 570.333333,1200.26267 570.333333,1201 C570.333333,1201.73733 570.929333,1202.33333 571.666667,1202.33333 L571.666667,1209 L585,1209 L585,1193 L571.666667,1193 Z M561,1189 C560.262667,1189 559.666667,1189.596 559.666667,1190.33333 C559.666667,1191.07067 560.262667,1191.66667 561,1191.66667 C561.737333,1191.66667 562.333333,1191.07067 562.333333,1190.33333 C562.333333,1189.596 561.737333,1189 561,1189 Z M555.666667,1189 C554.929333,1189 554.333333,1189.596 554.333333,1190.33333 C554.333333,1191.07067 554.929333,1191.66667 555.666667,1191.66667 C556.404,1191.66667 557,1191.07067 557,1190.33333 C557,1189.596 556.404,1189 555.666667,1189 Z M550.333333,1189 C549.596,1189 549,1189.596 549,1190.33333 C549,1191.07067 549.596,1191.66667 550.333333,1191.66667 C551.070667,1191.66667 551.666667,1191.07067 551.666667,1190.33333 C551.666667,1189.596 551.070667,1189 550.333333,1189 Z M531.666667,1189 C530.930667,1189 530.333333,1189.596 530.333333,1190.33333 C530.333333,1191.07067 530.930667,1191.66667 531.666667,1191.66667 C532.402667,1191.66667 533,1191.07067 533,1190.33333 C533,1189.596 532.402667,1189 531.666667,1189 Z M526.333333,1189 C525.597333,1189 525,1189.596 525,1190.33333 C525,1191.07067 525.597333,1191.66667 526.333333,1191.66667 C527.069333,1191.66667 527.666667,1191.07067 527.666667,1190.33333 C527.666667,1189.596 527.069333,1189 526.333333,1189 Z M561,1183.66667 C560.262667,1183.66667 559.666667,1184.26267 559.666667,1185 C559.666667,1185.73733 560.262667,1186.33333 561,1186.33333 C561.737333,1186.33333 562.333333,1185.73733 562.333333,1185 C562.333333,1184.26267 561.737333,1183.66667 561,1183.66667 Z M537,1197 L545,1197 L545,1183.66667 L537,1183.66667 L537,1197 Z M526.333333,1183.66667 C525.597333,1183.66667 525,1184.26267 525,1185 C525,1185.73733 525.597333,1186.33333 526.333333,1186.33333 C527.069333,1186.33333 527.666667,1185.73733 527.666667,1185 C527.666667,1184.26267 527.069333,1183.66667 526.333333,1183.66667 Z M534.333333,1181 L534.333333,1182.33333 L534.333333,1199.66667 L547.666667,1199.66667 L547.666667,1181 L534.333333,1181 Z M566.333333,1178.33333 C565.596,1178.33333 565,1178.92933 565,1179.66667 C565,1180.404 565.596,1181 566.333333,1181 C567.070667,1181 567.666667,1180.404 567.666667,1179.66667 C567.666667,1178.92933 567.070667,1178.33333 566.333333,1178.33333 Z M561,1178.33333 C560.262667,1178.33333 559.666667,1178.92933 559.666667,1179.66667 C559.666667,1180.404 560.262667,1181 561,1181 C561.737333,1181 562.333333,1180.404 562.333333,1179.66667 C562.333333,1178.92933 561.737333,1178.33333 561,1178.33333 Z M526.333333,1178.33333 C525.597333,1178.33333 525,1178.92933 525,1179.66667 C525,1180.404 525.597333,1181 526.333333,1181 C527.069333,1181 527.666667,1180.404 527.666667,1179.66667 C527.666667,1178.92933 527.069333,1178.33333 526.333333,1178.33333 Z M574.333333,1185 L582.333333,1185 L582.333333,1174.33333 L574.333333,1174.33333 L574.333333,1185 Z M526.333333,1173 C525.597333,1173 525,1173.596 525,1174.33333 C525,1175.07067 525.597333,1175.66667 526.333333,1175.66667 C527.069333,1175.66667 527.666667,1175.07067 527.666667,1174.33333 C527.666667,1173.596 527.069333,1173 526.333333,1173 Z M571.666667,1171.66667 L571.666667,1173 L571.666667,1178.33333 C570.929333,1178.33333 570.333333,1178.92933 570.333333,1179.66667 C570.333333,1180.404 570.929333,1181 571.666667,1181 L571.666667,1187.66667 L585,1187.66667 L585,1171.66667 L571.666667,1171.66667 Z M526.333333,1167.66667 C525.597333,1167.66667 525,1168.264 525,1169 C525,1169.736 525.597333,1170.33333 526.333333,1170.33333 C527.069333,1170.33333 527.666667,1169.736 527.666667,1169 C527.666667,1168.264 527.069333,1167.66667 526.333333,1167.66667 Z M521,1167.66667 C520.264,1167.66667 519.666667,1168.264 519.666667,1169 C519.666667,1169.736 520.264,1170.33333 521,1170.33333 C521.736,1170.33333 522.333333,1169.736 522.333333,1169 C522.333333,1168.264 521.736,1167.66667 521,1167.66667 Z M526.333333,1162.33333 C525.597333,1162.33333 525,1162.93067 525,1163.66667 C525,1164.40267 525.597333,1165 526.333333,1165 C527.069333,1165 527.666667,1164.40267 527.666667,1163.66667 C527.666667,1162.93067 527.069333,1162.33333 526.333333,1162.33333 Z M507.666667,1175.66667 L515.666667,1175.66667 L515.666667,1162.33333 L507.666667,1162.33333 L507.666667,1175.66667 Z M505,1159.66667 L505,1161 L505,1178.33333 L518.333333,1178.33333 L518.333333,1159.66667 L505,1159.66667 Z M566.333333,1157 C565.596,1157 565,1157.59733 565,1158.33333 C565,1159.06933 565.596,1159.66667 566.333333,1159.66667 C567.070667,1159.66667 567.666667,1159.06933 567.666667,1158.33333 C567.666667,1157.59733 567.070667,1157 566.333333,1157 Z M561,1157 C560.262667,1157 559.666667,1157.59733 559.666667,1158.33333 C559.666667,1159.06933 560.262667,1159.66667 561,1159.66667 C561.737333,1159.66667 562.333333,1159.06933 562.333333,1158.33333 C562.333333,1157.59733 561.737333,1157 561,1157 Z M526.333333,1157 C525.597333,1157 525,1157.59733 525,1158.33333 C525,1159.06933 525.597333,1159.66667 526.333333,1159.66667 C527.069333,1159.66667 527.666667,1159.06933 527.666667,1158.33333 C527.666667,1157.59733 527.069333,1157 526.333333,1157 Z M574.333333,1163.66667 L582.333333,1163.66667 L582.333333,1153 L574.333333,1153 L574.333333,1163.66667 Z M561,1151.66667 C560.262667,1151.66667 559.666667,1152.264 559.666667,1153 C559.666667,1153.736 560.262667,1154.33333 561,1154.33333 C561.737333,1154.33333 562.333333,1153.736 562.333333,1153 C562.333333,1152.264 561.737333,1151.66667 561,1151.66667 Z M526.333333,1151.66667 C525.597333,1151.66667 525,1152.264 525,1153 C525,1153.736 525.597333,1154.33333 526.333333,1154.33333 C527.069333,1154.33333 527.666667,1153.736 527.666667,1153 C527.666667,1152.264 527.069333,1151.66667 526.333333,1151.66667 Z M571.666667,1150.33333 L571.666667,1151.66667 L571.666667,1157 C570.929333,1157 570.333333,1157.59733 570.333333,1158.33333 C570.333333,1159.06933 570.929333,1159.66667 571.666667,1159.66667 L571.666667,1166.33333 L585,1166.33333 L585,1150.33333 L571.666667,1150.33333 Z M561,1146.33333 C560.262667,1146.33333 559.666667,1146.93067 559.666667,1147.66667 C559.666667,1148.40267 560.262667,1149 561,1149 C561.737333,1149 562.333333,1148.40267 562.333333,1147.66667 C562.333333,1146.93067 561.737333,1146.33333 561,1146.33333 Z M555.666667,1146.33333 C554.929333,1146.33333 554.333333,1146.93067 554.333333,1147.66667 C554.333333,1148.40267 554.929333,1149 555.666667,1149 C556.404,1149 557,1148.40267 557,1147.66667 C557,1146.93067 556.404,1146.33333 555.666667,1146.33333 Z M550.333333,1146.33333 C549.596,1146.33333 549,1146.93067 549,1147.66667 C549,1148.40267 549.596,1149 550.333333,1149 C551.070667,1149 551.666667,1148.40267 551.666667,1147.66667 C551.666667,1146.93067 551.070667,1146.33333 550.333333,1146.33333 Z M531.666667,1146.33333 C530.930667,1146.33333 530.333333,1146.93067 530.333333,1147.66667 C530.333333,1148.40267 530.930667,1149 531.666667,1149 C532.402667,1149 533,1148.40267 533,1147.66667 C533,1146.93067 532.402667,1146.33333 531.666667,1146.33333 Z M526.333333,1146.33333 C525.597333,1146.33333 525,1146.93067 525,1147.66667 C525,1148.40267 525.597333,1149 526.333333,1149 C527.069333,1149 527.666667,1148.40267 527.666667,1147.66667 C527.666667,1146.93067 527.069333,1146.33333 526.333333,1146.33333 Z M561,1141 C560.262667,1141 559.666667,1141.59733 559.666667,1142.33333 C559.666667,1143.06933 560.262667,1143.66667 561,1143.66667 C561.737333,1143.66667 562.333333,1143.06933 562.333333,1142.33333 C562.333333,1141.59733 561.737333,1141 561,1141 Z M537,1154.33333 L545,1154.33333 L545,1141 L537,1141 L537,1154.33333 Z M534.333333,1138.33333 L534.333333,1139.66667 L534.333333,1157 L547.666667,1157 L547.666667,1138.33333 L534.333333,1138.33333 Z M566.333333,1135.66667 C565.596,1135.66667 565,1136.264 565,1137 C565,1137.736 565.596,1138.33333 566.333333,1138.33333 C567.070667,1138.33333 567.666667,1137.736 567.666667,1137 C567.666667,1136.264 567.070667,1135.66667 566.333333,1135.66667 Z M561,1135.66667 C560.262667,1135.66667 559.666667,1136.264 559.666667,1137 C559.666667,1137.736 560.262667,1138.33333 561,1138.33333 C561.737333,1138.33333 562.333333,1137.736 562.333333,1137 C562.333333,1136.264 561.737333,1135.66667 561,1135.66667 Z M574.333333,1142.33333 L582.333333,1142.33333 L582.333333,1131.66667 L574.333333,1131.66667 L574.333333,1142.33333 Z M571.666667,1129 L571.666667,1130.33333 L571.666667,1135.66667 C570.929333,1135.66667 570.333333,1136.264 570.333333,1137 C570.333333,1137.736 570.929333,1138.33333 571.666667,1138.33333 L571.666667,1145 L585,1145 L585,1129 L571.666667,1129 Z" id="Page-1" transform="translate(545.000000, 1169.000000) rotate(-270.000000) translate(-545.000000, -1169.000000) "></path>
        </g>
    </g>
</svg>