<?xml version="1.0" encoding="UTF-8"?>
<svg width="126px" height="140px" viewBox="0 0 126 140" version="1.1" xmlns="http://www.w3.org/2000/svg" xmlns:xlink="http://www.w3.org/1999/xlink">
    <!-- Generator: Sketch 49.1 (51147) - http://www.bohemiancoding.com/sketch -->
    <title>Page 1</title>
    <desc>Created with Sketch.</desc>
    <defs></defs>
    <g id="Page-1" stroke="none" stroke-width="1" fill="none" fill-rule="evenodd">
        <path d="M52.7536232,125.797101 L73.0434783,125.797101 C73.0434783,131.423478 68.5249275,135.942029 62.8985507,135.942029 C57.2721739,135.942029 52.7536232,131.423478 52.7536232,125.797101 Z M99.4202899,107.536232 C98.2982609,107.536232 97.3913043,108.443188 97.3913043,109.565217 C97.3913043,110.687246 98.2982609,111.594203 99.4202899,111.594203 C100.542319,111.594203 101.449275,110.687246 101.449275,109.565217 C101.449275,108.443188 100.542319,107.536232 99.4202899,107.536232 Z M91.3043478,107.536232 C90.1823188,107.536232 89.2753623,108.443188 89.2753623,109.565217 C89.2753623,110.687246 90.1823188,111.594203 91.3043478,111.594203 C92.4263768,111.594203 93.3333333,110.687246 93.3333333,109.565217 C93.3333333,108.443188 92.4263768,107.536232 91.3043478,107.536232 Z M83.1884058,107.536232 C82.0663768,107.536232 81.1594203,108.443188 81.1594203,109.565217 C81.1594203,110.687246 82.0663768,111.594203 83.1884058,111.594203 C84.3104348,111.594203 85.2173913,110.687246 85.2173913,109.565217 C85.2173913,108.443188 84.3104348,107.536232 83.1884058,107.536232 Z M75.0724638,107.536232 C73.9504348,107.536232 73.0434783,108.443188 73.0434783,109.565217 C73.0434783,110.687246 73.9504348,111.594203 75.0724638,111.594203 C76.1944928,111.594203 77.1014493,110.687246 77.1014493,109.565217 C77.1014493,108.443188 76.1944928,107.536232 75.0724638,107.536232 Z M66.9565217,107.536232 C65.8344928,107.536232 64.9275362,108.443188 64.9275362,109.565217 C64.9275362,110.687246 65.8344928,111.594203 66.9565217,111.594203 C68.0785507,111.594203 68.9855072,110.687246 68.9855072,109.565217 C68.9855072,108.443188 68.0785507,107.536232 66.9565217,107.536232 Z M58.8405797,107.536232 C57.7205797,107.536232 56.8115942,108.443188 56.8115942,109.565217 C56.8115942,110.687246 57.7205797,111.594203 58.8405797,111.594203 C59.9605797,111.594203 60.8695652,110.687246 60.8695652,109.565217 C60.8695652,108.443188 59.9605797,107.536232 58.8405797,107.536232 Z M50.7246377,107.536232 C49.6046377,107.536232 48.6956522,108.443188 48.6956522,109.565217 C48.6956522,110.687246 49.6046377,111.594203 50.7246377,111.594203 C51.8446377,111.594203 52.7536232,110.687246 52.7536232,109.565217 C52.7536232,108.443188 51.8446377,107.536232 50.7246377,107.536232 Z M42.6086957,107.536232 C41.4886957,107.536232 40.5797101,108.443188 40.5797101,109.565217 C40.5797101,110.687246 41.4886957,111.594203 42.6086957,111.594203 C43.7286957,111.594203 44.6376812,110.687246 44.6376812,109.565217 C44.6376812,108.443188 43.7286957,107.536232 42.6086957,107.536232 Z M34.4927536,107.536232 C33.3727536,107.536232 32.4637681,108.443188 32.4637681,109.565217 C32.4637681,110.687246 33.3727536,111.594203 34.4927536,111.594203 C35.6127536,111.594203 36.5217391,110.687246 36.5217391,109.565217 C36.5217391,108.443188 35.6127536,107.536232 34.4927536,107.536232 Z M26.3768116,107.536232 C25.2568116,107.536232 24.3478261,108.443188 24.3478261,109.565217 C24.3478261,110.687246 25.2568116,111.594203 26.3768116,111.594203 C27.4968116,111.594203 28.4057971,110.687246 28.4057971,109.565217 C28.4057971,108.443188 27.4968116,107.536232 26.3768116,107.536232 Z M122.978841,96.2936232 L121.789855,97.6733333 L121.743188,98.3855072 L121.763478,98.5884058 L122.749565,100.114203 L124.561449,100.24 L125.750435,98.8663768 L125.797101,98.1521739 L125.776812,97.9492754 L124.794783,96.4194203 L122.978841,96.2936232 Z M1.67594203,96.1698551 L0.22115942,97.2634783 L0.0202898551,97.9492754 L0,98.1521739 L0.635072464,99.8565217 L2.37797101,100.367826 L3.83275362,99.2742029 L4.03362319,98.5884058 L4.05391304,98.3855072 L3.42086957,96.6811594 L1.67594203,96.1698551 Z M122.084058,88.0234783 L120.89913,89.4031884 L120.848406,90.1153623 L120.870725,90.3182609 L121.854783,91.844058 L123.668696,91.9698551 L124.853623,90.5942029 L124.906377,89.882029 L124.882029,89.6791304 L123.897971,88.1492754 L122.084058,88.0234783 Z M2.56869565,87.8997101 L1.11391304,88.9933333 L0.915072464,89.6791304 L0.890724638,89.882029 L1.5257971,91.5863768 L3.27275362,92.0936232 L4.72753623,91.004058 L4.92637681,90.3182609 L4.94869565,90.1153623 L4.3115942,88.4110145 L2.56869565,87.8997101 Z M121.191304,79.7533333 L120.004348,81.1310145 L119.955652,81.8452174 L119.975942,82.0481159 L120.962029,83.5718841 L122.773913,83.6997101 L123.962899,82.324058 L124.009565,81.6118841 L123.989275,81.4089855 L123.003188,79.8791304 L121.191304,79.7533333 Z M3.46347826,79.6295652 L2.00869565,80.7231884 L1.80782609,81.4089855 L1.78753623,81.6118841 L2.42057971,83.3162319 L4.16550725,83.8234783 L5.62028986,82.7318841 L5.82115942,82.0481159 L5.84144928,81.8452174 L5.20637681,80.1408696 L3.46347826,79.6295652 Z M120.296522,71.4811594 L119.111594,72.8608696 L119.06087,73.5750725 L119.083188,73.775942 L120.067246,75.3017391 L121.881159,75.4295652 L123.066087,74.053913 L123.118841,73.3397101 L123.094493,73.1388406 L122.112464,71.6089855 L120.296522,71.4811594 Z M4.3542029,71.3594203 L2.90550725,72.4530435 L2.7026087,73.1388406 L2.67826087,73.3397101 L3.3173913,75.04 L5.06028986,75.5513043 L6.51507246,74.4617391 L6.71391304,73.775942 L6.73623188,73.5750725 L6.10318841,71.8707246 L4.3542029,71.3594203 Z M119.401739,63.2110145 L118.216812,64.5907246 L118.164058,65.3049275 L118.188406,65.5057971 L119.170435,67.0315942 L120.986377,67.1594203 L122.171304,65.7837681 L122.222029,65.0695652 L122.19971,64.8686957 L121.215652,63.3388406 L119.401739,63.2110145 Z M5.25101449,63.0892754 L3.79623188,64.1788406 L3.5973913,64.8686957 L3.57507246,65.0695652 L4.20811594,66.7698551 L5.95710145,67.2811594 L7.4057971,66.1915942 L7.60869565,65.5057971 L7.63304348,65.3049275 L6.99391304,63.6005797 L5.25101449,63.0892754 Z M118.508986,54.9408696 L117.32,56.3205797 L117.273333,57.0327536 L117.293623,57.2356522 L118.27971,58.7614493 L120.091594,58.8872464 L121.278551,57.5136232 L121.327246,56.7994203 L121.306957,56.5985507 L120.32087,55.0686957 L118.508986,54.9408696 Z M6.1457971,54.8191304 L4.69304348,55.9086957 L4.49014493,56.5985507 L4.46985507,56.7994203 L5.10492754,58.4997101 L6.84782609,59.0110145 L8.3026087,57.9214493 L8.50347826,57.2356522 L8.52376812,57.0327536 L7.89072464,55.3304348 L6.1457971,54.8191304 Z M117.614203,46.6707246 L116.429275,48.0504348 L116.376522,48.7626087 L116.40087,48.9655072 L117.384928,50.4913043 L119.198841,50.6171014 L120.383768,49.2434783 L120.434493,48.5252174 L120.412174,48.3263768 L119.428116,46.7965217 L117.614203,46.6707246 Z M7.03855072,46.5469565 L5.58376812,47.6385507 L5.38492754,48.3263768 L5.3626087,48.5252174 L5.99971014,50.2295652 L7.7426087,50.7408696 L9.1973913,49.6513043 L9.39623188,48.9655072 L9.42057971,48.7626087 L8.78550725,47.0582609 L7.03855072,46.5469565 Z M91.3043478,38.5507246 C90.1823188,38.5507246 89.2753623,39.4597101 89.2753623,40.5797101 C89.2753623,41.6997101 90.1823188,42.6086957 91.3043478,42.6086957 C92.4263768,42.6086957 93.3333333,41.6997101 93.3333333,40.5797101 C93.3333333,39.4597101 92.4263768,38.5507246 91.3043478,38.5507246 Z M83.1884058,38.5507246 C82.0663768,38.5507246 81.1594203,39.4597101 81.1594203,40.5797101 C81.1594203,41.6997101 82.0663768,42.6086957 83.1884058,42.6086957 C84.3104348,42.6086957 85.2173913,41.6997101 85.2173913,40.5797101 C85.2173913,39.4597101 84.3104348,38.5507246 83.1884058,38.5507246 Z M75.0724638,38.5507246 C73.9504348,38.5507246 73.0434783,39.4597101 73.0434783,40.5797101 C73.0434783,41.6997101 73.9504348,42.6086957 75.0724638,42.6086957 C76.1944928,42.6086957 77.1014493,41.6997101 77.1014493,40.5797101 C77.1014493,39.4597101 76.1944928,38.5507246 75.0724638,38.5507246 Z M66.9565217,38.5507246 C65.8344928,38.5507246 64.9275362,39.4597101 64.9275362,40.5797101 C64.9275362,41.6997101 65.8344928,42.6086957 66.9565217,42.6086957 C68.0785507,42.6086957 68.9855072,41.6997101 68.9855072,40.5797101 C68.9855072,39.4597101 68.0785507,38.5507246 66.9565217,38.5507246 Z M58.8405797,38.5507246 C57.7205797,38.5507246 56.8115942,39.4597101 56.8115942,40.5797101 C56.8115942,41.6997101 57.7205797,42.6086957 58.8405797,42.6086957 C59.9605797,42.6086957 60.8695652,41.6997101 60.8695652,40.5797101 C60.8695652,39.4597101 59.9605797,38.5507246 58.8405797,38.5507246 Z M50.7246377,38.5507246 C49.6046377,38.5507246 48.6956522,39.4597101 48.6956522,40.5797101 C48.6956522,41.6997101 49.6046377,42.6086957 50.7246377,42.6086957 C51.8446377,42.6086957 52.7536232,41.6997101 52.7536232,40.5797101 C52.7536232,39.4597101 51.8446377,38.5507246 50.7246377,38.5507246 Z M42.6086957,38.5507246 C41.4886957,38.5507246 40.5797101,39.4597101 40.5797101,40.5797101 C40.5797101,41.6997101 41.4886957,42.6086957 42.6086957,42.6086957 C43.7286957,42.6086957 44.6376812,41.6997101 44.6376812,40.5797101 C44.6376812,39.4597101 43.7286957,38.5507246 42.6086957,38.5507246 Z M34.4927536,38.5507246 C33.3727536,38.5507246 32.4637681,39.4597101 32.4637681,40.5797101 C32.4637681,41.6997101 33.3727536,42.6086957 34.4927536,42.6086957 C35.6127536,42.6086957 36.5217391,41.6997101 36.5217391,40.5797101 C36.5217391,39.4597101 35.6127536,38.5507246 34.4927536,38.5507246 Z M62.8985507,14.2028986 C78.9823188,14.2028986 92.4344928,25.8857971 94.9849275,41.4278261 L95.1797101,42.5884058 L96.2814493,42.9962319 C98.3875362,43.7814493 99.962029,45.6805797 100.217681,48.0423188 L106.458841,105.785217 C106.527826,106.432464 106.665797,107.055362 106.826087,107.666087 C106.034783,107.962319 105.509275,108.71913 105.507246,109.565217 C105.507246,110.687246 106.414203,111.594203 107.536232,111.594203 C107.862899,111.592174 108.185507,111.513043 108.475652,111.36087 C110.512754,114.493623 113.842319,116.684928 117.681159,117.297681 L117.681159,121.73913 L8.11594203,121.73913 L8.11594203,117.297681 C11.9547826,116.684928 15.2843478,114.493623 17.3214493,111.36087 C17.6115942,111.513043 17.9342029,111.592174 18.2608696,111.594203 C19.3808696,111.594203 20.2898551,110.687246 20.2898551,109.565217 C20.2898551,108.71913 19.7623188,107.962319 18.9710145,107.666087 C19.1313043,107.055362 19.2692754,106.432464 19.3382609,105.785217 L25.5794203,48.0423188 C25.8350725,45.6805797 27.4095652,43.7814493 29.5156522,42.9962319 L30.6173913,42.5884058 L30.8121739,41.4278261 C33.3626087,25.8857971 46.8147826,14.2028986 62.8985507,14.2028986 Z M62.8985507,4.05797101 C65.1628986,4.05797101 66.9565217,5.84956522 66.9565217,8.11594203 L66.9565217,10.3944928 C65.6214493,10.2463768 64.2721739,10.1449275 62.8985507,10.1449275 C61.5249275,10.1449275 60.1756522,10.2463768 58.8405797,10.3944928 L58.8405797,8.11594203 C58.8405797,5.84956522 60.6321739,4.05797101 62.8985507,4.05797101 Z M62.8985507,0 C58.4408696,0 54.7826087,3.65826087 54.7826087,8.11594203 L54.7826087,11.0924638 C40.74,14.2982609 29.7002899,25.6017391 27.0078261,39.9933333 C24.1408696,41.5313043 21.9171014,44.1791304 21.5457971,47.606087 L15.3046377,105.348986 C14.7953623,110.072464 10.8388406,113.623188 6.08695652,113.623188 L4.05797101,113.623188 L4.05797101,125.797101 L48.6956522,125.797101 C48.6956522,133.616812 55.0788406,140 62.8985507,140 C70.7182609,140 77.1014493,133.616812 77.1014493,125.797101 L121.73913,125.797101 L121.73913,113.623188 L119.710145,113.623188 C114.958261,113.623188 111.001739,110.072464 110.492464,105.348986 L104.251304,47.606087 C103.88,44.1791304 101.656232,41.5313043 98.7892754,39.9933333 C96.0968116,25.6017391 85.0591304,14.2982609 71.0144928,11.0924638 L71.0144928,8.11594203 C71.0144928,3.65826087 67.3562319,0 62.8985507,0 Z" fill="#64FAFA"></path>
    </g>
</svg>