<?xml version="1.0" encoding="utf-8"?>
<!-- Generator: Adobe Illustrator 16.0.0, SVG Export Plug-In . SVG Version: 6.00 Build 0)  -->
<!DOCTYPE svg PUBLIC "-//W3C//DTD SVG 1.1//EN" "http://www.w3.org/Graphics/SVG/1.1/DTD/svg11.dtd">
<svg version="1.1" id="Layer_1" xmlns="http://www.w3.org/2000/svg" xmlns:xlink="http://www.w3.org/1999/xlink" x="0px" y="0px"
	 width="450px" height="200px" viewBox="25 0 450 200" enable-background="new 25 0 450 200" xml:space="preserve">
<g>
	<g>
		<g>
			<path d="M155.839,91.043c-0.066,0-0.166,0.036-0.315,0.095c-0.292,0.118-0.722,0.185-1.399,0.215
				c-0.623,0.032-5.768,0.032-6.794,0.032c-0.501,0-0.996-0.021-1.519-0.043c-0.534-0.023-1.086-0.048-1.66-0.048
				c-0.329,0-0.478,0.07-0.478,0.227c0,0.127,0.156,0.224,0.414,0.258c0.141,0.016,0.267,0.023,0.391,0.031
				c0.124,0.009,0.25,0.017,0.388,0.03c0.457,0.044,0.752,0.187,0.926,0.44c0.166,0.242,0.213,0.583,0.246,1.019
				c0.061,0.842,0.055,1.579,0.055,5.671v4.674c0,2.729-0.032,4.422-0.118,5.485c-0.063,1.138-0.155,1.613-0.862,1.705
				c-0.112,0.017-0.211,0.022-0.337,0.037c-0.089,0.004-0.188,0.012-0.314,0.022c-0.211,0.029-0.32,0.105-0.32,0.228
				c0,0.155,0.143,0.222,0.446,0.222c0.674,0,1.99-0.096,2.525-0.096h0.217c0.028,0,0.132,0.008,0.29,0.014
				c0.571,0.027,1.902,0.084,3.171,0.084c0.28,0,0.416-0.037,0.416-0.188c0-0.125-0.114-0.195-0.381-0.195h-0.006
				c-0.276,0-0.56-0.094-0.96-0.156c-0.862-0.123-1.1-0.343-1.131-1.91c-0.022-0.932-0.078-2.864-0.078-5.222v-2.183
				c0-0.209,0.044-0.271,0.225-0.271c0.994,0,3.371,0.01,3.935,0.094c1.507,0.185,1.584,1.222,1.617,1.664l0.002,0.013
				c0.002,0.024,0.006,0.049,0.008,0.075c0.025,0.238,0.042,0.396,0.219,0.396c0.156,0,0.228-0.146,0.228-0.475
				c0-0.473,0.037-1.033,0.124-1.807c0.056-0.563,0.124-0.98,0.167-1.256c0.029-0.184,0.05-0.302,0.05-0.365
				c0-0.19-0.046-0.292-0.131-0.292c-0.118,0-0.183,0.082-0.288,0.213c-0.011,0.012-0.021,0.026-0.032,0.04
				c-0.394,0.485-0.775,0.557-2.08,0.589c-1.028,0.032-2.519,0.032-3.82,0.032c-0.173,0-0.225-0.11-0.225-0.273v-7.042
				c0-0.24,0.071-0.303,0.29-0.303c1.267,0,2.421,0.027,3.634,0.055l0.303,0.008c0.743,0.028,1.329,0.052,1.743,0.434
				c0.371,0.372,0.499,1.221,0.499,1.552c0.024,0.178,0.078,0.381,0.257,0.381c0.104,0,0.228-0.084,0.228-0.475
				c0.021-0.295,0.034-0.558,0.042-0.811c0.018-0.441,0.036-0.856,0.114-1.371c0.029-0.295,0.122-0.732,0.187-0.964
				c0.036-0.106,0.034-0.192-0.002-0.244C155.914,91.059,155.881,91.043,155.839,91.043"/>
		</g>
		<g>
			<path d="M174.132,107.4c-0.174,0-0.228,0.156-0.258,0.383c-0.067,0.506-0.299,1.117-0.59,1.555
				c-0.682,0.87-1.952,0.87-3.297,0.87c-1.769,0-2.674-0.09-3.281-0.622c-0.547-0.518-0.667-2.466-0.667-5.885v-4.739
				c0-1.269,0.012-2.229,0.01-2.934c-0.004-1.63,0.002-2.124,0.043-2.705c0.064-0.912,0.255-1.396,1.12-1.519
				c0.305-0.031,0.623-0.062,0.842-0.062c0.198,0,0.352-0.101,0.352-0.228c0-0.149-0.134-0.225-0.413-0.225
				c-0.511,0-1.387,0.034-2.09,0.058c-0.503,0.02-0.938,0.036-1.12,0.036c-0.011,0-0.08-0.002-0.194-0.008
				c-0.541-0.024-1.972-0.085-3.048-0.085c-0.33,0-0.478,0.07-0.478,0.225c0,0.138,0.138,0.228,0.352,0.228
				c0.25,0,0.59,0,0.777,0.032c1.061,0.123,1.173,0.694,1.234,1.548c0.062,0.842,0.059,1.48,0.059,5.638v4.678
				c0,0.496,0.008,0.98,0.01,1.452c0.01,1.793,0.02,3.343-0.127,4.28c-0.084,0.667-0.242,1.361-0.803,1.458
				c-0.25,0.062-0.501,0.062-0.747,0.062c-0.259,0-0.351,0.103-0.351,0.195c0,0.178,0.156,0.257,0.507,0.257
				c0.555,0,0.992-0.022,1.414-0.047c0.423-0.024,0.822-0.045,1.329-0.045c1.707,0,3.198,0.049,4.514,0.09
				c1.082,0.037,2.101,0.066,3.059,0.066c1.43,0,1.472-0.146,1.632-0.695c0.009-0.03,0.017-0.06,0.026-0.09
				c0.188-0.722,0.375-2.511,0.375-2.808C174.328,107.52,174.274,107.4,174.132,107.4"/>
		</g>
		<g>
			<path d="M190.869,107.527c-0.138,0-0.227,0.143-0.29,0.445c-0.255,1.187-0.477,1.773-1.397,2.047
				c-0.696,0.199-1.581,0.195-2.168,0.191c-0.069,0-0.135-0.004-0.199-0.004c-1.188,0-1.847-0.078-2.271-0.279
				c-0.661-0.281-0.806-0.875-0.869-2.02c-0.022-0.376,0.004-1.846,0.012-3.03c0.002-0.497,0.024-0.925,0.024-1.207v-2.276
				c0-0.129,0.018-0.209,0.191-0.209c0.502,0,3.009,0.062,3.731,0.125c1.232,0.097,1.375,0.576,1.483,0.93
				c0.063,0.255,0.092,0.564,0.092,0.744c0,0.193,0.02,0.412,0.194,0.412c0.131,0,0.193-0.098,0.225-0.349
				c0.01-0.134,0.019-0.291,0.026-0.476c0.016-0.375,0.038-0.842,0.097-1.428c0.054-0.522,0.122-0.952,0.166-1.231
				c0.032-0.213,0.053-0.354,0.053-0.421c0-0.129-0.043-0.196-0.133-0.196c-0.131,0-0.225,0.07-0.349,0.254
				c-0.251,0.345-0.733,0.435-1.428,0.463c-0.654,0.062-3.83,0.094-4.189,0.094c-0.148,0-0.16-0.116-0.16-0.303v-7.072
				c0-0.216,0.065-0.24,0.13-0.24c0.028,0,3.137,0.03,3.542,0.06c0.789,0.047,1.24,0.127,1.521,0.271
				c0.29,0.144,0.4,0.361,0.493,0.663c0.12,0.282,0.191,0.606,0.215,0.992c0,0.237,0.074,0.351,0.225,0.351
				c0.148,0,0.226-0.164,0.226-0.475c0.021-0.443,0.046-0.841,0.069-1.224c0.009-0.131,0.017-0.263,0.022-0.393
				c0.04-0.489,0.127-0.849,0.187-1.084c0.036-0.144,0.064-0.25,0.064-0.319c0-0.168-0.072-0.226-0.134-0.226
				c-0.089,0-0.131,0.016-0.213,0.046c-0.036,0.012-0.076,0.027-0.13,0.046c-0.25,0.092-0.589,0.124-1.213,0.154
				c-0.614,0.031-6.091,0.031-6.325,0.031c-0.962-0.016-1.637-0.042-2.178-0.061c-0.438-0.021-0.752-0.032-1.032-0.032
				c-0.337,0-0.475,0.076-0.475,0.257c0,0.104,0.197,0.196,0.415,0.196c0.255,0,0.566,0.034,0.747,0.063
				c0.446,0.092,0.724,0.242,0.903,0.487c0.158,0.217,0.22,0.517,0.253,1c0.062,0.842,0.044,1.579,0.044,5.671v4.674
				c0,2.387-0.012,3.682-0.044,4.704c-0.06,1.882-0.398,2.326-0.981,2.454c-0.209,0.059-0.425,0.094-0.617,0.094
				c-0.162,0-0.288,0.101-0.288,0.228c0,0.151,0.141,0.226,0.447,0.226c0.377,0,0.72-0.025,1.05-0.047
				c0.321-0.023,0.653-0.047,1.006-0.047c0.838,0,1.84,0.035,2.725,0.064c0.337,0.01,0.657,0.021,0.953,0.031
				c0.459,0,0.88,0.01,1.369,0.024c0.684,0.017,1.463,0.037,2.652,0.037c1.021,0,1.251-0.06,1.379-0.691
				c0.097-0.544,0.342-2.499,0.342-2.712C191.062,107.812,191.062,107.527,190.869,107.527"/>
		</g>
		<g>
			<path d="M208.381,107.527c-0.136,0-0.227,0.143-0.29,0.445c-0.255,1.187-0.477,1.773-1.396,2.047
				c-0.697,0.199-1.581,0.195-2.168,0.191c-0.069,0-0.136-0.004-0.199-0.004c-1.188,0-1.847-0.078-2.272-0.279
				c-0.661-0.281-0.806-0.875-0.869-2.02c-0.021-0.376-0.057-1.846-0.047-3.03c0.002-0.497-0.038-0.925-0.038-1.207v-2.276
				c0-0.129,0.078-0.209,0.253-0.209c0.501,0,3.038,0.062,3.761,0.125c1.231,0.097,1.391,0.576,1.499,0.93
				c0.063,0.255,0.098,0.564,0.098,0.744c0,0.193,0.026,0.412,0.2,0.412c0.129,0,0.196-0.098,0.227-0.349
				c0.011-0.134,0.019-0.291,0.026-0.476c0.016-0.375,0.038-0.842,0.099-1.428c0.055-0.522,0.122-0.952,0.166-1.231
				c0.032-0.213,0.054-0.354,0.054-0.421c0-0.129-0.043-0.196-0.132-0.196c-0.131,0-0.227,0.07-0.349,0.254
				c-0.251,0.345-0.732,0.435-1.427,0.463c-0.655,0.062-3.893,0.094-4.249,0.094c-0.15,0-0.222-0.116-0.222-0.303v-7.072
				c0-0.216,0.127-0.24,0.19-0.24c0.027,0,3.167,0.03,3.575,0.06c0.787,0.047,1.253,0.127,1.535,0.271
				c0.292,0.144,0.411,0.361,0.501,0.663c0.12,0.282,0.193,0.606,0.219,0.992c0,0.237,0.076,0.351,0.227,0.351
				c0.15,0,0.228-0.164,0.228-0.475c0.021-0.443,0.046-0.841,0.07-1.224c0.006-0.131,0.016-0.263,0.023-0.393
				c0.04-0.489,0.127-0.849,0.188-1.084c0.036-0.144,0.062-0.25,0.062-0.319c0-0.168-0.072-0.226-0.134-0.226
				c-0.087,0-0.131,0.016-0.213,0.046c-0.034,0.012-0.076,0.027-0.129,0.046c-0.248,0.092-0.589,0.124-1.213,0.154
				c-0.615,0.031-6.092,0.031-6.326,0.031c-0.962-0.016-1.637-0.042-2.177-0.061c-0.437-0.021-0.752-0.032-1.032-0.032
				c-0.337,0-0.477,0.076-0.477,0.257c0,0.104,0.198,0.196,0.415,0.196c0.257,0,0.566,0.034,0.747,0.063
				c0.446,0.092,0.724,0.242,0.903,0.487c0.158,0.217,0.208,0.517,0.242,1c0.062,0.842,0.028,1.579,0.028,5.671v4.674
				c0,2.387,0,3.682-0.028,4.704c-0.061,1.882-0.393,2.326-0.976,2.454c-0.209,0.059-0.421,0.094-0.613,0.094
				c-0.162,0-0.286,0.101-0.286,0.228c0,0.151,0.144,0.226,0.447,0.226c0.377,0,0.72-0.025,1.052-0.047
				c0.322-0.023,0.653-0.047,1.006-0.047c0.839,0,1.841,0.035,2.725,0.064c0.337,0.01,0.657,0.021,0.954,0.031
				c0.459,0,0.88,0.01,1.369,0.024c0.684,0.017,1.461,0.037,2.653,0.037c1.021,0,1.253-0.06,1.379-0.691
				c0.096-0.544,0.341-2.499,0.341-2.712C208.577,107.812,208.577,107.527,208.381,107.527"/>
		</g>
		<g>
			<path d="M229.948,91.104c-0.068,0-0.135,0.016-0.317,0.06c-0.072,0.018-0.162-0.048-0.277-0.022
				c-0.428,0.09-1.35,0.066-2.242,0.066H216.89c-0.062,0-0.946,0.052-1.994-0.066c-0.318-0.038-0.643-0.097-0.906-0.181
				c-0.208-0.066-0.372-0.098-0.467-0.098c-0.112,0-0.204,0.172-0.29,0.517c-0.021,0.086-0.042,0.19-0.064,0.293
				c-0.219,0.984-0.586,2.632-0.558,2.8c0,0.124,0.017,0.291,0.164,0.291c0.131,0,0.196-0.04,0.29-0.253
				c0.008-0.021,0.018-0.046,0.029-0.075c0.068-0.18,0.196-0.514,0.438-0.889c0.435-0.651,0.85-0.962,2.853-0.994
				c1.244-0.031,2.87-0.031,3.908-0.031v11.117c0,2.357,0.008,4.58-0.116,5.7c-0.124,1.052-0.213,1.429-0.798,1.521
				c-0.25,0.033-0.43,0.033-0.684,0.033c-0.241,0-0.351,0.117-0.351,0.228c0,0.159,0.133,0.224,0.477,0.224
				c0.583,0,1.714-0.049,2.323-0.074c0.244-0.012,0.417-0.02,0.454-0.02c0.026,0,0.137,0.006,0.307,0.012
				c0.6,0.025,2.005,0.082,3.246,0.082c0.292,0,0.415-0.076,0.415-0.257c0-0.094-0.119-0.196-0.383-0.196
				c-0.275,0-0.85-0.033-1.213-0.123c-0.783-0.188-0.762-0.629-0.855-1.367c-0.105-0.979-0.079-2.812-0.079-5.762V92.52
				c0.283,0.003,0.776,0.009,1.237,0.015c0.541,0.01,1.064,0.018,1.697,0.018c1.649,0.018,2.463,0.112,2.95,0.339
				c0.506,0.236,0.628,0.621,0.691,1.244c0.031,0.312,0.025,0.344,0.025,0.436c0,0.265,0.068,0.381,0.224,0.381
				c0.083,0,0.225-0.08,0.225-0.381c0-0.085,0.008-0.396,0.016-0.788c0.021-0.771,0.044-1.821,0.044-2.392
				C230.144,91.275,230.082,91.104,229.948,91.104"/>
		</g>
		<g>
			<path d="M252.734,99.802l-0.715-0.562c-2.646-2.008-3.333-2.898-3.333-4.325c0-0.896,0.322-1.653,0.933-2.192
				c0.58-0.511,1.41-0.792,2.334-0.792c1.107,0,2.004,0.211,2.663,0.627c0.362,0.228,0.637,0.509,0.817,0.834
				c0.27,0.508,0.336,1.126,0.371,1.426l0.002,0.038c0.032,0.217,0.061,0.349,0.229,0.349c0.158,0,0.226-0.186,0.226-0.661
				c0-1.433,0.076-2.407,0.109-2.822c0.008-0.109,0.016-0.175,0.016-0.202c0-0.142-0.079-0.197-0.288-0.197
				c-0.203,0-0.44-0.026-1.061-0.156c-0.77-0.173-1.523-0.248-2.526-0.248c-1.708,0-3.16,0.457-4.198,1.326
				c-1.031,0.864-1.576,2.068-1.576,3.481c0,1.047,0.212,1.894,0.687,2.737c0.554,0.988,1.517,2.022,2.936,3.158l1.244,0.967
				c1.225,0.987,1.941,1.7,2.396,2.373c0.477,0.707,0.688,1.426,0.688,2.327c0,0.819-0.345,1.639-0.944,2.245
				c-0.489,0.49-1.386,1.08-2.88,1.08c-0.979,0-1.858-0.223-2.547-0.645c-0.804-0.486-1.307-1.212-1.497-2.156
				c-0.091-0.373-0.091-0.752-0.091-0.932c0-0.226-0.067-0.322-0.228-0.322c-0.148,0-0.224,0.131-0.257,0.445
				c-0.003,0.049-0.006,0.105-0.012,0.172c-0.04,0.52-0.111,1.493-0.111,2.766c0,0.746,0,0.902,0.408,1.076l0,0
				c1.061,0.434,2.207,0.678,3.711,0.678c1.639,0,3.097-0.377,4.208-1.094c1.75-1.205,2.373-3.082,2.373-4.436
				c0-1.2-0.254-2.148-0.825-3.078C255.372,102.078,254.337,101.034,252.734,99.802"/>
		</g>
		<g>
			<path d="M277.786,91.104c-0.068,0-0.136,0.016-0.317,0.06c-0.07,0.018-0.16-0.048-0.277-0.022
				c-0.426,0.09-1.349,0.066-2.24,0.066h-10.223c-0.062,0-0.946,0.052-1.994-0.066c-0.316-0.038-0.642-0.097-0.903-0.181
				c-0.207-0.066-0.371-0.098-0.466-0.098c-0.113,0-0.205,0.172-0.291,0.517c-0.018,0.086-0.041,0.19-0.064,0.293
				c-0.218,0.984-0.584,2.632-0.557,2.8c0,0.124,0.018,0.291,0.163,0.291c0.131,0,0.196-0.04,0.289-0.253
				c0.008-0.021,0.02-0.046,0.03-0.075c0.065-0.18,0.196-0.514,0.438-0.889c0.438-0.651,0.844-0.962,2.846-0.994
				c1.243-0.031,2.959-0.031,3.904-0.031v11.117c0,2.357,0.014,4.58-0.111,5.7c-0.123,1.052-0.209,1.429-0.795,1.521
				c-0.248,0.033-0.427,0.033-0.681,0.033c-0.241,0-0.349,0.117-0.349,0.228c0,0.159,0.131,0.224,0.476,0.224
				c0.581,0,1.713-0.049,2.321-0.074c0.242-0.012,0.419-0.02,0.453-0.02c0.027,0,0.138,0.006,0.31,0.012
				c0.597,0.025,1.999,0.082,3.243,0.082c0.29,0,0.413-0.076,0.413-0.257c0-0.094-0.119-0.196-0.382-0.196
				c-0.277,0-0.852-0.033-1.213-0.123c-0.781-0.188-0.861-0.629-0.953-1.367c-0.107-0.979-0.182-2.812-0.182-5.762V92.52
				c0.377,0.003,0.875,0.009,1.338,0.015c0.539,0.01,1.112,0.018,1.745,0.018c1.646,0.018,2.487,0.112,2.976,0.339
				c0.507,0.236,0.64,0.621,0.703,1.244c0.033,0.312,0.033,0.344,0.033,0.436c0,0.265,0.07,0.381,0.227,0.381
				c0.084,0,0.229-0.08,0.229-0.381c0-0.085,0.008-0.396,0.018-0.788c0.019-0.771,0.044-1.821,0.044-2.392
				C277.982,91.275,277.921,91.104,277.786,91.104"/>
		</g>
		<g>
			<path d="M287.305,92.704c0-0.156,0.122-0.244,0.209-0.274c0.387-0.098,1.077-0.155,1.817-0.155c1.38,0,2.538,0.469,3.333,1.358
				c0.816,0.912,1.252,2.26,1.252,3.9c0,1.884-0.564,3.324-1.552,3.949c-0.647,0.433-1.415,0.466-2.087,0.466
				c-1.092,0-2.389-0.185-2.795-0.402c-0.102-0.051-0.18-0.172-0.18-0.366v-8.476H287.305z M303.188,110.895
				c-0.095,0-0.75-0.033-0.967-0.062c-0.847-0.12-1.798-0.366-3.299-1.898c-1.585-1.645-3.406-3.896-5.716-6.74l-0.013-0.016
				c2.871-2.329,3.3-4.691,3.3-5.891c0-2.251-1.435-3.485-1.872-3.809c-1.488-1.044-3.422-1.187-5.116-1.187
				c-0.556,0-1.616,0.04-2.392,0.066c-0.436,0.016-0.78,0.027-0.877,0.027c-0.012,0-0.08-0.002-0.195-0.008
				c-0.548-0.024-2.01-0.085-3.111-0.085c-0.253,0-0.382,0.078-0.382,0.227c0,0.088,0.062,0.196,0.351,0.196
				c0.259,0,0.569,0.032,0.75,0.061c0.463,0.091,0.77,0.25,0.955,0.501c0.162,0.217,0.244,0.515,0.279,0.987
				c0.062,0.843,0.061,1.584,0.061,5.702v4.676c0,0.336,0.002,0.672,0.002,1.012c0.009,1.988,0.009,4.039-0.123,5.005
				c-0.098,0.788-0.299,1.087-0.803,1.177c-0.246,0.061-0.465,0.061-0.682,0.061c-0.193,0-0.381,0.099-0.381,0.195
				c0,0.189,0.117,0.26,0.445,0.26c0.471,0,1.113-0.031,1.68-0.058c0.438-0.021,0.814-0.039,1.033-0.039
				c0.027,0,0.129,0.006,0.289,0.013c0.58,0.026,1.931,0.084,3.199,0.084c0.301,0,0.444-0.086,0.444-0.26
				c0-0.098-0.125-0.195-0.409-0.195c-0.246,0-0.58-0.03-0.904-0.062c-0.469-0.058-0.771-0.218-0.955-0.511
				c-0.163-0.272-0.237-0.629-0.282-0.979c-0.156-1.122-0.187-3.438-0.187-5.888v-0.438c0-0.119,0.056-0.146,0.176-0.146
				l3.225,0.033c0.186,0,0.254,0.061,0.377,0.184c0.208,0.256,0.532,0.676,0.906,1.164c0.602,0.781,1.352,1.756,2.092,2.668
				c0.221,0.287,0.428,0.557,0.625,0.812c1.271,1.66,2.109,2.754,3.244,3.235c0.691,0.286,1.38,0.376,2.838,0.376h2.182
				c0.426,0,0.57-0.053,0.57-0.224C303.537,110.932,303.348,110.895,303.188,110.895"/>
		</g>
		<g>
			<path d="M316.18,107.527c-0.137,0-0.226,0.143-0.287,0.445c-0.259,1.187-0.479,1.773-1.396,2.047
				c-0.698,0.199-1.583,0.195-2.168,0.191c-0.07,0-0.137-0.004-0.201-0.004c-1.188,0-1.846-0.078-2.271-0.279
				c-0.66-0.281-0.805-0.875-0.869-2.02c-0.022-0.376-0.034-1.846-0.026-3.03c0.002-0.497-0.017-0.925-0.017-1.207v-2.276
				c0-0.129,0.056-0.209,0.23-0.209c0.499,0,3.026,0.062,3.75,0.125c1.231,0.097,1.385,0.576,1.493,0.93
				c0.062,0.255,0.099,0.564,0.099,0.744c0,0.193,0.022,0.412,0.193,0.412c0.133,0,0.199-0.098,0.229-0.349
				c0.011-0.134,0.019-0.291,0.025-0.476c0.016-0.375,0.039-0.842,0.102-1.428c0.053-0.522,0.121-0.952,0.164-1.231
				c0.031-0.213,0.053-0.354,0.053-0.421c0-0.129-0.041-0.196-0.131-0.196c-0.133,0-0.227,0.07-0.352,0.254
				c-0.251,0.345-0.732,0.435-1.429,0.463c-0.653,0.062-3.869,0.094-4.226,0.094c-0.15,0-0.201-0.116-0.201-0.303v-7.072
				c0-0.216,0.104-0.24,0.168-0.24c0.027,0,3.156,0.03,3.562,0.06c0.788,0.047,1.248,0.127,1.53,0.271
				c0.291,0.144,0.406,0.361,0.497,0.663c0.121,0.282,0.194,0.606,0.219,0.992c0,0.237,0.074,0.351,0.226,0.351
				c0.148,0,0.228-0.164,0.228-0.475c0.022-0.443,0.047-0.841,0.069-1.224c0.007-0.131,0.017-0.263,0.023-0.393
				c0.039-0.489,0.129-0.849,0.188-1.084c0.037-0.144,0.062-0.25,0.062-0.319c0-0.168-0.069-0.226-0.133-0.226
				c-0.089,0-0.13,0.016-0.212,0.046c-0.037,0.012-0.076,0.027-0.131,0.046c-0.249,0.092-0.59,0.124-1.213,0.154
				c-0.615,0.031-6.094,0.031-6.324,0.031c-0.963-0.016-1.637-0.042-2.178-0.061c-0.44-0.021-0.756-0.032-1.035-0.032
				c-0.338,0-0.475,0.076-0.475,0.257c0,0.104,0.197,0.196,0.414,0.196c0.258,0,0.564,0.034,0.744,0.063
				c0.448,0.092,0.725,0.242,0.902,0.487c0.158,0.217,0.229,0.517,0.263,1c0.063,0.842,0.054,1.579,0.054,5.671v4.674
				c0,2.387-0.021,3.682-0.054,4.704c-0.059,1.882-0.401,2.326-0.981,2.454c-0.211,0.059-0.43,0.094-0.621,0.094
				c-0.162,0-0.287,0.101-0.287,0.228c0,0.151,0.141,0.226,0.443,0.226c0.379,0,0.723-0.025,1.054-0.047
				c0.319-0.023,0.651-0.047,1.006-0.047c0.84,0,1.842,0.035,2.722,0.064c0.34,0.01,0.658,0.021,0.957,0.031
				c0.458,0,0.879,0.01,1.366,0.024c0.687,0.017,1.464,0.037,2.653,0.037c1.021,0,1.252-0.06,1.379-0.691
				c0.096-0.544,0.344-2.499,0.344-2.712C316.377,107.812,316.377,107.527,316.18,107.527"/>
		</g>
		<g>
			<path d="M333.695,107.527c-0.137,0-0.227,0.143-0.288,0.445c-0.257,1.187-0.478,1.773-1.397,2.047
				c-0.695,0.199-1.58,0.195-2.168,0.191c-0.07,0-0.135-0.004-0.199-0.004c-1.187,0-1.846-0.078-2.271-0.279
				c-0.662-0.281-0.808-0.875-0.869-2.02c-0.022-0.376-0.002-1.846,0.006-3.03c0.005-0.497,0.019-0.925,0.019-1.207v-2.276
				c0-0.129,0.022-0.209,0.199-0.209c0.502,0,3.01,0.062,3.733,0.125c1.231,0.097,1.376,0.576,1.485,0.93
				c0.062,0.255,0.09,0.564,0.09,0.744c0,0.193,0.023,0.412,0.193,0.412c0.133,0,0.195-0.098,0.228-0.349
				c0.012-0.134,0.021-0.291,0.026-0.476c0.017-0.375,0.035-0.842,0.099-1.428c0.054-0.522,0.12-0.952,0.165-1.231
				c0.033-0.213,0.053-0.354,0.053-0.421c0-0.129-0.043-0.196-0.133-0.196c-0.132,0-0.227,0.07-0.35,0.254
				c-0.25,0.345-0.731,0.435-1.428,0.463c-0.654,0.062-3.836,0.094-4.195,0.094c-0.147,0-0.168-0.116-0.168-0.303v-7.072
				c0-0.216,0.074-0.24,0.136-0.24c0.028,0,3.14,0.03,3.545,0.06c0.79,0.047,1.24,0.127,1.521,0.271
				c0.293,0.144,0.406,0.361,0.496,0.663c0.121,0.282,0.19,0.606,0.215,0.992c0,0.237,0.074,0.351,0.226,0.351
				c0.147,0,0.228-0.164,0.228-0.475c0.022-0.443,0.047-0.841,0.069-1.224c0.009-0.131,0.017-0.263,0.022-0.393
				c0.043-0.489,0.129-0.849,0.188-1.084c0.039-0.144,0.064-0.25,0.064-0.319c0-0.168-0.072-0.226-0.135-0.226
				c-0.09,0-0.129,0.016-0.215,0.046c-0.033,0.012-0.074,0.027-0.129,0.046c-0.246,0.092-0.589,0.124-1.212,0.154
				c-0.616,0.031-6.094,0.031-6.327,0.031c-0.959-0.016-1.634-0.042-2.178-0.061c-0.438-0.021-0.752-0.032-1.033-0.032
				c-0.337,0-0.476,0.076-0.476,0.257c0,0.104,0.2,0.196,0.415,0.196c0.256,0,0.564,0.034,0.744,0.063
				c0.449,0.092,0.726,0.242,0.902,0.487c0.158,0.217,0.264,0.517,0.295,1c0.063,0.842,0.086,1.579,0.086,5.671v4.674
				c0,2.387-0.054,3.682-0.086,4.704c-0.06,1.882-0.418,2.326-1.002,2.454c-0.209,0.059-0.436,0.094-0.623,0.094
				c-0.162,0-0.293,0.101-0.293,0.228c0,0.151,0.139,0.226,0.443,0.226c0.377,0,0.718-0.025,1.049-0.047
				c0.32-0.023,0.651-0.047,1.006-0.047c0.84,0,1.84,0.035,2.727,0.064c0.335,0.01,0.654,0.021,0.951,0.031
				c0.459,0,0.881,0.01,1.367,0.024c0.687,0.017,1.463,0.037,2.654,0.037c1.02,0,1.252-0.06,1.377-0.691
				c0.098-0.544,0.344-2.499,0.344-2.712C333.891,107.812,333.891,107.527,333.695,107.527"/>
		</g>
		<g>
			<path d="M355.262,91.104c-0.068,0-0.137,0.016-0.316,0.06c-0.072,0.018-0.162-0.048-0.279-0.022
				c-0.425,0.09-1.352,0.066-2.241,0.066h-10.222c-0.061,0-0.947,0.052-1.992-0.066c-0.316-0.038-0.645-0.097-0.906-0.181
				c-0.209-0.066-0.371-0.098-0.466-0.098c-0.11,0-0.203,0.172-0.289,0.517c-0.021,0.086-0.043,0.19-0.063,0.293
				c-0.221,0.984-0.586,2.632-0.56,2.8c0,0.124,0.021,0.291,0.163,0.291c0.133,0,0.199-0.04,0.289-0.253
				c0.01-0.021,0.02-0.046,0.031-0.075c0.066-0.18,0.193-0.514,0.438-0.889c0.437-0.651,0.811-0.962,2.812-0.994
				c1.243-0.031,2.83-0.031,3.868-0.031v11.117c0,2.357,0.048,4.58-0.077,5.7c-0.123,1.052-0.194,1.429-0.775,1.521
				c-0.25,0.033-0.421,0.033-0.675,0.033c-0.241,0-0.345,0.117-0.345,0.228c0,0.159,0.135,0.224,0.478,0.224
				c0.583,0,1.715-0.049,2.323-0.074c0.242-0.012,0.417-0.02,0.452-0.02c0.027,0,0.141,0.006,0.308,0.012
				c0.601,0.025,2.005,0.082,3.248,0.082c0.288,0,0.411-0.076,0.411-0.257c0-0.094-0.119-0.196-0.38-0.196
				c-0.277,0-0.853-0.033-1.213-0.123c-0.783-0.188-0.802-0.629-0.894-1.367c-0.109-0.979-0.121-2.812-0.121-5.762V92.52
				c0.379,0.003,0.819,0.009,1.277,0.015c0.54,0.01,1.084,0.018,1.713,0.018c1.649,0.018,2.477,0.112,2.961,0.339
				c0.51,0.236,0.635,0.621,0.696,1.244c0.033,0.312,0.031,0.344,0.031,0.436c0,0.265,0.065,0.381,0.222,0.381
				c0.086,0,0.227-0.08,0.227-0.381c0-0.085,0.008-0.396,0.021-0.788c0.021-0.771,0.043-1.821,0.043-2.392
				C355.457,91.275,355.398,91.104,355.262,91.104"/>
		</g>
		<g>
			<path d="M226.056,155.543c-0.114,0-0.141,0.105-0.166,0.236c-0.109,0.594-0.265,0.818-0.638,0.937
				c-0.345,0.104-0.769,0.119-1.172,0.119c-0.565,0-0.876-0.033-1.076-0.114c-0.312-0.125-0.379-0.41-0.406-0.921
				c-0.01-0.2-0.026-1.049-0.021-1.673c0-0.24-0.021-0.454-0.021-0.58v-1.158c0-0.033,0.032-0.043,0.066-0.043
				c0.222,0,1.535,0.027,1.888,0.064c0.497,0.057,0.611,0.255,0.651,0.402c0.033,0.101,0.052,0.22,0.052,0.354
				c0,0.072,0.002,0.26,0.141,0.26c0.116,0,0.132-0.162,0.141-0.242c0.004-0.062,0.008-0.136,0.012-0.226
				c0.005-0.176,0.015-0.397,0.042-0.667c0.024-0.271,0.06-0.458,0.082-0.581c0.014-0.077,0.024-0.126,0.024-0.159
				c0-0.135-0.072-0.156-0.114-0.156c-0.07,0-0.118,0.06-0.18,0.133l-0.014,0.021c-0.124,0.144-0.286,0.179-0.626,0.204
				c-0.288,0.027-1.813,0.027-2.11,0.027c-0.021,0-0.051,0-0.051-0.084v-3.633c0-0.086,0.042-0.086,0.051-0.086
				c0.158,0,1.592,0.016,1.811,0.041c0.569,0.049,0.829,0.18,0.912,0.457c0.04,0.105,0.065,0.262,0.065,0.418
				c0,0.145,0.055,0.219,0.156,0.219c0.08,0,0.136-0.099,0.154-0.269c0.018-0.239,0.03-0.435,0.04-0.599l0.012-0.194
				c0.015-0.228,0.053-0.374,0.078-0.472c0.016-0.062,0.028-0.109,0.028-0.148c0-0.145-0.062-0.166-0.1-0.166
				c-0.052,0-0.084,0.019-0.166,0.057c-0.065,0.033-0.286,0.06-0.586,0.074c-0.299,0.013-2.905,0.013-3.012,0.013
				c-0.831-0.039-1.182-0.039-1.491-0.039c-0.078,0-0.257,0-0.257,0.151c0,0.097,0.117,0.113,0.211,0.125
				c0.042,0.004,0.09,0.008,0.138,0.012c0.087,0.007,0.179,0.013,0.24,0.029c0.421,0.09,0.517,0.291,0.541,0.707
				c0.025,0.418,0.04,0.789,0.04,2.838v2.32c0,1.169-0.028,1.85-0.04,2.355c-0.028,1.017-0.212,1.137-0.448,1.195
				c-0.063,0.02-0.124,0.022-0.204,0.03c-0.028,0-0.06,0.004-0.097,0.009c-0.152,0.024-0.187,0.082-0.187,0.125
				c0,0.151,0.179,0.151,0.255,0.151c0.194,0.008,0.382-0.006,0.563-0.021c0.141-0.012,0.278-0.022,0.413-0.022
				c0.351,0,0.749,0.019,1.13,0.026c0.175,0.006,0.35,0.013,0.513,0.017c0.134,0.004,0.264,0.008,0.399,0.012
				c0.377,0.017,0.806,0.027,1.527,0.027c0.517,0,0.655,0,0.756-0.377c0.068-0.29,0.172-1.185,0.172-1.288
				C226.182,155.689,226.182,155.543,226.056,155.543"/>
		</g>
		<g>
			<path d="M232.09,152.459l-0.303-0.238c-1.104-0.838-1.389-1.205-1.389-1.793c0-0.725,0.537-1.217,1.335-1.217
				c0.996,0,1.335,0.418,1.433,0.598c0.11,0.205,0.138,0.459,0.152,0.584l0.002,0.019c0.012,0.078,0.025,0.187,0.14,0.187
				c0.127,0,0.14-0.166,0.14-0.324c0-0.603,0.033-1.015,0.046-1.188c0.004-0.047,0.006-0.078,0.006-0.088
				c0-0.127-0.124-0.127-0.166-0.127c-0.082,0-0.179-0.013-0.438-0.062c-0.326-0.074-0.656-0.108-1.078-0.108
				c-1.486,0-2.484,0.834-2.484,2.075c0,0.773,0.263,1.496,1.545,2.527l0.526,0.405c0.998,0.808,1.287,1.248,1.287,1.955
				c0,0.677-0.541,1.362-1.572,1.362c-0.335,0-1.453-0.082-1.665-1.149c-0.038-0.151-0.038-0.31-0.038-0.382
				c0-0.121-0.046-0.18-0.141-0.18c-0.127,0-0.143,0.151-0.153,0.227l-0.007,0.073c-0.016,0.219-0.046,0.628-0.046,1.17
				c0,0.319,0,0.396,0.2,0.491c0.456,0.203,0.945,0.291,1.587,0.291c0.703,0,1.325-0.162,1.805-0.469
				c0.752-0.52,1.021-1.328,1.021-1.91C233.834,154.303,233.549,153.578,232.09,152.459"/>
		</g>
		<g>
			<path d="M243.204,148.771c-0.034,0-0.064,0.006-0.145,0.029c-0.03,0.004-0.068,0-0.116,0.012
				c-0.177,0.039-0.564,0.052-0.938,0.052h-4.319c-0.036,0-0.406-0.005-0.838-0.052c-0.129-0.016-0.264-0.051-0.375-0.084
				c-0.09-0.031-0.164-0.049-0.21-0.049c-0.089,0-0.134,0.125-0.166,0.248l-0.026,0.119c-0.16,0.711-0.25,1.137-0.24,1.196
				c0,0.137,0.062,0.166,0.114,0.166c0.08,0,0.12-0.033,0.164-0.136l0.014-0.03c0.028-0.075,0.082-0.212,0.18-0.366
				c0.176-0.266,0.355-0.391,1.179-0.4c0.507-0.013,1.24-0.017,1.619-0.017v4.653c0,0.994-0.008,1.935-0.061,2.404
				c-0.054,0.455-0.094,0.572-0.305,0.605c-0.103,0.012-0.179,0.012-0.286,0.012c-0.131,0-0.193,0.074-0.193,0.141
				c0,0.14,0.166,0.14,0.243,0.14c0.248,0,0.727-0.021,0.984-0.033c0.103-0.004,0.173-0.008,0.188-0.008
				c0.012,0,0.056,0.004,0.128,0.008c0.253,0.009,0.848,0.033,1.373,0.033c0.054,0,0.217,0,0.217-0.151
				c0-0.062-0.064-0.127-0.206-0.127c-0.095,0-0.347-0.013-0.501-0.05c-0.301-0.071-0.333-0.228-0.373-0.54
				c-0.044-0.413-0.08-1.186-0.08-2.433v-4.654c0.094,0.004,0.345,0.004,0.525,0.008c0.223,0.005,0.471,0.009,0.739,0.009
				c1.303,0.012,1.461,0.139,1.511,0.627c0.012,0.129,0.014,0.143,0.014,0.18c0,0.137,0.047,0.207,0.14,0.207
				c0.052,0,0.14-0.043,0.14-0.207c0-0.037,0.004-0.163,0.008-0.333c0.007-0.325,0.02-0.769,0.02-1.011
				C243.33,148.857,243.286,148.771,243.204,148.771"/>
		</g>
		<g>
			<path d="M245.034,155.988c-0.514,0-0.745,0.438-0.745,0.744c0,0.363,0.255,0.748,0.732,0.748c0.417,0,0.733-0.326,0.733-0.762
				C245.752,156.295,245.452,155.988,245.034,155.988"/>
		</g>
		<g>
			<path d="M257.29,157.096c-0.086-0.012-0.19-0.025-0.358-0.041c-0.404-0.037-0.486-0.229-0.513-0.625
				c-0.041-0.597-0.063-1.771-0.063-3.066c0-1.733,0.026-3.782,0.078-5.762c0-0.059,0-0.096,0-0.1c0-0.137,0-0.322-0.152-0.322
				c-0.098,0-0.192,0.063-0.303,0.137l-0.041,0.027c-0.42,0.285-0.763,0.506-1.092,0.719c-0.33,0.211-0.673,0.435-1.098,0.719
				c-0.053,0.041-0.107,0.107-0.107,0.168c0,0.08,0.078,0.115,0.16,0.115c0.029,0,0.078-0.021,0.275-0.099
				c0.294-0.114,0.801-0.312,1.02-0.312c0.116,0,0.168,0.089,0.168,0.375v4.334c0,1.289-0.019,2.406-0.056,2.984
				c-0.039,0.486-0.134,0.694-0.597,0.731c-0.043,0.004-0.086,0.008-0.129,0.014c-0.108,0.013-0.225,0.027-0.373,0.027
				c-0.172,0-0.234,0.082-0.234,0.151c0,0.14,0.199,0.14,0.273,0.14c0.658,0,1.242-0.024,1.492-0.037
				c0.065,0,0.112-0.004,0.125-0.004c0.012,0,0.043,0,0.09,0.004c0.188,0.012,0.625,0.037,1.41,0.037c0.09,0,0.273,0,0.273-0.14
				C257.54,157.172,257.454,157.113,257.29,157.096"/>
		</g>
		<g>
			<path d="M262.982,147.18c-1.881,0-3.193,1.283-3.193,3.115c0,1.041,0.721,2.589,2.709,2.589c0.516,0,1.211-0.192,1.609-0.62
				c0.043-0.043,0.109-0.146,0.078-0.222c-0.008-0.017-0.033-0.053-0.098-0.053c-0.053,0-0.145,0.032-0.22,0.084
				c-0.111,0.069-0.433,0.229-0.964,0.229c-0.02,0-1.993-0.031-1.993-2.574c0-0.948,0.549-1.967,1.758-1.967
				c1.468,0,2.125,1.723,2.125,3.43c0,3.256-2.312,5.396-3.677,6.147c-0.072,0.035-0.194,0.117-0.194,0.226
				c0,0.047,0.021,0.084,0.054,0.104c0.023,0.019,0.06,0.024,0.094,0.024c0.109,0,0.232-0.059,0.234-0.059
				c1.771-0.877,4.74-2.932,4.74-6.826C266.048,148.672,264.789,147.18,262.982,147.18"/>
		</g>
		<g>
			<path d="M271.925,147.18c-1.879,0-3.194,1.283-3.194,3.115c0,1.041,0.722,2.589,2.707,2.589c0.516,0,1.213-0.192,1.614-0.62
				c0.044-0.043,0.108-0.146,0.076-0.222c-0.008-0.017-0.032-0.053-0.096-0.053c-0.056,0-0.146,0.032-0.224,0.084
				c-0.113,0.069-0.431,0.229-0.963,0.229c-0.02,0-1.996-0.031-1.996-2.574c0-0.948,0.551-1.967,1.762-1.967
				c1.468,0,2.121,1.723,2.121,3.43c0,3.256-2.308,5.396-3.674,6.147c-0.072,0.035-0.197,0.117-0.197,0.226
				c0,0.047,0.021,0.084,0.056,0.104c0.026,0.019,0.06,0.024,0.094,0.024c0.111,0,0.233-0.059,0.237-0.059
				c1.771-0.877,4.74-2.932,4.74-6.826C274.993,148.672,273.729,147.18,271.925,147.18"/>
		</g>
		<g>
			<path d="M278.734,150.311l0.177-1.918h2.448c1.033,0,1.109,0.301,1.109,0.771c0,0.13,0.051,0.204,0.127,0.204
				c0.08,0,0.131-0.099,0.152-0.192c0.127-0.938,0.173-1.537,0.173-1.669c0-0.147-0.077-0.182-0.14-0.182
				c-0.021,0-0.043,0.006-0.078,0.012c-0.047,0.008-0.111,0.035-0.207,0.043c-0.208,0.035-0.458,0.065-0.756,0.065h-3.096
				c-0.066,0-0.274-0.016-0.295,0.199l-0.303,3.354c-0.02,0.191,0.131,0.232,0.379,0.281c0.775,0.152,3.307,0.828,3.307,3.152
				c0,1.25-0.703,2.508-2.27,2.508c-0.818,0-1.761-0.188-1.761-1.653c0-0.095,0-0.269-0.149-0.269c-0.074,0-0.127,0.084-0.168,0.275
				c-0.055,0.368-0.055,1.006-0.051,1.471v0.198c0,0.159,0.045,0.288,0.273,0.409c0.377,0.21,0.938,0.24,1.236,0.24
				c1.555,0,2.493-0.649,3.006-1.195c0.629-0.669,0.99-1.562,0.99-2.475C282.839,151.682,280.771,150.843,278.734,150.311"/>
		</g>
		<g>
			<path d="M77.931,37.17c0.396-0.048,0.779-0.094,1.138-0.128c0.365-0.038,0.767-0.067,1.192-0.093
				c0.693-0.048,1.387-0.074,2.064-0.074c0.674,0,1.37,0.026,2.063,0.074c0.567,0.05,1.134,0.144,1.687,0.28
				c0.556,0.135,1.118,0.206,1.663,0.208c0.208,0.05,0.399,0.023,0.571-0.082c0.173-0.108,0.274-0.268,0.301-0.479
				c0.054-0.319-0.038-0.537-0.268-0.644c-0.214-0.101-0.437-0.176-0.663-0.228c-0.67-0.124-1.356-0.206-2.035-0.242
				c-0.682-0.037-1.366-0.056-2.034-0.056c-0.767,0-1.531,0.021-2.274,0.056c-0.68,0.036-1.363,0.096-2.032,0.184
				c0.297-0.234,0.609-0.473,0.926-0.712c0.355-0.27,0.725-0.533,1.096-0.781c0.195-0.124,0.433-0.267,0.707-0.429
				c0.269-0.158,0.555-0.308,0.852-0.445c0.292-0.134,0.589-0.225,0.882-0.276c0.288-0.048,0.552-0.012,0.791,0.108
				c0.238,0.13,0.447,0.142,0.623,0.036c0.17-0.106,0.284-0.246,0.337-0.417c0.053-0.171,0.04-0.352-0.039-0.537
				c-0.08-0.185-0.251-0.32-0.512-0.397c-0.628-0.201-1.253-0.182-1.855,0.056c-0.598,0.237-1.15,0.521-1.647,0.842
				c-0.716,0.447-1.413,0.948-2.072,1.495c-0.655,0.541-1.297,1.116-1.91,1.705c-0.365,0.048-0.736,0.105-1.103,0.166
				c-0.377,0.062-0.752,0.132-1.118,0.206c-2.772,0.495-5.542,1.128-8.235,1.882c-2.601,0.727-5.331,1.485-8.126,2.255
				c-0.183,0.078-0.32,0.21-0.415,0.394c-0.094,0.183-0.111,0.371-0.056,0.56c0.132,0.292,0.328,0.438,0.583,0.438
				c0.24,0,0.475-0.038,0.707-0.116c0.643-0.274,1.299-0.523,1.952-0.743c0.659-0.223,1.324-0.449,1.992-0.67
				c1.329-0.419,2.676-0.827,4.003-1.209c1.322-0.383,2.679-0.739,4.038-1.061c0.789-0.173,1.583-0.341,2.365-0.503
				c0.733-0.149,1.493-0.288,2.266-0.406l-1.174,1.243c-0.94,1.038-1.862,2.128-2.738,3.242c-0.877,1.112-1.737,2.279-2.554,3.465
				c-0.79,1.112-1.537,2.286-2.219,3.487c-0.681,1.202-1.266,2.461-1.734,3.75c-0.2,0.596-0.37,1.244-0.505,1.924
				c-0.138,0.689-0.092,1.354,0.131,1.982c0.05,0.125,0.146,0.297,0.284,0.511c0.137,0.213,0.297,0.393,0.477,0.533
				c0.166,0.132,0.335,0.2,0.508,0.2c0.016,0,0.031-0.002,0.046-0.002c0.191-0.017,0.354-0.183,0.486-0.495
				c0.106-0.268,0.052-0.51-0.159-0.721c-0.194-0.193-0.34-0.414-0.436-0.652c-0.098-0.268-0.139-0.55-0.127-0.839
				c0.012-0.295,0.042-0.595,0.091-0.886c0.124-0.617,0.297-1.24,0.52-1.855c0.221-0.617,0.482-1.214,0.781-1.787
				c0.566-1.284,1.237-2.521,1.989-3.681c0.755-1.162,1.561-2.313,2.399-3.423c0.862-1.108,1.75-2.192,2.643-3.22
				C75.929,39.133,76.9,38.126,77.931,37.17"/>
		</g>
		<g>
			<path d="M97.424,48.434c0.098-0.217,0.248-0.435,0.445-0.643c0.22-0.232,0.473-0.423,0.75-0.569
				c0.277-0.144,0.587-0.244,0.917-0.292c0.091-0.014,0.185-0.02,0.278-0.02c0.214,0,0.434,0.036,0.653,0.105
				c-0.406,0.394-0.878,0.723-1.405,0.98C98.536,48.256,97.984,48.402,97.424,48.434 M130.911,44.453
				c0.295-0.462,0.621-0.902,0.964-1.32c0.417-0.501,0.854-1.009,1.302-1.504c0.149-0.148,0.331-0.352,0.542-0.6
				c0.124-0.147,0.259-0.297,0.399-0.447c-0.048,0.08-0.094,0.162-0.142,0.244c-0.11,0.198-0.228,0.382-0.35,0.556
				C132.829,42.474,131.917,43.508,130.911,44.453 M150.185,49.413c-0.328,0.124-0.725,0.339-1.182,0.634
				c-0.458,0.297-0.951,0.657-1.456,1.066c-0.5,0.4-0.983,0.808-1.435,1.209c-0.445,0.395-0.847,0.758-1.194,1.082
				c-0.343,0.317-0.571,0.533-0.67,0.633c-0.872,0.828-1.689,1.72-2.436,2.663l2.617-4.764c0.178-0.28,0.341-0.555,0.487-0.822
				c0.147-0.272,0.322-0.545,0.521-0.819c0.124-0.221,0.286-0.478,0.481-0.76c0.202-0.29,0.341-0.575,0.417-0.86
				c0.026-0.234-0.008-0.416-0.102-0.537c-0.095-0.122-0.224-0.196-0.384-0.221c-0.157-0.026-0.33,0-0.509,0.078
				c-0.178,0.075-0.322,0.168-0.423,0.271c-0.417,0.417-0.862,0.817-1.319,1.188c-0.459,0.374-0.954,0.734-1.475,1.084
				c-0.046,0.046-0.196,0.152-0.439,0.309c-0.246,0.16-0.519,0.321-0.816,0.483c-0.292,0.158-0.565,0.293-0.817,0.407
				c-0.221,0.1-0.375,0.124-0.438,0.06c-0.088-0.063-0.129-0.162-0.129-0.295c0-0.145,0.024-0.311,0.072-0.491
				c0.048-0.181,0.11-0.361,0.184-0.535c0.074-0.169,0.148-0.318,0.222-0.444c0.321-0.665,0.732-1.3,1.223-1.889
				c0.171-0.197,0.375-0.389,0.609-0.571c0.24-0.189,0.425-0.4,0.547-0.622c0.211-0.266,0.225-0.535,0.04-0.799
				c-0.186-0.263-0.425-0.371-0.718-0.317c-0.452,0.102-0.933,0.33-1.432,0.679c-0.491,0.345-0.94,0.619-1.335,0.816
				c-1.389,0.744-2.828,1.48-4.279,2.195c-0.004,0.003-0.006,0.003-0.01,0.003c-0.11,0.021-0.206,0.043-0.29,0.073
				c-0.569,0.246-1.143,0.472-1.71,0.668c-0.571,0.2-1.143,0.397-1.71,0.596c-0.461,0.127-0.996,0.284-1.583,0.465
				c-0.597,0.183-1.162,0.213-1.668,0.091l-0.015-0.002c-0.01-0.014-0.04-0.072,0.013-0.335c0.05-0.259,0.117-0.545,0.203-0.853
				c0.087-0.309,0.181-0.616,0.28-0.91c0.099-0.291,0.17-0.477,0.221-0.555c0.131-0.288,0.252-0.546,0.372-0.798
				c0.122-0.253,0.27-0.507,0.439-0.75c0.347-0.274,0.684-0.549,1-0.817c0.328-0.275,0.636-0.549,0.924-0.812l0.505-0.108
				c1.186-0.147,2.415-0.337,3.653-0.559c1.24-0.222,2.445-0.537,3.584-0.935c0.209-0.08,0.36-0.231,0.438-0.457
				c0.08-0.223,0.04-0.447-0.118-0.659c-0.16-0.211-0.345-0.299-0.549-0.259c-0.19,0.04-0.375,0.096-0.544,0.169l-3.685,1.118
				l-2.05,0.485c0.389-0.415,0.772-0.84,1.143-1.268c0.41-0.469,0.805-0.958,1.175-1.455c0.295-0.371,0.658-0.79,1.078-1.245
				c0.425-0.461,0.704-0.952,0.828-1.451c0.08-0.236,0.053-0.451-0.077-0.661c-0.134-0.211-0.333-0.308-0.604-0.308l0,0
				c-0.229,0-0.455,0.092-0.668,0.219c-0.215,0.125-0.423,0.245-0.621,0.37c-1.018,0.793-1.942,1.779-2.747,2.931
				c-0.798,1.141-1.553,2.255-2.244,3.315c-0.435,0.048-0.876,0.075-1.315,0.086c-0.441,0.014-0.89,0.073-1.337-0.021h-0.002
				c-0.246,0-0.404,0.124-0.473,0.372c-0.068,0.246,0.006,0.439,0.227,0.577c0.282,0.152,0.655,0.194,1.11,0.118
				c0.407-0.068,0.788-0.116,1.137-0.143l-0.473,0.809c-0.76,0.564-1.553,1.09-2.354,1.555c-0.762,0.449-1.562,0.866-2.385,1.246
				c-0.074,0.02-0.16,0.049-0.253,0.096c-0.158,0.071-0.327,0.151-0.505,0.241c-0.173,0.088-0.343,0.182-0.504,0.282
				c-0.16,0.1-0.292,0.173-0.386,0.219l-1.526,0.671c-0.124,0.05-0.306,0.123-0.541,0.223c-0.236,0.1-0.487,0.194-0.743,0.28
				c-0.255,0.086-0.518,0.151-0.777,0.203c-0.231,0.043-0.427,0.049-0.587,0.013c0.03-0.108,0.092-0.23,0.188-0.369
				c0.111-0.16,0.235-0.322,0.372-0.479c0.133-0.16,0.263-0.301,0.389-0.427c0.124-0.124,0.213-0.225,0.261-0.299
				c0.27-0.318,0.539-0.619,0.798-0.893c0.262-0.273,0.51-0.589,0.733-0.938c0.204-0.303,0.305-0.594,0.305-0.864
				c0-0.269-0.071-0.493-0.215-0.663c-0.144-0.168-0.345-0.288-0.603-0.351c-0.253-0.062-0.552-0.057-0.88,0.02
				c-0.869,0.248-1.737,0.615-2.58,1.084c-0.838,0.47-1.667,0.922-2.453,1.339l-0.968,0.449c-0.282,0.13-0.566,0.28-0.848,0.449
				l0.391-0.912c0.074-0.194,0.19-0.409,0.35-0.64c0.167-0.248,0.201-0.508,0.095-0.773c-0.158-0.343-0.55-0.453-1.167-0.326
				c-0.597,0.126-1.257,0.354-1.964,0.677c-0.703,0.319-1.399,0.664-2.07,1.023c-0.669,0.362-1.141,0.615-1.414,0.765
				c-0.122,0.052-0.208,0.115-0.257,0.189c-0.09,0.042-0.185,0.084-0.28,0.126c-0.261,0.112-0.52,0.23-0.764,0.354
				c-0.541,0.248-1.104,0.465-1.671,0.65c-0.568,0.186-1.157,0.342-1.745,0.463c-0.421,0.074-0.89,0.124-1.391,0.148
				s-0.992-0.032-1.455-0.166c-0.461-0.134-0.871-0.351-1.212-0.642c-0.327-0.28-0.542-0.678-0.645-1.185h0.088
				c0.55,0.048,1.1,0.004,1.637-0.131c0.537-0.136,1.036-0.345,1.482-0.621c0.124-0.074,0.318-0.192,0.579-0.355
				c0.262-0.161,0.503-0.345,0.715-0.545c0.213-0.201,0.368-0.421,0.457-0.648c0.093-0.24,0.046-0.467-0.139-0.679
				c-0.255-0.333-0.623-0.526-1.091-0.576c-0.461-0.051-0.875-0.051-1.223,0c-0.673,0.124-1.318,0.373-1.914,0.732
				c-0.596,0.362-1.062,0.831-1.386,1.399c-0.493,0.198-0.983,0.435-1.461,0.705c-0.425,0.239-0.846,0.465-1.251,0.673
				c-0.07,0.002-0.142,0.026-0.216,0.07c-0.565,0.271-1.177,0.503-1.818,0.686c-0.64,0.187-1.29,0.303-1.932,0.354
				c-0.268,0.05-0.583,0.073-0.942,0.073c-0.324,0-0.581-0.082-0.766-0.248c0.103-0.086,0.259-0.237,0.465-0.455
				c0.231-0.245,0.477-0.517,0.726-0.802c0.25-0.288,0.469-0.562,0.655-0.823c0.196-0.273,0.278-0.486,0.251-0.65l-0.002-0.008
				c-0.052-0.13-0.158-0.288-0.312-0.415c-0.157-0.131-0.331-0.222-0.511-0.222l0,0c-0.507,0-0.99,0.186-1.429,0.577
				c-0.438,0.388-0.761,0.798-0.962,1.202c-0.222,0.493-0.275,0.988-0.16,1.457c-0.556,0.385-1.046,0.695-1.459,0.913
				c-0.413,0.217-0.843,0.305-1.278,0.257c-0.276-0.021-0.419-0.166-0.441-0.441c-0.023-0.287-0.012-0.565,0.034-0.826
				c0.274-0.224,0.539-0.447,0.789-0.661c0.261-0.224,0.483-0.478,0.659-0.752c0.208-0.21,0.255-0.463,0.135-0.754
				c-0.12-0.292-0.339-0.438-0.659-0.438c-0.208,0-0.404,0.064-0.584,0.194c-0.176,0.127-0.343,0.287-0.492,0.475
				c-0.15,0.188-0.284,0.381-0.396,0.583c-0.112,0.198-0.206,0.383-0.28,0.555c-0.638,0.711-1.421,1.348-2.329,1.885
				c-0.888,0.531-1.8,0.827-2.71,0.884c0.054-0.25,0.179-0.519,0.372-0.798c0.215-0.316,0.367-0.555,0.465-0.725
				c0.244-0.343,0.52-0.672,0.814-0.981c0.293-0.305,0.593-0.602,0.89-0.874c0.2-0.172,0.455-0.377,0.763-0.613
				c0.322-0.246,0.461-0.541,0.406-0.886c-0.105-0.372-0.335-0.545-0.68-0.52c-0.332,0.026-0.604,0.118-0.806,0.272
				c-0.417,0.317-0.889,0.567-1.401,0.737c-0.523,0.175-1.024,0.362-1.493,0.558c-0.495,0.2-0.979,0.406-1.438,0.617
				c-0.457,0.209-0.926,0.417-1.395,0.615h-0.003c-0.268,0.136-0.352,0.363-0.246,0.654l0.004,0.011
				c0.136,0.215,0.303,0.297,0.499,0.243c0.184-0.052,0.341-0.102,0.495-0.153c0.393-0.222,0.792-0.43,1.189-0.615l0.184-0.086
				c0.339-0.158,0.688-0.322,1.045-0.491c0.248-0.124,0.533-0.242,0.853-0.351c0.271-0.097,0.536-0.187,0.791-0.272
				c-0.175,0.234-0.37,0.481-0.584,0.737c-0.239,0.287-0.465,0.562-0.668,0.817c-0.269,0.318-0.539,0.651-0.802,0.988
				c-0.263,0.339-0.459,0.712-0.584,1.118c-0.078,0.333-0.058,0.609,0.059,0.816c0.118,0.206,0.282,0.357,0.489,0.447
				c0.204,0.09,0.436,0.134,0.689,0.134s0.497-0.04,0.72-0.114c0.673-0.2,1.297-0.497,1.857-0.882
				c0.559-0.383,1.112-0.763,1.659-1.133l0.747-0.544c0.01,0.468,0.098,0.906,0.263,1.306c0.179,0.437,0.557,0.672,1.12,0.699
				c0.604,0.049,1.198-0.11,1.76-0.474c0.547-0.351,1.084-0.776,1.598-1.259c0.246,0.209,0.507,0.329,0.771,0.355
				c0.647,0.123,1.31,0.136,1.973,0.037c0.656-0.099,1.293-0.25,1.886-0.448c0.319-0.099,0.651-0.192,0.986-0.28
				c0.299-0.078,0.587-0.192,0.858-0.337c0.11-0.002,0.22-0.042,0.332-0.118c0.194-0.133,0.355-0.225,0.483-0.278
				c0.181-0.115,0.389-0.243,0.623-0.387l0.065-0.042c0.23-0.142,0.468-0.274,0.708-0.385c-0.03,0.151-0.028,0.315,0.004,0.484
				c0.037,0.204,0.082,0.406,0.131,0.6c0.149,0.553,0.405,1.012,0.756,1.363c0.349,0.349,0.749,0.623,1.188,0.81
				c0.437,0.188,0.918,0.299,1.429,0.339c0.137,0.01,0.274,0.015,0.415,0.015c0.371,0,0.743-0.036,1.11-0.11
				c1.113-0.297,2.255-0.672,3.396-1.12l1.863-0.821c0.169-0.071,0.369-0.145,0.59-0.219c0.196-0.066,0.358-0.179,0.479-0.335
				c0.132-0.058,0.255-0.124,0.37-0.192c0.162-0.099,0.341-0.2,0.537-0.295c0.347-0.173,0.696-0.329,1.04-0.463
				c0.333-0.129,0.682-0.276,1.04-0.427c0.145-0.048,0.353-0.124,0.634-0.224c0.251-0.092,0.503-0.173,0.749-0.241
				c-0.024,0.171-0.058,0.339-0.102,0.503c-0.048,0.181-0.096,0.356-0.146,0.528c-0.038,0.04-0.106,0.138-0.261,0.468
				c-0.122,0.255-0.246,0.482-0.363,0.674c-0.301,0.179-0.493,0.385-0.571,0.621c-0.051,0.208-0.044,0.381,0.022,0.517
				c0.065,0.132,0.166,0.234,0.299,0.299c0.131,0.066,0.271,0.093,0.415,0.078c0.146-0.012,0.286-0.071,0.421-0.181
				c0.565-0.589,1.238-1.108,2-1.539c0.764-0.431,1.518-0.825,2.234-1.171c0.562-0.293,1.196-0.583,1.876-0.855
				c0.653-0.261,1.307-0.433,1.948-0.511c-0.106,0.322-0.321,0.668-0.639,1.032c-0.345,0.395-0.595,0.656-0.744,0.781
				c-0.154,0.153-0.322,0.317-0.502,0.482c-0.189,0.177-0.364,0.359-0.524,0.543c-0.162,0.188-0.308,0.381-0.434,0.584
				c-0.127,0.206-0.193,0.439-0.193,0.695c0,0.517,0.173,0.838,0.515,0.956c0.186,0.062,0.392,0.096,0.613,0.096
				c0.172,0,0.355-0.02,0.547-0.056c0.438-0.089,0.878-0.228,1.312-0.413c0.44-0.19,0.752-0.332,0.953-0.429
				c0.355-0.179,0.693-0.342,1.005-0.483c0.324-0.152,0.665-0.328,1.004-0.523c0.272-0.123,0.535-0.241,0.782-0.353
				c0.206-0.093,0.403-0.192,0.587-0.29c0.06-0.009,0.125-0.032,0.195-0.066c1.184-0.566,2.334-1.223,3.428-1.95
				c-0.31,0.581-0.587,1.134-0.827,1.645c-0.263,0.563-0.371,1.142-0.319,1.72c0.102,0.59,0.383,0.942,0.836,1.045
				c0.187,0.042,0.379,0.061,0.585,0.061c0.28,0,0.579-0.042,0.889-0.12c0.531-0.136,1.072-0.317,1.608-0.541
				c0.363-0.152,0.671-0.282,0.925-0.385l0.32-0.134l2.649-0.971c0.167-0.071,0.394-0.151,0.683-0.239
				c0.058-0.019,0.109-0.038,0.157-0.061c0.07-0.011,0.139-0.036,0.206-0.074c0.174-0.1,0.337-0.202,0.483-0.295
				c0.416-0.221,0.84-0.44,1.265-0.653c0.424-0.208,0.849-0.417,1.264-0.612l1.726-0.725c-0.273,0.439-0.543,0.896-0.798,1.368
				c-0.286,0.523-0.501,1.036-0.636,1.519c-0.139,0.489-0.176,0.928-0.112,1.305c0.064,0.387,0.32,0.663,0.75,0.817
				c0.305,0.151,0.623,0.191,0.944,0.116c0.315-0.076,0.625-0.208,0.926-0.397c0.297-0.187,0.588-0.4,0.862-0.637
				c0.292-0.251,0.535-0.463,0.743-0.649l1.423-1.084c-0.125,0.286-0.263,0.573-0.413,0.857c-0.171,0.333-0.335,0.678-0.485,1.027
				c-0.641,1.306-1.299,2.597-1.954,3.835c-0.652,1.229-1.335,2.495-2.03,3.76c-0.36,0.672-0.698,1.283-1.023,1.862
				c-0.335,0.596-0.676,1.206-1.022,1.822c-0.1,0.149-0.206,0.303-0.317,0.465c-0.12,0.173-0.143,0.371-0.062,0.577
				c0.052,0.239,0.202,0.401,0.441,0.479c0.088,0.032,0.174,0.044,0.259,0.044c0.142,0,0.28-0.042,0.411-0.124l0.008-0.008
				c0.128-0.128,0.232-0.284,0.307-0.461c0.074-0.169,0.162-0.329,0.262-0.479c0.244-0.493,0.507-0.994,0.781-1.489
				c0.273-0.497,0.545-0.994,0.818-1.487c0.741-1.187,1.548-2.358,2.401-3.479c0.85-1.122,1.768-2.179,2.732-3.143
				c0.495-0.52,1.014-1.013,1.543-1.468c0.529-0.455,1.086-0.897,1.655-1.319c0.094-0.07,0.305-0.196,0.627-0.369
				c0.321-0.172,0.64-0.368,0.954-0.579c0.309-0.211,0.574-0.427,0.791-0.638c0.223-0.226,0.297-0.426,0.211-0.598
				C150.763,49.31,150.531,49.277,150.185,49.413"/>
		</g>
		<g>
			<path d="M196.914,41c0.146,0.106,0.29,0.158,0.43,0.158c0.14,0,0.277-0.051,0.409-0.158c0.203-0.153,0.361-0.362,0.461-0.618
				c0.093-0.236,0.263-0.43,0.502-0.573c0.61-0.417,1.311-0.645,2.082-0.683c0.774-0.037,1.527,0.021,2.242,0.168
				c0.139,0.027,0.265-0.009,0.375-0.104c0.107-0.094,0.173-0.21,0.202-0.347c0.033-0.31-0.132-0.422-0.275-0.459
				c-0.19-0.051-0.366-0.074-0.509-0.076c-0.869-0.124-1.761-0.16-2.659-0.112c-0.325,0.049-0.67,0.12-1.028,0.206
				c-0.364,0.089-0.71,0.208-1.034,0.357c-0.326,0.149-0.623,0.347-0.886,0.587c-0.266,0.239-0.463,0.528-0.589,0.855v0.002
				C196.531,40.522,196.625,40.787,196.914,41"/>
		</g>
		<g>
			<path d="M220.774,48.434c0.099-0.215,0.248-0.433,0.445-0.643c0.219-0.232,0.471-0.423,0.752-0.569
				c0.278-0.144,0.585-0.244,0.914-0.292c0.092-0.014,0.186-0.021,0.28-0.021c0.213,0,0.431,0.038,0.65,0.107
				c-0.405,0.394-0.876,0.723-1.405,0.98C221.888,48.256,221.336,48.402,220.774,48.434 M230.896,49.757
				c-0.021-0.08-0.078-0.145-0.172-0.198c-0.197-0.105-0.391-0.129-0.574-0.078l-0.011,0.005c-0.218,0.124-0.461,0.239-0.723,0.351
				c-0.259,0.114-0.518,0.232-0.764,0.357c-0.541,0.244-1.104,0.463-1.672,0.648c-0.568,0.186-1.155,0.341-1.743,0.461
				c-0.422,0.076-0.889,0.124-1.392,0.15c-0.501,0.023-0.992-0.032-1.455-0.166c-0.461-0.134-0.87-0.349-1.211-0.643
				c-0.325-0.279-0.542-0.679-0.645-1.184h0.089c0.548,0.048,1.099,0.006,1.636-0.131c0.535-0.135,1.036-0.346,1.483-0.621
				c0.124-0.074,0.316-0.192,0.578-0.355c0.264-0.161,0.504-0.345,0.715-0.545c0.214-0.202,0.37-0.421,0.459-0.648
				c0.091-0.24,0.045-0.47-0.139-0.679c-0.255-0.332-0.623-0.526-1.093-0.577c-0.461-0.048-0.873-0.048-1.223,0
				c-0.673,0.124-1.318,0.373-1.915,0.733c-0.597,0.362-1.062,0.831-1.388,1.399c-0.493,0.197-0.983,0.433-1.461,0.705
				c-0.421,0.237-0.838,0.461-1.244,0.667c-0.097,0.012-0.213,0.047-0.353,0.113c-0.158,0.072-0.326,0.154-0.505,0.244
				c-0.174,0.088-0.344,0.182-0.506,0.282c-0.159,0.1-0.292,0.173-0.385,0.221l-1.527,0.668c-0.123,0.051-0.305,0.124-0.541,0.224
				c-0.235,0.1-0.486,0.194-0.742,0.278c-0.258,0.086-0.518,0.155-0.777,0.205c-0.232,0.045-0.427,0.049-0.586,0.013
				c0.03-0.108,0.091-0.23,0.187-0.369c0.112-0.16,0.236-0.322,0.371-0.481c0.134-0.158,0.266-0.299,0.39-0.425
				s0.213-0.225,0.263-0.299c0.269-0.318,0.539-0.619,0.798-0.893c0.261-0.273,0.509-0.589,0.733-0.938
				c0.204-0.303,0.305-0.594,0.305-0.864c0-0.269-0.072-0.493-0.215-0.663c-0.144-0.168-0.345-0.286-0.604-0.349
				c-0.253-0.064-0.55-0.059-0.88,0.018c-0.868,0.248-1.736,0.613-2.579,1.084c-0.838,0.47-1.665,0.922-2.453,1.339l-0.968,0.449
				c-0.282,0.128-0.567,0.282-0.848,0.449L206,48.802c0.074-0.196,0.19-0.409,0.349-0.64c0.167-0.25,0.202-0.508,0.097-0.773
				c-0.16-0.343-0.554-0.453-1.169-0.324c-0.598,0.124-1.258,0.352-1.965,0.672c-0.703,0.322-1.399,0.667-2.069,1.028
				c-0.573,0.306-1,0.537-1.284,0.691c-0.017,0.004-0.03,0.008-0.045,0.012c-0.328,0.09-0.686,0.228-1.07,0.414
				c-0.381,0.183-0.75,0.379-1.103,0.579c-0.343,0.198-0.581,0.322-0.701,0.37c-0.419,0.147-0.888,0.297-1.393,0.447
				c-0.495,0.143-0.952,0.195-1.359,0.149c-0.204-0.283-0.239-0.65-0.111-1.097c0.134-0.465,0.277-0.865,0.427-1.192
				c0.072-0.217,0.189-0.438,0.347-0.657c0.166-0.227,0.274-0.457,0.326-0.688c0.08-0.425-0.02-0.674-0.295-0.745
				c-0.255-0.062-0.563-0.056-0.914,0.02c-0.349,0.074-0.709,0.188-1.07,0.337c-0.359,0.148-0.591,0.248-0.692,0.298l-3.585,1.72
				c-0.046,0.016-0.092,0.038-0.138,0.068l0,0c-0.008,0.002-0.016,0.008-0.024,0.012c-0.909,0.467-1.84,0.92-2.766,1.347
				c-0.941,0.434-1.89,0.826-2.829,1.171c-0.276,0.1-0.626,0.244-1.046,0.43c-0.421,0.185-0.845,0.355-1.264,0.501
				c-0.416,0.145-0.818,0.233-1.199,0.259c-0.374,0.024-0.661-0.07-0.875-0.284c-0.19-0.211-0.274-0.509-0.25-0.878
				c0.023-0.375,0.111-0.798,0.259-1.253c0.147-0.457,0.33-0.914,0.539-1.355c0.209-0.449,0.391-0.833,0.541-1.153
				c0.714-1.479,1.602-2.906,2.638-4.237c1.038-1.333,2.14-2.661,3.275-3.946c0.32-0.343,0.669-0.668,1.038-0.962
				c0.375-0.3,0.691-0.629,0.94-0.98c0.155-0.234,0.225-0.425,0.211-0.589c-0.015-0.162-0.087-0.292-0.224-0.385
				c-0.129-0.093-0.293-0.156-0.482-0.196c-0.19-0.04-0.39-0.044-0.591-0.02c-0.501,0.049-0.987,0.171-1.446,0.356
				c-0.457,0.186-0.917,0.392-1.364,0.617c-2.154,1.04-4.237,2.283-6.189,3.693c-1.954,1.409-3.872,2.874-5.701,4.359
				c-0.895,0.72-1.785,1.455-2.645,2.181c-0.75,0.63-1.519,1.291-2.284,1.966l2.314-3.154c0.588-0.816,1.164-1.612,1.712-2.365
				c0.571-0.783,1.148-1.563,1.712-2.325c0.546-0.67,1.092-1.342,1.639-2.013c0.547-0.671,1.05-1.373,1.495-2.091
				c0.173-0.299,0.356-0.659,0.541-1.066c0.185-0.406,0.325-0.824,0.413-1.237c0.086-0.415,0.082-0.817-0.021-1.196
				c-0.102-0.379-0.345-0.714-0.726-0.994c-0.354-0.227-0.749-0.363-1.176-0.399c-0.423-0.038-0.86-0.02-1.295,0.056
				c-0.437,0.073-0.87,0.188-1.293,0.337c-0.421,0.147-0.798,0.299-1.122,0.449c-1.754,0.74-3.431,1.656-4.979,2.722
				c-1.542,1.061-3.079,2.175-4.565,3.315v0.002c-0.292,0.235-0.363,0.525-0.218,0.856c0.146,0.33,0.407,0.47,0.781,0.418
				c0.208-0.053,0.403-0.184,0.583-0.388c0.169-0.196,0.333-0.37,0.479-0.517l1.191-1.042c0.79-0.667,1.611-1.304,2.438-1.896
				c0.826-0.593,1.718-1.118,2.657-1.561c1.01-0.491,2.072-0.879,3.154-1.15c0.149-0.024,0.345-0.066,0.6-0.129
				c0.246-0.061,0.499-0.106,0.756-0.128c0.256-0.026,0.497-0.019,0.713,0.018c0.213,0.036,0.395,0.114,0.534,0.23
				c0.234,0.209,0.298,0.541,0.192,0.979c-0.11,0.453-0.297,0.924-0.554,1.403c-0.26,0.48-0.541,0.945-0.834,1.374
				c-0.293,0.429-0.508,0.737-0.633,0.912c-0.665,0.984-1.367,1.962-2.084,2.902c-0.722,0.947-1.437,1.912-2.122,2.87l-2.495,3.351
				c-0.802,1.072-1.467,1.95-1.974,2.609c-0.505,0.657-0.891,1.162-1.173,1.545c-0.286,0.383-0.497,0.67-0.633,0.856
				c-0.138,0.189-0.257,0.359-0.353,0.503c-0.169,0.219-0.375,0.457-0.611,0.705c-0.238,0.25-0.421,0.503-0.547,0.752
				c-0.16,0.265-0.138,0.535,0.06,0.796c0.154,0.204,0.333,0.305,0.543,0.305c0.062,0,0.126-0.01,0.195-0.027
				c0.283-0.078,0.525-0.28,0.716-0.6c0.184-0.305,0.363-0.549,0.537-0.72c0.463-0.561,0.939-1.112,1.414-1.636
				c0.463-0.514,0.962-1.026,1.487-1.525c1.016-1.016,2.06-2.012,3.11-2.958c1.053-0.956,2.173-1.887,3.331-2.775
				c1.084-0.886,2.211-1.764,3.35-2.607c1.138-0.84,2.313-1.64,3.499-2.381c0.638-0.419,1.301-0.812,1.97-1.171
				c0.67-0.362,1.359-0.705,2.045-1.024c0.264-0.119,0.552-0.253,0.875-0.408c0.25-0.122,0.499-0.226,0.745-0.314
				c-1.196,1.393-2.335,2.854-3.391,4.341c-1.089,1.535-2.104,3.116-3.021,4.699c-0.15,0.276-0.337,0.645-0.559,1.102
				c-0.224,0.459-0.432,0.956-0.617,1.475c-0.188,0.525-0.333,1.053-0.432,1.571c-0.1,0.527-0.1,0.996,0,1.399
				c0.102,0.405,0.327,0.726,0.671,0.956c0.343,0.229,0.874,0.305,1.578,0.229c1.044-0.124,2.058-0.433,3.014-0.916
				c0.94-0.477,1.886-0.934,2.811-1.358l3.125-1.489c0.125-0.05,0.301-0.124,0.522-0.224c0.045-0.02,0.087-0.042,0.124-0.067
				c0.006,0,0.013-0.002,0.019-0.004l0.01-0.004c0.443-0.246,0.894-0.472,1.337-0.669c0.521-0.25,1.058-0.465,1.597-0.65
				c0.515-0.175,1.048-0.371,1.585-0.579c-0.139,0.425-0.274,0.888-0.398,1.379c-0.135,0.537-0.208,1.04-0.208,1.503
				c0,0.466,0.104,0.858,0.305,1.162c0.166,0.25,0.445,0.375,0.828,0.375c0.095,0,0.194-0.006,0.3-0.021
				c0.597-0.101,1.183-0.284,1.745-0.543c0.564-0.264,1.121-0.533,1.658-0.801c0.097-0.048,0.322-0.141,0.665-0.279
				c0.348-0.136,0.695-0.288,1.028-0.449c0.248-0.12,0.465-0.25,0.655-0.387c0.084-0.009,0.17-0.034,0.254-0.076
				c0.202-0.074,0.385-0.164,0.546-0.264c0.162-0.099,0.341-0.199,0.537-0.295c0.347-0.173,0.697-0.329,1.04-0.463
				c0.333-0.129,0.682-0.276,1.04-0.429c0.146-0.046,0.354-0.122,0.633-0.223c0.251-0.091,0.503-0.172,0.749-0.24
				c-0.023,0.171-0.058,0.341-0.102,0.501c-0.048,0.183-0.098,0.358-0.146,0.528c-0.038,0.042-0.104,0.142-0.261,0.47
				c-0.122,0.257-0.246,0.482-0.364,0.674c-0.301,0.179-0.493,0.385-0.57,0.621c-0.053,0.208-0.045,0.381,0.021,0.517
				c0.066,0.132,0.166,0.234,0.299,0.297c0.13,0.068,0.272,0.095,0.416,0.08c0.146-0.012,0.286-0.071,0.421-0.182
				c0.565-0.588,1.238-1.106,2-1.537c0.765-0.433,1.518-0.827,2.234-1.173c0.563-0.293,1.196-0.583,1.876-0.857
				c0.653-0.259,1.306-0.431,1.948-0.509c-0.107,0.322-0.322,0.668-0.64,1.032c-0.346,0.395-0.596,0.657-0.745,0.781
				c-0.154,0.153-0.322,0.314-0.501,0.482c-0.188,0.178-0.366,0.359-0.525,0.543c-0.162,0.188-0.305,0.381-0.433,0.583
				c-0.128,0.206-0.194,0.439-0.194,0.697c0,0.518,0.174,0.838,0.516,0.956c0.185,0.064,0.391,0.096,0.612,0.096
				c0.171,0,0.355-0.02,0.546-0.056c0.438-0.089,0.879-0.227,1.312-0.413c0.441-0.19,0.752-0.33,0.954-0.431
				c0.355-0.177,0.693-0.34,1.004-0.483c0.326-0.149,0.665-0.326,1.004-0.521c0.274-0.123,0.535-0.241,0.783-0.353
				c0.217-0.099,0.425-0.204,0.621-0.307c0.144,0.027,0.288-0.011,0.429-0.108c0.196-0.131,0.356-0.225,0.484-0.278
				c0.181-0.115,0.389-0.243,0.623-0.387l0.065-0.042c0.23-0.142,0.468-0.274,0.708-0.385c-0.029,0.151-0.027,0.315,0.002,0.484
				c0.04,0.206,0.083,0.406,0.132,0.602c0.149,0.551,0.405,1.01,0.756,1.361c0.349,0.349,0.749,0.623,1.187,0.81
				c0.438,0.188,0.918,0.299,1.432,0.337c0.138,0.012,0.275,0.017,0.414,0.017c0.373,0,0.745-0.036,1.109-0.11
				c1.114-0.295,2.256-0.674,3.397-1.12l1.863-0.819c0.169-0.073,0.369-0.149,0.592-0.223c0.234-0.076,0.417-0.221,0.545-0.427
				C230.888,49.977,230.92,49.858,230.896,49.757"/>
		</g>
		<g>
			<polygon points="207.911,153.044 66.121,153.044 66.121,73.241 67.067,73.241 67.067,152.098 207.911,152.098 			"/>
		</g>
		<g>
			<polygon points="208.553,153.686 65.478,153.686 65.478,72.597 67.709,72.597 67.709,151.453 208.553,151.453 			"/>
		</g>
		<g>
			<polygon points="433.769,153.044 292.598,153.044 292.598,152.098 432.825,152.098 432.825,50.466 249.403,50.466 249.403,49.52 
				433.769,49.52 			"/>
		</g>
		<g>
			<polygon points="434.412,153.686 291.955,153.686 291.955,151.453 432.178,151.453 432.178,51.109 248.76,51.109 248.76,48.877 
				434.412,48.877 			"/>
		</g>
	</g>
</g>
</svg>
