<?xml version="1.0" encoding="utf-8"?>
<!-- Generator: Adobe Illustrator 22.1.0, SVG Export Plug-In . SVG Version: 6.00 Build 0)  -->
<svg version="1.1" id="Layer_1" xmlns="http://www.w3.org/2000/svg" xmlns:xlink="http://www.w3.org/1999/xlink" x="0px" y="0px"
	 viewBox="0 0 450 200" style="enable-background:new 0 0 450 200;" xml:space="preserve">
<g>
	<g>
		<g>
			<path d="M130.8,91c-0.1,0-0.2,0-0.3,0.1c-0.3,0.1-0.7,0.2-1.4,0.2c-0.6,0-5.8,0-6.8,0c-0.5,0-1,0-1.5,0s-1.1,0-1.7,0
				c-0.3,0-0.5,0.1-0.5,0.2s0.2,0.2,0.4,0.3c0.1,0,0.3,0,0.4,0s0.2,0,0.4,0c0.5,0,0.8,0.2,0.9,0.4c0.2,0.2,0.2,0.6,0.2,1
				c0.1,0.8,0.1,1.6,0.1,5.7v4.7c0,2.7,0,4.4-0.1,5.5s-0.2,1.6-0.9,1.7c-0.1,0-0.2,0-0.3,0c-0.1,0-0.2,0-0.3,0
				c-0.2,0-0.3,0.1-0.3,0.2c0,0.2,0.1,0.2,0.4,0.2c0.7,0,2-0.1,2.5-0.1h0.2c0,0,0.1,0,0.3,0c0.6,0,1.9,0.1,3.2,0.1
				c0.3,0,0.4,0,0.4-0.2c0-0.1-0.1-0.2-0.4-0.2l0,0c-0.3,0-0.6-0.1-1-0.2c-0.9-0.1-1.1-0.3-1.1-1.9c0-0.9-0.1-2.9-0.1-5.2v-2.2
				c0-0.2,0-0.3,0.2-0.3c1,0,3.4,0,3.9,0.1c1.5,0.2,1.6,1.2,1.6,1.7l0,0c0,0,0,0,0,0.1c0,0.2,0,0.4,0.2,0.4s0.2-0.1,0.2-0.5
				c0-0.5,0-1,0.1-1.8c0.1-0.6,0.1-1,0.2-1.3c0-0.2,0.1-0.3,0.1-0.4c0-0.2,0-0.3-0.1-0.3s-0.2,0.1-0.3,0.2l0,0
				c-0.4,0.5-0.8,0.6-2.1,0.6c-1,0-2.5,0-3.8,0c-0.2,0-0.2-0.1-0.2-0.3v-7c0-0.2,0.1-0.3,0.3-0.3c1.3,0,2.4,0,3.6,0.1h0.3
				c0.7,0,1.3,0.1,1.7,0.4c0.4,0.4,0.5,1.2,0.5,1.6c0,0.2,0.1,0.4,0.3,0.4c0.1,0,0.2-0.1,0.2-0.5c0-0.3,0-0.6,0-0.8
				c0-0.4,0-0.9,0.1-1.4c0-0.3,0.1-0.7,0.2-1c0-0.1,0-0.2,0-0.2C130.9,91.1,130.9,91,130.8,91"/>
		</g>
		<g>
			<path d="M149.1,107.4c-0.2,0-0.2,0.2-0.3,0.4c-0.1,0.5-0.3,1.1-0.6,1.6c-0.7,0.9-2,0.9-3.3,0.9c-1.8,0-2.7-0.1-3.3-0.6
				c-0.5-0.5-0.7-2.5-0.7-5.9V99c0-1.3,0-2.2,0-2.9c0-1.6,0-2.1,0-2.7c0.1-0.9,0.3-1.4,1.1-1.5c0.3,0,0.6-0.1,0.8-0.1
				s0.4-0.1,0.4-0.2s-0.1-0.2-0.4-0.2c-0.5,0-1.4,0-2.1,0.1c-0.5,0-0.9,0-1.1,0c0,0-0.1,0-0.2,0c-0.5,0-2-0.1-3-0.1
				c-0.3,0-0.5,0.1-0.5,0.2s0.1,0.2,0.4,0.2c0.2,0,0.6,0,0.8,0c1.1,0.1,1.2,0.7,1.2,1.5c0.1,0.8,0.1,1.5,0.1,5.6v4.7
				c0,0.5,0,1,0,1.5c0,1.8,0,3.3-0.1,4.3c-0.1,0.7-0.2,1.4-0.8,1.5c-0.2,0.1-0.5,0.1-0.7,0.1c-0.3,0-0.4,0.1-0.4,0.2
				c0,0.2,0.2,0.3,0.5,0.3c0.6,0,1,0,1.4,0s0.8,0,1.3,0c1.7,0,3.2,0,4.5,0.1c1.1,0,2.1,0.1,3.1,0.1c1.4,0,1.5-0.1,1.6-0.7v-0.1
				c0.2-0.7,0.4-2.5,0.4-2.8C149.3,107.5,149.3,107.4,149.1,107.4"/>
		</g>
		<g>
			<path d="M165.9,107.5c-0.1,0-0.2,0.1-0.3,0.4c-0.3,1.2-0.5,1.8-1.4,2c-0.7,0.2-1.6,0.2-2.2,0.2c-0.1,0-0.1,0-0.2,0
				c-1.2,0-1.8-0.1-2.3-0.3c-0.7-0.3-0.8-0.9-0.9-2c0-0.4,0-1.8,0-3c0-0.5,0-0.9,0-1.2v-2.3c0-0.1,0-0.2,0.2-0.2
				c0.5,0,3,0.1,3.7,0.1c1.2,0.1,1.4,0.6,1.5,0.9s0.1,0.6,0.1,0.7c0,0.2,0,0.4,0.2,0.4c0.1,0,0.2-0.1,0.2-0.3c0-0.1,0-0.3,0-0.5
				c0-0.4,0-0.8,0.1-1.4c0.1-0.5,0.1-1,0.2-1.2c0-0.2,0.1-0.4,0.1-0.4c0-0.1,0-0.2-0.1-0.2s-0.2,0.1-0.3,0.3
				c-0.3,0.3-0.7,0.4-1.4,0.5s-3.8,0.1-4.2,0.1c-0.1,0-0.2-0.1-0.2-0.3v-7.1c0-0.2,0.1-0.2,0.1-0.2s3.1,0,3.5,0.1
				c0.8,0,1.2,0.1,1.5,0.3c0.3,0.1,0.4,0.4,0.5,0.7c0.1,0.3,0.2,0.6,0.2,1c0,0.2,0.1,0.4,0.2,0.4c0.1,0,0.2-0.2,0.2-0.5
				c0-0.4,0-0.8,0.1-1.2c0-0.1,0-0.3,0-0.4c0-0.5,0.1-0.8,0.2-1.1c0-0.1,0.1-0.2,0.1-0.3c0-0.2-0.1-0.2-0.1-0.2c-0.1,0-0.1,0-0.2,0
				h-0.1c-0.2,0.1-0.6,0.1-1.2,0.2c-0.6,0-6.1,0-6.3,0c-1,0-1.6,0-2.2-0.1c-0.4,0-0.8,0-1,0c-0.3,0-0.5,0.1-0.5,0.3
				c0,0.1,0.2,0.2,0.4,0.2c0.3,0,0.6,0,0.7,0.1c0.4,0.1,0.7,0.2,0.9,0.5c0.2,0.2,0.2,0.5,0.3,1c0.1,0.8,0,1.6,0,5.7v4.7
				c0,2.4,0,3.7,0,4.7c-0.1,1.9-0.4,2.3-1,2.5c-0.2,0.1-0.4,0.1-0.6,0.1c-0.2,0-0.3,0.1-0.3,0.2c0,0.2,0.1,0.2,0.4,0.2
				c0.4,0,0.7,0,1.1,0c0.3,0,0.7,0,1,0c0.8,0,1.8,0,2.7,0.1c0.3,0,0.7,0,1,0c0.5,0,0.9,0,1.4,0c0.7,0,1.5,0,2.7,0
				c1,0,1.3-0.1,1.4-0.7c0.1-0.5,0.3-2.5,0.3-2.7C166.1,107.8,166.1,107.5,165.9,107.5"/>
		</g>
		<g>
			<path d="M183.4,107.5c-0.1,0-0.2,0.1-0.3,0.4c-0.3,1.2-0.5,1.8-1.4,2c-0.7,0.2-1.6,0.2-2.2,0.2c-0.1,0-0.1,0-0.2,0
				c-1.2,0-1.8-0.1-2.3-0.3c-0.7-0.3-0.8-0.9-0.9-2c0-0.4-0.1-1.8,0-3c0-0.5,0-0.9,0-1.2v-2.3c0-0.1,0.1-0.2,0.3-0.2
				c0.5,0,3,0.1,3.8,0.1c1.2,0.1,1.4,0.6,1.5,0.9s0.1,0.6,0.1,0.7c0,0.2,0,0.4,0.2,0.4c0.1,0,0.2-0.1,0.2-0.3c0-0.1,0-0.3,0-0.5
				c0-0.4,0-0.8,0.1-1.4c0.1-0.5,0.1-1,0.2-1.2c0-0.2,0.1-0.4,0.1-0.4c0-0.1,0-0.2-0.1-0.2s-0.2,0.1-0.3,0.3
				c-0.3,0.3-0.7,0.4-1.4,0.5s-3.9,0.1-4.2,0.1c-0.1,0-0.2-0.1-0.2-0.3v-7.1c0-0.2,0.1-0.2,0.2-0.2c0,0,3.2,0,3.6,0.1
				c0.8,0,1.3,0.1,1.5,0.3c0.3,0.1,0.4,0.4,0.5,0.7c0.1,0.3,0.2,0.6,0.2,1c0,0.2,0.1,0.4,0.2,0.4c0.1,0,0.2-0.2,0.2-0.5
				c0-0.4,0-0.8,0.1-1.2c0-0.1,0-0.3,0-0.4c0-0.5,0.1-0.8,0.2-1.1c0-0.1,0.1-0.2,0.1-0.3c0-0.2-0.1-0.2-0.1-0.2c-0.1,0-0.1,0-0.2,0
				h-0.1c-0.2,0.1-0.6,0.1-1.2,0.2c-0.6,0-6.1,0-6.3,0c-1,0-1.6,0-2.2-0.1c-0.4,0-0.8,0-1,0c-0.3,0-0.5,0.1-0.5,0.3
				c0,0.1,0.2,0.2,0.4,0.2c0.3,0,0.6,0,0.7,0.1c0.4,0.1,0.7,0.2,0.9,0.5c0.2,0.2,0.2,0.5,0.2,1c0.1,0.8,0,1.6,0,5.7v4.7
				c0,2.4,0,3.7,0,4.7c-0.1,1.9-0.4,2.3-1,2.5c-0.2,0.1-0.4,0.1-0.6,0.1c-0.2,0-0.3,0.1-0.3,0.2c0,0.2,0.1,0.2,0.4,0.2
				c0.4,0,0.7,0,1.1,0c0.3,0,0.7,0,1,0c0.8,0,1.8,0,2.7,0.1c0.3,0,0.7,0,1,0c0.5,0,0.9,0,1.4,0c0.7,0,1.5,0,2.7,0
				c1,0,1.3-0.1,1.4-0.7c0.1-0.5,0.3-2.5,0.3-2.7C183.6,107.8,183.6,107.5,183.4,107.5"/>
		</g>
		<g>
			<path d="M204.9,91.1c-0.1,0-0.1,0-0.3,0.1c-0.1,0-0.2,0-0.3,0c-0.4,0.1-1.4,0.1-2.2,0.1h-10.2c-0.1,0-0.9,0.1-2-0.1
				c-0.3,0-0.6-0.1-0.9-0.2c-0.2-0.1-0.4-0.1-0.5-0.1s-0.2,0.2-0.3,0.5c0,0.1,0,0.2-0.1,0.3c-0.2,1-0.6,2.6-0.6,2.8
				c0,0.1,0,0.3,0.2,0.3c0.1,0,0.2,0,0.3-0.3c0,0,0,0,0-0.1c0.1-0.2,0.2-0.5,0.4-0.9c0.4-0.7,0.9-1,2.9-1c1.2,0,2.9,0,3.9,0v11.1
				c0,2.4,0,4.6-0.1,5.7s-0.2,1.4-0.8,1.5c-0.2,0-0.4,0-0.7,0c-0.2,0-0.4,0.1-0.4,0.2c0,0.2,0.1,0.2,0.5,0.2c0.6,0,1.7,0,2.3-0.1
				c0.2,0,0.4,0,0.5,0c0,0,0.1,0,0.3,0c0.6,0,2,0.1,3.2,0.1c0.3,0,0.4-0.1,0.4-0.3c0-0.1-0.1-0.2-0.4-0.2c-0.3,0-0.9,0-1.2-0.1
				c-0.8-0.2-0.8-0.6-0.9-1.4c-0.1-1-0.1-2.8-0.1-5.8V92.5c0.3,0,0.8,0,1.2,0c0.5,0,1.1,0,1.7,0c1.6,0,2.5,0.1,2.9,0.3
				c0.5,0.2,0.6,0.6,0.7,1.2c0,0.3,0,0.3,0,0.4c0,0.3,0.1,0.4,0.2,0.4c0.1,0,0.2-0.1,0.2-0.4c0-0.1,0-0.4,0-0.8c0-0.8,0-1.8,0-2.4
				C205.1,91.3,205.1,91.1,204.9,91.1"/>
		</g>
		<g>
			<path d="M227.7,99.8l-0.7-0.6c-2.6-2-3.3-2.9-3.3-4.3c0-0.9,0.3-1.7,0.9-2.2c0.6-0.5,1.4-0.8,2.3-0.8c1.1,0,2,0.2,2.7,0.6
				c0.4,0.2,0.6,0.5,0.8,0.8c0.3,0.5,0.3,1.1,0.4,1.4l0,0c0,0.2,0.1,0.3,0.2,0.3c0.2,0,0.2-0.2,0.2-0.7c0-1.4,0.1-2.4,0.1-2.8
				c0-0.1,0-0.2,0-0.2c0-0.1-0.1-0.2-0.3-0.2s-0.4,0-1.1-0.2c-0.8-0.2-1.5-0.2-2.5-0.2c-1.7,0-3.2,0.5-4.2,1.3
				c-1,0.9-1.6,2.1-1.6,3.5c0,1,0.2,1.9,0.7,2.7c0.6,1,1.5,2,2.9,3.2l1.2,1c1.2,1,1.9,1.7,2.4,2.4c0.5,0.7,0.7,1.4,0.7,2.3
				c0,0.8-0.3,1.6-0.9,2.2c-0.5,0.5-1.4,1.1-2.9,1.1c-1,0-1.9-0.2-2.5-0.6c-0.8-0.5-1.3-1.2-1.5-2.2c-0.1-0.4-0.1-0.8-0.1-0.9
				c0-0.2-0.1-0.3-0.2-0.3c-0.1,0-0.2,0.1-0.3,0.4c0,0,0,0.1,0,0.2c0,0.5-0.1,1.5-0.1,2.8c0,0.7,0,0.9,0.4,1.1l0,0
				c1.1,0.4,2.2,0.7,3.7,0.7c1.6,0,3.1-0.4,4.2-1.1c1.8-1.2,2.4-3.1,2.4-4.4c0-1.2-0.3-2.1-0.8-3.1
				C230.4,102.1,229.3,101,227.7,99.8"/>
		</g>
		<g>
			<path d="M252.8,91.1c-0.1,0-0.1,0-0.3,0.1c-0.1,0-0.2,0-0.3,0c-0.4,0.1-1.3,0.1-2.2,0.1h-10.2c-0.1,0-0.9,0.1-2-0.1
				c-0.3,0-0.6-0.1-0.9-0.2c-0.2-0.1-0.4-0.1-0.5-0.1s-0.2,0.2-0.3,0.5c0,0.1,0,0.2-0.1,0.3c-0.2,1-0.6,2.6-0.6,2.8
				c0,0.1,0,0.3,0.2,0.3c0.1,0,0.2,0,0.3-0.3c0,0,0,0,0-0.1c0.1-0.2,0.2-0.5,0.4-0.9c0.4-0.7,0.8-1,2.8-1c1.2,0,3,0,3.9,0v11.1
				c0,2.4,0,4.6-0.1,5.7s-0.2,1.4-0.8,1.5c-0.2,0-0.4,0-0.7,0c-0.2,0-0.3,0.1-0.3,0.2c0,0.2,0.1,0.2,0.5,0.2c0.6,0,1.7,0,2.3-0.1
				c0.2,0,0.4,0,0.5,0c0,0,0.1,0,0.3,0c0.6,0,2,0.1,3.2,0.1c0.3,0,0.4-0.1,0.4-0.3c0-0.1-0.1-0.2-0.4-0.2c-0.3,0-0.9,0-1.2-0.1
				c-0.8-0.2-0.9-0.6-1-1.4c-0.1-1-0.2-2.8-0.2-5.8V92.5c0.4,0,0.9,0,1.3,0c0.5,0,1.1,0,1.7,0c1.6,0,2.5,0.1,3,0.3
				c0.5,0.2,0.6,0.6,0.7,1.2c0,0.3,0,0.3,0,0.4c0,0.3,0.1,0.4,0.2,0.4c0.1,0,0.2-0.1,0.2-0.4c0-0.1,0-0.4,0-0.8c0-0.8,0-1.8,0-2.4
				C253,91.3,252.9,91.1,252.8,91.1"/>
		</g>
		<g>
			<path d="M262.3,92.7c0-0.2,0.1-0.2,0.2-0.3c0.4-0.1,1.1-0.2,1.8-0.2c1.4,0,2.5,0.5,3.3,1.4s1.3,2.3,1.3,3.9
				c0,1.9-0.6,3.3-1.6,3.9c-0.6,0.4-1.4,0.5-2.1,0.5c-1.1,0-2.4-0.2-2.8-0.4c-0.1-0.1-0.2-0.2-0.2-0.4L262.3,92.7L262.3,92.7z
				 M278.2,110.9c-0.1,0-0.8,0-1-0.1c-0.8-0.1-1.8-0.4-3.3-1.9c-1.6-1.6-3.4-3.9-5.7-6.7l0,0c2.9-2.3,3.3-4.7,3.3-5.9
				c0-2.3-1.4-3.5-1.9-3.8c-1.5-1-3.4-1.2-5.1-1.2c-0.6,0-1.6,0-2.4,0.1c-0.4,0-0.8,0-0.9,0c0,0-0.1,0-0.2,0c-0.5,0-2-0.1-3.1-0.1
				c-0.3,0-0.4,0.1-0.4,0.2s0.1,0.2,0.4,0.2s0.6,0,0.8,0.1c0.5,0.1,0.8,0.2,1,0.5c0.2,0.2,0.2,0.5,0.3,1c0.1,0.8,0.1,1.6,0.1,5.7
				v4.7c0,0.3,0,0.7,0,1c0,2,0,4-0.1,5c-0.1,0.8-0.3,1.1-0.8,1.2c-0.2,0.1-0.5,0.1-0.7,0.1s-0.4,0.1-0.4,0.2c0,0.2,0.1,0.3,0.4,0.3
				c0.5,0,1.1,0,1.7-0.1c0.4,0,0.8,0,1,0c0,0,0.1,0,0.3,0c0.6,0,1.9,0.1,3.2,0.1c0.3,0,0.4-0.1,0.4-0.3c0-0.1-0.1-0.2-0.4-0.2
				c-0.2,0-0.6,0-0.9-0.1c-0.5-0.1-0.8-0.2-1-0.5s-0.2-0.6-0.3-1c-0.2-1.1-0.2-3.4-0.2-5.9V103c0-0.1,0.1-0.1,0.2-0.1h3.2
				c0.2,0,0.3,0.1,0.4,0.2c0.2,0.3,0.5,0.7,0.9,1.2c0.6,0.8,1.4,1.8,2.1,2.7c0.2,0.3,0.4,0.6,0.6,0.8c1.3,1.7,2.1,2.8,3.2,3.2
				c0.7,0.3,1.4,0.4,2.8,0.4h2.2c0.4,0,0.6-0.1,0.6-0.2C278.5,110.9,278.3,110.9,278.2,110.9"/>
		</g>
		<g>
			<path d="M291.2,107.5c-0.1,0-0.2,0.1-0.3,0.4c-0.3,1.2-0.5,1.8-1.4,2c-0.7,0.2-1.6,0.2-2.2,0.2c-0.1,0-0.1,0-0.2,0
				c-1.2,0-1.8-0.1-2.3-0.3c-0.7-0.3-0.8-0.9-0.9-2c0-0.4,0-1.8,0-3c0-0.5,0-0.9,0-1.2v-2.3c0-0.1,0.1-0.2,0.2-0.2
				c0.5,0,3,0.1,3.8,0.1c1.2,0.1,1.4,0.6,1.5,0.9s0.1,0.6,0.1,0.7c0,0.2,0,0.4,0.2,0.4c0.1,0,0.2-0.1,0.2-0.3c0-0.1,0-0.3,0-0.5
				c0-0.4,0-0.8,0.1-1.4c0.1-0.5,0.1-1,0.2-1.2c0-0.2,0.1-0.4,0.1-0.4c0-0.1,0-0.2-0.1-0.2s-0.2,0.1-0.4,0.3
				c-0.3,0.3-0.7,0.4-1.4,0.5c-0.7,0.1-3.9,0.1-4.2,0.1c-0.1,0-0.2-0.1-0.2-0.3v-7.1c0-0.2,0.1-0.2,0.2-0.2c0,0,3.2,0,3.6,0.1
				c0.8,0,1.2,0.1,1.5,0.3c0.3,0.1,0.4,0.4,0.5,0.7c0.1,0.3,0.2,0.6,0.2,1c0,0.2,0.1,0.4,0.2,0.4s0.2-0.2,0.2-0.5
				c0-0.4,0-0.8,0.1-1.2c0-0.1,0-0.3,0-0.4c0-0.5,0.1-0.8,0.2-1.1c0-0.1,0.1-0.2,0.1-0.3c0-0.2-0.1-0.2-0.1-0.2c-0.1,0-0.1,0-0.2,0
				h-0.1c-0.2,0.1-0.6,0.1-1.2,0.2c-0.6,0-6.1,0-6.3,0c-1,0-1.6,0-2.2-0.1c-0.4,0-0.8,0-1,0c-0.3,0-0.5,0.1-0.5,0.3
				c0,0.1,0.2,0.2,0.4,0.2c0.3,0,0.6,0,0.7,0.1c0.4,0.1,0.7,0.2,0.9,0.5c0.2,0.2,0.2,0.5,0.3,1c0.1,0.8,0.1,1.6,0.1,5.7v4.7
				c0,2.4,0,3.7-0.1,4.7c-0.1,1.9-0.4,2.3-1,2.5c-0.2,0.1-0.4,0.1-0.6,0.1s-0.3,0.1-0.3,0.2c0,0.2,0.1,0.2,0.4,0.2
				c0.4,0,0.7,0,1.1,0c0.3,0,0.7,0,1,0c0.8,0,1.8,0,2.7,0.1c0.3,0,0.7,0,1,0c0.5,0,0.9,0,1.4,0c0.7,0,1.5,0,2.7,0
				c1,0,1.3-0.1,1.4-0.7c0.1-0.5,0.3-2.5,0.3-2.7C291.4,107.8,291.4,107.5,291.2,107.5"/>
		</g>
		<g>
			<path d="M308.7,107.5c-0.1,0-0.2,0.1-0.3,0.4c-0.3,1.2-0.5,1.8-1.4,2c-0.7,0.2-1.6,0.2-2.2,0.2c-0.1,0-0.1,0-0.2,0
				c-1.2,0-1.8-0.1-2.3-0.3c-0.7-0.3-0.8-0.9-0.9-2c0-0.4,0-1.8,0-3c0-0.5,0-0.9,0-1.2v-2.3c0-0.1,0-0.2,0.2-0.2
				c0.5,0,3,0.1,3.7,0.1c1.2,0.1,1.4,0.6,1.5,0.9s0.1,0.6,0.1,0.7c0,0.2,0,0.4,0.2,0.4c0.1,0,0.2-0.1,0.2-0.3c0-0.1,0-0.3,0-0.5
				c0-0.4,0-0.8,0.1-1.4c0.1-0.5,0.1-1,0.2-1.2c0-0.2,0.1-0.4,0.1-0.4c0-0.1,0-0.2-0.1-0.2s-0.2,0.1-0.4,0.3
				c-0.2,0.3-0.7,0.4-1.4,0.5c-0.7,0.1-3.8,0.1-4.2,0.1c-0.1,0-0.2-0.1-0.2-0.3v-7.1c0-0.2,0.1-0.2,0.1-0.2s3.1,0,3.5,0.1
				c0.8,0,1.2,0.1,1.5,0.3c0.3,0.1,0.4,0.4,0.5,0.7c0.1,0.3,0.2,0.6,0.2,1c0,0.2,0.1,0.4,0.2,0.4s0.2-0.2,0.2-0.5
				c0-0.4,0-0.8,0.1-1.2c0-0.1,0-0.3,0-0.4c0-0.5,0.1-0.8,0.2-1.1c0-0.1,0.1-0.2,0.1-0.3c0-0.2-0.1-0.2-0.1-0.2c-0.1,0-0.1,0-0.2,0
				h-0.1c-0.2,0.1-0.6,0.1-1.2,0.2c-0.6,0-6.1,0-6.3,0c-1,0-1.6,0-2.2-0.1c-0.4,0-0.8,0-1,0c-0.3,0-0.5,0.1-0.5,0.3
				c0,0.1,0.2,0.2,0.4,0.2c0.3,0,0.6,0,0.7,0.1c0.4,0.1,0.7,0.2,0.9,0.5c0.2,0.2,0.3,0.5,0.3,1c0.1,0.8,0.1,1.6,0.1,5.7v4.7
				c0,2.4-0.1,3.7-0.1,4.7c-0.1,1.9-0.4,2.3-1,2.5c-0.2,0.1-0.4,0.1-0.6,0.1s-0.3,0.1-0.3,0.2c0,0.2,0.1,0.2,0.4,0.2
				c0.4,0,0.7,0,1,0s0.7,0,1,0c0.8,0,1.8,0,2.7,0.1c0.3,0,0.7,0,1,0c0.5,0,0.9,0,1.4,0c0.7,0,1.5,0,2.7,0c1,0,1.3-0.1,1.4-0.7
				c0.1-0.5,0.3-2.5,0.3-2.7C308.9,107.8,308.9,107.5,308.7,107.5"/>
		</g>
		<g>
			<path d="M330.3,91.1c-0.1,0-0.1,0-0.3,0.1c-0.1,0-0.2,0-0.3,0c-0.4,0.1-1.4,0.1-2.2,0.1h-10.2c-0.1,0-0.9,0.1-2-0.1
				c-0.3,0-0.6-0.1-0.9-0.2c-0.2-0.1-0.4-0.1-0.5-0.1s-0.2,0.2-0.3,0.5c0,0.1,0,0.2-0.1,0.3c-0.2,1-0.6,2.6-0.6,2.8
				c0,0.1,0,0.3,0.2,0.3c0.1,0,0.2,0,0.3-0.3c0,0,0,0,0-0.1c0.1-0.2,0.2-0.5,0.4-0.9c0.4-0.7,0.8-1,2.8-1c1.2,0,2.8,0,3.9,0v11.1
				c0,2.4,0,4.6-0.1,5.7s-0.2,1.4-0.8,1.5c-0.2,0-0.4,0-0.7,0c-0.2,0-0.3,0.1-0.3,0.2c0,0.2,0.1,0.2,0.5,0.2c0.6,0,1.7,0,2.3-0.1
				c0.2,0,0.4,0,0.5,0c0,0,0.1,0,0.3,0c0.6,0,2,0.1,3.2,0.1c0.3,0,0.4-0.1,0.4-0.3c0-0.1-0.1-0.2-0.4-0.2s-0.9,0-1.2-0.1
				c-0.8-0.2-0.8-0.6-0.9-1.4c-0.1-1-0.1-2.8-0.1-5.8V92.5c0.4,0,0.8,0,1.3,0s1.1,0,1.7,0c1.6,0,2.5,0.1,3,0.3
				c0.5,0.2,0.6,0.6,0.7,1.2c0,0.3,0,0.3,0,0.4c0,0.3,0.1,0.4,0.2,0.4s0.2-0.1,0.2-0.4c0-0.1,0-0.4,0-0.8
				C330.3,92.8,330.3,91.8,330.3,91.1C330.5,91.3,330.4,91.1,330.3,91.1"/>
		</g>
		<g>
			<path d="M201.1,155.5c-0.1,0-0.1,0.1-0.2,0.2c-0.1,0.6-0.3,0.8-0.6,0.9c-0.3,0.1-0.8,0.1-1.2,0.1c-0.6,0-0.9,0-1.1-0.1
				c-0.3-0.1-0.4-0.4-0.4-0.9c0-0.2,0-1,0-1.7c0-0.2,0-0.5,0-0.6v-1.2c0,0,0,0,0.1,0c0.2,0,1.5,0,1.9,0.1c0.5,0.1,0.6,0.3,0.7,0.4
				c0,0.1,0.1,0.2,0.1,0.4c0,0.1,0,0.3,0.1,0.3s0.1-0.2,0.1-0.2c0-0.1,0-0.1,0-0.2c0-0.2,0-0.4,0-0.7s0.1-0.5,0.1-0.6s0-0.1,0-0.2
				c0-0.1-0.1-0.2-0.1-0.2c-0.1,0-0.1,0.1-0.2,0.1l0,0c-0.1,0.1-0.3,0.2-0.6,0.2s-1.8,0-2.1,0c0,0-0.1,0-0.1-0.1v-3.6
				c0-0.1,0-0.1,0.1-0.1c0.2,0,1.6,0,1.8,0c0.6,0,0.8,0.2,0.9,0.5c0,0.1,0.1,0.3,0.1,0.4c0,0.1,0.1,0.2,0.2,0.2
				c0.1,0,0.1-0.1,0.2-0.3c0-0.2,0-0.4,0-0.6v-0.2c0-0.2,0.1-0.4,0.1-0.5s0-0.1,0-0.1c0-0.1-0.1-0.2-0.1-0.2c-0.1,0-0.1,0-0.2,0.1
				c-0.1,0-0.3,0.1-0.6,0.1s-2.9,0-3,0c-0.8,0-1.2,0-1.5,0c-0.1,0-0.3,0-0.3,0.2c0,0.1,0.1,0.1,0.2,0.1h0.1c0.1,0,0.2,0,0.2,0
				c0.4,0.1,0.5,0.3,0.5,0.7s0,0.8,0,2.8v2.3c0,1.2,0,1.9,0,2.4c0,1-0.2,1.1-0.4,1.2c-0.1,0-0.1,0-0.2,0h-0.1
				c-0.2,0-0.2,0.1-0.2,0.1c0,0.2,0.2,0.2,0.3,0.2c0.2,0,0.4,0,0.6,0c0.1,0,0.3,0,0.4,0c0.4,0,0.7,0,1.1,0c0.2,0,0.4,0,0.5,0
				s0.3,0,0.4,0c0.4,0,0.8,0,1.5,0c0.5,0,0.7,0,0.8-0.4c0.1-0.3,0.2-1.2,0.2-1.3C201.2,155.7,201.2,155.5,201.1,155.5"/>
		</g>
		<g>
			<path d="M207.1,152.5l-0.3-0.2c-1.1-0.8-1.4-1.2-1.4-1.8c0-0.7,0.5-1.2,1.3-1.2c1,0,1.3,0.4,1.4,0.6c0.1,0.2,0.1,0.5,0.2,0.6l0,0
				c0,0.1,0,0.2,0.1,0.2s0.1-0.2,0.1-0.3c0-0.6,0-1,0-1.2v-0.1c0-0.1-0.1-0.1-0.2-0.1c-0.1,0-0.2,0-0.4-0.1
				c-0.3-0.1-0.7-0.1-1.1-0.1c-1.5,0-2.5,0.8-2.5,2.1c0,0.8,0.3,1.5,1.5,2.5l0.5,0.4c1,0.8,1.3,1.2,1.3,2c0,0.7-0.5,1.4-1.6,1.4
				c-0.3,0-1.5-0.1-1.7-1.1c0-0.2,0-0.3,0-0.4c0-0.1,0-0.2-0.1-0.2s-0.1,0.2-0.2,0.2v0.1c0,0.2,0,0.6,0,1.2c0,0.3,0,0.4,0.2,0.5
				c0.5,0.2,0.9,0.3,1.6,0.3c0.7,0,1.3-0.2,1.8-0.5c0.8-0.5,1-1.3,1-1.9C208.8,154.3,208.5,153.6,207.1,152.5"/>
		</g>
		<g>
			<path d="M218.2,148.8h-0.1H218c-0.2,0-0.6,0.1-0.9,0.1h-4.3c0,0-0.4,0-0.8-0.1c-0.1,0-0.3-0.1-0.4-0.1c-0.1,0-0.2,0-0.2,0
				c-0.1,0-0.1,0.1-0.2,0.2v0.1c-0.2,0.7-0.2,1.1-0.2,1.2c0,0.1,0.1,0.2,0.1,0.2c0.1,0,0.1,0,0.2-0.1l0,0c0-0.1,0.1-0.2,0.2-0.4
				c0.2-0.3,0.4-0.4,1.2-0.4c0.5,0,1.2,0,1.6,0v4.7c0,1,0,1.9-0.1,2.4s-0.1,0.6-0.3,0.6c-0.1,0-0.2,0-0.3,0s-0.2,0.1-0.2,0.1
				c0,0.1,0.2,0.1,0.2,0.1c0.2,0,0.7,0,1,0c0.1,0,0.2,0,0.2,0h0.1c0.3,0,0.8,0,1.4,0c0.1,0,0.2,0,0.2-0.2c0-0.1-0.1-0.1-0.2-0.1
				c-0.1,0-0.3,0-0.5-0.1c-0.3-0.1-0.3-0.2-0.4-0.5c0-0.4-0.1-1.2-0.1-2.4v-4.7c0.1,0,0.3,0,0.5,0s0.5,0,0.7,0
				c1.3,0,1.5,0.1,1.5,0.6c0,0.1,0,0.1,0,0.2c0,0.1,0,0.2,0.1,0.2s0.1,0,0.1-0.2c0,0,0-0.2,0-0.3c0-0.3,0-0.8,0-1
				C218.3,148.9,218.3,148.8,218.2,148.8"/>
		</g>
		<g>
			<path d="M220,156c-0.5,0-0.7,0.4-0.7,0.7c0,0.4,0.3,0.7,0.7,0.7s0.7-0.3,0.7-0.8C220.8,156.3,220.5,156,220,156"/>
		</g>
		<g>
			<path d="M232.3,157.1c-0.1,0-0.2,0-0.4,0c-0.4,0-0.5-0.2-0.5-0.6c0-0.6-0.1-1.8-0.1-3.1c0-1.7,0-3.8,0.1-5.8c0-0.1,0-0.1,0-0.1
				c0-0.1,0-0.3-0.2-0.3c-0.1,0-0.2,0.1-0.3,0.1l0,0c-0.4,0.3-0.8,0.5-1.1,0.7s-0.7,0.4-1.1,0.7c-0.1,0-0.1,0.1-0.1,0.2
				c0,0.1,0.1,0.1,0.2,0.1c0,0,0.1,0,0.3-0.1c0.3-0.1,0.8-0.3,1-0.3c0.1,0,0.2,0.1,0.2,0.4v4.3c0,1.3,0,2.4-0.1,3
				c0,0.5-0.1,0.7-0.6,0.7h-0.1c-0.1,0-0.2,0-0.4,0s-0.2,0.1-0.2,0.2c0,0.1,0.2,0.1,0.3,0.1c0.7,0,1.2,0,1.5,0c0.1,0,0.1,0,0.1,0
				s0,0,0.1,0c0.2,0,0.6,0,1.4,0c0.1,0,0.3,0,0.3-0.1C232.5,157.2,232.5,157.1,232.3,157.1"/>
		</g>
		<g>
			<path d="M238,147.2c-1.9,0-3.2,1.3-3.2,3.1c0,1,0.7,2.6,2.7,2.6c0.5,0,1.2-0.2,1.6-0.6c0,0,0.1-0.1,0.1-0.2c0,0,0-0.1-0.1-0.1
				s-0.1,0-0.2,0.1c-0.1,0.1-0.4,0.2-1,0.2c0,0-2,0-2-2.6c0-0.9,0.5-2,1.8-2c1.5,0,2.1,1.7,2.1,3.4c0,3.3-2.3,5.4-3.7,6.1
				c-0.1,0-0.2,0.1-0.2,0.2c0,0,0,0.1,0.1,0.1h0.1c0.1,0,0.2-0.1,0.2-0.1c1.8-0.9,4.7-2.9,4.7-6.8C241,148.7,239.8,147.2,238,147.2"
				/>
		</g>
		<g>
			<path d="M246.9,147.2c-1.9,0-3.2,1.3-3.2,3.1c0,1,0.7,2.6,2.7,2.6c0.5,0,1.2-0.2,1.6-0.6c0,0,0.1-0.1,0.1-0.2c0,0,0-0.1-0.1-0.1
				s-0.1,0-0.2,0.1c-0.1,0.1-0.4,0.2-1,0.2c0,0-2,0-2-2.6c0-0.9,0.6-2,1.8-2c1.5,0,2.1,1.7,2.1,3.4c0,3.3-2.3,5.4-3.7,6.1
				c-0.1,0-0.2,0.1-0.2,0.2c0,0,0,0.1,0.1,0.1h0.1c0.1,0,0.2-0.1,0.2-0.1c1.8-0.9,4.7-2.9,4.7-6.8
				C250,148.7,248.7,147.2,246.9,147.2"/>
		</g>
		<g>
			<path d="M253.7,150.3l0.2-1.9h2.4c1,0,1.1,0.3,1.1,0.8c0,0.1,0.1,0.2,0.1,0.2c0.1,0,0.1-0.1,0.2-0.2c0.1-0.9,0.2-1.5,0.2-1.7
				c0-0.1-0.1-0.2-0.1-0.2s0,0-0.1,0c0,0-0.1,0-0.2,0c-0.2,0-0.5,0.1-0.8,0.1h-3.1c-0.1,0-0.3,0-0.3,0.2L253,151
				c0,0.2,0.1,0.2,0.4,0.3c0.8,0.2,3.3,0.8,3.3,3.2c0,1.2-0.7,2.5-2.3,2.5c-0.8,0-1.8-0.2-1.8-1.7c0-0.1,0-0.3-0.1-0.3
				s-0.1,0.1-0.2,0.3c-0.1,0.4-0.1,1-0.1,1.5v0.2c0,0.2,0,0.3,0.3,0.4c0.4,0.2,0.9,0.2,1.2,0.2c1.6,0,2.5-0.6,3-1.2
				c0.6-0.7,1-1.6,1-2.5C257.8,151.7,255.8,150.8,253.7,150.3"/>
		</g>
		<g>
			<path d="M52.9,37.2c0.4,0,0.8-0.1,1.1-0.1c0.4,0,0.8-0.1,1.2-0.1c0.7,0,1.4-0.1,2.1-0.1c0.7,0,1.4,0,2.1,0.1
				c0.6,0,1.1,0.1,1.7,0.3c0.6,0.1,1.1,0.2,1.7,0.2c0.2,0,0.4,0,0.6-0.1c0.2-0.1,0.3-0.3,0.3-0.5c0.1-0.3,0-0.5-0.3-0.6
				c-0.2-0.1-0.4-0.2-0.7-0.2c-0.7-0.1-1.4-0.2-2-0.2c-0.7,0-1.4-0.1-2-0.1c-0.8,0-1.5,0-2.3,0.1c-0.7,0-1.4,0.1-2,0.2
				c0.3-0.2,0.6-0.5,0.9-0.7c0.4-0.3,0.7-0.5,1.1-0.8c0.2-0.1,0.4-0.3,0.7-0.4c0.3-0.2,0.6-0.3,0.9-0.4c0.3-0.1,0.6-0.2,0.9-0.3
				c0.3,0,0.6,0,0.8,0.1s0.4,0.1,0.6,0c0.2-0.1,0.3-0.2,0.3-0.4s0-0.4,0-0.5c-0.1-0.2-0.3-0.3-0.5-0.4c-0.6-0.2-1.3-0.2-1.9,0.1
				c-0.6,0.2-1.2,0.5-1.6,0.8c-0.7,0.4-1.4,0.9-2.1,1.5c-0.7,0.5-1.3,1.1-1.9,1.7c-0.4,0-0.7,0.1-1.1,0.2c-0.4,0.1-0.8,0.1-1.1,0.2
				c-2.8,0.5-5.5,1.1-8.2,1.9c-2.6,0.7-5.3,1.5-8.1,2.3c-0.2,0.1-0.3,0.2-0.4,0.4c-0.1,0.2-0.1,0.4-0.1,0.6c0.1,0.3,0.3,0.4,0.6,0.4
				c0.2,0,0.5,0,0.7-0.1c0.6-0.3,1.3-0.5,2-0.7s1.3-0.4,2-0.7c1.3-0.4,2.7-0.8,4-1.2s2.7-0.7,4-1.1c0.8-0.2,1.6-0.3,2.4-0.5
				c0.7-0.1,1.5-0.3,2.3-0.4l-1.2,1.2c-0.9,1-1.9,2.1-2.7,3.2c-0.9,1.1-1.7,2.3-2.6,3.5c-0.8,1.1-1.5,2.3-2.2,3.5s-1.3,2.5-1.7,3.8
				c-0.2,0.6-0.4,1.2-0.5,1.9s-0.1,1.4,0.1,2c0.1,0.1,0.1,0.3,0.3,0.5c0.1,0.2,0.3,0.4,0.5,0.5s0.3,0.2,0.5,0.2l0,0
				c0.2,0,0.4-0.2,0.5-0.5s0.1-0.5-0.2-0.7c-0.2-0.2-0.3-0.4-0.4-0.7c-0.1-0.3-0.1-0.5-0.1-0.8s0-0.6,0.1-0.9
				c0.1-0.6,0.3-1.2,0.5-1.9c0.2-0.6,0.5-1.2,0.8-1.8c0.6-1.3,1.2-2.5,2-3.7s1.6-2.3,2.4-3.4c0.9-1.1,1.8-2.2,2.6-3.2
				C50.9,39.1,51.9,38.1,52.9,37.2"/>
		</g>
		<g>
			<path d="M72.4,48.4c0.1-0.2,0.2-0.4,0.4-0.6c0.2-0.2,0.5-0.4,0.8-0.6c0.3-0.1,0.6-0.2,0.9-0.3c0.1,0,0.2,0,0.3,0
				c0.2,0,0.4,0,0.7,0.1c-0.4,0.4-0.9,0.7-1.4,1C73.5,48.3,73,48.4,72.4,48.4 M105.9,44.5c0.3-0.5,0.6-0.9,1-1.3
				c0.4-0.5,0.9-1,1.3-1.5c0.1-0.1,0.3-0.4,0.5-0.6c0.1-0.1,0.3-0.3,0.4-0.4c0,0.1-0.1,0.2-0.1,0.2c-0.1,0.2-0.2,0.4-0.4,0.6
				C107.8,42.5,106.9,43.5,105.9,44.5 M125.2,49.4c-0.3,0.1-0.7,0.3-1.2,0.6s-1,0.7-1.5,1.1c-0.5,0.4-1,0.8-1.4,1.2
				s-0.8,0.8-1.2,1.1c-0.3,0.3-0.6,0.5-0.7,0.6c-0.9,0.8-1.7,1.7-2.4,2.7l2.6-4.8c0.2-0.3,0.3-0.6,0.5-0.8c0.1-0.3,0.3-0.5,0.5-0.8
				c0.1-0.2,0.3-0.5,0.5-0.8s0.3-0.6,0.4-0.9c0-0.2,0-0.4-0.1-0.5s-0.2-0.2-0.4-0.2c-0.2,0-0.3,0-0.5,0.1s-0.3,0.2-0.4,0.3
				c-0.4,0.4-0.9,0.8-1.3,1.2c-0.5,0.4-1,0.7-1.5,1.1c0,0-0.2,0.2-0.4,0.3c-0.2,0.2-0.5,0.3-0.8,0.5s-0.6,0.3-0.8,0.4
				c-0.2,0.1-0.4,0.1-0.4,0.1c-0.1-0.1-0.1-0.2-0.1-0.3s0-0.3,0.1-0.5c0-0.2,0.1-0.4,0.2-0.5c0.1-0.2,0.1-0.3,0.2-0.4
				c0.3-0.7,0.7-1.3,1.2-1.9c0.2-0.2,0.4-0.4,0.6-0.6c0.2-0.2,0.4-0.4,0.5-0.6c0.2-0.3,0.2-0.5,0-0.8s-0.4-0.4-0.7-0.3
				c-0.5,0.1-0.9,0.3-1.4,0.7c-0.5,0.3-0.9,0.6-1.3,0.8c-1.4,0.7-2.8,1.5-4.3,2.2l0,0c-0.1,0-0.2,0-0.3,0.1
				c-0.6,0.2-1.1,0.5-1.7,0.7s-1.1,0.4-1.7,0.6c-0.5,0.1-1,0.3-1.6,0.5s-1.2,0.2-1.7,0.1l0,0c0,0,0-0.1,0-0.3
				c0.1-0.3,0.1-0.5,0.2-0.9c0.1-0.3,0.2-0.6,0.3-0.9c0.1-0.3,0.2-0.5,0.2-0.6c0.1-0.3,0.3-0.5,0.4-0.8s0.3-0.5,0.4-0.8
				c0.3-0.3,0.7-0.5,1-0.8s0.6-0.5,0.9-0.8l0.5-0.1c1.2-0.1,2.4-0.3,3.7-0.6c1.2-0.2,2.4-0.5,3.6-0.9c0.2-0.1,0.4-0.2,0.4-0.5
				c0.1-0.2,0-0.4-0.1-0.7c-0.2-0.2-0.3-0.3-0.5-0.3s-0.4,0.1-0.5,0.2l-3.7,1.1l-2.1,0.5c0.4-0.4,0.8-0.8,1.1-1.3
				c0.4-0.5,0.8-1,1.2-1.5c0.3-0.4,0.7-0.8,1.1-1.2c0.4-0.5,0.7-1,0.8-1.5c0.1-0.2,0.1-0.5-0.1-0.7c-0.1-0.2-0.3-0.3-0.6-0.3l0,0
				c-0.2,0-0.5,0.1-0.7,0.2c-0.2,0.1-0.4,0.2-0.6,0.4c-1,0.8-1.9,1.8-2.7,2.9c-0.8,1.1-1.6,2.3-2.2,3.3c-0.4,0-0.9,0.1-1.3,0.1
				s-0.9,0.1-1.3,0l0,0c-0.2,0-0.4,0.1-0.5,0.4c-0.1,0.2,0,0.4,0.2,0.6c0.3,0.2,0.7,0.2,1.1,0.1c0.4-0.1,0.8-0.1,1.1-0.1l-0.5,0.8
				c-0.8,0.6-1.6,1.1-2.4,1.6c-0.8,0.4-1.6,0.9-2.4,1.2c-0.1,0-0.2,0-0.3,0.1c-0.2,0.1-0.3,0.2-0.5,0.2c-0.2,0.1-0.3,0.2-0.5,0.3
				s-0.3,0.2-0.4,0.2L95.5,51c-0.1,0-0.3,0.1-0.5,0.2c-0.2,0.1-0.5,0.2-0.7,0.3c-0.3,0.1-0.5,0.2-0.8,0.2c-0.2,0-0.4,0-0.6,0
				c0-0.1,0.1-0.2,0.2-0.4s0.2-0.3,0.4-0.5c0.1-0.2,0.3-0.3,0.4-0.4c0.1-0.1,0.2-0.2,0.3-0.3c0.3-0.3,0.5-0.6,0.8-0.9
				c0.3-0.3,0.5-0.6,0.7-0.9c0.2-0.3,0.3-0.6,0.3-0.9c0-0.3-0.1-0.5-0.2-0.7s-0.3-0.3-0.6-0.4c-0.3-0.1-0.6-0.1-0.9,0
				c-0.9,0.2-1.7,0.6-2.6,1.1c-0.8,0.5-1.7,0.9-2.5,1.3l-1,0.4c-0.3,0.1-0.6,0.3-0.8,0.4l0.4-0.9c0.1-0.2,0.2-0.4,0.3-0.6
				c0.2-0.2,0.2-0.5,0.1-0.8c-0.2-0.3-0.6-0.5-1.2-0.3c-0.6,0.1-1.3,0.4-2,0.7s-1.4,0.7-2.1,1c-0.7,0.4-1.1,0.6-1.4,0.8
				c-0.1,0.1-0.2,0.1-0.3,0.2c-0.1,0-0.2,0.1-0.3,0.1c-0.3,0.1-0.5,0.2-0.8,0.4c-0.5,0.2-1.1,0.5-1.7,0.7s-1.2,0.3-1.7,0.5
				c-0.4,0.1-0.9,0.1-1.4,0.1s-1,0-1.5-0.2c-0.5-0.1-0.9-0.4-1.2-0.6c-0.3-0.3-0.5-0.7-0.6-1.2h0.1c0.6,0,1.1,0,1.6-0.1
				s1-0.3,1.5-0.6c0.1-0.1,0.3-0.2,0.6-0.4c0.3-0.2,0.5-0.3,0.7-0.5s0.4-0.4,0.5-0.6c0.1-0.2,0-0.5-0.1-0.7
				c-0.3-0.3-0.6-0.5-1.1-0.6s-0.9-0.1-1.2,0c-0.7,0.1-1.3,0.4-1.9,0.7c-0.6,0.4-1.1,0.8-1.4,1.4c-0.5,0.2-1,0.4-1.5,0.7
				c-0.4,0.2-0.8,0.5-1.3,0.7c-0.1,0-0.1,0-0.2,0.1c-0.6,0.3-1.2,0.5-1.8,0.7c-0.6,0.2-1.3,0.3-1.9,0.4c-0.3,0-0.6,0.1-0.9,0.1
				c-0.3,0-0.6-0.1-0.8-0.2c0.1-0.1,0.3-0.2,0.5-0.5c0.2-0.2,0.5-0.5,0.7-0.8c0.2-0.3,0.5-0.6,0.7-0.8c0.2-0.3,0.3-0.5,0.3-0.7l0,0
				c-0.1-0.1-0.2-0.3-0.3-0.4c-0.2-0.1-0.3-0.2-0.5-0.2l0,0c-0.5,0-1,0.2-1.4,0.6c-0.4,0.4-0.8,0.8-1,1.2c-0.2,0.5-0.3,1-0.2,1.5
				c-0.6,0.4-1,0.7-1.5,0.9c-0.4,0.2-0.8,0.3-1.3,0.3c-0.3,0-0.4-0.2-0.4-0.4c0-0.3,0-0.6,0-0.8c0.3-0.2,0.5-0.4,0.8-0.7
				c0.3-0.2,0.5-0.5,0.7-0.8c0.2-0.2,0.3-0.5,0.1-0.8c-0.1-0.3-0.3-0.4-0.7-0.4c-0.2,0-0.4,0.1-0.6,0.2c-0.2,0.1-0.3,0.3-0.5,0.5
				S58,48.8,57.9,49c-0.1,0.2-0.2,0.4-0.3,0.6c-0.6,0.7-1.4,1.3-2.3,1.9c-0.9,0.5-1.8,0.8-2.7,0.9c0.1-0.2,0.2-0.5,0.4-0.8
				s0.4-0.6,0.5-0.7c0.2-0.3,0.5-0.7,0.8-1s0.6-0.6,0.9-0.9c0.2-0.2,0.5-0.4,0.8-0.6c0.3-0.2,0.5-0.5,0.4-0.9S56.1,47,55.7,47
				c-0.3,0-0.6,0.1-0.8,0.3c-0.4,0.3-0.9,0.6-1.4,0.7c-0.5,0.2-1,0.4-1.5,0.6c-0.5,0.2-1,0.4-1.4,0.6c-0.5,0.2-0.9,0.4-1.4,0.6l0,0
				c-0.3,0.1-0.4,0.4-0.2,0.7l0,0c0.1,0.2,0.3,0.3,0.5,0.2s0.3-0.1,0.5-0.2c0.4-0.2,0.8-0.4,1.2-0.6l0.2-0.1c0.3-0.2,0.7-0.3,1-0.5
				c0.2-0.1,0.5-0.2,0.9-0.4c0.3-0.1,0.5-0.2,0.8-0.3c-0.2,0.2-0.4,0.5-0.6,0.7c-0.2,0.3-0.5,0.6-0.7,0.8c-0.3,0.3-0.5,0.7-0.8,1
				s-0.5,0.7-0.6,1.1c-0.1,0.3-0.1,0.6,0.1,0.8c0.1,0.2,0.3,0.4,0.5,0.4c0.2,0.1,0.4,0.1,0.7,0.1s0.5,0,0.7-0.1
				c0.7-0.2,1.3-0.5,1.9-0.9c0.6-0.4,1.1-0.8,1.7-1.1l0.7-0.5c0,0.5,0.1,0.9,0.3,1.3c0.2,0.4,0.6,0.7,1.1,0.7c0.6,0,1.2-0.1,1.8-0.5
				c0.5-0.4,1.1-0.8,1.6-1.3c0.2,0.2,0.5,0.3,0.8,0.4c0.6,0.1,1.3,0.1,2,0s1.3-0.2,1.9-0.4c0.3-0.1,0.7-0.2,1-0.3s0.6-0.2,0.9-0.3
				c0.1,0,0.2,0,0.3-0.1c0.2-0.1,0.4-0.2,0.5-0.3c0.2-0.1,0.4-0.2,0.6-0.4h0.1c0.2-0.1,0.5-0.3,0.7-0.4c0,0.2,0,0.3,0,0.5
				s0.1,0.4,0.1,0.6c0.1,0.6,0.4,1,0.8,1.4c0.3,0.3,0.7,0.6,1.2,0.8c0.4,0.2,0.9,0.3,1.4,0.3c0.1,0,0.3,0,0.4,0c0.4,0,0.7,0,1.1-0.1
				c1.1-0.3,2.3-0.7,3.4-1.1l1.9-0.8c0.2-0.1,0.4-0.1,0.6-0.2c0.2-0.1,0.4-0.2,0.5-0.3s0.3-0.1,0.4-0.2c0.2-0.1,0.3-0.2,0.5-0.3
				c0.3-0.2,0.7-0.3,1-0.5c0.3-0.1,0.7-0.3,1-0.4c0.1,0,0.4-0.1,0.6-0.2c0.3-0.1,0.5-0.2,0.7-0.2c0,0.2-0.1,0.3-0.1,0.5
				s-0.1,0.4-0.1,0.5c0,0-0.1,0.1-0.3,0.5c-0.1,0.3-0.2,0.5-0.4,0.7c-0.3,0.2-0.5,0.4-0.6,0.6c-0.1,0.2,0,0.4,0,0.5
				c0.1,0.1,0.2,0.2,0.3,0.3c0.1,0.1,0.3,0.1,0.4,0.1s0.3-0.1,0.4-0.2c0.6-0.6,1.2-1.1,2-1.5s1.5-0.8,2.2-1.2
				c0.6-0.3,1.2-0.6,1.9-0.9c0.7-0.3,1.3-0.4,1.9-0.5c-0.1,0.3-0.3,0.7-0.6,1c-0.3,0.4-0.6,0.7-0.7,0.8c-0.2,0.2-0.3,0.3-0.5,0.5
				s-0.4,0.4-0.5,0.5c-0.2,0.2-0.3,0.4-0.4,0.6c-0.1,0.2-0.2,0.4-0.2,0.7c0,0.5,0.2,0.8,0.5,1c0.2,0.1,0.4,0.1,0.6,0.1
				s0.4,0,0.5-0.1c0.4-0.1,0.9-0.2,1.3-0.4s0.8-0.3,1-0.4c0.4-0.2,0.7-0.3,1-0.5s0.7-0.3,1-0.5c0.3-0.1,0.5-0.2,0.8-0.4
				c0.2-0.1,0.4-0.2,0.6-0.3c0.1,0,0.1,0,0.2-0.1c1.2-0.6,2.3-1.2,3.4-2c-0.3,0.6-0.6,1.1-0.8,1.6c-0.3,0.6-0.4,1.1-0.3,1.7
				c0.1,0.6,0.4,0.9,0.8,1c0.2,0,0.4,0.1,0.6,0.1c0.3,0,0.6,0,0.9-0.1c0.5-0.1,1.1-0.3,1.6-0.5c0.4-0.2,0.7-0.3,0.9-0.4l0.3-0.1
				l2.6-1c0.2-0.1,0.4-0.2,0.7-0.2c0.1,0,0.1,0,0.2-0.1c0.1,0,0.1,0,0.2-0.1c0.2-0.1,0.3-0.2,0.5-0.3c0.4-0.2,0.8-0.4,1.3-0.7
				c0.4-0.2,0.8-0.4,1.3-0.6l1.7-0.7c-0.3,0.4-0.5,0.9-0.8,1.4s-0.5,1-0.6,1.5s-0.2,0.9-0.1,1.3c0.1,0.4,0.3,0.7,0.8,0.8
				c0.3,0.2,0.6,0.2,0.9,0.1c0.3-0.1,0.6-0.2,0.9-0.4s0.6-0.4,0.9-0.6c0.3-0.3,0.5-0.5,0.7-0.6l1.4-1.1c-0.1,0.3-0.3,0.6-0.4,0.9
				c-0.2,0.3-0.3,0.7-0.5,1c-0.6,1.3-1.3,2.6-2,3.8s-1.3,2.5-2,3.8c-0.4,0.7-0.7,1.3-1,1.9c-0.3,0.6-0.7,1.2-1,1.8
				c-0.1,0.1-0.2,0.3-0.3,0.5c-0.1,0.2-0.1,0.4-0.1,0.6c0.1,0.2,0.2,0.4,0.4,0.5c0.1,0,0.2,0,0.3,0c0.1,0,0.3,0,0.4-0.1l0,0
				c0.1-0.1,0.2-0.3,0.3-0.5c0.1-0.2,0.2-0.3,0.3-0.5c0.2-0.5,0.5-1,0.8-1.5s0.5-1,0.8-1.5c0.7-1.2,1.5-2.4,2.4-3.5s1.8-2.2,2.7-3.1
				c0.5-0.5,1-1,1.5-1.5s1.1-0.9,1.7-1.3c0.1-0.1,0.3-0.2,0.6-0.4c0.3-0.2,0.6-0.4,1-0.6c0.3-0.2,0.6-0.4,0.8-0.6
				c0.2-0.2,0.3-0.4,0.2-0.6C125.8,49.3,125.5,49.3,125.2,49.4"/>
		</g>
		<g>
			<path d="M171.9,41c0.1,0.1,0.3,0.2,0.4,0.2s0.3-0.1,0.4-0.2c0.2-0.2,0.4-0.4,0.5-0.6c0.1-0.2,0.3-0.4,0.5-0.6
				c0.6-0.4,1.3-0.6,2.1-0.7c0.8,0,1.5,0,2.2,0.2c0.1,0,0.3,0,0.4-0.1c0.1-0.1,0.2-0.2,0.2-0.3c0-0.3-0.1-0.4-0.3-0.5
				s-0.4-0.1-0.5-0.1c-0.9-0.1-1.8-0.2-2.7-0.1c-0.3,0-0.7,0.1-1,0.2c-0.4,0.1-0.7,0.2-1,0.4c-0.3,0.1-0.6,0.3-0.9,0.6
				c-0.3,0.2-0.5,0.5-0.6,0.9l0,0C171.5,40.5,171.6,40.8,171.9,41"/>
		</g>
		<g>
			<path d="M195.8,48.4c0.1-0.2,0.2-0.4,0.4-0.6c0.2-0.2,0.5-0.4,0.8-0.6c0.3-0.1,0.6-0.2,0.9-0.3c0.1,0,0.2,0,0.3,0
				c0.2,0,0.4,0,0.6,0.1c-0.4,0.4-0.9,0.7-1.4,1C196.9,48.3,196.3,48.4,195.8,48.4 M205.9,49.8c0-0.1-0.1-0.1-0.2-0.2
				c-0.2-0.1-0.4-0.1-0.6-0.1l0,0c-0.2,0.1-0.5,0.2-0.7,0.4c-0.3,0.1-0.5,0.2-0.8,0.4c-0.5,0.2-1.1,0.5-1.7,0.6
				c-0.6,0.2-1.2,0.3-1.7,0.5c-0.4,0.1-0.9,0.1-1.4,0.2c-0.5,0-1,0-1.5-0.2c-0.5-0.1-0.9-0.3-1.2-0.6s-0.5-0.7-0.6-1.2h0.1
				c0.5,0,1.1,0,1.6-0.1s1-0.3,1.5-0.6c0.1-0.1,0.3-0.2,0.6-0.4s0.5-0.3,0.7-0.5s0.4-0.4,0.5-0.6c0.1-0.2,0-0.5-0.1-0.7
				c-0.3-0.3-0.6-0.5-1.1-0.6c-0.5,0-0.9,0-1.2,0c-0.7,0.1-1.3,0.4-1.9,0.7c-0.6,0.4-1.1,0.8-1.4,1.4c-0.5,0.2-1,0.4-1.5,0.7
				c-0.4,0.2-0.8,0.5-1.2,0.7c-0.1,0-0.2,0-0.4,0.1s-0.3,0.2-0.5,0.2c-0.2,0.1-0.3,0.2-0.5,0.3s-0.3,0.2-0.4,0.2l-1.5,0.7
				c-0.1,0.1-0.3,0.1-0.5,0.2c-0.2,0.1-0.5,0.2-0.7,0.3c-0.3,0.1-0.5,0.2-0.8,0.2c-0.2,0-0.4,0-0.6,0c0-0.1,0.1-0.2,0.2-0.4
				c0.1-0.2,0.2-0.3,0.4-0.5c0.1-0.2,0.3-0.3,0.4-0.4s0.2-0.2,0.3-0.3c0.3-0.3,0.5-0.6,0.8-0.9c0.3-0.3,0.5-0.6,0.7-0.9
				c0.2-0.3,0.3-0.6,0.3-0.9c0-0.3-0.1-0.5-0.2-0.7c-0.1-0.2-0.3-0.3-0.6-0.3c-0.3-0.1-0.6-0.1-0.9,0c-0.9,0.2-1.7,0.6-2.6,1.1
				c-0.8,0.5-1.7,0.9-2.5,1.3l-1,0.4c-0.3,0.1-0.6,0.3-0.8,0.4l0.4-0.9c0.1-0.2,0.2-0.4,0.3-0.6c0.2-0.2,0.2-0.5,0.1-0.8
				c-0.2-0.3-0.6-0.5-1.2-0.3c-0.6,0.1-1.3,0.4-2,0.7s-1.4,0.7-2.1,1c-0.6,0.3-1,0.5-1.3,0.7l0,0c-0.3,0.1-0.7,0.2-1.1,0.4
				c-0.4,0.2-0.8,0.4-1.1,0.6c-0.3,0.2-0.6,0.3-0.7,0.4c-0.4,0.1-0.9,0.3-1.4,0.4c-0.5,0.1-1,0.2-1.4,0.1c-0.2-0.3-0.2-0.7-0.1-1.1
				c0.1-0.5,0.3-0.9,0.4-1.2c0.1-0.2,0.2-0.4,0.3-0.7c0.2-0.2,0.3-0.5,0.3-0.7c0.1-0.4,0-0.7-0.3-0.7c-0.3-0.1-0.6-0.1-0.9,0
				c-0.3,0.1-0.7,0.2-1.1,0.3c-0.4,0.1-0.6,0.2-0.7,0.3l-3.6,1.7c0,0-0.1,0-0.1,0.1l0,0l0,0c-0.9,0.5-1.8,0.9-2.8,1.3
				c-0.9,0.4-1.9,0.8-2.8,1.2c-0.3,0.1-0.6,0.2-1,0.4s-0.8,0.4-1.3,0.5c-0.4,0.1-0.8,0.2-1.2,0.3c-0.4,0-0.7-0.1-0.9-0.3
				s-0.3-0.5-0.2-0.9c0-0.4,0.1-0.8,0.3-1.3c0.1-0.5,0.3-0.9,0.5-1.4c0.2-0.4,0.4-0.8,0.5-1.2c0.7-1.5,1.6-2.9,2.6-4.2
				s2.1-2.7,3.3-3.9c0.3-0.3,0.7-0.7,1-1c0.4-0.3,0.7-0.6,0.9-1c0.2-0.2,0.2-0.4,0.2-0.6c0-0.2-0.1-0.3-0.2-0.4
				c-0.1-0.1-0.3-0.2-0.5-0.2s-0.4,0-0.6,0c-0.5,0-1,0.2-1.4,0.4c-0.5,0.2-0.9,0.4-1.4,0.6c-2.2,1-4.2,2.3-6.2,3.7s-3.9,2.9-5.7,4.4
				c-0.9,0.7-1.8,1.5-2.6,2.2c-0.8,0.6-1.5,1.3-2.3,2l2.3-3.2c0.6-0.8,1.2-1.6,1.7-2.4c0.6-0.8,1.1-1.6,1.7-2.3
				c0.5-0.7,1.1-1.3,1.6-2s1.1-1.4,1.5-2.1c0.2-0.3,0.4-0.7,0.5-1.1c0.2-0.4,0.3-0.8,0.4-1.2c0.1-0.4,0.1-0.8,0-1.2s-0.3-0.7-0.7-1
				c-0.4-0.2-0.7-0.4-1.2-0.4c-0.4,0-0.9,0-1.3,0.1c-0.4,0.1-0.9,0.2-1.3,0.3c-0.4,0.1-0.8,0.3-1.1,0.4c-1.8,0.7-3.4,1.7-5,2.7
				c-1.5,1.1-3.1,2.2-4.6,3.3l0,0c-0.3,0.2-0.4,0.5-0.2,0.9c0.1,0.3,0.4,0.5,0.8,0.4c0.2-0.1,0.4-0.2,0.6-0.4
				c0.2-0.2,0.3-0.4,0.5-0.5l1.2-1c0.8-0.7,1.6-1.3,2.4-1.9c0.8-0.6,1.7-1.1,2.7-1.6s2.1-0.9,3.2-1.2c0.1,0,0.3-0.1,0.6-0.1
				c0.2-0.1,0.5-0.1,0.8-0.1s0.5,0,0.7,0s0.4,0.1,0.5,0.2c0.2,0.2,0.3,0.5,0.2,1s-0.3,0.9-0.6,1.4s-0.5,0.9-0.8,1.4
				s-0.5,0.7-0.6,0.9c-0.7,1-1.4,2-2.1,2.9c-0.7,0.9-1.4,1.9-2.1,2.9l-2.5,3.4c-0.8,1.1-1.5,2-2,2.6c-0.5,0.7-0.9,1.2-1.2,1.5
				c-0.3,0.4-0.5,0.7-0.6,0.9s-0.3,0.4-0.4,0.5c-0.2,0.2-0.4,0.5-0.6,0.7c-0.2,0.2-0.4,0.5-0.5,0.8c-0.2,0.3-0.1,0.5,0.1,0.8
				c0.2,0.2,0.3,0.3,0.5,0.3c0.1,0,0.1,0,0.2,0c0.3-0.1,0.5-0.3,0.7-0.6s0.4-0.5,0.5-0.7c0.5-0.6,0.9-1.1,1.4-1.6s1-1,1.5-1.5
				c1-1,2.1-2,3.1-3c1.1-1,2.2-1.9,3.3-2.8c1.1-0.9,2.2-1.8,3.4-2.6c1.1-0.8,2.3-1.6,3.5-2.4c0.6-0.4,1.3-0.8,2-1.2s1.4-0.7,2-1
				c0.3-0.1,0.6-0.3,0.9-0.4c0.2-0.1,0.5-0.2,0.7-0.3c-1.2,1.4-2.3,2.9-3.4,4.3c-1.1,1.5-2.1,3.1-3,4.7c-0.1,0.3-0.3,0.6-0.6,1.1
				c-0.2,0.5-0.4,1-0.6,1.5c-0.2,0.5-0.3,1.1-0.4,1.6c-0.1,0.5-0.1,1,0,1.4s0.3,0.7,0.7,1c0.3,0.2,0.9,0.3,1.6,0.2
				c1-0.1,2.1-0.4,3-0.9s1.9-0.9,2.8-1.4l3.1-1.5c0.1,0,0.3-0.1,0.5-0.2c0,0,0.1,0,0.1-0.1l0,0l0,0c0.4-0.2,0.9-0.5,1.3-0.7
				c0.5-0.2,1.1-0.5,1.6-0.7s1-0.4,1.6-0.6c-0.1,0.4-0.3,0.9-0.4,1.4c-0.1,0.5-0.2,1-0.2,1.5s0.1,0.9,0.3,1.2
				c0.2,0.2,0.4,0.4,0.8,0.4c0.1,0,0.2,0,0.3,0c0.6-0.1,1.2-0.3,1.7-0.5c0.6-0.3,1.1-0.5,1.7-0.8c0.1,0,0.3-0.1,0.7-0.3
				c0.3-0.1,0.7-0.3,1-0.4c0.2-0.1,0.5-0.2,0.7-0.4c0.1,0,0.2,0,0.3-0.1c0.2-0.1,0.4-0.2,0.5-0.3c0.2-0.1,0.3-0.2,0.5-0.3
				c0.3-0.2,0.7-0.3,1-0.5c0.3-0.1,0.7-0.3,1-0.4c0.1,0,0.4-0.1,0.6-0.2c0.3-0.1,0.5-0.2,0.7-0.2c0,0.2-0.1,0.3-0.1,0.5
				s-0.1,0.4-0.1,0.5c0,0-0.1,0.1-0.3,0.5c-0.1,0.3-0.2,0.5-0.4,0.7c-0.3,0.2-0.5,0.4-0.6,0.6c-0.1,0.2,0,0.4,0,0.5
				c0.1,0.1,0.2,0.2,0.3,0.3s0.3,0.1,0.4,0.1c0.1,0,0.3-0.1,0.4-0.2c0.6-0.6,1.2-1.1,2-1.5s1.5-0.8,2.2-1.2c0.6-0.3,1.2-0.6,1.9-0.9
				c0.7-0.3,1.3-0.4,1.9-0.5c-0.1,0.3-0.3,0.7-0.6,1c-0.3,0.4-0.6,0.7-0.7,0.8c-0.2,0.2-0.3,0.3-0.5,0.5s-0.4,0.4-0.5,0.5
				c-0.2,0.2-0.3,0.4-0.4,0.6c-0.1,0.2-0.2,0.4-0.2,0.7c0,0.5,0.2,0.8,0.5,1c0.2,0.1,0.4,0.1,0.6,0.1c0.2,0,0.4,0,0.5-0.1
				c0.4-0.1,0.9-0.2,1.3-0.4c0.4-0.2,0.8-0.3,1-0.4c0.4-0.2,0.7-0.3,1-0.5c0.3-0.1,0.7-0.3,1-0.5c0.3-0.1,0.5-0.2,0.8-0.4
				c0.2-0.1,0.4-0.2,0.6-0.3c0.1,0,0.3,0,0.4-0.1c0.2-0.1,0.4-0.2,0.5-0.3c0.2-0.1,0.4-0.2,0.6-0.4h0.1c0.2-0.1,0.5-0.3,0.7-0.4
				c0,0.2,0,0.3,0,0.5s0.1,0.4,0.1,0.6c0.1,0.6,0.4,1,0.8,1.4c0.3,0.3,0.7,0.6,1.2,0.8c0.4,0.2,0.9,0.3,1.4,0.3c0.1,0,0.3,0,0.4,0
				c0.4,0,0.7,0,1.1-0.1c1.1-0.3,2.3-0.7,3.4-1.1l1.9-0.8c0.2-0.1,0.4-0.1,0.6-0.2c0.2-0.1,0.4-0.2,0.5-0.4
				C205.9,50,205.9,49.9,205.9,49.8"/>
		</g>
		<g>
			<polygon points="182.9,153 41.1,153 41.1,73.2 42.1,73.2 42.1,152.1 182.9,152.1 			"/>
		</g>
		<g>
			<polygon points="183.6,153.7 40.5,153.7 40.5,72.6 42.7,72.6 42.7,151.5 183.6,151.5 			"/>
		</g>
		<g>
			<polygon points="408.8,153 267.6,153 267.6,152.1 407.8,152.1 407.8,50.5 224.4,50.5 224.4,49.5 408.8,49.5 			"/>
		</g>
		<g>
			<polygon points="409.4,153.7 267,153.7 267,151.5 407.2,151.5 407.2,51.1 223.8,51.1 223.8,48.9 409.4,48.9 			"/>
		</g>
	</g>
</g>
</svg>
