<?xml version="1.0" encoding="utf-8"?>
<!-- Generator: Adobe Illustrator 16.0.0, SVG Export Plug-In . SVG Version: 6.00 Build 0)  -->
<!DOCTYPE svg PUBLIC "-//W3C//DTD SVG 1.1//EN" "http://www.w3.org/Graphics/SVG/1.1/DTD/svg11.dtd">
<svg version="1.1" id="Layer_1" xmlns="http://www.w3.org/2000/svg" xmlns:xlink="http://www.w3.org/1999/xlink" x="0px" y="0px"
	 width="450px" height="200px" viewBox="24 0 450 200" enable-background="new 24 0 450 200" xml:space="preserve">
<g>
	<g>
		<path d="M57.259,72.667c0.021-0.476,0.098-0.936,0.23-1.389c0.131-0.451,0.331-0.847,0.595-1.188
			c0.264-0.342,0.649-0.512,1.155-0.512c0,0.508-0.11,0.958-0.332,1.354c-0.219,0.396-0.331,0.847-0.331,1.354
			c0,1.081,0.326,1.823,0.975,2.23c0.649,0.408,1.492,0.61,2.526,0.61c1.981,0,3.918-0.38,5.813-1.138
			c1.892-0.761,3.788-1.437,5.68-2.031c0.086,0,0.291-0.035,0.612-0.1c0.318-0.066,0.522-0.099,0.611-0.099h7.23
			c0.771,0,1.608,0.187,2.512,0.56c0.9,0.375,1.782,0.86,2.64,1.454c0.858,0.595,1.663,1.249,2.412,1.966
			c0.748,0.715,1.344,1.414,1.783,2.096c0,0.088,0.11,0.304,0.332,0.643c0.221,0.342,0.456,0.705,0.71,1.09
			c0.253,0.386,0.488,0.744,0.71,1.075c0.218,0.329,0.352,0.518,0.394,0.561l0.364,0.365c0.661-0.595,1.591-1.524,2.789-2.792
			c1.2-1.266,2.434-2.525,3.699-3.782c1.266-1.253,2.45-2.356,3.551-3.301c1.102-0.947,1.927-1.422,2.477-1.422
			c0.264,0,0.579,0.295,0.943,0.876c0.361,0.584,0.676,0.963,0.94,1.138c1.738,1.543,3.334,3.239,4.787,5.087
			c1.411,1.762,2.115,3.864,2.115,6.308c0,0.088,0,0.166,0,0.232c0,1.849-0.452,3.428-1.355,4.738
			c-0.902,1.31-1.882,2.406-2.94,3.286c-1.056,0.881-2.035,1.57-2.938,2.064c-0.903,0.496-1.355,0.854-1.355,1.073
			c0,0.045,0.238,0.204,0.71,0.481c0.474,0.275,1.012,0.593,1.617,0.958c0.605,0.362,1.205,0.699,1.802,1.008
			c0.593,0.309,1.022,0.574,1.287,0.791c1.696,1.323,3.076,2.798,4.145,4.423c1.069,1.629,1.603,3.545,1.603,5.748
			c0,2.888-0.7,5.408-2.097,7.564c-1.398,2.158-3.183,3.969-5.35,5.434c-2.169,1.465-4.569,2.562-7.201,3.283
			c-2.631,0.728-5.19,1.09-7.678,1.09c-2.62,0-5.091-0.267-7.414-0.81c-2.323-0.536-4.475-1.666-6.456-3.383
			c-0.593-0.509-1.207-1.083-1.833-1.735c-0.627-0.648-1.29-1.257-1.981-1.814c-0.693-0.562-1.427-1.045-2.196-1.451
			c-0.771-0.41-1.585-0.612-2.445-0.612c-2.334,0-4.25,0.867-5.748,2.606c-1.498,1.744-2.246,3.756-2.246,6.046
			c0,2.069,0.631,3.78,1.898,5.134c1.266,1.355,2.802,2.43,4.607,3.221c1.806,0.795,3.708,1.352,5.715,1.668
			c2.002,0.319,3.753,0.482,5.25,0.482h0.792c0.331,0,0.908-0.014,1.733-0.036s1.713-0.06,2.658-0.114
			c0.945-0.056,1.844-0.115,2.691-0.181c0.847-0.065,1.426-0.146,1.735-0.231c1.693-0.44,3.153-1.092,4.375-1.949
			c1.222-0.856,2.582-1.717,4.079-2.574h0.331v0.693c-0.902,1.076-1.977,2.056-3.219,2.938c-1.244,0.88-2.589,1.635-4.031,2.261
			c-1.44,0.629-2.937,1.125-4.49,1.484c-1.552,0.365-3.099,0.548-4.639,0.548c-1.982,0-4.156-0.247-6.522-0.741
			c-2.367-0.496-4.563-1.291-6.589-2.38c-2.025-1.088-3.729-2.498-5.104-4.226c-1.375-1.73-2.062-3.836-2.062-6.329
			c0-2.154,0.506-4.104,1.517-5.843c1.013-1.737,2.318-3.223,3.914-4.443c1.597-1.219,3.39-2.156,5.383-2.807
			c1.992-0.649,3.958-0.975,5.895-0.975c1.85,0,3.445,0.348,4.79,1.04c1.343,0.693,2.527,1.575,3.55,2.644
			c1.024,1.068,1.906,2.209,2.642,3.416c0.739,1.213,1.415,2.353,2.031,3.416c0.616,1.069,1.216,1.955,1.799,2.646
			c0.584,0.69,1.238,1.042,1.965,1.042c0.088,0,0.22-0.119,0.397-0.352c0.174-0.229,0.265-0.389,0.265-0.477v-10.999
			c0-0.594-0.013-1.61-0.034-3.052c-0.023-1.441-0.056-2.979-0.099-4.607c-0.044-1.629-0.089-3.158-0.131-4.591
			c-0.044-1.432-0.067-2.423-0.067-2.974c-0.507-0.417-0.836-0.753-0.992-1.006c-0.154-0.253-0.232-0.6-0.232-1.041
			c0-0.485,0.16-0.921,0.48-1.305c0.32-0.385,0.568-0.776,0.744-1.172V85.2c0-0.174,0-0.555,0-1.139
			c0-0.583-0.022-1.182-0.066-1.799c-0.044-0.616-0.104-1.173-0.182-1.668c-0.076-0.495-0.181-0.743-0.312-0.743h-0.133
			c-0.263,0-0.554,0.181-0.875,0.546c-0.318,0.361-0.611,0.792-0.875,1.287c-0.264,0.497-0.488,1.008-0.676,1.537
			c-0.187,0.528-0.281,0.946-0.281,1.255c0,0.748,0.062,1.498,0.182,2.244c0.122,0.75,0.183,1.51,0.183,2.28
			c0,2.246-0.354,4.508-1.057,6.787c-0.706,2.279-1.735,4.333-3.09,6.16c-1.353,1.824-3.02,3.314-5.002,4.457
			c-1.98,1.146-4.238,1.72-6.77,1.72c-1.341,0-2.626-0.235-3.848-0.711c-1.223-0.474-2.308-1.124-3.253-1.949
			c-0.946-0.825-1.69-1.827-2.229-3.006s-0.81-2.437-0.81-3.782c0-1.716,0.529-3.105,1.586-4.161
			c1.056-1.057,2.443-1.584,4.161-1.584c1.893,0,3.44,0.518,4.64,1.552c1.2,1.034,1.799,2.543,1.799,4.525
			c0,0.944-0.226,1.774-0.676,2.493c-0.451,0.715-1.042,1.312-1.768,1.782c-0.725,0.473-1.514,0.835-2.362,1.089
			c-0.848,0.254-1.68,0.382-2.492,0.382l-0.365,0.329c0.769,0.858,1.596,1.414,2.478,1.667c0.879,0.253,1.859,0.377,2.938,0.377
			c2.489-0.04,4.381-0.898,5.68-2.572c1.3-1.676,2.224-3.59,2.775-5.749v-2.837c0-3.566-0.71-6.395-2.129-8.487
			c-1.421-2.092-3.914-3.39-7.48-3.898h-8.785c-1.299,0-2.647-0.235-4.047-0.71c-1.396-0.472-2.673-1.137-3.828-1.996
			c-1.158-0.859-2.103-1.896-2.842-3.105c-0.737-1.21-1.107-2.543-1.107-3.997C57.227,73.508,57.236,73.14,57.259,72.667z
			 M99.036,86.389c0.021,1.057,0.071,2.102,0.15,3.138c0.077,1.035,0.191,1.981,0.347,2.839c0.152,0.858,0.363,1.421,0.627,1.684
			c0.176,0,0.593,0.095,1.255,0.279c0.661,0.187,1.08,0.281,1.255,0.281h0.331c0.638,0,1.25-0.193,1.833-0.577
			c0.584-0.385,1.089-0.858,1.521-1.42c0.427-0.562,0.768-1.168,1.023-1.817c0.252-0.648,0.378-1.249,0.378-1.798
			c0-0.597-0.237-1.411-0.71-2.444c-0.474-1.035-1.073-2.049-1.798-3.039c-0.729-0.991-1.531-1.85-2.411-2.578
			c-0.88-0.727-1.729-1.088-2.544-1.088h-0.331c-0.441,0-0.722,0.396-0.843,1.189c-0.12,0.792-0.181,1.53-0.181,2.212v0.528
			C98.982,84.462,99.015,85.332,99.036,86.389z M99.698,124.366c0.262,0.094,0.527,0.139,0.791,0.139
			c1.453,0,2.587-0.585,3.401-1.754c0.815-1.168,1.425-2.575,1.835-4.226c0.407-1.651,0.652-3.348,0.743-5.086
			c0.087-1.74,0.131-3.172,0.131-4.293v-1.226c0-0.438-0.056-1.312-0.165-2.624c-0.111-1.311-0.325-2.654-0.646-4.029
			c-0.319-1.375-0.758-2.603-1.32-3.682s-1.316-1.618-2.262-1.618h-0.232c-0.133,0.087-0.342,0.176-0.627,0.264
			c-0.287,0.089-0.579,0.188-0.875,0.298c-0.297,0.11-0.568,0.237-0.81,0.38c-0.242,0.143-0.364,0.323-0.364,0.544v26.226
			C99.299,124.049,99.435,124.279,99.698,124.366z M100.984,92.234c0,0.441-0.232,0.673-0.693,0.693
			C100.312,92.465,100.544,92.234,100.984,92.234z"/>
		<path d="M119.777,103.398c0-2.334,0.347-4.18,1.04-5.531c0.694-1.356,1.619-2.507,2.775-3.454
			c1.156-0.947,2.459-1.838,3.913-2.675c1.453-0.836,2.928-1.905,4.424-3.203c0.198-0.198,0.43-0.473,0.694-0.827
			c0.265-0.352,0.555-0.72,0.874-1.106c0.321-0.383,0.64-0.725,0.958-1.024c0.319-0.297,0.612-0.445,0.876-0.445
			c0.77,0,1.652,0.352,2.642,1.057c0.991,0.706,1.95,1.481,2.874,2.328c0.924,0.848,1.746,1.624,2.459,2.33
			c0.717,0.706,1.205,1.055,1.472,1.055h0.363l1.684-1.353l0.792,0.131c-0.528,0.858-1.074,1.711-1.635,2.559
			c-0.56,0.848-0.842,1.525-0.842,2.032v8.946c0,1.259-0.011,2.613-0.032,4.065c0,0.221,0,0.46,0,0.727
			c0,1.211,0.042,2.335,0.131,3.367c0.111,1.232,0.308,2.27,0.594,3.104c0.286,0.843,0.771,1.256,1.453,1.256
			c0.375,0,0.678-0.17,0.908-0.51c0.231-0.341,0.568-0.513,1.007-0.513c0,0.44-0.364,1.228-1.09,2.361
			c-0.726,1.134-1.552,2.272-2.476,3.42c-0.924,1.144-1.83,2.132-2.708,2.973c-0.881,0.837-1.454,1.188-1.718,1.058l-0.331-0.133
			c-0.089-0.088-0.347-0.509-0.776-1.254c-0.43-0.75-0.904-1.552-1.42-2.412c-0.518-0.856-1.02-1.623-1.503-2.295
			c-0.485-0.676-0.836-1.01-1.057-1.01h-0.33c-1.254,1.034-2.643,2.188-4.16,3.453c-1.519,1.268-2.841,2.548-3.965,3.85h-0.661
			l-4.391-4.591c-0.684-0.728-1.23-1.7-1.636-2.924c-0.408-1.22-0.7-2.284-0.874-3.187c-0.046-0.396-0.089-1.123-0.133-2.18
			c-0.045-1.057-0.078-2.174-0.099-3.353c-0.023-1.177-0.045-2.283-0.067-3.318c-0.021-1.034-0.033-1.729-0.033-2.082v-0.692
			H119.777L119.777,103.398z M129.472,114.74c0.207,0.65,0.483,1.269,0.825,1.85c0.342,0.584,0.755,1.069,1.236,1.456
			c0.485,0.38,1.068,0.576,1.751,0.576c0.549,0,1.018-0.183,1.404-0.546c0.383-0.363,0.698-0.79,0.941-1.284
			c0.242-0.498,0.417-1.04,0.527-1.636c0.11-0.596,0.166-1.092,0.166-1.485v-0.991c0-0.462-0.011-1.287-0.031-2.477
			c-0.023-1.189-0.044-2.447-0.067-3.782c-0.023-1.333-0.044-2.604-0.067-3.815c-0.021-1.209-0.033-2.066-0.033-2.572
			c-0.176-0.639-0.469-1.365-0.875-2.18c-0.409-0.815-0.893-1.569-1.454-2.262c-0.562-0.693-1.178-1.287-1.85-1.784
			c-0.672-0.494-1.349-0.742-2.032-0.742c-0.221,0-0.392,0.192-0.511,0.579c-0.124,0.386-0.215,0.858-0.281,1.42
			c-0.066,0.563-0.099,1.189-0.099,1.882c0,0.694,0,1.362,0,1.998v2.147v11.923C129.111,113.516,129.262,114.096,129.472,114.74z"/>
		<path d="M151.219,99.83c0-1.453,0.391-2.811,1.172-4.077c0.781-1.268,1.634-2.383,2.559-3.352c0.924-0.97,1.774-1.756,2.543-2.363
			c0.771-0.606,1.156-0.996,1.156-1.173c0-0.352-0.108-0.582-0.331-0.692c-1.892-1.079-3.517-2.257-4.871-3.533
			c-1.355-1.278-2.055-3.139-2.098-5.583c0-0.903,0.154-1.86,0.462-2.872c0.309-1.013,0.759-1.95,1.355-2.808
			c0.593-0.86,1.31-1.569,2.146-2.131c0.837-0.561,1.772-0.842,2.808-0.842c0,0.396-0.093,0.733-0.281,1.01
			c-0.186,0.272-0.391,0.543-0.61,0.808c-0.22,0.265-0.435,0.568-0.646,0.908c-0.208,0.342-0.312,0.731-0.312,1.172
			c0,0.902,0.285,1.662,0.858,2.281c0.572,0.616,1.261,1.16,2.064,1.635c0.802,0.472,1.635,0.891,2.493,1.255
			c0.859,0.363,1.585,0.722,2.18,1.073c1.256,0.771,2.614,1.663,4.077,2.675c1.465,1.011,2.841,2.152,4.13,3.418
			c1.287,1.268,2.361,2.64,3.219,4.127c0.86,1.486,1.288,3.11,1.288,4.873v15.32c0,0.818-0.193,1.656-0.579,2.512
			c-0.386,0.859-0.869,1.686-1.453,2.479c-0.584,0.79-1.229,1.521-1.932,2.179c-0.706,0.661-1.376,1.17-2.016,1.522
			c-1.565,0.945-3.039,1.886-4.425,2.822c-1.387,0.934-2.731,2.129-4.03,3.584h-0.462c-0.992-0.992-2.107-1.949-3.353-2.873
			c-1.244-0.926-2.384-1.918-3.418-2.975c-1.034-1.059-1.911-2.229-2.626-3.518c-0.715-1.289-1.073-2.789-1.073-4.51V99.83H151.219z
			 M161.208,112.676c0.495,0.903,1.094,1.766,1.801,2.594c0.706,0.826,1.435,1.559,2.195,2.196c0.759,0.642,1.393,0.957,1.899,0.957
			h0.131c0.089-0.088,0.221-0.185,0.397-0.299l0.297-0.194V98.672c0-0.593-0.225-1.364-0.677-2.311
			c-0.45-0.947-1.02-1.882-1.702-2.806c-0.683-0.924-1.392-1.713-2.129-2.363c-0.738-0.649-1.382-0.973-1.932-0.973
			c-0.684,0-1.026,0.384-1.026,1.155v19.12C160.465,111.048,160.713,111.775,161.208,112.676z"/>
		<path d="M178.629,72.667c0.021-0.476,0.099-0.936,0.232-1.389c0.132-0.449,0.331-0.847,0.595-1.188
			c0.265-0.342,0.649-0.513,1.156-0.513c0,0.508-0.11,0.958-0.331,1.354c-0.22,0.396-0.33,0.847-0.33,1.353
			c0,1.081,0.325,1.823,0.973,2.231c0.649,0.408,1.492,0.61,2.527,0.61c1.982,0,3.92-0.38,5.813-1.138
			c1.892-0.761,3.786-1.437,5.682-2.031c0.086,0,0.289-0.035,0.609-0.1c0.32-0.066,0.523-0.099,0.612-0.099h7.232
			c0.771,0,1.608,0.187,2.511,0.56c0.902,0.375,1.782,0.86,2.64,1.453c0.86,0.596,1.662,1.25,2.412,1.967
			c0.75,0.715,1.341,1.414,1.784,2.096c0,0.087,0.111,0.304,0.331,0.645c0.218,0.342,0.457,0.705,0.71,1.088
			c0.253,0.386,0.488,0.744,0.71,1.075c0.221,0.329,0.351,0.518,0.396,0.56l0.362,0.365c0.661-0.595,1.591-1.523,2.791-2.791
			c1.199-1.266,2.432-2.525,3.699-3.782c1.266-1.254,2.45-2.356,3.55-3.301c1.1-0.947,1.926-1.422,2.476-1.422
			c0.265,0,0.579,0.294,0.941,0.876c0.364,0.583,0.678,0.963,0.942,1.138c1.738,1.543,3.335,3.239,4.789,5.087
			c1.407,1.762,2.112,3.864,2.112,6.308c0,0.088,0,0.167,0,0.232c0,1.85-0.451,3.428-1.353,4.738
			c-0.904,1.31-1.884,2.407-2.941,3.287c-1.056,0.881-2.035,1.57-2.938,2.064c-0.904,0.495-1.354,0.854-1.354,1.073
			c0,0.045,0.237,0.204,0.71,0.479c0.471,0.275,1.011,0.594,1.618,0.958c0.604,0.362,1.205,0.699,1.8,1.008
			c0.596,0.309,1.024,0.574,1.288,0.792c1.696,1.32,3.078,2.796,4.145,4.423c1.068,1.629,1.602,3.545,1.602,5.748
			c0,2.888-0.699,5.403-2.095,7.563c-1.4,2.156-3.183,3.97-5.352,5.433c-2.168,1.463-4.568,2.562-7.199,3.283
			c-2.632,0.729-5.19,1.09-7.679,1.09c-2.619,0-5.092-0.267-7.413-0.809c-2.324-0.535-4.476-1.667-6.458-3.383
			c-0.595-0.508-1.205-1.084-1.833-1.737c-0.627-0.647-1.287-1.256-1.98-1.813c-0.694-0.56-1.426-1.047-2.197-1.451
			c-0.771-0.409-1.586-0.611-2.444-0.611c-2.333,0-4.25,0.868-5.748,2.605c-1.498,1.742-2.245,3.757-2.245,6.046
			c0,2.071,0.632,3.782,1.9,5.135c1.266,1.354,2.802,2.431,4.607,3.222c1.805,0.793,3.708,1.35,5.712,1.668s3.753,0.479,5.251,0.479
			h0.791c0.333,0,0.909-0.013,1.734-0.033c0.828-0.024,1.711-0.06,2.659-0.114c0.948-0.054,1.845-0.115,2.691-0.183
			c0.846-0.063,1.425-0.142,1.734-0.229c1.696-0.442,3.153-1.092,4.376-1.949c1.222-0.859,2.581-1.719,4.077-2.577h0.331v0.692
			c-0.901,1.077-1.977,2.06-3.219,2.941c-1.243,0.878-2.588,1.633-4.03,2.261c-1.441,0.63-2.939,1.124-4.489,1.483
			c-1.552,0.365-3.101,0.547-4.641,0.547c-1.983,0-4.155-0.245-6.524-0.741c-2.366-0.495-4.562-1.289-6.587-2.378
			c-2.027-1.092-3.727-2.5-5.102-4.229c-1.377-1.729-2.064-3.834-2.064-6.326c0-2.155,0.506-4.106,1.519-5.844
			c1.012-1.74,2.316-3.223,3.914-4.443c1.597-1.221,3.39-2.158,5.382-2.807c1.992-0.648,3.958-0.976,5.895-0.976
			c1.85,0,3.446,0.347,4.789,1.04c1.341,0.694,2.527,1.575,3.55,2.643c1.026,1.068,1.903,2.211,2.642,3.42
			c0.737,1.209,1.414,2.35,2.03,3.416c0.617,1.066,1.215,1.951,1.801,2.643c0.582,0.691,1.238,1.044,1.964,1.044
			c0.089,0,0.221-0.119,0.396-0.353c0.176-0.229,0.265-0.391,0.265-0.478v-11c0-0.593-0.012-1.608-0.033-3.051
			c-0.022-1.44-0.056-2.979-0.099-4.606c-0.045-1.631-0.089-3.16-0.133-4.591c-0.044-1.433-0.066-2.424-0.066-2.975
			c-0.506-0.417-0.835-0.753-0.99-1.007c-0.155-0.252-0.232-0.6-0.232-1.04c0-0.485,0.16-0.921,0.479-1.305
			c0.319-0.385,0.567-0.776,0.743-1.172V85.2c0-0.174,0-0.556,0-1.139s-0.022-1.182-0.066-1.799
			c-0.044-0.617-0.105-1.174-0.181-1.668c-0.078-0.496-0.183-0.744-0.314-0.744h-0.133c-0.263,0-0.556,0.181-0.875,0.546
			c-0.318,0.361-0.611,0.792-0.874,1.287c-0.267,0.497-0.492,1.008-0.677,1.537c-0.188,0.528-0.281,0.946-0.281,1.254
			c0,0.749,0.061,1.498,0.181,2.244c0.121,0.75,0.181,1.509,0.181,2.281c0,2.246-0.352,4.508-1.057,6.786
			c-0.703,2.281-1.734,4.332-3.087,6.16c-1.354,1.826-3.021,3.315-5.002,4.459c-1.981,1.145-4.239,1.718-6.771,1.718
			c-1.343,0-2.625-0.237-3.847-0.711s-2.305-1.122-3.253-1.947c-0.946-0.825-1.688-1.827-2.229-3.006
			c-0.54-1.181-0.81-2.438-0.81-3.784c0-1.716,0.53-3.105,1.585-4.161c1.057-1.057,2.444-1.585,4.163-1.585
			c1.892,0,3.438,0.518,4.64,1.552c1.2,1.034,1.798,2.543,1.798,4.526c0,0.943-0.225,1.773-0.677,2.491
			c-0.45,0.716-1.041,1.312-1.765,1.785c-0.728,0.469-1.516,0.835-2.361,1.086c-0.849,0.255-1.68,0.383-2.496,0.383l-0.361,0.329
			c0.769,0.857,1.594,1.413,2.476,1.669c0.881,0.252,1.859,0.377,2.939,0.377c2.489-0.042,4.381-0.901,5.682-2.573
			c1.298-1.675,2.222-3.589,2.773-5.75v-2.838c0-3.565-0.71-6.395-2.129-8.487c-1.42-2.092-3.913-3.39-7.48-3.898h-8.784
			c-1.301,0-2.646-0.235-4.046-0.71c-1.398-0.472-2.675-1.137-3.832-1.996c-1.155-0.86-2.103-1.896-2.84-3.105
			c-0.737-1.21-1.105-2.543-1.105-3.997C178.596,73.508,178.608,73.14,178.629,72.667z M220.408,86.389
			c0.023,1.057,0.07,2.102,0.147,3.138c0.078,1.035,0.194,1.981,0.347,2.839c0.155,0.858,0.364,1.421,0.629,1.684
			c0.174,0,0.595,0.095,1.255,0.279c0.66,0.187,1.079,0.281,1.256,0.281h0.329c0.637,0,1.249-0.193,1.833-0.579
			c0.583-0.384,1.092-0.858,1.52-1.42c0.43-0.562,0.771-1.168,1.024-1.817c0.253-0.648,0.379-1.249,0.379-1.798
			c0-0.597-0.238-1.41-0.71-2.445c-0.472-1.034-1.073-2.048-1.8-3.038c-0.727-0.991-1.53-1.85-2.412-2.578
			c-0.881-0.727-1.728-1.088-2.542-1.088h-0.331c-0.44,0-0.722,0.396-0.842,1.189c-0.122,0.792-0.183,1.53-0.183,2.212v0.528
			C220.352,84.462,220.385,85.332,220.408,86.389z M221.067,124.366c0.265,0.094,0.528,0.139,0.792,0.139
			c1.456,0,2.588-0.585,3.403-1.754c0.814-1.168,1.425-2.575,1.831-4.226c0.408-1.651,0.656-3.348,0.744-5.086
			c0.089-1.74,0.133-3.172,0.133-4.293v-1.226c0-0.438-0.056-1.312-0.167-2.625c-0.11-1.31-0.326-2.653-0.643-4.028
			c-0.32-1.375-0.761-2.603-1.321-3.682c-0.562-1.079-1.316-1.618-2.262-1.618h-0.232c-0.132,0.087-0.342,0.176-0.629,0.264
			c-0.286,0.089-0.576,0.188-0.874,0.298c-0.299,0.11-0.567,0.237-0.809,0.38c-0.243,0.143-0.363,0.323-0.363,0.544v26.226
			C220.673,124.049,220.805,124.279,221.067,124.366z M222.356,92.234c0,0.441-0.23,0.673-0.692,0.693
			C221.684,92.465,221.916,92.234,222.356,92.234z"/>
		<path d="M241.676,93.338c0.352-0.518,0.804-0.993,1.353-1.424c0.549-0.427,1.118-0.856,1.702-1.278
			c0.583-0.423,1.076-0.842,1.471-1.253c0.041-0.05,0.237-0.257,0.577-0.621c0.342-0.364,0.706-0.744,1.09-1.139
			c0.383-0.396,0.748-0.764,1.09-1.106c0.342-0.341,0.556-0.512,0.644-0.512h0.133c0.571,0,1.133,0.325,1.682,0.973
			c0.55,0.651,1.052,1.388,1.5,2.211c0.452,0.822,0.873,1.614,1.257,2.371c0.388,0.758,0.716,1.137,0.978,1.137
			c0.396,0,0.798-0.327,1.203-0.983c0.41-0.654,0.813-1.359,1.223-2.112c0.406-0.753,0.803-1.417,1.191-1.991
			c0.385-0.572,0.754-0.859,1.104-0.859c0.268,0.686,0.611,1.229,1.04,1.634c0.435,0.409,0.989,0.613,1.67,0.613
			c1.165,0,1.933-0.237,2.296-0.71c0.362-0.475,0.842-1.205,1.438-2.196c0.177,0,0.275,0.128,0.297,0.38s0.033,0.424,0.033,0.511
			c0,1.167-0.172,2.337-0.513,3.512c-0.34,1.172-0.827,2.212-1.454,3.117c-0.63,0.904-1.42,1.634-2.375,2.188
			c-0.957,0.552-2.041,0.83-3.256,0.83c-0.613,0-1.146-0.055-1.602-0.167c-0.451-0.11-0.93-0.165-1.437-0.165h-0.331
			c-0.132,0-0.197,0.044-0.197,0.132v17.737c0,0.225,0.133,0.564,0.398,1.021c0.26,0.459,0.587,0.928,0.971,1.41
			c0.387,0.479,0.762,0.897,1.127,1.258c0.363,0.359,0.653,0.537,0.873,0.537h1.686c0.154-0.133,0.361-0.347,0.628-0.641
			c0.264-0.289,0.565-0.605,0.907-0.955c0.342-0.345,0.703-0.646,1.09-0.904c0.384-0.254,0.755-0.383,1.105-0.383l-0.132,0.367
			c0,0.09-0.032,0.225-0.101,0.404l-0.1,0.266l-10.137,9.838h-0.498c-0.086,0-0.348-0.182-0.775-0.546s-0.732-0.634-0.91-0.81
			c-1.253-1.125-2.207-2.146-2.856-3.071c-0.651-0.923-1.381-2.112-2.195-3.565h-0.23h-0.133l-3.368,2.938h-0.693
			c0-0.416,0.215-0.856,0.644-1.304c0.43-0.451,0.891-0.924,1.388-1.424c0.494-0.496,0.957-1.01,1.385-1.556
			c0.431-0.538,0.646-1.106,0.646-1.704V97.588c0-0.329-0.035-0.723-0.101-1.176c-0.064-0.452-0.186-0.876-0.361-1.274
			c-0.178-0.397-0.414-0.747-0.712-1.043c-0.298-0.298-0.646-0.447-1.041-0.447c-0.55,0-1.024,0.24-1.419,0.718
			c-0.396,0.477-0.87,0.715-1.42,0.715C241.147,94.433,241.323,93.856,241.676,93.338z"/>
		<path d="M267.305,96.082c0.814-2.037,2.256-3.727,4.327-5.07c0.265-0.174,0.856-0.579,1.782-1.205
			c0.925-0.628,1.882-1.294,2.874-1.998c0.989-0.703,1.88-1.327,2.676-1.866c0.792-0.541,1.166-0.809,1.123-0.809h0.327
			c1.037,0.77,2.158,1.597,3.354,2.476c1.199,0.881,2.317,1.84,3.354,2.875c1.032,1.035,1.894,2.18,2.591,3.435
			c0.693,1.254,1.039,2.653,1.039,4.193v12.715c0,1.188-0.434,2.434-1.285,3.732c-0.857,1.301-1.74,2.246-2.645,2.84l-6.406,4.062
			c-0.264,0-0.577,0.204-0.939,0.612c-0.36,0.407-0.734,0.856-1.121,1.352c-0.389,0.498-0.752,0.947-1.092,1.355
			c-0.342,0.407-0.58,0.608-0.713,0.608c-0.131,0-0.433-0.18-0.908-0.541c-0.472-0.365-1.012-0.815-1.615-1.358
			c-0.604-0.536-1.246-1.104-1.914-1.697c-0.674-0.594-1.283-1.088-1.834-1.485c-1.232-0.902-2.098-2.086-2.594-3.551
			c-0.494-1.463-0.92-2.867-1.271-4.211c-0.086-1.98-0.167-3.682-0.229-5.102c-0.064-1.422-0.101-2.992-0.101-4.711
			C266.082,100.336,266.491,98.117,267.305,96.082z M274.9,101.912c0.021,0.902,0.033,1.847,0.033,2.842
			c0,0.947,0.012,1.86,0.034,2.737c0.021,0.883,0.033,1.479,0.033,1.784c0.132,0.686,0.421,1.498,0.872,2.442
			c0.452,0.947,0.982,1.873,1.588,2.775c0.605,0.903,1.279,1.668,2.03,2.295c0.747,0.626,1.51,0.94,2.28,0.94
			c0.086,0,0.194-0.013,0.326-0.035c0.135-0.021,0.199-0.117,0.199-0.297V101.71c0-0.173-0.031-0.604-0.102-1.286
			c-0.065-0.686-0.102-1.112-0.102-1.287c-0.087-0.309-0.387-0.871-0.904-1.685c-0.519-0.816-1.119-1.631-1.801-2.444
			c-0.683-0.814-1.388-1.514-2.113-2.099c-0.728-0.582-1.312-0.807-1.75-0.676L275,92.365c0,0.287-0.014,0.704-0.035,1.256
			c-0.021,0.55-0.031,1.144-0.031,1.784c0,0.64-0.012,1.228-0.035,1.766c-0.021,0.541-0.033,0.92-0.033,1.139v1.718
			C274.867,100.382,274.88,101.007,274.9,101.912z M280.48,90.681c0.09,0,0.133-0.044,0.133-0.131v-0.066
			c0-0.044-0.022-0.066-0.062-0.066c-0.092,0-0.137,0.043-0.137,0.132C280.414,90.639,280.439,90.681,280.48,90.681z"/>
		<path d="M293.739,92.711c0.696-0.67,1.503-1.381,2.431-2.129c0.922-0.75,1.861-1.512,2.812-2.295
			c0.951-0.783,1.643-1.558,2.08-2.33h0.328c0.723,0,1.371,0.429,1.952,1.289c0.577,0.858,1.091,1.817,1.541,2.872
			c0.447,1.059,0.845,2.016,1.185,2.875c0.342,0.86,0.621,1.287,0.841,1.287h0.332c0.815-0.725,1.788-1.575,2.916-2.542
			c1.13-0.968,2.198-1.892,3.221-2.775c1.019-0.879,1.886-1.624,2.604-2.229c0.716-0.607,1.05-0.91,1.004-0.91h0.334
			c0.652,0.178,1.246,0.558,1.795,1.142c0.546,0.583,1.061,1.228,1.542,1.932c0.479,0.706,0.913,1.425,1.308,2.163
			c0.393,0.739,0.719,1.404,0.987,1.998h0.332c0.282,0,0.856-0.298,1.726-0.891c0.865-0.596,1.811-1.283,2.831-2.064
			c1.019-0.78,1.976-1.568,2.877-2.362c0.898-0.792,1.525-1.387,1.878-1.784h0.328c0.327,0,0.559,0.11,0.69,0.331
			c1.204,1.387,2.192,2.648,2.962,3.781c0.77,1.132,1.363,2.274,1.795,3.418c0.429,1.144,0.718,2.394,0.87,3.749
			c0.155,1.354,0.229,2.957,0.229,4.806c0,1.541-0.029,3.145-0.101,4.807c-0.062,1.66-0.289,3.264-0.671,4.807
			c-0.387,1.541-0.979,2.972-1.779,4.291c-0.801,1.322-1.968,2.436-3.506,3.336c-1.884,1.145-3.534,2.229-4.948,3.253
			c-1.411,1.026-2.844,2.31-4.292,3.85h-0.197c-0.379,0-0.758-0.176-1.14-0.53c-0.376-0.351-0.61-0.568-0.698-0.656
			c-1.875-1.236-3.564-2.508-5.07-3.813c-1.504-1.312-2.512-3.134-3.025-5.467v-9.481c0-1.207,0-2.492,0-3.844
			c0-1.357-0.057-2.678-0.17-3.966c-0.105-1.289-0.312-2.449-0.609-3.484c-0.301-1.034-0.769-1.85-1.412-2.444h-0.527
			c-0.467,0-0.979,0.194-1.541,0.579c-0.568,0.386-1.098,0.86-1.596,1.42c-0.496,0.561-0.918,1.161-1.263,1.801
			c-0.344,0.64-0.514,1.177-0.514,1.617v16.91c0,0.64,0.149,1.174,0.446,1.603c0.302,0.431,0.632,0.79,0.994,1.089
			c0.367,0.299,0.693,0.581,0.98,0.846c0.288,0.263,0.434,0.549,0.434,0.855v0.562c-2.135,0.682-3.927,1.972-5.375,3.861
			c-0.092,0.09-0.203,0.278-0.345,0.563c-0.146,0.288-0.282,0.579-0.414,0.875c-0.131,0.297-0.251,0.559-0.362,0.776
			c-0.107,0.219-0.184,0.332-0.229,0.332h-0.131c-0.043,0-0.268-0.242-0.672-0.711c-0.401-0.476-0.891-1.004-1.461-1.59
			c-0.568-0.582-1.129-1.143-1.689-1.682c-0.556-0.538-1.031-0.896-1.426-1.073c-0.178-0.284-0.573-0.474-1.189-0.562
			c-0.617-0.088-0.945-0.31-0.99-0.658v-0.133c0.55-0.551,1.009-1.055,1.371-1.502c0.36-0.451,0.642-0.982,0.844-1.59
			c0.197-0.604,0.328-1.339,0.395-2.213c0.067-0.867,0.1-2.029,0.1-3.482v-1.353c0-0.288-0.012-0.935-0.031-1.948
			c-0.023-1.018-0.049-2.092-0.067-3.237c-0.024-1.146-0.045-2.229-0.065-3.255c-0.021-1.021-0.034-1.667-0.034-1.929v-3.042
			c-0.086-0.595-0.254-1.248-0.498-1.964c-0.241-0.717-0.747-1.074-1.519-1.074c-0.551,0.045-0.992,0.249-1.32,0.612
			c-0.329,0.364-0.79,0.566-1.387,0.612C292.723,94.019,293.049,93.384,293.739,92.711z M323.961,113.751
			c0.443,0.806,0.988,1.567,1.621,2.296c0.636,0.727,1.322,1.336,2.059,1.83c0.73,0.496,1.371,0.745,1.92,0.745
			c0.438-0.022,0.656-0.254,0.656-0.692V99.005c0-0.551-0.053-1.174-0.165-1.867c-0.106-0.694-0.312-1.342-0.606-1.95
			c-0.295-0.605-0.661-1.112-1.102-1.518c-0.439-0.408-0.998-0.612-1.676-0.612c-0.727,0-1.47,0.403-2.234,1.206
			c-0.769,0.804-1.151,1.525-1.151,2.162v15.227C323.283,112.248,323.508,112.948,323.961,113.751z"/>
		<path d="M341.6,91.738c0.647-0.836,1.414-1.763,2.295-2.775c0.887-1.013,1.791-1.938,2.717-2.775
			c0.925-0.836,1.646-1.256,2.16-1.256h0.234c0.536,0,1.09,0.431,1.657,1.289c0.569,0.858,1.124,1.817,1.66,2.874
			c0.536,1.057,1.008,2.016,1.419,2.874c0.408,0.858,0.699,1.287,0.88,1.287c0.087,0,0.435-0.225,1.037-0.676
			c0.601-0.452,1.297-0.97,2.089-1.553c0.788-0.583,1.543-1.148,2.27-1.701c0.723-0.552,1.236-0.936,1.543-1.156
			c0.043-0.043,0.244-0.249,0.596-0.61c0.353-0.364,0.751-0.744,1.205-1.139c0.447-0.396,0.859-0.767,1.219-1.107
			c0.363-0.342,0.588-0.513,0.682-0.513h0.129c0.42,0,0.862,0.282,1.336,0.844c0.475,0.561,0.947,1.195,1.424,1.898
			c0.474,0.704,0.923,1.382,1.354,2.031c0.428,0.649,0.818,1.083,1.172,1.303l3.037-2.576v1.223
			c-0.857,1.035-1.635,2.114-2.328,3.236c-0.691,1.123-1.037,2.41-1.037,3.865v17.406c0,0.309,0.053,0.684,0.161,1.139
			c0.112,0.447,0.275,0.893,0.497,1.321c0.219,0.427,0.469,0.796,0.742,1.106c0.275,0.307,0.588,0.461,0.941,0.461l1.849-1.685
			h0.661c0,0.685-0.34,1.365-1.023,2.046l-4.722,4.723c-0.047,0.133-0.188,0.338-0.433,0.613c-0.24,0.276-0.51,0.543-0.81,0.809
			c-0.296,0.264-0.543,0.513-0.742,0.744c-0.196,0.229-0.252,0.368-0.167,0.412h-0.229l-4.196-3.933
			c-0.614-0.64-0.991-1.429-1.122-2.376c-0.132-0.947-0.195-1.872-0.195-2.773v-1.951c0-1.299,0.031-3.189,0.1-5.681
			c0.02-0.768,0.031-1.553,0.031-2.343c0-1.695-0.043-3.385-0.131-5.055c-0.133-2.467-0.418-4.625-0.855-6.476
			c-0.441-1.85-1.129-2.775-2.073-2.775c-0.437,0-0.901,0.149-1.396,0.447c-0.494,0.296-0.953,0.659-1.381,1.088
			c-0.43,0.429-0.793,0.891-1.086,1.387c-0.297,0.495-0.466,0.94-0.511,1.336c-0.09,0.594-0.157,1.656-0.198,3.188
			c-0.041,1.528-0.078,3.173-0.097,4.937c-0.026,1.76-0.036,3.417-0.036,4.968c0,1.554,0,2.647,0,3.288v0.893
			c0,0.791,0.114,1.473,0.346,2.045c0.229,0.571,0.49,1.066,0.775,1.487c0.282,0.415,0.539,0.775,0.771,1.072
			c0.229,0.297,0.348,0.556,0.348,0.776c0,0.24-0.206,0.515-0.607,0.824c-0.408,0.309-0.857,0.655-1.354,1.041
			c-0.498,0.385-0.984,0.746-1.466,1.088c-0.479,0.342-0.811,0.646-0.989,0.909c-0.379,0.354-0.755,0.872-1.124,1.554
			c-0.365,0.682-0.686,1.023-0.953,1.023h-0.336c-0.868-1.365-1.841-2.484-2.914-3.354c-1.072-0.863-2.377-1.621-3.924-2.262v-0.459
			c0-0.312,0.117-0.637,0.352-0.979c0.23-0.341,0.479-0.706,0.74-1.089c0.264-0.385,0.514-0.803,0.742-1.254
			c0.23-0.45,0.347-0.932,0.347-1.438v-18.92c0-0.22-0.058-0.534-0.18-0.942c-0.119-0.408-0.292-0.804-0.513-1.189
			c-0.221-0.384-0.479-0.726-0.775-1.022c-0.298-0.298-0.604-0.447-0.908-0.447l-1.156,0.562h-0.528
			C340.622,92.972,340.943,92.577,341.6,91.738z"/>
		<path d="M374.854,92.366c0.735-0.99,1.611-2.003,2.625-3.038c1.014-1.035,2.012-1.97,2.99-2.806
			c0.982-0.839,1.727-1.258,2.23-1.258h0.326c0.545,0,1.096,0.32,1.652,0.958c0.562,0.64,1.066,1.315,1.541,2.032
			c0.469,0.715,0.881,1.387,1.233,2.014c0.353,0.628,0.571,0.94,0.659,0.94l2.707-2.21v1.022c-0.506,0.617-1.027,1.287-1.566,2.016
			c-0.541,0.727-0.986,1.477-1.338,2.246c-0.045,1.3-0.077,2.604-0.1,3.914c-0.025,1.308-0.035,2.615-0.035,3.916v7.727v1.355
			c0,0.615,0.023,1.363,0.066,2.244c0.045,0.883,0.145,1.717,0.297,2.508c0.156,0.791,0.385,1.461,0.695,2.003
			c0.309,0.536,0.734,0.807,1.288,0.807h0.131c0.156,0,0.47-0.139,0.944-0.414c0.471-0.276,0.729-0.411,0.773-0.411h0.327
			c0,0.242-0.382,0.776-1.153,1.603c-0.772,0.825-1.637,1.709-2.588,2.659c-0.955,0.947-1.84,1.791-2.652,2.543
			c-0.812,0.748-1.241,1.121-1.283,1.121h-0.379c-1.172-0.944-2.114-1.814-2.819-2.606c-0.698-0.794-1.235-1.631-1.599-2.509
			c-0.361-0.883-0.592-1.872-0.69-2.975c-0.095-1.1-0.14-2.468-0.14-4.096v-2.08c0-1.168-0.016-2.566-0.033-4.195
			c-0.021-1.631-0.055-3.254-0.102-4.873c-0.043-1.615-0.077-3.113-0.098-4.489c-0.022-1.376-0.059-2.362-0.101-2.957
			c-0.093-0.397-0.321-0.914-0.692-1.552c-0.377-0.638-0.816-0.958-1.324-0.958c-0.683,0-1.179,0.286-1.485,0.858
			c-0.31,0.574-0.782,0.858-1.42,0.858C373.746,93.996,374.117,93.357,374.854,92.366z M380.213,74.12
			c0.721-0.915,1.883-1.371,3.485-1.371c1.393,0,2.475,0.447,3.251,1.338c0.777,0.891,1.166,1.986,1.166,3.287
			c0,1.167-0.377,2.214-1.131,3.138c-0.754,0.924-1.779,1.387-3.082,1.387c-1.396,0-2.541-0.397-3.437-1.189
			c-0.89-0.791-1.336-1.859-1.336-3.203C379.131,76.163,379.49,75.032,380.213,74.12z"/>
		<path d="M393.266,101.15c0-1.893,0.547-3.549,1.631-4.968c1.086-1.419,2.391-2.736,3.911-3.946
			c1.522-1.21,3.103-2.372,4.746-3.485c1.647-1.112,3.005-2.274,4.077-3.485h0.201c0.77,0,1.513,0.419,2.227,1.258
			c0.716,0.836,1.35,1.815,1.901,2.939c0.549,1.121,0.979,2.261,1.286,3.417c0.307,1.156,0.462,2.075,0.462,2.759
			c0,1.74-0.371,3.39-1.109,4.953c-0.734,1.563-1.67,3.024-2.807,4.375c-1.13,1.354-2.359,2.629-3.676,3.816
			c-1.317,1.189-2.521,2.32-3.604,3.4v0.493c0,0.486,0.249,1.079,0.745,1.787c0.498,0.703,1.079,1.369,1.745,1.994
			c0.667,0.631,1.329,1.168,1.993,1.619c0.661,0.45,1.175,0.678,1.528,0.678c0.838,0,1.515-0.271,2.031-0.806
			c0.515-0.541,1.115-1.066,1.801-1.573h0.891v0.362c0,0.049-0.317,0.402-0.958,1.076c-0.64,0.67-1.179,1.162-1.617,1.471
			c-0.175,0.131-0.659,0.549-1.451,1.255c-0.791,0.703-1.661,1.442-2.606,2.213c-0.943,0.771-1.844,1.457-2.702,2.065
			c-0.855,0.604-1.421,0.906-1.681,0.906h-0.133c-1.085-0.416-2.158-1.123-3.224-2.111c-1.06-0.991-2.012-2.127-2.852-3.4
			c-0.845-1.277-1.513-2.607-2.011-3.98c-0.498-1.379-0.748-2.604-0.748-3.683V101.15H393.266z M401.918,99.336v2.645
			c0,1.209,0.021,2.386,0.059,3.529c0.039,1.146,0.119,2.467,0.238,3.965c0.17,0.088,0.394,0.133,0.664,0.133
			c0.53,0,1.079-0.271,1.646-0.811c0.567-0.54,1.071-1.197,1.527-1.982c0.456-0.778,0.831-1.578,1.13-2.393
			c0.303-0.814,0.449-1.498,0.449-2.051c0-0.438-0.103-1.162-0.311-2.177c-0.209-1.015-0.495-2.052-0.867-3.121
			c-0.376-1.068-0.842-2.002-1.396-2.808c-0.56-0.805-1.198-1.205-1.921-1.205h-0.202c-0.321,0-0.563,0.259-0.719,0.775
			c-0.15,0.518-0.251,1.107-0.296,1.766c-0.021,0.442-0.032,0.904-0.032,1.387c0,0.221,0,0.452,0,0.693
			C401.906,98.388,401.918,98.938,401.918,99.336z"/>
		<path d="M414.561,121.863c0.732-1.082,1.625-2.075,2.676-2.975c1.055-0.906,2.147-1.632,3.285-2.185
			c1.133-0.552,2.159-0.828,3.081-0.828c1.486,0,2.851,0.165,4.09,0.491c1.24,0.324,2.413,1.018,3.518,2.078l0.373-0.338v-9.842
			c0-0.695-0.309-1.332-0.932-1.908c-0.624-0.573-1.287-0.861-1.987-0.861c-0.57,0-1.149,0.186-1.75,0.562
			c-0.599,0.366-1.228,0.774-1.882,1.215c-0.655,0.438-1.347,0.828-2.077,1.166s-1.541,0.506-2.434,0.506
			c-0.878,0-1.683-0.228-2.412-0.69c-0.727-0.461-1.353-1.049-1.878-1.759c-0.525-0.711-0.934-1.516-1.223-2.417
			c-0.288-0.902-0.436-1.772-0.436-2.606c0-1.552,0.292-2.901,0.869-4.039c0.579-1.139,1.313-2.137,2.217-2.993
			c0.898-0.856,1.935-1.628,3.105-2.317c1.175-0.688,2.354-1.425,3.548-2.214c0.992-0.587,2.028-1.33,3.094-2.233
			c1.063-0.9,2.172-1.611,3.328-2.128c0.27,0,0.522,0.185,0.761,0.558c0.236,0.371,0.503,0.779,0.796,1.218
			c0.296,0.439,0.657,0.832,1.102,1.183c0.438,0.348,0.986,0.524,1.641,0.524c0.833,0,1.469-0.186,1.912-0.557
			c0.438-0.372,0.806-0.788,1.097-1.251c0.293-0.461,0.576-0.88,0.846-1.25c0.271-0.372,0.663-0.558,1.186-0.558
			c0,1.061-0.254,2.215-0.765,3.465c-0.509,1.251-1.186,2.396-2.03,3.432c-0.847,1.037-1.839,1.9-2.979,2.587
			c-1.142,0.687-2.331,1.031-3.573,1.031h-0.198c-0.388,0-0.924-0.157-1.61-0.474c-0.688-0.315-1.378-0.646-2.069-0.996
			c-0.689-0.35-1.296-0.615-1.814-0.794c-0.522-0.181-0.782-0.113-0.782,0.202v7.812c0,0.519,0.195,1.074,0.591,1.674
			c0.398,0.596,0.857,0.894,1.377,0.894c0.702,0,1.354-0.196,1.956-0.588c0.597-0.396,1.207-0.835,1.83-1.319
			c0.62-0.484,1.291-0.925,2.015-1.316c0.726-0.397,1.572-0.592,2.542-0.592c1.285,0,2.358,0.293,3.215,0.877
			s1.551,1.338,2.081,2.265c0.528,0.925,0.896,1.95,1.098,3.075c0.202,1.133,0.305,2.244,0.305,3.35v0.341
			c-0.091,1.104-0.157,2.095-0.2,2.976c-0.047,0.879-0.252,1.779-0.61,2.705c-0.43,1.014-1.138,1.873-2.129,2.568
			c-0.992,0.7-2.074,1.314-3.247,1.846c-1.176,0.527-2.322,1.035-3.454,1.521c-1.131,0.485-2.003,1.055-2.611,1.705
			c-0.183,0.09-0.427,0.259-0.729,0.513c-0.311,0.245-0.64,0.497-0.989,0.758c-0.351,0.26-0.688,0.491-1.019,0.693
			c-0.326,0.202-0.583,0.305-0.766,0.305h-0.339c-1.145-1.193-2.148-2.164-3.009-2.908c-0.863-0.746-2.072-1.117-3.625-1.117
			c-0.536,0-1.019,0.166-1.446,0.49c-0.431,0.328-0.843,0.69-1.236,1.082c-0.394,0.396-0.766,0.756-1.115,1.082
			c-0.349,0.326-0.658,0.49-0.929,0.49h-0.337C413.463,124.005,413.828,122.943,414.561,121.863z"/>
	</g>
</g>
</svg>
