<?xml version="1.0" encoding="utf-8"?>
<!-- Generator: Adobe Illustrator 16.0.0, SVG Export Plug-In . SVG Version: 6.00 Build 0)  -->
<!DOCTYPE svg PUBLIC "-//W3C//DTD SVG 1.1//EN" "http://www.w3.org/Graphics/SVG/1.1/DTD/svg11.dtd">
<svg version="1.1" id="Layer_1" xmlns="http://www.w3.org/2000/svg" xmlns:xlink="http://www.w3.org/1999/xlink" x="0px" y="0px"
	 width="250px" height="125px" viewBox="0 0 250 125" enable-background="new 0 0 250 125" xml:space="preserve">
<g>
	<g>
		<path fill="#333132" d="M64.615,48.088h10.912c8.977,0,15.483,6.053,15.483,14.454c0,8.274-6.629,14.493-15.483,14.493H64.615
			V48.088z M69.762,52.783v19.555h5.805c5.599,0,9.965-4.072,9.965-9.716c0-5.684-4.16-9.841-9.965-9.841L69.762,52.783
			L69.762,52.783z"/>
		<path fill="#333132" d="M113.875,47.593c8.977,0,15.482,6.301,15.482,14.949c0,8.522-6.631,14.948-15.482,14.948
			c-8.854,0-15.442-6.385-15.442-14.948C98.434,54.18,105.186,47.593,113.875,47.593z M113.916,72.999
			c5.598,0,9.963-4.487,9.963-10.375c0-5.93-4.156-10.417-9.963-10.417c-5.725,0-9.965,4.487-9.965,10.417
			C103.952,68.428,108.317,72.999,113.916,72.999z"/>
		<path fill="#333132" d="M134.99,48.088h24.333v4.695h-9.51v24.251h-5.149V52.783h-9.674V48.088L134.99,48.088z"/>
		<path fill="#333132" d="M175.009,77.529c-3.419,0-6.834-1.154-9.471-2.761l1.771-4.608c2.389,1.604,5.271,2.593,7.861,2.593
			c3.419,0,4.985-1.688,4.985-3.542c0-1.934-1.073-3.087-6.297-5.021c-5.644-2.06-7.579-4.737-7.579-8.192
			c0-4.366,3.542-8.402,9.717-8.402c3.086,0,6.134,0.906,7.988,1.976l-1.648,4.53c-1.688-0.948-4.24-1.935-6.462-1.935
			c-3.049,0-4.445,1.687-4.445,3.706c0,1.854,1.561,3.004,5.638,4.488c6.464,2.512,8.317,5.062,8.317,8.854
			C185.386,74.357,181.473,77.529,175.009,77.529z"/>
	</g>
	<g>
		<path fill="#00B3C7" d="M114.003,78.841c9.127,0,16.528-7.316,16.528-16.34c0-9.025-7.401-16.341-16.528-16.341
			c-9.129,0-16.528,7.316-16.528,16.341C97.476,71.524,104.875,78.841,114.003,78.841"/>
	</g>
</g>
</svg>
