<?xml version="1.0" encoding="utf-8"?>
<!-- Generator: Adobe Illustrator 22.1.0, SVG Export Plug-In . SVG Version: 6.00 Build 0)  -->
<svg version="1.1" id="Layer_1" xmlns="http://www.w3.org/2000/svg" xmlns:xlink="http://www.w3.org/1999/xlink" x="0px" y="0px"
	 viewBox="0 0 450 200" style="enable-background:new 0 0 450 200;" xml:space="preserve">
<g>
	<g>
		<path d="M164.4,53.9l-11.7,17.5l-0.3-0.2c0.2-0.5,0.4-1.1,0.5-1.6c0.1-0.5,0.1-1,0-1.5c-0.1-0.2-0.2-0.4-0.3-0.6
			c-0.2-0.2-0.4-0.4-0.7-0.7c-0.3-0.2-0.5-0.5-0.8-0.7c-0.3-0.2-0.6-0.4-0.9-0.6c-0.3-0.2-0.6-0.4-1.1-0.7c-0.5-0.3-0.9-0.7-1.5-1
			c-0.5-0.4-1.1-0.7-1.7-1.1c-0.6-0.4-1.1-0.8-1.7-1.1l-5.6-3.7c-0.3-0.2-0.7-0.5-1.1-0.7c-0.4-0.2-0.7-0.4-1.1-0.6
			c-0.3-0.2-0.7-0.3-1-0.4c-0.3-0.1-0.5-0.1-0.7-0.1c-0.5,0.1-0.9,0.3-1.2,0.5c-0.3,0.3-0.7,0.6-1.1,1.1l-0.3-0.2l10.5-15.8l6,1.2
			l0,0.4c-3,0.3-5.2,0.9-6.8,1.8c-0.4,0.2-0.9,0.7-1.6,1.5c-0.7,0.8-1.5,1.8-2.3,3.1c-0.3,0.4-0.5,0.8-0.8,1.3s-0.4,0.8-0.5,1
			c0.3,0.2,0.9,0.7,1.8,1.4c0.9,0.7,2,1.4,3.3,2.3c0.7,0.5,1.3,0.9,1.8,1.2c0.5,0.3,0.9,0.6,1.2,0.8c0.3,0.2,0.6,0.4,0.7,0.5
			c0.2,0.1,0.3,0.2,0.3,0.2c0.1-0.1,0.2-0.3,0.4-0.6c0.2-0.3,0.4-0.6,0.6-1c0.2-0.4,0.5-0.8,0.7-1.2c0.2-0.4,0.4-0.7,0.5-1
			c0.2-0.7,0.4-1.3,0.4-1.8c0-0.5,0-1-0.2-1.5c-0.2-0.5-0.4-0.9-0.8-1.3c-0.3-0.4-0.7-0.9-1.2-1.3l0.2-0.3l9,6l-0.2,0.3
			c-0.7-0.3-1.5-0.4-2.4-0.6c-0.9-0.1-1.6-0.1-2.1,0c-0.5,0.1-0.9,0.3-1.4,0.7c-0.5,0.3-0.9,0.7-1.3,1.3c-0.2,0.3-0.4,0.5-0.5,0.7
			c-0.1,0.2-0.3,0.4-0.4,0.6c-0.1,0.2-0.2,0.4-0.4,0.6c-0.1,0.2-0.3,0.4-0.5,0.7c0.2,0.2,0.6,0.5,1.1,0.8c0.5,0.3,1.1,0.7,1.6,1.1
			c0.2,0.2,0.5,0.4,0.9,0.6c0.3,0.2,0.7,0.4,1,0.6c0.3,0.2,0.6,0.4,0.9,0.6c0.3,0.2,0.5,0.3,0.7,0.5c0.6,0.4,1.2,0.7,1.8,1.1
			c0.6,0.3,1.1,0.5,1.4,0.5c0.4,0,0.8-0.3,1.4-0.9c0.5-0.6,1.1-1.2,1.6-2c0.2-0.3,0.5-0.7,0.8-1.3c0.3-0.5,0.6-1.1,0.9-1.7
			c0.3-0.7,0.6-1.3,0.7-2s0.1-1.4,0.1-2.1c-0.1-0.7-0.3-1.5-0.6-2.4c-0.3-0.8-0.7-1.8-1.2-2.8l0.3-0.3L164.4,53.9z"/>
		<path d="M180,35.6c0.2,1,0.2,1.9-0.1,2.9c-0.2,1-0.7,1.9-1.4,2.8c-0.7,0.9-1.5,1.8-2.6,2.6c-0.9,0.7-1.7,1.2-2.4,1.6
			c-0.7,0.4-1.3,0.7-1.9,0.8c-0.5,0.2-1,0.3-1.3,0.3c-0.3,0-0.5,0.1-0.5,0.1c-0.1,0-0.1,0.2-0.1,0.6c0,0.4,0,0.7,0,1l-0.2,0.2
			l-4.3-5.3l0.3-0.2c0.5,0.4,1.1,0.7,1.7,0.9s1.2,0.5,1.8,0.6c0.6,0.2,1.2,0.3,1.8,0.3c0.6,0,1.1,0,1.5-0.1c0.4-0.1,1-0.2,1.6-0.5
			c0.6-0.2,1.2-0.5,1.7-0.9c1.3-1.1,2.1-2.3,2.4-3.7c0.3-1.4-0.1-2.7-1.1-3.9c-0.4-0.5-0.8-0.9-1.3-1.1c-0.5-0.3-0.9-0.4-1.4-0.5
			c-0.5-0.1-1,0-1.5,0.1c-0.5,0.1-1.1,0.2-1.6,0.4c-0.6,0.2-1,0.3-1.5,0.5c-0.4,0.1-0.8,0.3-1.2,0.4c-0.4,0.1-0.7,0.2-1.1,0.4
			c-0.4,0.1-0.8,0.3-1.4,0.5c-0.6,0.2-1.3,0.3-1.9,0.3c-0.7,0-1.4,0-2-0.2c-0.7-0.2-1.3-0.4-1.9-0.8c-0.6-0.4-1.1-0.8-1.6-1.4
			c-0.8-1-1.3-2-1.5-2.9c-0.2-1-0.2-1.9,0-2.9c0.2-0.9,0.6-1.8,1.3-2.7c0.6-0.8,1.3-1.6,2.2-2.3c0.8-0.6,1.6-1.1,2.2-1.4
			c0.7-0.3,1.3-0.5,1.8-0.7c0.5-0.1,0.9-0.2,1.2-0.2c0.3,0,0.5,0,0.5,0c0.1,0,0.1-0.2,0.1-0.6c0-0.4,0-0.7,0-1l0.3-0.2l3.9,5
			l-0.3,0.2c-0.7-0.4-1.4-0.8-2.2-1.1c-0.8-0.3-1.6-0.5-2.4-0.6c-0.8-0.1-1.6-0.1-2.4,0.1c-0.8,0.2-1.6,0.5-2.3,1.1
			c-0.6,0.4-1,0.9-1.4,1.5c-0.4,0.6-0.6,1.1-0.7,1.8c-0.1,0.6-0.1,1.2,0.1,1.9c0.2,0.6,0.5,1.3,1,1.9c0.8,1,1.6,1.5,2.7,1.6
			c1,0.1,2.1,0,3.3-0.4c0.5-0.1,0.9-0.3,1.3-0.4c0.4-0.1,0.8-0.3,1.2-0.4c0.4-0.1,0.8-0.3,1.2-0.4c0.4-0.1,0.8-0.3,1.3-0.4
			c1.6-0.5,3-0.6,4.4-0.3c1.3,0.3,2.5,1.1,3.5,2.4C179.4,33.7,179.9,34.6,180,35.6z"/>
		<path d="M203.4,9.8c-0.3-0.3-0.7-0.6-1.1-1c-0.4-0.3-0.8-0.6-1.2-0.9c-0.4-0.3-0.8-0.5-1.1-0.7c-0.4-0.2-0.6-0.4-0.9-0.5
			c-0.6-0.3-1.2-0.4-1.8-0.3c-0.6,0.1-1.3,0.2-2.1,0.5c-0.4,0.2-0.8,0.3-1.1,0.4c-0.3,0.1-0.6,0.2-0.9,0.3c-0.3,0.1-0.6,0.2-0.9,0.3
			c-0.3,0.1-0.7,0.3-1.2,0.4c0.2,0.5,0.5,1.3,0.8,2.2c0.3,0.9,0.7,1.9,1.1,2.9c0.4,1,0.8,2,1.1,3c0.4,1,0.7,1.8,0.9,2.5l2.7,7.2
			c0.2,0.6,0.5,1.2,0.7,1.8c0.2,0.6,0.5,0.9,0.8,1.1c0.5,0.4,1.1,0.5,1.7,0.5c0.7,0,1.2-0.1,1.7-0.2l0.1,0.3l-10.5,3.9l-0.1-0.3
			c0.5-0.3,1-0.6,1.5-0.9c0.5-0.3,0.8-0.9,1.1-1.6c0.1-0.1,0.1-0.4,0-0.6c0-0.3-0.1-0.6-0.2-0.9c-0.1-0.3-0.2-0.7-0.3-1
			c-0.1-0.4-0.3-0.7-0.4-1.1c-0.1-0.3-0.3-0.7-0.4-1.2c-0.2-0.5-0.4-1.1-0.6-1.7c-0.2-0.6-0.4-1.2-0.7-1.9c-0.2-0.6-0.5-1.3-0.7-1.8
			l-4-10.7c-0.5,0.2-0.8,0.3-1.2,0.4c-0.3,0.1-0.6,0.2-0.9,0.3c-0.3,0.1-0.6,0.2-0.9,0.3c-0.3,0.1-0.7,0.3-1.1,0.4
			c-0.8,0.3-1.4,0.7-1.9,1c-0.5,0.4-0.8,0.9-1.1,1.5c-0.1,0.2-0.2,0.5-0.3,0.9c-0.1,0.4-0.2,0.8-0.3,1.2c-0.1,0.4-0.2,0.9-0.3,1.4
			c-0.1,0.5-0.1,1-0.1,1.4l-0.3,0l-1.3-6.5c0.5-0.1,1-0.2,1.5-0.3c0.4-0.1,1.1-0.3,1.9-0.6c0.8-0.3,1.6-0.5,2.2-0.8
			c0.7-0.2,1.3-0.5,1.9-0.7c0.6-0.2,1.2-0.5,1.8-0.7c0.6-0.2,1.4-0.5,2.2-0.8c0.8-0.3,1.5-0.6,2.1-0.8c0.6-0.2,1.3-0.5,1.9-0.7
			c0.6-0.2,1.2-0.5,1.9-0.7c0.6-0.3,1.4-0.5,2.2-0.8c0.7-0.3,1.3-0.6,1.7-0.8c0.4-0.3,0.9-0.6,1.3-0.9l3.4,5.9L203.4,9.8z"/>
		<path d="M231.6,26.2c-0.2-0.2-0.4-0.4-0.5-0.5c-0.1-0.1-0.2-0.2-0.3-0.4c-0.1-0.1-0.3-0.3-0.4-0.6c-0.2-0.3-0.5-0.7-0.8-1.2
			c-0.4-0.6-0.8-1.2-1.2-1.7c-0.3-0.5-0.7-1-1-1.5c-0.4-0.5-0.7-1-1.2-1.5c-0.4-0.5-0.9-1.1-1.5-1.7c-0.5-0.5-1-1-1.5-1.4
			c-0.5-0.4-1.1-0.7-1.7-0.8c-0.4-0.1-0.8-0.1-1-0.1c-0.2,0-0.5,0-0.8,0c0,1.5,0.1,2.8,0.1,3.9c0,1.1,0.1,2,0.1,2.8
			c0,0.7,0.1,1.4,0.1,1.9c0,0.5,0.2,1,0.4,1.3c0.2,0.3,0.6,0.6,1.1,0.9c0.5,0.3,1.3,0.5,2.2,0.5l0,0.3l-11,0.2l0-0.3
			c0.6-0.1,1.1-0.3,1.6-0.4c0.5-0.2,0.9-0.5,1.2-0.9c0.1-0.1,0.2-0.3,0.3-0.6c0.1-0.3,0.1-0.6,0.1-0.9c0-0.3,0-0.7,0.1-1.1
			c0-0.4,0-0.8,0-1.1c0-0.3,0-0.8,0-1.3c0-0.6,0-1.2,0-1.8c0-0.7,0-1.3,0-2c0-0.7,0-1.4,0-2l-0.1-6.7c0-0.4,0-0.8,0-1.3
			c0-0.4-0.1-0.8-0.1-1.2c0-0.4-0.1-0.7-0.2-1c-0.1-0.3-0.2-0.5-0.3-0.7c-0.4-0.4-0.7-0.6-1.2-0.7c-0.4-0.1-1-0.2-1.6-0.3l0-0.3
			c0.2,0,0.7,0,1.4,0c0.8,0,1.7,0,2.7-0.1c1,0,2-0.1,3-0.1c1,0,1.8,0,2.4-0.1c1.5,0,2.9,0,4.1,0.1c1.2,0.1,2.3,0.4,3.3,0.9
			c1,0.5,1.8,1.2,2.5,2.1c0.6,0.9,1,2,1,3.4c0,0.8-0.1,1.6-0.4,2.3c-0.3,0.7-0.7,1.3-1.2,1.8c-0.5,0.5-1.1,1-1.8,1.4
			c-0.7,0.4-1.4,0.7-2.2,1l0,0.1c0.4,0.2,0.8,0.5,1.2,0.9c0.4,0.4,0.7,0.8,1.1,1.3c0.6,0.9,1.3,1.8,2,2.8c0.7,1,1.4,1.9,1.9,2.6
			c0.9,1.2,1.7,2,2.5,2.6c0.8,0.5,1.8,0.9,2.8,1l0,0.3L231.6,26.2z M227.8,4.8c-0.6-0.9-1.4-1.6-2.6-2.1c-0.6-0.2-1.1-0.4-1.8-0.5
			c-0.6-0.1-1.2-0.1-1.9-0.1c-0.5,0-0.9,0-1.2,0.1c-0.3,0-0.5,0.1-0.7,0.1c0,0.1,0,0.3-0.1,0.4c0,0.1,0,0.2,0,0.4c0,0.2,0,0.4,0,0.7
			c0,0.3,0,0.7,0,1.2c0,0.8,0,1.7,0,2.7c0,1,0,2,0,2.9c0,0.9,0,1.8,0.1,2.5c0,0.7,0,1.1,0,1.3c0.9,0,1.8-0.1,2.6-0.2
			c0.8-0.1,1.6-0.3,2.3-0.5c0.7-0.2,1.4-0.6,1.9-1c0.5-0.4,0.9-0.9,1.3-1.4c0.3-0.5,0.6-1,0.7-1.6c0.1-0.6,0.2-1.2,0.2-1.8
			C228.7,6.7,228.4,5.7,227.8,4.8z"/>
		<path d="M254,31.2l0.1-0.3c0.1,0,0.2,0.1,0.5,0.1c0.3,0,0.6,0,0.9,0c0.3,0,0.6-0.1,0.9-0.2c0.3-0.1,0.5-0.3,0.6-0.7
			c0.1-0.2,0.1-0.5,0.1-1c0-0.5,0-1.1,0-1.8c0-0.7,0-1.5-0.1-2.4c0-0.9-0.1-1.8-0.1-2.8l-8.7-2.8c-0.6,0.7-1.2,1.4-1.7,2.1
			c-0.6,0.7-1.1,1.3-1.7,2c-0.8,1-1.3,1.8-1.5,2.3c-0.1,0.3-0.1,0.5,0,0.8c0.1,0.2,0.3,0.5,0.5,0.7c0.2,0.2,0.5,0.4,0.8,0.6
			c0.3,0.2,0.6,0.3,0.9,0.4l-0.1,0.3l-7-2.3l0.1-0.4c0.6,0.1,1.1,0.1,1.6,0c0.5-0.1,0.8-0.2,0.9-0.3c0.2-0.1,0.6-0.4,1.1-0.8
			c0.5-0.5,1.2-1.2,2.1-2.1c0.8-0.9,1.7-1.9,2.7-3c1-1.1,2-2.3,3.1-3.5c1.1-1.2,2.1-2.4,3.2-3.6c1-1.2,2-2.3,3-3.4L256,8.3
			c0.4,0,0.9-0.1,1.3-0.3c0.4-0.1,0.8-0.3,1.1-0.5c0.3-0.2,0.6-0.4,0.9-0.6c0.2-0.2,0.4-0.3,0.6-0.5l0.3,0.1c0.1,2,0.2,4,0.2,5.8
			c0.1,1.8,0.2,3.6,0.2,5.3c0.1,1.7,0.1,3.3,0.2,4.9c0.1,1.6,0.1,3.1,0.2,4.7c0,0.8,0.1,1.4,0.1,1.9c0.1,0.5,0.1,1.1,0.2,1.8
			c0,0.1,0.1,0.3,0.1,0.6c0.1,0.3,0.2,0.6,0.4,0.9c0.2,0.3,0.4,0.6,0.7,0.9s0.7,0.5,1.2,0.7l-0.1,0.4L254,31.2z M256.2,10
			c-0.2,0.2-0.6,0.6-1,1.2c-0.5,0.5-1,1.2-1.7,1.9c-0.7,0.8-1.4,1.6-2.2,2.6c-0.8,1-1.7,2-2.6,3.1l8.2,2.7c-0.1-1.1-0.1-2.2-0.2-3.3
			c-0.1-1.1-0.1-2.2-0.2-3.2c-0.1-1-0.1-2-0.2-2.8C256.3,11.3,256.2,10.6,256.2,10z"/>
		<path d="M291.3,45.3c-1.1,0.8-2.3,1.3-3.4,1.6c-1.1,0.3-2.3,0.4-3.4,0.3c-1.1-0.1-2.2-0.3-3.3-0.7c-1.1-0.4-2.1-0.8-3-1.4
			c-1-0.6-1.9-1.2-2.7-1.8l-9.9-7.8l0.2-0.3c0.5,0.3,1,0.5,1.6,0.7c0.6,0.2,1.1,0.2,1.5,0.1c0.2,0,0.3-0.1,0.6-0.3
			c0.2-0.2,0.4-0.4,0.7-0.6c0.2-0.2,0.5-0.5,0.8-0.8c0.3-0.3,0.5-0.6,0.7-0.9c0.2-0.3,0.5-0.6,0.8-1c0.3-0.4,0.7-0.9,1.1-1.4
			c0.4-0.5,0.8-1,1.3-1.6c0.4-0.6,0.9-1.1,1.2-1.6l4.2-5.3c0.3-0.3,0.5-0.6,0.8-1c0.3-0.3,0.5-0.6,0.7-0.9c0.2-0.3,0.4-0.6,0.5-0.9
			c0.1-0.3,0.2-0.5,0.2-0.7c0-0.5-0.2-1-0.4-1.4c-0.3-0.4-0.6-0.8-1.1-1.3l0.2-0.3c0.8,0.6,1.9,1.5,3.3,2.6c1.4,1.1,3.2,2.5,5.2,4.1
			c0.6,0.5,1.2,0.9,1.7,1.4c0.6,0.5,1.2,1,1.7,1.5c0.6,0.5,1.1,1.1,1.6,1.7c0.5,0.6,0.9,1.2,1.3,2c0.5,0.9,0.9,1.9,1.2,2.9
			c0.3,1,0.4,2.1,0.3,3.2c-0.1,1.1-0.3,2.2-0.7,3.3c-0.4,1.1-1.1,2.3-2,3.5C293.5,43.4,292.4,44.5,291.3,45.3z M293.1,36.1
			c0.5-1.2,0.7-2.5,0.8-3.8c0.1-1.3-0.1-2.5-0.4-3.7c-0.4-1.2-0.9-2.2-1.7-3.1c-0.3-0.4-0.7-0.7-1.1-1.1c-0.4-0.4-0.9-0.8-1.5-1.3
			c-0.2-0.2-0.5-0.4-0.7-0.5c-0.3-0.2-0.5-0.4-0.8-0.5c-0.3-0.2-0.5-0.3-0.7-0.5c-0.2-0.1-0.4-0.2-0.6-0.3c-0.8,0.8-1.8,2-3,3.5
			c-1.2,1.5-2.7,3.4-4.4,5.5c-0.9,1.2-1.7,2.2-2.5,3.2c-0.7,0.9-1.3,1.7-1.8,2.3c-0.2,0.3-0.4,0.5-0.6,0.9c-0.2,0.3-0.4,0.6-0.6,0.9
			s-0.3,0.6-0.4,0.9c-0.1,0.3-0.1,0.5-0.1,0.7c0.1,0.6,0.4,1.2,0.8,1.8c0.5,0.5,1,1,1.4,1.4c0.5,0.4,0.9,0.7,1.4,1
			c0.5,0.3,1,0.6,1.5,0.8c2.4,1,4.7,1,6.9,0.2c2.2-0.9,4.3-2.5,6.1-4.8C292,38.5,292.6,37.3,293.1,36.1z"/>
		<path d="M295.9,66.5l0.3-0.2c0,0.1,0.1,0.2,0.3,0.4c0.2,0.2,0.4,0.4,0.6,0.6c0.3,0.2,0.5,0.3,0.8,0.4c0.3,0.1,0.6,0,0.8-0.1
			c0.2-0.1,0.4-0.3,0.8-0.7c0.3-0.4,0.7-0.8,1.2-1.4c0.5-0.6,0.9-1.2,1.5-1.9c0.5-0.7,1.1-1.4,1.7-2.2l-4.9-7.7
			c-0.9,0.2-1.8,0.3-2.6,0.5c-0.8,0.2-1.7,0.3-2.5,0.5c-1.3,0.3-2.2,0.5-2.6,0.8c-0.3,0.2-0.4,0.4-0.5,0.6c-0.1,0.3-0.1,0.5,0,0.9
			c0,0.3,0.1,0.6,0.3,0.9c0.1,0.3,0.3,0.6,0.4,0.9l-0.3,0.2l-3.9-6.2l0.3-0.2c0.4,0.5,0.8,0.8,1.2,1c0.4,0.2,0.7,0.3,0.8,0.3
			c0.2,0,0.7,0.1,1.4,0.1c0.7,0,1.7-0.1,3-0.3c1.2-0.2,2.5-0.4,4-0.6c1.5-0.2,3-0.5,4.6-0.7c1.6-0.2,3.1-0.5,4.7-0.8
			c1.6-0.3,3.1-0.5,4.4-0.7l0.5-0.7c0.4,0.3,0.8,0.5,1.2,0.6c0.4,0.1,0.8,0.3,1.1,0.3c0.4,0.1,0.7,0.1,1,0.1c0.3,0,0.6,0,0.7,0
			l0.1,0.2c-1.2,1.6-2.4,3.2-3.5,4.6c-1.1,1.5-2.2,2.9-3.2,4.2c-1,1.3-2,2.6-3,3.9c-1,1.3-1.9,2.5-2.8,3.7c-0.5,0.6-0.8,1.1-1.1,1.5
			c-0.3,0.4-0.6,0.9-1,1.5c-0.1,0.1-0.1,0.3-0.2,0.5c-0.1,0.3-0.2,0.6-0.3,0.9c-0.1,0.4-0.1,0.7,0,1.2c0.1,0.4,0.2,0.9,0.5,1.3
			l-0.4,0.2L295.9,66.5z M311.1,51.6c-0.3,0-0.8,0.1-1.5,0.2c-0.7,0.1-1.5,0.3-2.5,0.4c-1,0.2-2.1,0.4-3.3,0.6
			c-1.2,0.2-2.6,0.5-4,0.7l4.6,7.2c0.7-0.9,1.3-1.8,2-2.7c0.7-0.9,1.3-1.8,1.9-2.6c0.6-0.8,1.2-1.6,1.7-2.3
			C310.4,52.6,310.8,52,311.1,51.6z"/>
	</g>
	<g>
		<path d="M134.5,102.8l10,0.4l0.1-3.5l1.5,0.1l-0.3,8.7l-1.5-0.1l0.1-3.5l-10-0.4L134.5,102.8z"/>
		<path d="M134.5,113l11.5-1.3l0.2,1.6l-4.9,0.5l0.5,4.7l4.9-0.5l0.2,1.6l-11.5,1.3l-0.2-1.6l5.2-0.6l-0.5-4.7l-5.2,0.6L134.5,113z"
			/>
		<path d="M136.6,127l11.2-2.9l1.8,6.9l-1.5,0.4l-1.4-5.3l-3.3,0.9l1.3,4.8l-1.4,0.4l-1.3-4.8l-3.6,0.9l1.4,5.3l-1.5,0.4L136.6,127z
			"/>
		<path d="M142.7,145.4l10.3-5.3l0.8,1.5l-4.3,2.2l2.2,4.2l4.3-2.2l0.8,1.5l-10.3,5.3l-0.8-1.5l4.7-2.4l-2.2-4.2l-4.7,2.4
			L142.7,145.4z"/>
		<path d="M149.6,157.6l9.6-6.5l0.9,1.4l-9.6,6.5L149.6,157.6z"/>
		<path d="M156.6,167.2c-0.4-0.5-0.8-1.1-1-1.7c-0.2-0.6-0.3-1.2-0.2-1.9c0.1-0.7,0.3-1.4,0.7-2.1c0.4-0.7,1.1-1.4,1.9-2.1
			c0.7-0.6,1.5-1.1,2.2-1.4c0.8-0.3,1.5-0.4,2.1-0.4c0.7,0,1.3,0.2,1.9,0.5c0.6,0.3,1.1,0.7,1.5,1.1c0.8,0.9,1.1,1.8,1.1,2.9
			c0,1.1-0.4,2-1.2,2.9l-1.3-1.1c1.1-1.4,1.2-2.6,0.2-3.7c-0.6-0.7-1.4-1-2.3-1c-1,0-2,0.5-3.1,1.4c-1.2,1-1.8,2-2,2.9
			c-0.2,1,0,1.8,0.6,2.5c0.6,0.7,1.2,1,2,1.1c0.7,0,1.4-0.3,2.2-0.9l-1.7-2l1.1-1l2.8,3.2l-1,0.8c-1.1,1-2.3,1.4-3.5,1.4
			C158.5,168.7,157.5,168.2,156.6,167.2z"/>
		<path d="M163.7,174.3l7.5-8.9l1.3,1.1l-3.2,3.7l3.6,3.1l3.2-3.7l1.3,1.1l-7.5,8.9l-1.3-1.1l3.4-4l-3.6-3.1l-3.4,4L163.7,174.3z"/>
		<path d="M174.9,183.1l6.1-9.9l6,3.7l-0.8,1.3l-4.6-2.9l-1.8,2.9l4.2,2.6l-0.8,1.3l-4.2-2.6l-1.9,3.1l4.6,2.9l-0.8,1.3L174.9,183.1
			z"/>
		<path d="M186.9,185.5l1.7,0.4c-0.3,1-0.3,1.8-0.1,2.4c0.2,0.6,0.7,1.1,1.6,1.5c0.7,0.3,1.3,0.4,1.9,0.3c0.5-0.1,0.9-0.4,1.1-0.9
			c0.2-0.5,0.2-0.9,0-1.4c-0.2-0.4-0.9-1.1-1.9-2c-1-0.9-1.6-1.6-1.9-2.3c-0.3-0.7-0.3-1.4,0.1-2.1c0.3-0.8,1-1.3,1.8-1.6
			c0.9-0.3,1.8-0.2,2.9,0.3c1,0.4,1.7,1.1,2.2,1.8c0.5,0.8,0.6,1.7,0.3,2.7l-1.7-0.3c0.1-0.6,0.1-1.2-0.1-1.7
			c-0.2-0.5-0.6-0.9-1.3-1.2c-0.6-0.3-1.2-0.3-1.6-0.2c-0.4,0.1-0.8,0.4-0.9,0.8c-0.2,0.4-0.1,0.7,0.1,1.1c0.2,0.4,0.8,1,1.8,1.9
			c1.1,1,1.8,1.9,2.1,2.5c0.3,0.7,0.2,1.4-0.1,2.2c-0.4,0.9-1.1,1.5-2,1.8c-0.9,0.3-2,0.2-3.1-0.3c-1.3-0.6-2.1-1.3-2.5-2.3
			C186.5,188,186.5,186.8,186.9,185.5z"/>
		<path d="M200.5,195l2.7-9.7l-3.4-0.9l0.4-1.5l8.4,2.3l-0.4,1.5l-3.4-1l-2.7,9.7L200.5,195z"/>
		<path d="M216.8,198.2l0.7-11.6l4.5,0.3c1.2,0.1,2.1,0.4,2.8,1.1c0.7,0.7,1,1.6,0.9,2.7c-0.1,1.1-0.5,2-1.2,2.6
			c-0.7,0.6-1.7,0.9-2.9,0.8l-2.9-0.2l-0.3,4.4L216.8,198.2z M218.8,192.4l2.8,0.2c0.7,0,1.2-0.1,1.6-0.4c0.4-0.3,0.7-0.8,0.7-1.5
			c0-0.7-0.1-1.2-0.6-1.6c-0.4-0.4-0.9-0.6-1.6-0.6l-2.8-0.2L218.8,192.4z"/>
		<path d="M234.5,198.4c-0.7,0.1-1.3,0-1.9-0.2c-0.6-0.2-1.1-0.5-1.7-0.9c-0.5-0.4-0.9-1-1.3-1.8c-0.4-0.8-0.6-1.7-0.7-2.8
			c-0.2-1.9,0.2-3.4,1-4.5s2-1.7,3.3-1.9c1.3-0.1,2.5,0.3,3.6,1.3c1.1,1,1.7,2.4,1.8,4.3c0.1,1.1,0.1,2-0.1,2.8
			c-0.2,0.8-0.5,1.5-0.9,2s-0.9,0.9-1.5,1.2C235.8,198.2,235.2,198.4,234.5,198.4z M234.4,196.9c0.9-0.1,1.7-0.5,2.2-1.3
			c0.5-0.8,0.7-2,0.6-3.5c-0.1-1.4-0.5-2.5-1.2-3.2c-0.7-0.7-1.5-1-2.4-0.9c-0.9,0.1-1.7,0.5-2.2,1.3c-0.5,0.8-0.7,1.9-0.6,3.3
			c0.1,1.5,0.5,2.6,1.2,3.4C232.6,196.7,233.4,197,234.4,196.9z"/>
		<path d="M244.6,196.7l-2.5-11.3l1.6-0.4l2.5,11.3L244.6,196.7z"/>
		<path d="M252,194.9l-3.8-11l1.6-0.6l7.5,6.5l0,0l-2.8-8.2l1.6-0.5l3.8,11l-1.6,0.5l-7.6-6.5l0,0l2.8,8.2L252,194.9z"/>
		<path d="M267.6,188.6l-4.6-8.9l-3.1,1.6l-0.7-1.4l7.7-4l0.7,1.4l-3.1,1.6l4.6,8.9L267.6,188.6z"/>
		<path d="M281.5,179.9l-7.1-9.2l1.3-1l7.1,9.2L281.5,179.9z"/>
		<path d="M287.5,175.1l-8.2-8.2l1.2-1.2l9.6,2.6l0,0l-6.1-6.1l1.2-1.2l8.2,8.2l-1.2,1.2l-9.7-2.6l0,0l6.1,6.1L287.5,175.1z"/>
		<path d="M301.1,159.7l-1.2-0.8l-4-9.7l0,0l-3.1,5l-1.3-0.8l4.2-6.8l1.2,0.8l4,9.8l0,0l3.2-5.2l1.3,0.8L301.1,159.7z"/>
		<path d="M310.9,141.7l-2.3-0.2l-2,4.5l1.6,1.6l-0.7,1.6l-8.8-8.6l0.7-1.4l12.3,1L310.9,141.7z M301.2,140.9l4.3,4.1l1.6-3.6
			L301.2,140.9L301.2,140.9z"/>
		<path d="M313.9,133.1l-4.7-1.4l-7.5,1.8l0.5-1.7l5.8-1.3l0,0l-4.2-4.1l0.5-1.7l5.4,5.5l4.7,1.4L313.9,133.1z"/>
		<path d="M316.3,123.2l-11.5-1.6l1-7l1.5,0.2l-0.8,5.4l3.3,0.5l0.7-4.9l1.5,0.2l-0.7,4.9l3.7,0.5l0.8-5.4l1.5,0.2L316.3,123.2z"/>
		<path d="M317.7,110.4l-11.6,0.1l0-3.7c0-0.7,0.1-1.3,0.3-1.9c0.2-0.6,0.6-1.1,1-1.6c0.4-0.5,1.1-0.9,1.8-1.1
			c0.8-0.3,1.6-0.4,2.6-0.4c1.1,0,2,0.1,2.8,0.4c0.8,0.3,1.4,0.7,1.8,1.2c0.4,0.5,0.7,1,0.9,1.6c0.2,0.6,0.3,1.2,0.3,1.9
			L317.7,110.4z M316.2,108.8l0-1.9c0-1.1-0.3-1.9-1-2.5c-0.7-0.6-1.8-0.9-3.3-0.9c-1.4,0-2.5,0.3-3.2,0.9s-1.1,1.4-1.1,2.4l0,2
			L316.2,108.8z"/>
	</g>
	<g>
		<g>
			<g>
				<path d="M206.6,163.3c-0.3,0.8-0.1,1,0.5,1h0.4c0.1,0,0.1,0.1,0.1,0.1l-0.1,0.3c0,0.1-0.1,0.1-0.2,0.1c-0.2,0-0.6,0-1.8,0
					c-1.3,0-1.7,0-1.8,0c-0.1,0-0.1,0-0.1-0.1l0.1-0.3c0-0.1,0.1-0.1,0.1-0.1h0.4c0.5,0,0.9-0.3,1.2-1.2l2.9-8.2
					c-0.7,0.2-1.5,0.9-1.8,1.3c-0.1,0.1-0.1,0.1-0.2,0l-0.2-0.1c0,0,0-0.1,0-0.2c0.4-0.5,1.2-1.4,2.4-1.8l0.5-1.5
					c0-0.1,0.1-0.2,0.2-0.2l1.4-0.4c0,0,0.1,0,0.1,0c0,0,0.1,0,0.1,0.1c0,0,0,0.1,0,0.1l-0.8,1.7c0.2,0,0.4,0,0.6,0
					c1.5,0,2.3,1,2.3,2c0,1.1-0.5,2.2-1.9,3.2c-0.7,0.5-2,1-3.2,1.1L206.6,163.3z M207.9,159.7c1.5-0.2,3.4-1.5,3.4-3.4
					c0-1.2-0.6-1.7-1.1-1.7c-0.2,0-0.3,0-0.5,0L207.9,159.7z"/>
				<path d="M218.6,151.4c0.2-0.5,0.2-0.9-0.3-0.9h-0.5c-0.1,0-0.1,0-0.1-0.1l0.1-0.4c0,0,0-0.1,0.1-0.1h2.4c0.1,0,0.2,0.1,0.1,0.2
					l-3.1,8.4c-0.2,0.4-0.3,0.9,0,0.9s0.9-0.6,1.1-0.8c0.1,0,0.1,0,0.2,0l0.2,0.2c0,0.1,0.1,0.1,0,0.2c-0.1,0.1-1.4,1.4-2.7,1.4
					c-0.3,0-0.5-0.2-0.5-0.6c0-0.2,0.3-1.1,0.5-1.5L218.6,151.4z"/>
				<path d="M228.6,153.8c0.1,0,0.1,0.1,0.1,0.2c-0.3,0.6-1,2.6-1.1,3c-0.1,0.3-0.6,2.1-0.6,2.3c0,0.2,0.1,0.2,0.2,0.2
					c0.2,0,0.8-0.7,1-0.9c0.1-0.1,0.1-0.1,0.2,0l0.2,0.1c0,0,0,0.1,0,0.2c-0.2,0.3-1.2,1.6-2.4,1.6c-0.3,0-0.5-0.2-0.5-0.4
					c0-0.2,0.1-0.6,0.6-2.2l-0.1,0c-0.6,1-1.9,2.6-3.2,2.6c-0.4,0-1-0.5-1-1.1c0-2.1,2.2-5.5,4.2-5.5c0.7,0,1,0.3,1.2,0.5l0.2-0.4
					c0.1-0.1,0.2-0.1,0.2-0.1H228.6z M226.3,156.5c0.2-0.4,0.4-0.9,0.4-1.4c0-0.2-0.3-0.7-0.7-0.7c-0.4,0-0.9,0.4-1.3,0.9
					c-0.9,1.2-1.3,2.6-1.3,3.5c0,0.3,0.1,0.5,0.4,0.5C224.3,159.4,226,157.1,226.3,156.5z"/>
				<path d="M233.8,158.5c0.8,0,1.1,0.2,1.6,0.6c0.6,0.5,0.9,0.8,1.3,0.8c0.3,0,0.6-0.2,0.6-0.4c0-0.2-0.1-0.3-0.2-0.4
					c-0.2-0.3-0.2-0.5-0.2-0.6c0-0.3,0.3-0.6,0.6-0.6c0.5,0,0.7,0.3,0.7,0.9c0,0.8-0.6,1.8-2.2,1.8c-0.9,0-1.4-0.3-2-0.6
					c-0.2-0.2-0.7-0.6-1-0.6c-0.2,0-0.4,0.2-0.6,0.6c-0.1,0.3-0.3,0.5-0.7,0.5c-0.3,0-0.4-0.2-0.4-0.5c0-0.6,0.8-1.2,1.3-1.4l3.1-3
					l-0.1-0.1c-0.7,0.1-1.1-0.2-1.5-0.5c-0.2-0.2-0.6-0.7-1-0.7c-0.2,0-0.4,0.1-0.4,0.2c0,0.1,0.1,0.2,0.2,0.3
					c0.1,0.1,0.3,0.2,0.3,0.5c0,0.3-0.3,0.6-0.6,0.6c-0.4,0-0.8-0.3-0.8-0.8c0-0.6,0.6-1.4,1.8-1.4c0.8,0,1.3,0.2,1.9,0.5
					c0.4,0.2,0.7,0.4,1,0.4c0.2,0,0.4-0.2,0.5-0.6c0.1-0.3,0.4-0.7,0.9-0.7c0.2,0,0.4,0.2,0.4,0.4c0,0.6-0.7,1.2-1.2,1.4
					L233.8,158.5L233.8,158.5z"/>
				<path d="M248,153.8c0.1,0,0.1,0.1,0.1,0.2c-0.3,0.6-1,2.6-1.1,3c-0.1,0.3-0.6,2.1-0.6,2.3c0,0.2,0.1,0.2,0.2,0.2
					c0.2,0,0.8-0.7,1-0.9c0.1-0.1,0.1-0.1,0.2,0l0.2,0.1c0,0,0,0.1,0,0.2c-0.2,0.3-1.2,1.6-2.4,1.6c-0.3,0-0.5-0.2-0.5-0.4
					c0-0.2,0.1-0.6,0.6-2.2l-0.1,0c-0.6,1-1.9,2.6-3.2,2.6c-0.4,0-1-0.5-1-1.1c0-2.1,2.2-5.5,4.2-5.5c0.7,0,1,0.3,1.2,0.5l0.2-0.4
					c0.1-0.1,0.2-0.1,0.2-0.1H248z M245.7,156.5c0.2-0.4,0.4-0.9,0.4-1.4c0-0.2-0.3-0.7-0.7-0.7c-0.4,0-0.9,0.4-1.3,0.9
					c-0.9,1.2-1.3,2.6-1.3,3.5c0,0.3,0.1,0.5,0.4,0.5C243.8,159.4,245.5,157.1,245.7,156.5z"/>
			</g>
		</g>
		<g>
			<rect x="260" y="155" transform="matrix(0.7071 -0.7071 0.7071 0.7071 -34.3401 231.4556)" width="4.4" height="4.4"/>
		</g>
		<g>
			<rect x="188.1" y="155" transform="matrix(0.7071 -0.7071 0.7071 0.7071 -55.4158 180.5744)" width="4.4" height="4.4"/>
		</g>
	</g>
	<path d="M275.4,74.2l0-6.5h-26.8v-1.8h-5.7v1.8h-6.3v-3.2H251v-5.2h-49.5v5.2h14.3v3.2h-6.3v-1.8h-5.7v1.8h-26.8v6.5h2.8v6h-2.2
		v1.1h2.2v14.1h-2.2v1.1h2.2l0,14.1h-2.2v1.1h2.2v14.1h-2.2v1.1h2.2h24h0.5h0.5h4.6h12.6h8.2h12.6h4.6v0h0.5h24.5h2.2v-1.1h-2.2
		v-14.1h2.2v-1.1h-2.2V96.5h2.2v-1.1h-2.2V81.3h2.2v-1.1h-2.2l0-6H275.4z M248.7,68.8h25.7v4.3h-1.7h-24V68.8z M264.6,80.3v-6h2.9v6
		H264.6z M248.7,74.2h2.9v6h-2.9V74.2z M252.7,74.2h2.9v6h-2.9L252.7,74.2z M256.6,74.2h2.9l0,6h-2.9V74.2z M260.6,74.2h2.9v6h-2.9
		V74.2z M242.9,112h-12.6v-3.6h12.6V112z M230.3,107.3v-13h12.6v13H230.3z M242.9,93.2h-12.6v-3.6h12.6V93.2z M230.3,88.5V72.8h6.3
		h6.3l0,15.7H230.3z M242.9,68.8v3h-6.3v-3H242.9z M202.6,63.4v-3h47.3v3h-13.2h-20.8H202.6z M235.5,64.5v7.3h-5.2h-8.2h-5.2l0-7.3
		H235.5z M222.1,112h-12.6v-3.6h12.6V112z M209.5,107.3v-13h12.6v13H209.5z M222.1,93.2h-12.6l0-3.6h12.6V93.2z M209.5,88.5V72.8
		h6.3h6.3v15.7H209.5z M215.8,68.8v3h-6.3v-3H215.8z M178.2,73.1v-4.3h25.7v4.3h-24H178.2z M203.8,80.2h-2.9v-6h2.9V80.2z
		 M187.8,74.2v6H185v-6H187.8z M188.9,74.2h2.9v6h-2.9L188.9,74.2z M192.9,74.2h2.9v6h-2.9V74.2z M196.9,74.2h2.9v6h-2.9V74.2z
		 M181,74.2h2.9v6H181V74.2z M181,81.3h22.9v14.1h-2.9v-5.1c0-1.9-1.5-3.4-3.4-3.4c-1.9,0-3.4,1.5-3.4,3.4v5.1h-3.5v-5.1
		c0-1.9-1.5-3.4-3.4-3.4c-1.9,0-3.4,1.5-3.4,3.4v5.1h-3V81.3z M199.8,95.4h-4.5v-5.1c0-1.3,1-2.3,2.3-2.3c1.3,0,2.3,1,2.3,2.3V95.4z
		 M189.6,95.4H185v-5.1c0-1.3,1-2.3,2.3-2.3c1.3,0,2.3,1,2.3,2.3V95.4z M181,96.5h22.9l0,14.1h-3v-5.1c0-1.9-1.5-3.4-3.4-3.4
		c-1.9,0-3.4,1.5-3.4,3.4v5.1h-3.5v-5.1c0-1.9-1.5-3.4-3.4-3.4c-1.9,0-3.4,1.5-3.4,3.4v5.1h-3V96.5z M199.8,110.6h-4.5v-5.1
		c0-1.3,1-2.3,2.3-2.3c1.3,0,2.3,1,2.3,2.3V110.6z M189.6,110.6H185v-5.1c0-1.3,1-2.3,2.3-2.3c1.3,0,2.3,1,2.3,2.3V110.6z
		 M189.6,125.8H185v-5.1c0-1.3,1-2.3,2.3-2.3c1.3,0,2.3,1,2.3,2.3V125.8z M199.8,125.8h-4.5v-5.1c0-1.3,1-2.3,2.3-2.3
		c1.3,0,2.3,1,2.3,2.3V125.8z M200.9,125.8v-5.1c0-1.9-1.5-3.4-3.4-3.4c-1.9,0-3.4,1.5-3.4,3.4v5.1h-3.5v-5.1c0-1.9-1.5-3.4-3.4-3.4
		c-1.9,0-3.4,1.5-3.4,3.4v5.1h-3l0-14.1h22.9v14.1H200.9z M204.9,125.8l0-51.6v-1.1v-5.4V67h3.5l0,21.6v5.8v13v5.8v12.7H204.9z
		 M209.5,125.8v-12.7h12.6v12.7H209.5z M223.2,125.8v-12.7v-5.8v-13v-5.8V72.8h6v15.7v5.8v13v5.8l0,12.7H223.2z M230.3,125.8v-12.7
		h12.6v12.7H230.3z M244,125.8v-12.7v-5.8v-13l0-5.8V67h3.5v58.8H244z M257.3,125.8h-4.5v-5.1c0-1.3,1-2.3,2.3-2.3
		c1.3,0,2.3,1,2.3,2.3V125.8z M267.5,125.8h-4.5v-5.1c0-1.3,1-2.3,2.3-2.3s2.3,1,2.3,2.3V125.8z M271.5,125.8h-3v-5.1
		c0-1.9-1.5-3.4-3.4-3.4s-3.4,1.5-3.4,3.4v5.1h-3.5v-5.1c0-1.9-1.5-3.4-3.4-3.4c-1.9,0-3.4,1.5-3.4,3.4v5.1h-3v-14.1h22.9V125.8z
		 M257.3,110.6h-4.5v-5.1c0-1.3,1-2.3,2.3-2.3c1.3,0,2.3,1,2.3,2.3V110.6z M267.5,110.6h-4.5v-5.1c0-1.3,1-2.3,2.3-2.3
		c1.3,0,2.3,1,2.3,2.3V110.6z M271.5,110.6h-3v-5.1c0-1.9-1.5-3.4-3.4-3.4s-3.4,1.5-3.4,3.4v5.1h-3.5v-5.1c0-1.9-1.5-3.4-3.4-3.4
		c-1.9,0-3.4,1.5-3.4,3.4v5.1h-3V96.5h22.9V110.6z M257.2,95.4h-4.5v-5.1c0-1.3,1-2.3,2.3-2.3c1.3,0,2.3,1,2.3,2.3V95.4z
		 M267.4,95.4h-4.5v-5.1c0-1.3,1-2.3,2.3-2.3c1.3,0,2.3,1,2.3,2.3V95.4z M271.5,95.4h-3v-5.1c0-1.9-1.5-3.4-3.4-3.4
		c-1.9,0-3.4,1.5-3.4,3.4v5.1h-3.5v-5.1c0-1.9-1.5-3.4-3.4-3.4c-1.9,0-3.4,1.5-3.4,3.4v5.1h-2.9V81.3h22.9V95.4z M271.5,80.3h-2.9
		v-6h2.9V80.3z"/>
</g>
</svg>
