<?xml version="1.0" encoding="utf-8"?>
<!-- Generator: Adobe Illustrator 22.1.0, SVG Export Plug-In . SVG Version: 6.00 Build 0)  -->
<svg version="1.1" id="Layer_1" xmlns="http://www.w3.org/2000/svg" xmlns:xlink="http://www.w3.org/1999/xlink" x="0px" y="0px"
	 viewBox="0 0 450 200" style="enable-background:new 0 0 450 200;" xml:space="preserve">
<g>
	<path d="M241.8,77.4c0.8-0.5,1.9-0.2,2.4,0.7c0.5,0.8,0.2,1.9-0.7,2.4l-17.9,10.1c-0.3,0.2-0.6,0.2-0.8,0.2c-0.6,0-1.2-0.3-1.5-0.8
		c-0.2-0.3-0.3-0.7-0.2-0.9l0.2-19.4L209,61.1l-0.2,17.5c0,0.9-0.8,1.7-1.8,1.7l0,0c-0.9,0-1.7-0.8-1.7-1.8l0.2-20.5
		c0-0.7,0.4-1.2,0.8-1.5c0.6-0.3,1.2-0.3,1.8,0l16.8,10l14.3-8.1l-15.1-8.8c-0.8-0.5-1.1-1.6-0.7-2.4c0.5-0.8,1.6-1.1,2.4-0.7
		L243.6,57c0.8,0.5,1.1,1.6,0.7,2.4c-0.1,0.2-0.2,0.3-0.4,0.4c-0.1,0.1-0.2,0.2-0.3,0.2l-16.9,9.6L226.5,86L241.8,77.4z M246.6,35.9
		h-43.4c-6,0-10.9,4.9-10.9,10.9v43.4c0,6,4.9,10.9,10.9,10.9h43.4c6,0,10.9-4.9,10.9-10.9V46.8C257.6,40.8,252.7,35.9,246.6,35.9"
		/>
	<g>
		<path d="M125.1,163.6c-0.7,0-1.2-0.6-1.2-1.2v-31.6c0-0.6,0.4-1,0.8-1.2c0.5-0.2,1,0,1.4,0.4l13.6,16.1l13.3-16.1
			c0.4-0.4,0.9-0.6,1.4-0.4c0.5,0.2,0.8,0.7,0.8,1.2v31.6c0,0.7-0.6,1.2-1.2,1.2l0,0c-0.7,0-1.2-0.6-1.2-1.2v-28.1l-12,14.6
			c-0.3,0.3-0.6,0.5-0.9,0.5c-0.4,0-0.8-0.2-0.9-0.5l-12.4-14.7v28.1C126.4,163.1,125.8,163.6,125.1,163.6z"/>
		<path d="M166.2,163.3c-0.4,0-0.7-0.1-0.8-0.4c-0.3-0.3-0.4-0.6-0.4-0.8v-31.3c0-0.7,0.6-1.2,1.2-1.2h21.5c0.7,0,1.2,0.6,1.2,1.2
			c0,0.7-0.6,1.2-1.2,1.2h-20.2v28.9h20.2l0,0c0.7,0,1.2,0.6,1.2,1.2s-0.6,1.2-1.2,1.2L166.2,163.3L166.2,163.3z"/>
		<path d="M166.2,146.7c-0.7,0-1.2-0.6-1.2-1.2c0-0.7,0.6-1.2,1.2-1.2h19.2c0.7,0,1.2,0.6,1.2,1.2c0,0.7-0.6,1.2-1.2,1.2H166.2z"/>
		<path d="M200,132v29h10.5c4,0,7-1.1,8.8-3.5c1.9-2.4,2.8-6,2.8-10.9c0-4.9-0.9-8.7-2.9-11c-1.9-2.4-4.8-3.6-8.8-3.6l0,0H200z
			 M198.7,163.4c-0.4,0-0.7-0.1-0.8-0.4s-0.4-0.6-0.4-0.8v-31.4c0-0.7,0.6-1.2,1.2-1.2h11.8l0,0c4.8,0,8.4,1.5,10.8,4.5
			c2.3,2.8,3.4,7,3.4,12.5c0,5.6-1.1,9.7-3.4,12.5c-2.4,2.9-6,4.4-10.8,4.4L198.7,163.4z"/>
		<path d="M233,163.4c-0.7,0-1.2-0.6-1.2-1.2v-31.4c0-0.7,0.6-1.2,1.2-1.2c0.7,0,1.2,0.6,1.2,1.2v31.4
			C234.2,162.9,233.7,163.4,233,163.4z"/>
		<path d="M233,163.4c-0.7,0-1.2-0.6-1.2-1.2c0-0.7,0.6-1.2,1.2-1.2h12.3c3.8,0,6.5-0.8,8.2-2.3c1.3-1.1,2-2.7,2-4.8
			c0-0.1,0-0.1,0-0.1c0-0.1,0.2-2.2-1.5-4c-1.7-1.8-4.6-2.7-8.7-2.7l0,0H233c-0.7,0-1.2-0.6-1.2-1.2s0.6-1.2,1.2-1.2h12.3l0,0
			c4.9,0,8.5,1.2,10.5,3.6c2.2,2.4,2.2,5.3,2.1,5.8c0,2.7-0.9,5-2.8,6.6c-2.2,2-5.5,2.9-9.9,2.9L233,163.4z"/>
		<path d="M245.2,147c-0.7,0-1.2-0.6-1.2-1.2c0-0.7,0.6-1.2,1.2-1.2c3,0,5.4-0.6,6.9-1.7c1.4-1,2.2-2.5,2.2-4.5
			c0-1.6-0.8-3.1-2.1-4.2c-1.6-1.3-4-2.1-6.9-2.1l0,0H233l0,0c-0.7,0-1.2-0.6-1.2-1.2c0-0.7,0.6-1.2,1.2-1.2h12.3l0,0
			c3.5,0,6.4,0.9,8.5,2.6c2,1.6,3,3.8,3,6.1c0,2.8-1.1,5.1-3.2,6.6C251.6,146.2,248.8,147,245.2,147z"/>
		<path d="M279.4,131.2L279.4,131.2c-4.2,0-7.6,1.5-9.9,4.3c-2.2,2.7-3.4,6.7-3.4,11.5c0,4.1,1.3,7.8,3.7,10.4
			c2.4,2.7,5.7,4.1,9.6,4.1l0,0c3.9,0,7.2-1.4,9.6-4.1c2.4-2.6,3.7-6.4,3.7-10.4c0-4.7-1.1-8.7-3.4-11.4
			C286.9,132.7,283.6,131.2,279.4,131.2 M279.4,164.1c-4.5,0-8.6-1.8-11.5-5c-2.7-3.1-4.3-7.4-4.3-12.1c0-5.3,1.3-9.8,4-13
			c2.7-3.5,6.9-5.3,11.9-5.3l0,0c5,0,9,1.8,11.9,5.3c2.5,3.2,4,7.7,4,13c0,4.7-1.5,9-4.3,12.1C288,162.3,283.9,164.1,279.4,164.1
			L279.4,164.1z"/>
		<path d="M324.9,163.6c-0.4,0-0.8-0.2-1-0.5l-24.6-31.9c-0.5-0.6-0.3-1.3,0.2-1.8c0.5-0.5,1.3-0.3,1.8,0.2l24.6,31.9
			c0.5,0.6,0.3,1.3-0.2,1.8C325.4,163.5,325.1,163.6,324.9,163.6"/>
		<path d="M299.6,163.6c-0.3,0-0.6-0.1-0.8-0.3c-0.6-0.4-0.7-1.2-0.2-1.8l24.6-32c0.5-0.6,1.2-0.7,1.8-0.2c0.6,0.4,0.7,1.2,0.2,1.8
			l-24.6,32C300.4,163.4,300,163.6,299.6,163.6"/>
	</g>
</g>
</svg>
