<?xml version="1.0" encoding="utf-8"?>
<!-- Generator: Adobe Illustrator 16.0.0, SVG Export Plug-In . SVG Version: 6.00 Build 0)  -->
<!DOCTYPE svg PUBLIC "-//W3C//DTD SVG 1.1//EN" "http://www.w3.org/Graphics/SVG/1.1/DTD/svg11.dtd">
<svg version="1.1" id="Layer_1" xmlns="http://www.w3.org/2000/svg" xmlns:xlink="http://www.w3.org/1999/xlink" x="0px" y="0px"
	 width="250px" height="125px" viewBox="0 62.805 250 125" enable-background="new 0 62.805 250 125" xml:space="preserve">
<g>
	<g>
		<defs>
			<rect id="SVGID_1_" x="56.483" y="72.142" width="137.035" height="106.327"/>
		</defs>
		<clipPath id="SVGID_2_">
			<use xlink:href="#SVGID_1_"  overflow="visible"/>
		</clipPath>
		<path clip-path="url(#SVGID_2_)" fill="#A2D9F0" d="M179.107,86.422c-7.58-3.622-16.944-2.665-25.56-4.398
			c-8.641-1.733-11.15-5.898-26.439-9.21c-10.452-2.25-21.783,1.293-34.278,6.674c-13.375,5.77-22.87,5.485-31.484,13.246
			c-7.684,6.908-4.838,15.911-1.086,24.422l9.934,25.121l0,0c1.165,2.094,2.794,4.448,5.226,7.347
			c8.511,10.167,28.069,16.013,38.313,20.075c8.771,3.492,13.091,9.935,30.604,8.563c17.126-1.346,25.611-15.47,29.906-32.854
			c0.802-3.209,1.682-6.469,2.716-9.547c3.493-10.452,8.719-15.264,12.263-19.765C200.58,101.686,186.688,90.044,179.107,86.422"/>
	</g>
	<g>
		<defs>
			<rect id="SVGID_3_" x="56.483" y="72.142" width="137.035" height="106.327"/>
		</defs>
		<clipPath id="SVGID_4_">
			<use xlink:href="#SVGID_3_"  overflow="visible"/>
		</clipPath>
		<path clip-path="url(#SVGID_4_)" fill="#FAB400" d="M177.814,123.804c1.63-2.535,3.337-5.044,4.397-7.89
			c1.087-2.923,1.241-6.002,0.362-8.977c-0.569-1.914-1.5-3.726-2.613-5.407c-1.087-1.681-2.354-3.233-3.829-4.604
			c-2.741-2.509-6.079-4.32-9.571-5.485c-3.57-1.19-7.347-1.759-11.098-1.759c-0.467,0-0.933,0-1.397,0.026l-72.023,1.294
			c-1.397,0.155-2.794,0.129-4.191,0.232c-0.75,0.052-1.526,0.155-2.276,0.311c-1.759,0.362-3.466,0.957-5.044,1.811
			c-1.733,0.931-3.312,2.146-4.553,3.622c-1.242,1.475-2.122,3.053-2.69,5.123c-0.776,2.716-0.647,5.587-0.052,8.33l23.723,34.227
			c3.44,3.363,7.011,6.623,10.762,9.598c3.001,2.38,6.131,4.631,9.442,6.597c2.639,1.578,5.381,3.001,8.227,4.139
			c2.303,0.933,4.683,1.708,7.14,2.251c2.018,0.44,4.088,0.75,6.157,0.88c1.76,0.129,3.544,0.129,5.303,0.077
			c2.846-0.077,5.718-0.232,8.512-0.828c3.699-0.775,7.27-2.197,10.478-4.216c2.949-1.862,5.562-4.19,7.839-6.83
			c2.173-2.51,4.036-5.304,5.665-8.2c0.389-0.673,0.75-1.371,1.113-2.069L177.814,123.804z"/>
	</g>
	<g>
		<defs>
			<rect id="SVGID_5_" x="56.483" y="72.142" width="137.035" height="106.327"/>
		</defs>
		<clipPath id="SVGID_6_">
			<use xlink:href="#SVGID_5_"  overflow="visible"/>
		</clipPath>
		<path clip-path="url(#SVGID_6_)" fill="#E12660" d="M177.09,113.638c-0.362-1.63-0.854-3.183-1.682-4.631
			c-0.569-0.957-1.242-1.94-1.94-2.793c-0.362-0.466-0.905-1.061-1.32-1.475c-2.354-2.483-5.07-4.372-7.76-6.441
			c-2.691-2.069-5.278-4.165-7.839-6.416c-0.673-0.569-1.294-1.164-1.966-1.733c-0.13-0.104-0.518-0.44-0.518-0.44
			c-1.32-1.112-2.64-2.121-3.984-3.053c-1.345-0.931-2.716-1.811-4.113-2.587c-2.069-1.19-4.19-2.199-6.312-3.053
			c-1.424-0.569-2.847-1.087-4.27-1.5c-0.725-0.207-1.423-0.414-2.147-0.595c-1.423-0.362-2.871-0.672-4.294-0.931
			c-2.871-0.491-5.717-0.75-8.538-0.776c-9.752-0.103-24.524,3.855-38.365,13.815l0,0c0,0-1.293,0.905-2.846,2.121
			c-1.526,1.216-3.104,2.484-5.691,4.967c-2.587,2.458-5.045,5.045-7.218,7.865c-0.88,1.139-1.785,2.458-2.251,3.182
			c-0.465,0.725-0.802,1.293-0.802,1.293s0,0.052,0.026,0.104c0-0.025-0.026-0.077-0.026-0.104c-1.423,2.433-2.38,4.657-2.975,6.727
			l0,0l0,0c-1.242,4.424-0.905,8.123-0.233,11.331c0.983,4.785,4.476,10.581,10.167,13.789l0,0c2.768,1.526,6.08,2.484,9.935,2.405
			c2.483-0.051,4.734-0.051,6.804-0.025c0,0,0,0,0.026,0.025c5.666,0.053,11.357,0.312,16.919,1.371
			c2.845,0.544,5.639,1.346,8.407,2.2c2.665,0.828,5.355,1.551,8.123,2.018c5.743,0.983,11.642,1.19,17.462,1.216
			c2.69,0,5.355-0.025,8.046,0.025c2.38,0.053,4.76,0.13,7.14,0.025c2.252-0.104,4.502-0.387,6.675-1.008
			c2.303-0.673,4.45-1.76,6.391-3.183c0.518-0.389,1.009-0.802,1.501-1.215c0,0,0-0.026,0.025-0.026
			c2.173-1.94,4.32-4.528,6.441-7.994c2.173-3.57,3.467-8.899,3.777-14.229l0,0C178.021,120.416,177.814,116.975,177.09,113.638"/>
	</g>
	<g>
		<defs>
			<rect id="SVGID_7_" x="56.483" y="72.142" width="137.035" height="106.327"/>
		</defs>
		<clipPath id="SVGID_8_">
			<use xlink:href="#SVGID_7_"  overflow="visible"/>
		</clipPath>
		<path clip-path="url(#SVGID_8_)" fill="#2C286D" d="M172.227,115.5L172.227,115.5v-0.026
			C172.2,115.474,172.2,115.474,172.227,115.5 M162.887,103.237c-8.977-6.597-25.352-7.916-33.554-11.641
			c-8.097-3.674-13.323-1.165-18.859,1.708c-1.164,0.595-2.276,1.189-3.389,1.708c-2.173,1.009-4.527,1.578-6.933,1.604h-0.026
			c-22.12,0.414-25.275,7.967-25.275,15.574c0,4.967,2.406,6.545,4.915,11.202c4.734,8.874,8.227,18.006,26.051,16.867
			c8.693-0.569,21.525-0.518,31.407,0.75c1.165,0.155,2.587,0.362,4.14,0.595c1.966,0.312,3.854,0.933,5.613,1.838
			c2.769,1.449,4.993,2.845,10.09,2.717c5.588-0.155,9.855-3.079,12.573-8.356c0.258-0.414,0.466-0.88,0.646-1.345
			c1.267-2.898,2.121-6.392,2.535-10.453C173.52,118.786,173.235,110.844,162.887,103.237"/>
	</g>
	<g>
		<defs>
			<rect id="SVGID_9_" x="56.483" y="72.142" width="137.035" height="106.327"/>
		</defs>
		<clipPath id="SVGID_10_">
			<use xlink:href="#SVGID_9_"  overflow="visible"/>
		</clipPath>
		<path clip-path="url(#SVGID_10_)" fill="#FFFFFF" d="M77.955,119.95c-3.415,0-5.174,1.837-5.174,5.458v5.562
			c0,3.622,1.733,5.459,5.174,5.459c3.415,0,5.174-1.837,5.174-5.459v-5.562C83.103,121.787,81.37,119.95,77.955,119.95
			 M76.273,125.02c0-1.785,0.854-1.94,1.682-1.94c0.802,0,1.682,0.155,1.682,1.94v6.313c0,1.785-0.854,1.939-1.682,1.939
			c-0.802,0-1.682-0.154-1.682-1.939V125.02z"/>
	</g>
	<g>
		<defs>
			<rect id="SVGID_11_" x="56.483" y="72.142" width="137.035" height="106.327"/>
		</defs>
		<clipPath id="SVGID_12_">
			<use xlink:href="#SVGID_11_"  overflow="visible"/>
		</clipPath>
		<path clip-path="url(#SVGID_12_)" fill="#FFFFFF" d="M93.193,120.183c-0.026-0.026-0.052-0.026-0.078-0.026h-8.045
			c-0.052,0-0.104,0.052-0.104,0.104v15.832c0,0.052,0.052,0.104,0.104,0.104h3.259c0.052,0,0.104-0.052,0.104-0.104v-6.597h3.622
			c0.052,0,0.104-0.053,0.104-0.104v-2.924l0,0c0-0.026,0-0.051-0.026-0.077c-0.026-0.025-0.052-0.025-0.078-0.025h-3.622v-3.053
			h4.657c0.051,0,0.104-0.052,0.104-0.104v-2.923l0,0C93.245,120.234,93.218,120.208,93.193,120.183"/>
	</g>
	<g>
		<defs>
			<rect id="SVGID_13_" x="56.483" y="72.142" width="137.035" height="106.327"/>
		</defs>
		<clipPath id="SVGID_14_">
			<use xlink:href="#SVGID_13_"  overflow="visible"/>
		</clipPath>
		<path clip-path="url(#SVGID_14_)" fill="#FFFFFF" d="M107.706,133.169c0-0.051-0.052-0.103-0.104-0.103h-4.656v-12.806
			c0-0.052-0.052-0.104-0.104-0.104h-3.259c-0.052,0-0.104,0.052-0.104,0.104v15.832c0,0.052,0.052,0.104,0.104,0.104h8.045
			c0.026,0,0.052-0.025,0.078-0.025c0.026-0.026,0.026-0.052,0.026-0.078L107.706,133.169z"/>
	</g>
	<g>
		<defs>
			<rect id="SVGID_15_" x="56.483" y="72.142" width="137.035" height="106.327"/>
		</defs>
		<clipPath id="SVGID_16_">
			<use xlink:href="#SVGID_15_"  overflow="visible"/>
		</clipPath>
		<path clip-path="url(#SVGID_16_)" fill="#FFFFFF" d="M113.553,119.95c-3.415,0-5.175,1.837-5.175,5.458v5.562
			c0,3.622,1.734,5.459,5.175,5.459c3.44,0,5.174-1.837,5.174-5.459v-5.562C118.701,121.787,116.968,119.95,113.553,119.95
			 M111.871,125.02c0-1.785,0.854-1.94,1.682-1.94c0.802,0,1.681,0.155,1.681,1.94v6.313c0,1.785-0.879,1.939-1.681,1.939
			c-0.802,0-1.682-0.154-1.682-1.939V125.02z"/>
	</g>
	<g>
		<defs>
			<rect id="SVGID_17_" x="56.483" y="72.142" width="137.035" height="106.327"/>
		</defs>
		<clipPath id="SVGID_18_">
			<use xlink:href="#SVGID_17_"  overflow="visible"/>
		</clipPath>
		<path clip-path="url(#SVGID_18_)" fill="#FFFFFF" d="M131.093,120.157h-3.001c-0.052,0-0.104,0.052-0.104,0.104v8.252
			c-0.388-0.854-3.726-8.278-3.726-8.278c-0.026-0.052-0.052-0.078-0.104-0.078h-3.492c-0.052,0-0.104,0.052-0.104,0.104v15.832
			c0,0.052,0.052,0.104,0.104,0.104h3c0.052,0,0.104-0.052,0.104-0.104v-9.08c0.388,0.854,4.14,9.106,4.14,9.106
			c0.025,0.052,0.051,0.077,0.103,0.077h3.079c0.051,0,0.104-0.052,0.104-0.104v-15.832
			C131.222,120.208,131.17,120.157,131.093,120.157"/>
	</g>
	<g>
		<defs>
			<rect id="SVGID_19_" x="56.483" y="72.142" width="137.035" height="106.327"/>
		</defs>
		<clipPath id="SVGID_20_">
			<use xlink:href="#SVGID_19_"  overflow="visible"/>
		</clipPath>
		<path clip-path="url(#SVGID_20_)" fill="#FFFFFF" d="M137.456,120.157h-4.269c-0.051,0-0.104,0.052-0.104,0.104v15.832
			c0,0.052,0.053,0.104,0.104,0.104h4.269c3.751,0,5.562-1.785,5.692-5.64v-4.785C143.019,121.942,141.207,120.157,137.456,120.157
			 M136.552,123.313h0.775c1.683,0,2.329,0.776,2.329,2.846v4.088c0,2.018-0.674,2.845-2.329,2.845h-0.775V123.313z"/>
	</g>
	<g>
		<defs>
			<rect id="SVGID_21_" x="56.483" y="72.142" width="137.035" height="106.327"/>
		</defs>
		<clipPath id="SVGID_22_">
			<use xlink:href="#SVGID_21_"  overflow="visible"/>
		</clipPath>
		<path clip-path="url(#SVGID_22_)" fill="#FFFFFF" d="M150.158,119.95c-3.414,0-5.173,1.837-5.173,5.458v5.562
			c0,3.622,1.733,5.459,5.173,5.459c3.415,0,5.175-1.837,5.175-5.459v-5.536C155.333,121.787,153.6,119.95,150.158,119.95
			 M148.478,125.046c0-1.786,0.854-1.94,1.681-1.94c0.803,0,1.683,0.155,1.683,1.94v6.338c0,1.784-0.88,1.94-1.683,1.94
			c-0.801,0-1.681-0.156-1.681-1.94V125.046z"/>
	</g>
	<g>
		<defs>
			<rect id="SVGID_23_" x="56.483" y="72.142" width="137.035" height="106.327"/>
		</defs>
		<clipPath id="SVGID_24_">
			<use xlink:href="#SVGID_23_"  overflow="visible"/>
		</clipPath>
		<path clip-path="url(#SVGID_24_)" fill="#FFFFFF" d="M167.725,120.183h-3.001c-0.052,0-0.104,0.052-0.104,0.104v8.253
			c-0.388-0.854-3.725-8.278-3.725-8.278c-0.026-0.052-0.053-0.078-0.104-0.078h-3.493c-0.052,0-0.104,0.052-0.104,0.104v15.833
			c0,0.052,0.052,0.104,0.104,0.104h3.001c0.052,0,0.104-0.052,0.104-0.104v-9.081c0.389,0.854,4.14,9.106,4.14,9.106
			c0.025,0.052,0.052,0.078,0.104,0.078h3.078c0.052,0,0.104-0.052,0.104-0.104v-15.833
			C167.828,120.234,167.776,120.183,167.725,120.183"/>
	</g>
	<g>
		<defs>
			<rect id="SVGID_25_" x="56.483" y="72.142" width="137.035" height="106.327"/>
		</defs>
		<clipPath id="SVGID_26_">
			<use xlink:href="#SVGID_25_"  overflow="visible"/>
		</clipPath>
		<path clip-path="url(#SVGID_26_)" fill="#FFFFFF" d="M99.919,101.375h-3.26c-0.052,0-0.104,0.052-0.104,0.104v11.021
			c0,1.371-0.569,1.992-1.837,1.992c-1.268,0-1.836-0.621-1.836-1.992v-11.021c0-0.052-0.052-0.104-0.104-0.104h-3.26
			c-0.052,0-0.104,0.052-0.104,0.104v11.021c0,3.363,1.836,5.123,5.33,5.123c3.492,0,5.329-1.759,5.329-5.123v-11.046
			C100.048,101.401,99.996,101.375,99.919,101.375"/>
	</g>
	<g>
		<defs>
			<rect id="SVGID_27_" x="56.483" y="72.142" width="137.035" height="106.327"/>
		</defs>
		<clipPath id="SVGID_28_">
			<use xlink:href="#SVGID_27_"  overflow="visible"/>
		</clipPath>
		<path clip-path="url(#SVGID_28_)" fill="#FFFFFF" d="M122.167,114.388c0-0.052-0.052-0.104-0.103-0.104h-5.252v-3.57h4.424
			c0.052,0,0.103-0.052,0.103-0.104v-2.923c0-0.051-0.051-0.103-0.103-0.103h-4.424v-3.053h5.045c0.052,0,0.104-0.052,0.104-0.104
			v-2.923l0,0c0-0.026,0-0.052-0.026-0.078s-0.052-0.026-0.078-0.026h-8.434c-0.052,0-0.104,0.052-0.104,0.104v15.833
			c0,0.051,0.052,0.103,0.104,0.103h8.641c0.026,0,0.051-0.025,0.078-0.025c0.025-0.026,0.025-0.052,0.025-0.078V114.388z"/>
	</g>
	<g>
		<defs>
			<rect id="SVGID_29_" x="56.483" y="72.142" width="137.035" height="106.327"/>
		</defs>
		<clipPath id="SVGID_30_">
			<use xlink:href="#SVGID_29_"  overflow="visible"/>
		</clipPath>
		<path clip-path="url(#SVGID_30_)" fill="#FFFFFF" d="M134.352,101.375h-3.285c-0.052,0-0.104,0.052-0.104,0.104v11.021
			c0,1.371-0.569,1.992-1.862,1.992c-1.268,0-1.837-0.621-1.837-1.992v-11.021c0-0.052-0.052-0.104-0.104-0.104h-3.259
			c-0.052,0-0.104,0.052-0.104,0.104v11.021c0,3.363,1.836,5.123,5.303,5.123c3.492,0,5.33-1.759,5.33-5.123v-11.046
			C134.455,101.401,134.403,101.375,134.352,101.375"/>
	</g>
	<g>
		<defs>
			<rect id="SVGID_31_" x="56.483" y="72.142" width="137.035" height="106.327"/>
		</defs>
		<clipPath id="SVGID_32_">
			<use xlink:href="#SVGID_31_"  overflow="visible"/>
		</clipPath>
		<path clip-path="url(#SVGID_32_)" fill="#FFFFFF" d="M86.932,101.349h-3.518c-0.052,0-0.077,0.025-0.104,0.052
			c0,0-3.233,6.338-3.415,6.675c-0.181-0.337-3.415-6.675-3.415-6.675c-0.026-0.026-0.052-0.052-0.104-0.052h-3.493
			c-0.052,0-0.104,0.052-0.104,0.104v15.833c0,0.052,0.052,0.103,0.104,0.103h3.13c0.052,0,0.104-0.051,0.104-0.103v-9.443
			c0.388,0.673,3.622,6.416,3.622,6.416c0.025,0.026,0.052,0.052,0.103,0.052h0.104c0.051,0,0.078-0.026,0.103-0.052
			c0,0,3.26-5.769,3.622-6.416v9.443c0,0.052,0.051,0.103,0.104,0.103h3.13c0.052,0,0.104-0.051,0.104-0.103v-15.833
			C87.035,101.401,86.983,101.349,86.932,101.349"/>
	</g>
	<g>
		<defs>
			<rect id="SVGID_33_" x="56.483" y="72.142" width="137.035" height="106.327"/>
		</defs>
		<clipPath id="SVGID_34_">
			<use xlink:href="#SVGID_33_"  overflow="visible"/>
		</clipPath>
		<path clip-path="url(#SVGID_34_)" fill="#FFFFFF" d="M150.469,101.349h-3.519c-0.051,0-0.077,0.025-0.103,0.052
			c0,0-3.233,6.338-3.416,6.675c-0.18-0.337-3.414-6.675-3.414-6.675c-0.025-0.026-0.052-0.052-0.104-0.052h-3.518
			c-0.053,0-0.104,0.052-0.104,0.104v15.833c0,0.052,0.052,0.103,0.104,0.103h3.13c0.052,0,0.104-0.051,0.104-0.103v-9.443
			c0.388,0.673,3.622,6.416,3.622,6.416c0.025,0.026,0.052,0.052,0.103,0.052h0.104c0.053,0,0.077-0.026,0.104-0.052
			c0,0,3.261-5.769,3.622-6.416v9.443c0,0.052,0.053,0.103,0.104,0.103h3.182c0.052,0,0.104-0.051,0.104-0.103v-15.833
			C150.572,101.401,150.521,101.349,150.469,101.349"/>
	</g>
	<g>
		<defs>
			<rect id="SVGID_35_" x="56.483" y="72.142" width="137.035" height="106.327"/>
		</defs>
		<clipPath id="SVGID_36_">
			<use xlink:href="#SVGID_35_"  overflow="visible"/>
		</clipPath>
		<path clip-path="url(#SVGID_36_)" fill="#FFFFFF" d="M108.948,109.11l-2.199-1.656c-1.139-0.879-1.682-1.629-1.682-2.405
			c0-0.595,0.414-1.19,1.216-1.19c0.362,0,1.319,0,1.474,1.733c0,0.026,0.026,0.052,0.052,0.078
			c0.026,0.025,0.052,0.025,0.078,0.025l3.156-0.491c0.052,0,0.104-0.051,0.104-0.103v-0.208c-0.078-2.276-1.966-3.673-4.915-3.673
			c-2.329,0-4.812,1.397-4.812,3.984c0,1.759,0.828,3.26,2.561,4.579l2.121,1.63l0.155,0.129c1.087,0.854,1.604,1.242,1.604,2.018
			c0,0.802-0.465,1.165-1.475,1.165c-1.009,0-1.578-0.543-1.707-1.656c0-0.025-0.026-0.051-0.052-0.077
			c-0.026-0.026-0.052-0.026-0.078-0.026l-3.311,0.466c-0.052,0-0.104,0.078-0.104,0.129l0.026,0.233
			c0.336,2.509,2.225,3.958,5.174,3.958c3.078,0,5.147-1.682,5.147-4.165C111.509,111.723,110.811,110.507,108.948,109.11"/>
	</g>
</g>
</svg>
