<?xml version="1.0" encoding="utf-8"?>
<!-- Generator: Adobe Illustrator 22.1.0, SVG Export Plug-In . SVG Version: 6.00 Build 0)  -->
<svg version="1.1" id="Layer_1" xmlns="http://www.w3.org/2000/svg" xmlns:xlink="http://www.w3.org/1999/xlink" x="0px" y="0px"
	 viewBox="0 0 450 200" style="enable-background:new 0 0 450 200;" xml:space="preserve">
<g>
	<polygon points="291.9,41.8 291.9,41.8 215.4,41.8 215.4,99.2 177.2,99.2 177.2,61 205.9,61 205.9,41.8 158.1,41.8 158.1,118.3 
		234.6,118.3 234.6,99.2 234.6,99.2 234.6,61 272.8,61 272.8,99.2 244.1,99.2 244.1,118.3 291.9,118.3 	"/>
	<g>
		<path d="M196.9,150.6c0,2.3-0.6,4.6-2.2,6.6c-2,2.3-4.4,3.1-7.4,2.9c-1.6-0.1-3-0.5-4.4-1.4c-1.6-1.2-2.7-2.8-3.2-4.6
			c-0.8-2.9-0.6-5.9,0.8-8.6c1.3-2.4,3.4-3.8,6-4.3c2-0.4,4.1-0.1,6,0.9c1.8,0.9,2.9,2.4,3.6,4.2
			C196.6,147.6,196.8,148.9,196.9,150.6z M192.7,150.2c-0.1-0.6-0.1-1.6-0.2-2.6c-0.2-1.4-0.4-2.8-1.2-3.9c-1.4-2.7-4.8-2.8-6.5-0.4
			c-0.9,1.3-1.2,2.9-1.4,4.5c-0.3,2.3-0.3,4.6,0.2,6.9c0.3,1.2,0.6,2.4,1.3,3.4c1.2,1.6,3.4,2,5,0.9c1.1-0.7,1.6-1.7,2-2.8
			C192.6,154.3,192.7,152.5,192.7,150.2z"/>
		<path d="M237.3,157.1c-0.1-0.9-0.2-2.2-0.3-3.5c0-0.1,0.1-0.3,0.1-0.4c0.1,0.1,0.3,0.2,0.3,0.3c0.9,1.3,1.7,2.7,2.7,3.9
			c0.7,1,1.7,1.8,2.9,2c1.2,0.3,2.3,0.2,3.3-0.4c0.7-0.4,1.2-1.2,1.3-2c0.3-1.7-0.1-2.8-1.3-3.6c-1.1-0.7-2.2-1.1-3.4-1.5
			c-1.2-0.4-2.4-1-3.5-1.7c-2.9-2-3-6.8,0.6-8.5c2.3-1.2,4.7-1.1,7-0.1c0.4,0.2,0.7,0.4,1.1,0.4c0.4,0.2,0.6,0.1,0.9-0.4
			c0.1-0.2,0.2-0.4,0.4-0.7c0-0.1,0.2-0.1,0.2-0.2c0,0.1,0.1,0.2,0.1,0.2c0,0.3,0,0.5,0,0.8c0.1,1.6,0.2,3.2,0.3,4.7
			c0,0.1,0,0.3,0,0.4c0,0.1-0.1,0.2-0.1,0.3c-0.1-0.1-0.2-0.1-0.3-0.2c-0.7-1.1-1.3-2.2-2-3.2c-0.6-1-1.4-1.9-2.6-2.3
			c-1.2-0.4-2.3-0.4-3.4,0.3c-0.8,0.4-1.2,1.2-1.3,2.1c-0.2,1.6,0.4,2.7,1.9,3.4c1.3,0.6,2.8,1.2,4.1,1.7c1.2,0.5,2.3,1.1,3.3,2
			c1,1,1.3,2.1,1.2,3.5c-0.1,2.8-1.9,4.5-4.3,5.2c-2.3,0.6-4.4,0.4-6.6-0.7c-0.3-0.2-0.6-0.3-0.9-0.4c-0.5-0.2-0.9-0.1-1.1,0.4
			c-0.1,0.2-0.2,0.4-0.3,0.6c0,0.1-0.2,0.2-0.2,0.2c0-0.1-0.1-0.2-0.1-0.3C237.3,159,237.3,158.2,237.3,157.1z"/>
		<path d="M210.9,144.7c0,0.1,0,0.3,0,0.4c0,3.3,0,6.6,0,10c0,0.8,0.1,1.6,0.3,2.4c0.2,1.2,1,1.8,2,2c0.2,0,0.3,0.2,0.4,0.3
			c-0.2,0-0.3,0.1-0.4,0.1c-1.6,0-3.3,0-4.9,0c-0.1,0-0.2-0.1-0.3-0.1c0.1-0.1,0.2-0.2,0.3-0.3c1.2-0.3,1.8-1.2,2-2.4
			c0.1-1.2,0.2-2.5,0.2-3.6c0-2.9-0.1-5.9-0.1-8.9c0-0.4-0.1-0.9-0.2-1.2c-0.2-1-0.8-1.4-1.7-1.7c-0.1,0-0.2,0-0.2-0.1
			c-0.1-0.1-0.1-0.1-0.1-0.2c0-0.1,0.1-0.1,0.2-0.1c0.1,0,0.1,0,0.2,0c1.6,0,3.1,0,4.7,0c0.3,0,0.4,0.1,0.5,0.3
			c2.8,4,5.8,7.8,8.9,11.6c0.1,0.1,0.2,0.3,0.4,0.4c0-0.2,0-0.4,0-0.4c0-2.3,0-4.7,0-7c0-0.8-0.1-1.6-0.3-2.3
			c-0.3-1.2-1.1-1.8-2.1-2c-0.1,0-0.2-0.2-0.3-0.3c0.1-0.1,0.2-0.2,0.4-0.2c1.7,0,3.4,0,5,0c0.1,0,0.2,0.1,0.4,0.2
			c-0.1,0.1-0.2,0.3-0.3,0.3c-1.2,0.3-1.8,1.1-1.9,2.1c-0.2,1.4-0.3,2.9-0.3,4.4c0,3.8,0.1,7.6,0.1,11.4c0,0.2,0,0.4-0.1,0.4
			c-0.2,0.1-0.4,0-0.6-0.2c-2.2-3-4.5-6-6.8-8.9c-1.6-2-3.2-3.9-4.8-6c-0.1-0.1-0.1-0.2-0.2-0.2
			C210.9,144.7,210.9,144.7,210.9,144.7z"/>
		<path d="M264.7,150.2c-0.1-1.6-0.1-3.7-0.2-5.8c0-0.4-0.1-0.8-0.3-1.2c-0.3-0.8-0.9-1.2-1.6-1.4c-0.1,0-0.2,0-0.2-0.1
			c-0.1-0.1-0.1-0.2-0.2-0.2c0.1,0,0.1-0.1,0.2-0.1s0.3,0,0.4,0c2.4,0,4.9,0,7.3,0c0.1,0,0.2,0,0.3,0c0.1,0,0.2,0.1,0.3,0.2
			c-0.1,0.1-0.2,0.2-0.3,0.2c-0.3,0.1-0.6,0.2-0.9,0.4c-0.6,0.4-0.9,1-0.9,1.6c-0.1,1.2-0.2,2.4-0.2,3.6c0,2.9,0,6,0.1,8.9
			c0,0.5,0.1,1.2,0.3,1.7c0.2,0.9,0.8,1.3,1.6,1.6c0.2,0,0.4,0,0.4,0.3c0,0.1-0.3,0.1-0.4,0.1c-2.6,0-5.1,0-7.6,0
			c-0.1,0-0.2,0-0.2,0c-0.1,0-0.2-0.1-0.3-0.1c0.1-0.1,0.1-0.2,0.2-0.2c0.2-0.1,0.3-0.1,0.4-0.1c0.9-0.3,1.3-0.9,1.5-1.8
			c0.1-0.5,0.2-1.1,0.2-1.5C264.6,154.2,264.7,152.5,264.7,150.2z"/>
	</g>
</g>
</svg>
