<?xml version="1.0" encoding="utf-8"?>
<!-- Generator: Adobe Illustrator 22.1.0, SVG Export Plug-In . SVG Version: 6.00 Build 0)  -->
<svg version="1.1" id="Layer_1" xmlns="http://www.w3.org/2000/svg" xmlns:xlink="http://www.w3.org/1999/xlink" x="0px" y="0px"
	 viewBox="0 0 450 200" style="enable-background:new 0 0 450 200;" xml:space="preserve">
<g>
	<path d="M314.7,91c1.8,0,3.3,0.6,4.3,1.8c1.1,1.2,1.7,2.9,1.7,4.9c0,2.1-0.5,3.7-1.7,4.9c-1.1,1.2-2.5,1.8-4.3,1.8
		s-3.2-0.6-4.3-1.8s-1.7-2.9-1.7-4.9c0-2.1,0.5-3.7,1.7-4.9S312.9,91,314.7,91 M317.5,83.6c-2.1,0-3.9,0.4-5.4,1.4s-2.6,2.2-3.3,3.9
		V75.1h-8.5v36.3h8.5v-5c0.7,1.7,1.8,3,3.3,3.9c1.5,1,3.3,1.4,5.4,1.4c2.2,0,4.3-0.5,6-1.7c1.8-1.2,3.2-2.7,4.2-4.9
		c1.1-2.1,1.6-4.6,1.6-7.5s-0.5-5.4-1.6-7.5c-1.1-2.1-2.4-3.7-4.2-4.9C321.7,84.3,319.7,83.6,317.5,83.6 M281.8,90.9
		c1.6,0,3,0.6,4,1.8c1.1,1.2,1.6,2.9,1.6,5.1c0,2.2-0.5,3.9-1.6,5c-1.1,1.2-2.4,1.7-4,1.7c-1.6,0-3-0.5-4-1.7
		c-1.1-1.2-1.7-2.9-1.7-5c0-2.2,0.5-3.9,1.7-5.1C278.8,91.6,280.2,90.9,281.8,90.9 M281.8,83.6c-2.7,0-5.2,0.5-7.3,1.7
		c-2.1,1.2-3.8,2.7-5.1,4.9c-1.3,2.1-1.8,4.6-1.8,7.5s0.6,5.4,1.8,7.5c1.3,2.1,3,3.8,5.1,4.9c2.1,1.2,4.6,1.7,7.3,1.7
		c2.7,0,5.2-0.5,7.3-1.7c2.1-1.2,3.8-2.7,5.1-4.9c1.3-2.1,1.8-4.6,1.8-7.5s-0.6-5.4-1.8-7.5c-1.3-2.1-3-3.8-5.1-4.9
		C286.9,84.3,284.5,83.6,281.8,83.6 M252.5,83.7c-2,0-3.8,0.5-5.5,1.5c-1.7,1.1-3,2.3-3.9,4.1c-0.8-1.8-2-3.2-3.6-4.1
		s-3.5-1.5-5.6-1.5c-2,0-3.7,0.4-5.3,1.4c-1.5,0.8-2.6,2.1-3.3,3.6v-4.6h-8.5v27.4h8.5V96.8c0-1.9,0.5-3.4,1.5-4.3
		c1-1.1,2.3-1.5,4-1.5c1.6,0,2.9,0.5,3.8,1.5c1,1,1.4,2.3,1.4,4v14.9h8.5V96.8c0-1.9,0.5-3.3,1.5-4.3c1-1.1,2.3-1.6,3.9-1.6
		s2.9,0.5,3.8,1.5s1.4,2.3,1.4,4v14.9h8.3V95.5c0-3.7-1-6.6-2.9-8.7C258.5,84.8,255.9,83.7,252.5,83.7 M182.8,84l11.5,26.4
		l-6.4,14.1h9.2L214.1,84h-9.2l-6.1,16.8L192.3,84H182.8z M165.6,91c1.8,0,3.2,0.6,4.3,1.8s1.7,2.9,1.7,4.9s-0.5,3.7-1.7,4.9
		s-2.5,1.8-4.3,1.8c-1.8,0-3.3-0.6-4.3-1.8c-1.1-1.2-1.7-2.9-1.7-4.9c0-2.1,0.5-3.7,1.7-4.9C162.4,91.7,163.8,91,165.6,91 M163,83.6
		c-2.2,0-4.3,0.5-6,1.7c-1.8,1.2-3.2,2.7-4.2,4.9c-1.1,2.1-1.6,4.6-1.6,7.5s0.5,5.4,1.6,7.5c1.1,2.1,2.4,3.8,4.2,4.9
		c1.8,1.2,3.8,1.7,6,1.7c2.1,0,3.9-0.4,5.4-1.4s2.6-2.2,3.4-3.9v5h8.3V84h-8.3v5c-0.7-1.6-1.8-3-3.4-3.9
		C166.8,84.2,165,83.6,163,83.6 M134.3,91c1.8,0,3.3,0.6,4.3,1.8c1.1,1.2,1.7,2.9,1.7,4.9c0,2.1-0.5,3.7-1.7,4.9
		c-1.1,1.2-2.5,1.8-4.3,1.8c-1.8,0-3.2-0.6-4.3-1.8s-1.7-2.9-1.7-4.9c0-2.1,0.5-3.7,1.7-4.9S132.5,91,134.3,91 M137,83.6
		c-2.1,0-3.9,0.4-5.4,1.4c-1.5,1-2.6,2.2-3.3,3.9v-5h-8.5v40.5h8.5v-18.1c0.7,1.7,1.8,3,3.3,3.9c1.5,1,3.3,1.4,5.4,1.4
		c2.2,0,4.3-0.5,6-1.7c1.8-1.2,3.2-2.7,4.2-4.9s1.6-4.6,1.6-7.5c0-2.9-0.5-5.4-1.6-7.5s-2.4-3.7-4.2-4.9
		C141.2,84.3,139.2,83.6,137,83.6"/>
</g>
</svg>
