<?xml version="1.0" encoding="utf-8"?>
<!-- Generator: Adobe Illustrator 22.1.0, SVG Export Plug-In . SVG Version: 6.00 Build 0)  -->
<svg version="1.1" id="Layer_1" xmlns="http://www.w3.org/2000/svg" xmlns:xlink="http://www.w3.org/1999/xlink" x="0px" y="0px"
	 viewBox="0 0 450 200" style="enable-background:new 0 0 450 200;" xml:space="preserve">
<g>
	<polygon points="200.5,90.6 231,90.6 231,109.4 200.5,109.4 200.5,115.6 237.2,115.4 237.2,84.4 200.5,84.4 	"/>
	<polygon points="157.7,90.6 188.3,90.6 188.3,96.9 157.7,96.9 157.7,115.4 163.8,115.4 163.8,103 188.3,103 188.3,115.4 
		194.4,115.4 194.4,84.4 157.7,84.4 	"/>
	<polygon points="145.5,109.4 121,109.4 121,84.4 114.9,84.4 114.9,115.5 151.5,115.5 151.5,84.4 145.5,84.4 	"/>
	<polygon points="298.5,115.4 335.1,115.6 335.1,96.9 329,96.9 329,109.4 304.6,109.4 304.6,90.6 335.1,90.6 335.1,84.4 298.5,84.4 
			"/>
	<polygon points="341.3,84.4 341.3,90.6 371.9,90.6 371.9,96.9 341.3,96.9 341.3,115.4 347.5,115.4 347.5,103 371.9,103 
		371.9,115.4 378,115.4 378,84.4 	"/>
	<path d="M243.3,115.4l6.1,0.1V103l19.2,0.1l5.2,12.4h6.1l-5-12.4h5V84.4h-36.7L243.3,115.4L243.3,115.4z M249.4,90.6h24.4v6.2
		h-24.4V90.6z"/>
	<polygon points="286.2,84.4 286.2,115.4 292.3,115.4 292.2,84.4 	"/>
	<polygon points="72,84.4 72,115.4 94.3,115.4 94.3,109.3 78.1,109.3 78.1,90.6 102.5,90.6 102.5,109.3 100.1,103 93.7,103 
		96.3,109.3 96.3,109.3 99,115.5 108.7,115.5 108.7,115.4 108.7,115.4 108.7,84.4 	"/>
</g>
</svg>
