<?xml version="1.0" encoding="utf-8"?>
<!-- Generator: Adobe Illustrator 22.1.0, SVG Export Plug-In . SVG Version: 6.00 Build 0)  -->
<svg version="1.1" id="Layer_1" xmlns="http://www.w3.org/2000/svg" xmlns:xlink="http://www.w3.org/1999/xlink" x="0px" y="0px"
	 viewBox="0 0 450 200" style="enable-background:new 0 0 450 200;" xml:space="preserve">
<g>
	<g>
		<path d="M386.6,137.8c6.4,0,18.7-11.4,18.7-23.9c0-3.8-1.8-7.4-5.9-8.2c-0.8-0.1-1.4-0.2-2.2-0.2c-17.2,0-29.2,30.4-39.4,31.5
			h-0.5h-0.1c-5.2-0.4-5-9.2-1.8-16c2-4.5,8.3-16.6,11.6-23.3h6.7L361,121.3c-5,9.3-6.4,14.8-3.6,15c9.3-0.4,21.7-31.5,39.8-31.5
			c1.2,0,2.3,0.2,3.2,0.4c4.5,1.3,7.6,6.6,6.2,14c-1.6,8.4-11,19.1-20.1,19.1L386.6,137.8z M371.5,85.4c0-1.9,1.7-3.8,3.6-3.8
			s3.8,1.9,3.8,3.8S377,89,375.1,89S371.5,87.3,371.5,85.4"/>
		<path d="M165.1,118.7c-6.7,11.7-13.7,17.9-17.7,18.2h-0.1h-0.5c-4.2-0.3-4.3-6-2.5-11.7c-4.6,7.5-8.8,11.2-12.4,11.2
			c-5.4,0-6-9.8,0.6-21.8c6.6-12.2,16.2-18,19.8-18c2.5,0,3.4,2.5,2.9,5.5l2.3-4.6h6.7l-12.7,23.6c-5.1,9.4-7.4,15-4.5,15
			c3.8,0,10.4-5.9,17.2-17.5L165.1,118.7L165.1,118.7L165.1,118.7L165.1,118.7z M145.9,120.9c1.3-2.8,4.3-8.8,7.1-14.5
			c1.7-4.3,2.1-9-0.8-9c-3.8,0-10.8,12.4-14.3,18.5c-3.4,6.1-9.6,19.8-6.1,19.8C135.9,135.7,140.5,131,145.9,120.9"/>
		<path d="M194.9,118.7c-7,12.2-14.3,18.5-18.3,18.2c-4-0.2-5.8-4.1-5.8-7.5c0-9.5,11.1-22.8,11.1-28.4c0-0.6,0-2.3-1.5-3
			c-1.4-0.7-2.4-1.4-3-2.3c-3.1,6.2-7.1,13.9-12.2,23h-0.9c5.4-9.4,9.5-17.5,12.6-23.6c-0.8-1.3-0.9-2.9-0.9-4.6
			c0-2.5,1.2-6.3,3.1-6.3c0.7,0,1.3,0.7,1.3,2.4s-1,4.6-2.8,8.4c0.6,0.9,1.4,1.6,2.8,2.3l0.2,0.1c2.7,1.3,5.7,2.6,5.7,5.7
			c0,6.6-11.7,22.5-11.7,29.9c0,2.1,0.2,3.1,2,3.2c3.7,0.1,10.4-5.8,17.3-17.5L194.9,118.7L194.9,118.7z"/>
		<path d="M228.5,118.7c-6.7,11.7-13.7,17.9-17.7,18.2h-0.1h-0.5c-4.2-0.3-4.3-6-2.5-11.7c-4.6,7.5-8.8,11.2-12.4,11.2
			c-5.4,0-6-9.8,0.6-21.8c6.6-12.2,16.2-18,19.8-18c2.5,0,3.4,2.5,2.9,5.5l2.3-4.6h6.7l-12.7,23.6c-5.1,9.4-7.4,15-4.5,15
			c3.8,0,10.4-5.9,17.2-17.5L228.5,118.7L228.5,118.7L228.5,118.7z M209.3,120.9c1.3-2.8,4.3-8.8,7.1-14.5c1.7-4.3,2.1-9-0.8-9
			c-3.8,0-10.8,12.4-14.3,18.5c-3.4,6.1-9.6,19.8-6.1,19.8C199.2,135.7,203.9,131,209.3,120.9"/>
		<path d="M259.4,136.7c-6.4,0-12.4-4.6-12.4-19.8c0-28.1,23.8-63,49-70.6v1c-20.5,9-44.1,50.5-44.1,75.9c0,7.9,2.5,12.6,7.5,12.6
			c16.6,0,51-49.2,51-81.9c0-6.9-2.1-9.7-4.9-9.7c-11.2,0-34.7,31.9-42,62.4h-1c7.2-30.7,31.2-63.4,43-63.4c4.6,0,7.2,5,7.2,12.9
			C312.7,91.1,276.2,136.6,259.4,136.7"/>
		<path d="M332.2,118.7c-7,12.2-14.3,18.5-18.3,18.2c-5-0.2-5.7-7.8-2.1-14.6c3.7-7.2,6.8-12.1,8.5-14.9c2.8-4.8,5.4-9.9,2.9-9.9
			c-2.9,0-8.4,3.5-15.7,15.8l-12.2,22.9h-6.7l20.9-38.7h6.6l-4.3,8.1c5-6.6,8.9-8.8,11.4-8.8c3.3,0,5.2,3.6,2.6,10.7
			c-1.2,3.2-6.1,11.6-9.8,17.8c-4.3,7.4-5,10.8-1.9,10.8c3.8,0,10.4-5.9,17.2-17.5L332.2,118.7L332.2,118.7z"/>
		<path d="M357.5,118.7c-8.4,14.2-19.4,19-27.1,19c-4.3,0-8-3-7.4-7.5c0.4-3.8,3.7-6,5.6-4.6c1.9,1.2,0.9,4.3-1.7,4.3
			c-0.6,0-1.1-0.3-1.5-0.7c-0.6,0.8-0.9,1.6-0.9,2.7c0,2.1,1.1,4.2,4,4.9c0.6,0.1,1.2,0.2,2,0.2c4.2,0,10-2.9,10-17.1
			c0-6.1,0.1-11.7,0.3-16c-2.8,5.2-6.2,10.7-8.4,14.9h-0.9c2.6-4.6,6.3-10.9,9.4-16.6c0.1-1.9,0.3-3.5,0.4-4.7c0.6-5.4,3-9.9,5-9.9
			c1.3,0,1.4,1.7,0.9,3.6c-0.7,2-2.7,5.9-5.1,10.4c0.8,6.4,4.2,13.3,4.1,19.8c-0.1,6.6-2.6,10.8-5.7,13.2
			c4.9-2.3,11.6-7.7,16.4-15.8L357.5,118.7L357.5,118.7L357.5,118.7z"/>
		<path d="M150.6,46c-0.4-1.9-1.7-3-3.5-3c-3.4,0-7.1,2.7-11.3,8.2c-4,5.1-6.9,11.4-8.8,18.6v0.1l-0.1,0.1
			c-4.5,3.1-9.8,6.9-15.7,11.5l-0.5,0.4l0.1-0.6c0.2-9.9-3-17.6-9.5-22.7c-3.9-3.1-8.7-4.7-14.3-4.7c-19.3,0-36.3,18-41.6,35.3
			c-3.3,10.8-3.1,22.2,0.4,30.7c3.4,8.2,8.4,12.4,15.7,16c-2,5.7-3.2,13.5-2.6,17.5v0.2h0.2h0.1h0.3v-0.3c-0.4-3.2,1-11.2,3-17
			c4.5,1.8,9.2,2.6,14.2,2.6c19.4,0,32.2-5.3,42.9-17.8c3.3-3.8,6.2-9.7,8.1-16.2v-0.1c1-3.5,3-10.6,3.4-22.9
			c0.2-6.8,0.5-11.7,0.9-14.3v-0.1c5.6-3.8,10.4-7.9,13.9-12C149.4,51.2,151,48.1,150.6,46 M61.7,134.8
			c-15.8-8.4-17.5-26.2-14.5-40.5c2-9.7,7.1-19.4,14.1-26.7C66.7,61.8,75.8,55,87.8,55c6.3,0,11.6,2.3,15.6,6.5
			c4.7,5.1,7,12.7,6.4,20.8v0.1l-0.1,0.1c-17.3,12.9-29.8,24.4-37,34.2l-0.2,0.2l-0.2-0.1c-3.2-2.4-4.7-5-4.8-8.3v-0.4
			c0-0.6,0-0.6,0-1.1c0-0.2,0-0.6,0.1-1.1c0-0.1-2.6-0.3-2.1,2.3c0.7,3.6,2.8,6.7,6.1,9.2l0.2,0.2l-0.1,0.2
			C67.4,123.4,63.8,129.5,61.7,134.8 M109.5,83.7l-0.1,0.6c-1.5,9.4-5.2,17.7-10.9,24.4c-5.7,6.8-11.9,10.3-18.4,10.3
			c-2.2,0-4.4-0.5-6.6-1.6l-0.3-0.2l0.2-0.2c6.1-7.9,16.8-17.9,31.7-29.9L109,84L109.5,83.7z M126.4,71.6c-0.6,2.6-1.1,5.1-1.5,7.5
			c-1.6,9.6-2.8,16.2-3.7,19.7c-0.9,3.5-2.3,7.3-4.2,11.4c-4.1,8.7-9.8,15.6-17,20.5c-7.1,4.9-12.7,7.5-23.7,7.4
			c-4.8,0-9.4-0.9-13.7-2.7c2.5-6,6-11.9,10.1-17.2l0.1-0.2l0.2,0c2.7,1.1,5.1,1.7,7.2,1.7c6.9,0,13.4-3.7,19.5-11
			s9.8-15.9,10.8-25.5v-0.1l0.1-0.1c5.6-4.3,10.7-8.2,15.4-11.6l0.5-0.4L126.4,71.6z M145.4,54.7c-3.3,3.7-7.6,7.6-12.9,11.4
			l-0.5,0.3l0.1-0.6C133,60,135,54.9,138,50.6s6.1-6.5,9.2-6.5c1.4,0,2.3,0.6,2.6,1.9C150.2,48,148.8,50.9,145.4,54.7"/>
	</g>
</g>
</svg>
