<?xml version="1.0" encoding="utf-8"?>
<!-- Generator: Adobe Illustrator 16.0.0, SVG Export Plug-In . SVG Version: 6.00 Build 0)  -->
<!DOCTYPE svg PUBLIC "-//W3C//DTD SVG 1.1//EN" "http://www.w3.org/Graphics/SVG/1.1/DTD/svg11.dtd">
<svg version="1.1" id="Layer_1" xmlns="http://www.w3.org/2000/svg" xmlns:xlink="http://www.w3.org/1999/xlink" x="0px" y="0px"
	 width="450px" height="200px" viewBox="25 0 450 200" enable-background="new 25 0 450 200" xml:space="preserve">
<g>
	<g>
		<path d="M411.57,137.834c6.355,0,18.688-11.384,18.688-23.909c0-3.797-1.803-7.401-5.881-8.159
			c-0.762-0.098-1.425-0.19-2.185-0.19c-17.174,0-29.223,30.36-39.375,31.499h-0.473h-0.097c-5.217-0.383-5.028-9.204-1.802-16.034
			c1.992-4.459,8.255-16.604,11.574-23.34h6.736l-12.713,23.623c-5.029,9.296-6.357,14.8-3.605,14.991
			c9.297-0.379,21.729-31.5,39.753-31.5c1.234,0,2.277,0.19,3.228,0.381c4.456,1.326,7.611,6.639,6.229,13.972
			c-1.581,8.382-10.952,19.14-20.106,19.14L411.57,137.834z M396.483,85.366c0-1.897,1.708-3.794,3.605-3.794
			c1.898,0,3.797,1.898,3.797,3.794s-1.897,3.607-3.797,3.607C398.19,88.973,396.483,87.264,396.483,85.366"/>
		<path d="M190.078,118.721c-6.736,11.67-13.663,17.93-17.743,18.217h-0.094h-0.475c-4.176-0.287-4.27-5.979-2.468-11.672
			c-4.552,7.496-8.822,11.196-12.429,11.196c-5.407,0-5.977-9.772,0.571-21.823c6.641-12.24,16.223-18.027,19.828-18.027
			c2.467,0,3.415,2.467,2.942,5.5l2.277-4.552h6.736l-12.711,23.625c-5.124,9.395-7.401,14.993-4.459,14.993
			c3.794,0,10.437-5.883,17.173-17.461h0.85v0.005H190.078z M170.915,120.902c1.329-2.846,4.27-8.823,7.115-14.519
			c1.707-4.269,2.086-9.011-0.758-9.011c-3.794,0-10.814,12.43-14.328,18.5c-3.415,6.072-9.582,19.831-6.072,19.831
			C160.856,135.703,165.505,130.959,170.915,120.902"/>
		<path d="M219.87,118.721c-7.021,12.24-14.325,18.502-18.311,18.217c-3.986-0.19-5.788-4.082-5.788-7.496
			c0-9.488,11.102-22.77,11.102-28.368c0-0.569,0-2.277-1.52-3.036c-1.423-0.665-2.371-1.423-3.036-2.278
			c-3.129,6.167-7.116,13.853-12.239,22.962h-0.855c5.407-9.396,9.488-17.461,12.62-23.625c-0.758-1.329-0.855-2.94-0.855-4.649
			c0-2.467,1.234-6.261,3.132-6.261c0.665,0,1.33,0.665,1.33,2.371s-1.044,4.649-2.753,8.443c0.569,0.854,1.424,1.613,2.847,2.277
			l0.189,0.096c2.657,1.329,5.692,2.56,5.692,5.69c0,6.643-11.668,22.488-11.668,29.891c0,2.086,0.189,3.13,1.992,3.224
			c3.701,0.099,10.437-5.784,17.267-17.456H219.87z"/>
		<path d="M253.458,118.721c-6.737,11.67-13.663,17.93-17.746,18.217h-0.094h-0.475c-4.176-0.287-4.27-5.979-2.468-11.672
			c-4.554,7.496-8.824,11.196-12.428,11.196c-5.408,0-5.976-9.772,0.57-21.823c6.641-12.24,16.223-18.027,19.828-18.027
			c2.467,0,3.415,2.467,2.942,5.5l2.276-4.552h6.741l-12.716,23.625c-5.124,9.395-7.401,14.993-4.459,14.993
			c3.794,0,10.437-5.883,17.175-17.461h0.854L253.458,118.721L253.458,118.721z M234.291,120.902
			c1.33-2.846,4.27-8.823,7.116-14.519c1.708-4.269,2.089-9.011-0.758-9.011c-3.794,0-10.814,12.43-14.325,18.5
			c-3.416,6.072-9.583,19.831-6.072,19.831C224.235,135.703,228.882,130.959,234.291,120.902"/>
		<path d="M284.436,136.746c-6.437,0-12.41-4.65-12.41-19.831c0-28.054,23.824-62.996,48.961-70.646v0.972
			c-20.521,8.986-44.082,50.521-44.082,75.901c0,7.894,2.55,12.629,7.529,12.629c16.637,0,51.01-49.185,51.01-81.853
			c0-6.922-2.066-9.717-4.861-9.717c-11.173,0-34.73,31.94-42.021,62.423h-0.969c7.165-30.726,31.213-63.395,42.99-63.395
			c4.615,0,7.165,4.98,7.165,12.874C337.748,91.081,301.193,136.621,284.436,136.746"/>
		<path d="M357.207,118.721c-7.021,12.24-14.327,18.502-18.312,18.217c-5.026-0.19-5.693-7.778-2.088-14.61
			c3.699-7.208,6.832-12.052,8.537-14.896c2.754-4.839,5.411-9.868,2.943-9.868c-2.943,0-8.352,3.513-15.656,15.845l-12.24,22.866
			h-6.732l20.873-38.713h6.641l-4.271,8.066c5.028-6.642,8.92-8.824,11.386-8.824c3.319,0,5.219,3.605,2.563,10.721
			c-1.234,3.226-6.074,11.574-9.773,17.839c-4.272,7.399-5.029,10.813-1.898,10.813c3.795,0,10.438-5.881,17.176-17.457H357.207
			L357.207,118.721z"/>
		<path d="M382.535,118.721c-8.442,14.232-19.447,18.975-27.133,18.975c-4.271,0-7.969-3.036-7.399-7.493
			c0.376-3.796,3.699-5.978,5.599-4.649c1.896,1.234,0.854,4.27-1.709,4.27c-0.567,0-1.138-0.282-1.52-0.662
			c-0.566,0.758-0.947,1.611-0.947,2.656c0,2.088,1.137,4.174,3.984,4.932c0.566,0.098,1.23,0.191,1.992,0.191
			c4.175,0,9.959-2.939,9.959-17.075c0-6.074,0.099-11.673,0.285-16.034c-2.846,5.216-6.168,10.721-8.441,14.896h-0.854
			c2.559-4.557,6.26-10.912,9.393-16.605c0.094-1.896,0.285-3.508,0.379-4.742c0.568-5.407,3.037-9.868,5.027-9.868
			c1.33,0,1.424,1.708,0.854,3.606c-0.665,1.992-2.657,5.882-5.123,10.435c0.761,6.45,4.177,13.284,4.082,19.83
			c-0.098,6.644-2.562,10.817-5.694,13.188c4.935-2.277,11.576-7.688,16.416-15.844h0.85V118.721L382.535,118.721z"/>
		<path d="M175.569,45.985c-0.374-1.88-1.663-2.958-3.537-2.958c-3.381,0-7.089,2.667-11.343,8.153
			c-3.978,5.133-6.93,11.384-8.774,18.573l-0.023,0.094l-0.078,0.052c-4.525,3.08-9.801,6.93-15.687,11.454l-0.457,0.387
			l0.063-0.623c0.173-9.95-3.01-17.597-9.467-22.729c-3.901-3.099-8.706-4.672-14.285-4.672c-19.297,0-36.301,17.954-41.59,35.309
			c-3.283,10.774-3.148,22.239,0.363,30.67c3.438,8.248,8.404,12.394,15.727,15.998c-1.988,5.67-3.19,13.545-2.643,17.498
			l0.03,0.205h0.208h0.078h0.267l-0.034-0.265c-0.405-3.211,1.013-11.174,3.01-17.032c4.515,1.816,9.249,2.596,14.218,2.596
			c19.371,0,32.205-5.328,42.922-17.818c3.297-3.828,6.233-9.727,8.053-16.189l0.034-0.117c0.973-3.454,2.992-10.64,3.443-22.869
			c0.24-6.843,0.527-11.652,0.853-14.299l0.018-0.126c5.626-3.754,10.443-7.886,13.936-11.956
			C174.399,51.203,175.98,48.062,175.569,45.985 M86.735,134.797c-15.842-8.402-17.523-26.189-14.521-40.544
			c2.019-9.659,7.143-19.383,14.058-26.681c5.455-5.756,14.49-12.616,26.558-12.616c6.252,0,11.639,2.257,15.577,6.529
			c4.697,5.093,7.012,12.681,6.352,20.812l-0.009,0.116l-0.09,0.062c-17.307,12.932-29.757,24.425-37.006,34.16l-0.153,0.195
			l-0.2-0.137c-3.192-2.358-4.71-5-4.781-8.312l-0.008-0.363c-0.015-0.604-0.015-0.604,0.016-1.117
			c0.012-0.237,0.034-0.58,0.061-1.139c0.004-0.074-2.583-0.313-2.059,2.34c0.711,3.597,2.775,6.686,6.127,9.174l0.2,0.16
			l-0.142,0.196C92.386,123.443,88.849,129.525,86.735,134.797 M134.501,83.729l-0.062,0.564
			c-1.529,9.427-5.207,17.65-10.938,24.441c-5.748,6.814-11.938,10.271-18.395,10.271c-2.2,0-4.432-0.531-6.624-1.572l-0.277-0.152
			l0.173-0.233c6.142-7.891,16.824-17.945,31.748-29.875l3.9-3.104L134.501,83.729z M151.432,71.586
			c-0.604,2.615-1.104,5.129-1.483,7.479c-1.583,9.592-2.821,16.21-3.681,19.672c-0.864,3.488-2.281,7.311-4.211,11.361
			c-4.129,8.674-9.843,15.557-16.979,20.459c-7.146,4.906-12.711,7.496-23.712,7.396c-4.818-0.041-9.437-0.864-13.701-2.708
			c2.539-5.983,6.017-11.931,10.06-17.2l0.131-0.163l0.166,0.078c2.725,1.112,5.138,1.677,7.17,1.677
			c6.866,0,13.437-3.701,19.526-11.006c6.11-7.326,9.757-15.917,10.843-25.537l0.01-0.093l0.083-0.074
			c5.55-4.331,10.727-8.233,15.383-11.596l0.549-0.38L151.432,71.586z M170.427,54.715c-3.263,3.749-7.59,7.569-12.851,11.353
			l-0.492,0.314l0.088-0.55c0.928-5.796,2.91-10.906,5.894-15.189c3.01-4.322,6.102-6.513,9.189-6.513
			c1.449,0,2.312,0.639,2.562,1.898C175.209,48.024,173.777,50.868,170.427,54.715"/>
	</g>
</g>
</svg>
