<?xml version="1.0" encoding="utf-8"?>
<!-- Generator: Adobe Illustrator 16.0.0, SVG Export Plug-In . SVG Version: 6.00 Build 0)  -->
<!DOCTYPE svg PUBLIC "-//W3C//DTD SVG 1.1//EN" "http://www.w3.org/Graphics/SVG/1.1/DTD/svg11.dtd">
<svg version="1.1" id="Layer_1" xmlns="http://www.w3.org/2000/svg" xmlns:xlink="http://www.w3.org/1999/xlink" x="0px" y="0px"
	 width="250px" height="125px" viewBox="0 0 250 125" enable-background="new 0 0 250 125" xml:space="preserve">
<g>
	<path fill="#2490CF" d="M125,75.854c-17.3,0-31.376-14.079-31.376-31.376c0-17.304,14.077-31.375,31.376-31.375
		c17.306,0,31.377,14.072,31.377,31.375C156.377,61.774,142.306,75.854,125,75.854 M125,14.248
		c-16.668,0-30.231,13.56-30.231,30.229c0,16.667,13.563,30.228,30.231,30.228c16.669,0,30.237-13.562,30.237-30.228
		C155.236,27.807,141.669,14.248,125,14.248"/>
	<path fill="#1F90CF" d="M153.001,44.476c0,15.468-12.534,28-28,28c-15.463,0-28.002-12.533-28.002-28c0-15.464,12.539-28,28.002-28
		C140.467,16.476,153.001,29.012,153.001,44.476"/>
	<path fill="#FFFFFF" d="M118.247,45.324c1.844,0.718,3.753,0.724,5.739,0.019c0.581-0.205,1.517-0.676,2.807-1.401
		c1.736-0.993,3.127-1.63,4.166-1.914c1.481-0.396,2.917-0.327,4.287,0.208c1.376,0.532,3.102,1.27,4.054,2.816l3.067-1.487
		c-0.785-1.403-1.513-2.402-2.181-3c-0.932-0.833-2.062-1.513-3.417-2.04c-3.311-1.286-7.059-0.767-11.246,1.574
		c-1.45,0.8-2.265,1.234-2.443,1.304c-1.243,0.498-2.409,0.542-3.484,0.125c-0.83-0.326-1.538-0.837-2.124-1.538
		c-0.591-0.7-0.958-1.556-1.09-2.562c-0.132-1.006-0.03-1.945,0.306-2.816c0.3-0.774,0.83-1.488,1.584-2.139
		c1.436-1.261,3.442-1.455,6.029-0.582l1.421-3.657l0.041-0.038c-0.012-0.002-0.017-0.002-0.021-0.005l0.004-0.019h-0.06
		c-2.14-0.74-3.993-0.976-5.557-0.699c-1.579,0.276-3.004,0.966-4.278,2.069c-1.212,1.053-2.114,2.324-2.694,3.819
		c-0.907,2.325-0.887,4.655,0.051,6.981C114.183,42.735,115.863,44.397,118.247,45.324"/>
	<path fill="#FFFFFF" d="M135.472,43.423c-1.859-0.673-3.78-0.627-5.757,0.144c-0.574,0.227-1.512,0.716-2.791,1.503
		c-6.293,3.872-12.206,1.358-14.621-3.69c-1.095-2.304-1.756-5.215-0.641-8.223l-3.229-1.518l-0.265,0.706
		c-1.162,3.313-1.089,6.866,0.057,9.926c2.511,6.726,7.593,8.144,8.795,8.58c3.351,1.212,7.1,0.575,11.25-1.921
		c1.436-0.85,2.245-1.316,2.424-1.388c1.248-0.542,2.409-0.62,3.489-0.226c0.84,0.303,1.563,0.803,2.17,1.502
		c0.601,0.692,0.977,1.547,1.134,2.562c0.154,1.023,0.067,1.979-0.259,2.87c-0.28,0.797-0.8,1.535-1.543,2.217
		c-1.416,1.319-3.432,1.572-6.04,0.757l-1.36,3.756l-0.035,0.039c0.005,0.002,0.015,0.002,0.021,0.002l-0.006,0.02h0.062
		c2.159,0.694,4.019,0.881,5.581,0.554c1.58-0.327,2.996-1.068,4.253-2.218c1.202-1.107,2.078-2.427,2.634-3.959
		c0.866-2.384,0.805-4.748-0.178-7.08C139.597,45.936,137.886,44.298,135.472,43.423"/>
	<polygon fill="#1F90CF" points="93.834,108.355 93.834,110.468 92.981,110.468 92.981,108.304 91.187,104.605 92.132,104.605 
		93.423,107.422 94.707,104.605 95.649,104.605 	"/>
	<path fill="#1F90CF" d="M95.215,108.257c0-0.314,0.05-0.606,0.156-0.88c0.105-0.272,0.263-0.517,0.469-0.734
		c0.223-0.237,0.474-0.424,0.75-0.554c0.284-0.128,0.572-0.192,0.874-0.192c0.32,0,0.618,0.059,0.891,0.174
		c0.277,0.116,0.528,0.288,0.751,0.512c0.215,0.224,0.383,0.473,0.501,0.751c0.117,0.28,0.177,0.57,0.177,0.867
		c0,0.304-0.055,0.599-0.166,0.886c-0.109,0.287-0.261,0.537-0.457,0.753c-0.227,0.249-0.477,0.435-0.759,0.564
		c-0.282,0.125-0.579,0.188-0.896,0.188c-0.324,0-0.625-0.057-0.899-0.174c-0.271-0.115-0.516-0.288-0.735-0.517
		c-0.208-0.218-0.367-0.47-0.485-0.759C95.274,108.854,95.215,108.556,95.215,108.257 M96.041,108.247
		c0,0.442,0.136,0.813,0.419,1.108c0.281,0.297,0.629,0.442,1.047,0.442c0.411,0,0.755-0.146,1.033-0.443
		c0.279-0.298,0.415-0.667,0.415-1.113c0-0.448-0.136-0.819-0.415-1.111c-0.278-0.293-0.625-0.438-1.04-0.438
		c-0.415,0-0.759,0.146-1.04,0.444C96.177,107.432,96.041,107.803,96.041,108.247"/>
	<path fill="#1F90CF" d="M104.157,110.468h-0.763v-0.498c-0.16,0.203-0.337,0.352-0.536,0.452c-0.196,0.096-0.415,0.146-0.662,0.146
		c-0.559,0-0.99-0.174-1.294-0.521c-0.309-0.345-0.461-0.832-0.461-1.462v-2.548h0.798v2.318c0,0.479,0.086,0.839,0.254,1.077
		c0.168,0.239,0.423,0.356,0.763,0.356c0.207,0,0.395-0.048,0.556-0.146c0.164-0.099,0.293-0.236,0.391-0.42
		c0.062-0.113,0.102-0.246,0.125-0.404c0.027-0.156,0.044-0.406,0.044-0.753v-2.029h0.786V110.468z"/>
	<polygon fill="#1F90CF" points="109.023,110.468 108.171,110.468 108.171,105.396 107.079,105.396 107.079,104.605 110.12,104.605 
		110.12,105.396 109.023,105.396 	"/>
	<path fill="#1F90CF" d="M113.776,110.468v-0.545c-0.203,0.213-0.429,0.372-0.68,0.48c-0.25,0.11-0.521,0.165-0.802,0.165
		c-0.669,0-1.221-0.221-1.662-0.667c-0.438-0.443-0.662-0.999-0.662-1.669c0-0.312,0.055-0.605,0.164-0.887
		c0.114-0.278,0.271-0.523,0.475-0.733c0.223-0.235,0.468-0.409,0.731-0.52c0.263-0.112,0.567-0.168,0.904-0.168
		c0.301,0,0.582,0.054,0.836,0.164c0.258,0.104,0.49,0.27,0.696,0.485v-0.537h0.807v4.431H113.776z M110.8,108.224
		c0,0.447,0.143,0.825,0.441,1.128c0.298,0.304,0.661,0.454,1.091,0.454c0.392,0,0.736-0.15,1.038-0.455
		c0.297-0.304,0.445-0.661,0.445-1.07c0-0.435-0.144-0.808-0.441-1.117c-0.298-0.309-0.65-0.464-1.057-0.464
		c-0.423,0-0.778,0.146-1.076,0.441C110.943,107.438,110.8,107.799,110.8,108.224"/>
	<rect x="115.505" y="104.605" fill="#1F90CF" width="0.794" height="5.862"/>
	<polygon fill="#1F90CF" points="117.246,110.468 117.246,104.605 118.037,104.605 118.037,108.093 119.617,106.037 
		120.543,106.037 118.92,108.14 120.845,110.468 119.82,110.468 118.037,108.215 118.037,110.468 	"/>
	<rect x="121.487" y="109.478" fill="#1F90CF" width="0.806" height="0.99"/>
	<rect x="123.845" y="109.478" fill="#1F90CF" width="0.807" height="0.99"/>
	<polygon fill="#1F90CF" points="127.662,104.605 128.531,104.605 129.803,109.123 130.945,104.605 131.582,104.605 
		132.721,109.123 133.988,104.605 134.853,104.605 133.081,110.468 132.314,110.468 131.258,106.09 130.197,110.468 
		129.438,110.468 	"/>
	<path fill="#1F90CF" d="M135.576,108.547c0.07,0.371,0.238,0.67,0.505,0.898c0.266,0.231,0.583,0.344,0.95,0.344
		c0.263,0,0.502-0.061,0.72-0.188c0.216-0.125,0.392-0.305,0.518-0.534h0.897c-0.206,0.491-0.492,0.867-0.854,1.126
		c-0.369,0.263-0.796,0.393-1.28,0.393c-0.327,0-0.626-0.059-0.895-0.175c-0.276-0.115-0.521-0.287-0.74-0.521
		c-0.207-0.217-0.368-0.469-0.484-0.759c-0.118-0.286-0.174-0.582-0.174-0.884c0-0.309,0.051-0.6,0.157-0.873
		c0.105-0.27,0.262-0.516,0.47-0.739c0.219-0.241,0.47-0.423,0.742-0.548c0.278-0.121,0.579-0.182,0.91-0.182
		c0.385,0,0.748,0.091,1.082,0.271c0.336,0.185,0.609,0.437,0.828,0.761c0.125,0.202,0.225,0.423,0.287,0.664
		c0.062,0.237,0.09,0.512,0.09,0.821v0.125H135.576z M138.433,107.831c-0.099-0.366-0.271-0.647-0.513-0.85
		c-0.247-0.198-0.54-0.298-0.881-0.298c-0.348,0-0.648,0.101-0.906,0.309c-0.259,0.202-0.433,0.481-0.534,0.839H138.433z"/>
	<polygon fill="#1F90CF" points="143.247,110.468 142.398,110.468 142.398,104.605 143.247,104.605 143.247,107.094 
		145.638,107.094 145.638,104.605 146.486,104.605 146.486,110.468 145.638,110.468 145.638,107.926 143.247,107.926 	"/>
	<path fill="#1F90CF" d="M148.063,108.547c0.066,0.371,0.233,0.67,0.499,0.898c0.267,0.231,0.584,0.344,0.952,0.344
		c0.265,0,0.504-0.061,0.719-0.188c0.216-0.125,0.392-0.305,0.521-0.534h0.895c-0.202,0.491-0.489,0.867-0.855,1.126
		c-0.364,0.263-0.79,0.393-1.279,0.393c-0.329,0-0.627-0.059-0.896-0.175c-0.271-0.115-0.517-0.287-0.737-0.521
		c-0.205-0.217-0.366-0.469-0.483-0.759c-0.118-0.286-0.177-0.582-0.177-0.884c0-0.309,0.051-0.6,0.16-0.873
		c0.106-0.27,0.258-0.516,0.466-0.739c0.223-0.241,0.47-0.423,0.747-0.548c0.277-0.121,0.579-0.182,0.908-0.182
		c0.387,0,0.746,0.091,1.083,0.271c0.332,0.185,0.61,0.437,0.825,0.761c0.129,0.202,0.224,0.423,0.285,0.664
		c0.063,0.237,0.095,0.512,0.095,0.821v0.125H148.063z M150.918,107.831c-0.102-0.366-0.269-0.647-0.517-0.85
		c-0.244-0.198-0.535-0.298-0.875-0.298c-0.353,0-0.654,0.101-0.907,0.309c-0.26,0.202-0.436,0.481-0.533,0.839H150.918z"/>
	<rect x="152.483" y="104.605" fill="#1F90CF" width="0.789" height="5.862"/>
	<path fill="#1F90CF" d="M154.994,109.931v1.968h-0.798v-5.861h0.807v0.546c0.206-0.209,0.434-0.371,0.685-0.478
		c0.25-0.109,0.52-0.163,0.801-0.163c0.67,0,1.225,0.22,1.662,0.666c0.443,0.44,0.662,0.998,0.662,1.666
		c0,0.306-0.055,0.603-0.165,0.882c-0.109,0.278-0.27,0.527-0.472,0.744c-0.225,0.231-0.471,0.405-0.731,0.516
		c-0.268,0.112-0.567,0.168-0.904,0.168c-0.302,0-0.58-0.055-0.838-0.162C155.444,110.312,155.209,110.15,154.994,109.931
		 M154.971,108.224c0,0.438,0.148,0.811,0.442,1.121c0.294,0.309,0.646,0.461,1.053,0.461c0.417,0,0.774-0.148,1.07-0.443
		c0.299-0.296,0.446-0.657,0.446-1.082c0-0.448-0.147-0.822-0.441-1.126c-0.297-0.303-0.658-0.455-1.084-0.455
		c-0.391,0-0.734,0.152-1.036,0.457C155.124,107.458,154.971,107.817,154.971,108.224"/>
	<path fill="#404041" d="M81.07,89.683l-2.031-0.629c-1.043-0.328-1.54-0.976-1.559-2.046c-0.018-0.665,0.207-1.187,0.699-1.646
		c0.486-0.45,1.014-0.668,1.621-0.668c0.05,0,0.098,0,0.145,0.006c0.63,0.035,1.143,0.278,1.569,0.74
		c0.454,0.47,0.661,1.008,0.646,1.648l-0.017,0.555h0.556h1.765h0.543v-0.54c0-1.384-0.496-2.59-1.462-3.585
		c-0.971-0.993-2.168-1.511-3.565-1.534h-0.097c-1.346,0-2.546,0.479-3.567,1.431c-1.052,0.951-1.572,2.146-1.545,3.547
		c0.023,2.229,1.287,3.954,3.388,4.604l1.792,0.545c1.783,0.559,2.675,1.465,2.709,2.769c0.02,0.794-0.25,1.449-0.812,1.997
		c-0.567,0.546-1.206,0.807-1.96,0.807h-0.078c-0.774-0.016-1.408-0.299-1.924-0.854c-0.552-0.589-0.812-1.24-0.795-1.994
		l0.011-0.552h-0.547H74.78h-0.547l0.007,0.547c0.023,1.597,0.58,2.933,1.647,3.977c1.079,1.054,2.402,1.594,3.927,1.594
		c1.532,0,2.86-0.54,3.94-1.594c1.099-1.102,1.643-2.413,1.619-3.905C85.35,92.318,83.902,90.564,81.07,89.683"/>
	<path fill="#404041" d="M93.048,86.38c-0.095,0-0.192,0.005-0.29,0.011c-1.177,0.05-2.206,0.438-3.075,1.151v-4.797v-0.542H89.14
		h-1.678h-0.54v0.542v16.811v0.539h0.54h1.725h0.54v-0.539v-7.371c0-0.931,0.295-1.653,0.901-2.223
		c0.618-0.604,1.369-0.902,2.3-0.922h0.075c0.852,0,1.6,0.321,2.234,0.953c0.671,0.671,1,1.432,1,2.321v7.241v0.539h0.537h1.657
		h0.54v-0.539v-7.067c0-1.735-0.618-3.22-1.842-4.418C95.99,86.952,94.615,86.38,93.048,86.38"/>
	<path fill="#404041" d="M112.137,95.346c-0.762,1.512-1.959,2.264-3.649,2.283h-0.09c-1.079,0-2.007-0.351-2.844-1.068
		c-0.665-0.575-1.103-1.294-1.307-2.147h11.067v-1.435c0-1.682-0.642-3.218-1.912-4.557c-1.308-1.353-2.88-2.101-4.675-2.22
		c-0.153-0.01-0.302-0.012-0.447-0.012c-1.8,0-3.411,0.688-4.787,2.044c-1.46,1.432-2.175,3.18-2.125,5.194
		c0.023,1.876,0.751,3.537,2.165,4.931c1.379,1.334,3,2.008,4.806,2.008h0.099c1.458-0.022,2.8-0.462,3.989-1.299
		c1.197-0.843,2.053-2.006,2.55-3.447l0.099-0.275H112.137z M105.625,89.911c0.786-0.628,1.69-0.948,2.703-0.948l0.094,0.002
		c1.081,0.021,1.972,0.339,2.734,0.981c0.595,0.505,1.014,1.116,1.275,1.859h-8.117C104.576,91.033,105.014,90.409,105.625,89.911"
		/>
	<polygon fill="#404041" points="120.434,97.462 126.415,89.009 126.517,88.868 126.517,88.693 126.517,87.125 126.517,86.586 
		125.978,86.586 117.536,86.586 117,86.586 117,87.125 117,88.672 117,89.215 117.536,89.215 122.898,89.215 116.859,97.693 
		116.757,97.831 116.757,98.006 116.757,99.556 116.757,100.095 117.301,100.095 126.479,100.095 127.018,100.095 127.018,99.556 
		127.018,98.006 127.018,97.462 126.479,97.462 	"/>
	<polygon fill="#404041" points="129.062,82.203 128.52,82.203 128.52,82.744 128.52,99.556 128.52,100.096 129.062,100.096 
		130.722,100.096 131.261,100.096 131.261,99.556 131.261,82.744 131.261,82.203 130.722,82.203 	"/>
	<path fill="#404041" d="M139.594,86.229c-0.094-0.003-0.18-0.003-0.269-0.003c-1.831,0-3.432,0.687-4.763,2.038
		c-1.388,1.388-2.097,3.092-2.097,5.05c0,1.889,0.654,3.531,1.94,4.884c1.294,1.366,2.903,2.083,4.781,2.131
		c0.086,0.003,0.176,0.003,0.266,0.003c1.815,0,3.411-0.675,4.753-2.018c1.408-1.4,2.119-3.094,2.119-5.026
		c0-1.868-0.656-3.511-1.955-4.886C143.091,87.037,141.482,86.302,139.594,86.229 M139.477,97.62c-0.073,0-0.148-0.001-0.23-0.006
		c-1.139-0.036-2.082-0.482-2.875-1.353c-0.787-0.865-1.163-1.87-1.146-3.072c0.021-1.193,0.438-2.178,1.26-3.003
		c0.837-0.834,1.788-1.239,2.914-1.239h0.078c1.126,0,2.053,0.402,2.843,1.228c0.815,0.854,1.229,1.835,1.268,3.005
		c0.02,1.226-0.394,2.271-1.268,3.182C141.526,97.208,140.6,97.62,139.477,97.62"/>
	<path fill="#404041" d="M153.954,86.385c-1.725,0-3.181,0.593-4.331,1.773c-1.145,1.165-1.729,2.646-1.729,4.389v7.088v0.54h0.544
		h1.679h0.539v-0.54V92.37c0-0.901,0.322-1.661,0.979-2.319c0.645-0.644,1.429-0.972,2.319-0.972c0.887,0,1.611,0.312,2.276,0.972
		c0.673,0.675,0.997,1.437,0.997,2.319v7.265v0.54h0.545h1.678h0.54v-0.54v-7.088c0-1.743-0.579-3.224-1.726-4.389
		C157.11,86.978,155.659,86.385,153.954,86.385"/>
	<path fill="#404041" d="M173.662,88.217c-1.361-1.354-2.994-2.05-4.848-2.05l-0.188,0.001c-1.889,0.075-3.499,0.798-4.779,2.154
		c-1.29,1.354-1.936,3-1.936,4.887c0,1.947,0.698,3.652,2.088,5.065c1.347,1.341,2.946,2.021,4.765,2.021
		c0.086,0,0.176-0.001,0.266-0.005c1.526-0.054,2.875-0.55,4.019-1.471c-0.009,0.432-0.048,2.155-0.063,2.665
		c-0.128,0.757-0.503,1.428-1.114,1.994c-0.79,0.75-1.706,1.121-2.802,1.142c-0.915,0-1.729-0.27-2.479-0.831
		c-0.771-0.554-1.26-1.194-1.463-1.912l-0.111-0.396h-0.41h-1.611h-0.712l0.188,0.684c0.383,1.39,1.138,2.534,2.237,3.398
		c1.135,0.903,2.529,1.396,4.15,1.465c0.108,0.006,0.207,0.008,0.309,0.008c1.636,0,3.134-0.53,4.456-1.582
		c1.22-0.978,1.921-2.234,2.072-3.736c0.004-0.037,0.071-2.715,0.071-2.752v-5.737C175.789,91.281,175.081,89.594,173.662,88.217
		 M173.009,93.346c-0.024,1.161-0.431,2.142-1.249,3c-0.79,0.827-1.725,1.229-2.858,1.229c-1.169,0-2.141-0.405-2.974-1.239
		c-0.846-0.843-1.264-1.827-1.282-3.006c-0.021-1.169,0.362-2.166,1.169-3.047c0.799-0.882,1.744-1.337,2.875-1.396
		c0.074-0.004,0.146-0.008,0.216-0.008c1.114,0,2.045,0.416,2.853,1.277C172.637,91.074,173.048,92.116,173.009,93.346"/>
</g>
</svg>
