<?xml version="1.0" encoding="utf-8"?>
<!-- Generator: Adobe Illustrator 22.0.1, SVG Export Plug-In . SVG Version: 6.00 Build 0)  -->
<svg version="1.1" id="Layer_1" xmlns="http://www.w3.org/2000/svg" xmlns:xlink="http://www.w3.org/1999/xlink" x="0px" y="0px"
	 viewBox="0 0 450 200" style="enable-background:new 0 0 450 200;" xml:space="preserve">
<style type="text/css">
	.st0{fill-rule:evenodd;clip-rule:evenodd;fill:#231F20;}
</style>
<g>
	<g>
		<path d="M159.5,63.1l3.5-4.1c2.4,2,4.9,3.2,7.9,3.2c2.4,0,3.8-0.9,3.8-2.5v-0.1c0-1.5-0.9-2.2-5.4-3.4c-5.4-1.4-8.8-2.8-8.8-8.1
			V48c0-4.8,3.9-8,9.3-8c3.9,0,7.2,1.2,9.9,3.4l-3,4.4c-2.4-1.6-4.7-2.6-6.9-2.6c-2.2,0-3.4,1-3.4,2.3v0.1c0,1.7,1.1,2.3,5.7,3.5
			c5.4,1.4,8.4,3.3,8.4,8v0.1c0,5.3-4,8.2-9.8,8.2C166.7,67.4,162.7,66,159.5,63.1z"/>
		<path d="M184.2,61.2v-9.6h-2.4v-4.9h2.4v-5.2h5.8v5.2h4.8v4.9H190v8.7c0,1.3,0.6,2,1.9,2c1.1,0,2-0.3,2.8-0.7v4.6
			c-1.2,0.7-2.6,1.2-4.6,1.2C186.6,67.3,184.2,65.9,184.2,61.2z"/>
		<path d="M197.1,61.1L197.1,61.1c0-4.5,3.4-6.6,8.2-6.6c2.1,0,3.5,0.3,5,0.8V55c0-2.4-1.5-3.7-4.4-3.7c-2.2,0-3.8,0.4-5.6,1.1
			l-1.4-4.4c2.2-1,4.4-1.6,7.9-1.6c3.2,0,5.4,0.8,6.9,2.3c1.5,1.5,2.2,3.8,2.2,6.5V67h-5.6v-2.2c-1.4,1.6-3.3,2.6-6.2,2.6
			C200.2,67.4,197.1,65.2,197.1,61.1z M210.3,59.8v-1c-1-0.5-2.3-0.8-3.7-0.8c-2.5,0-4,1-4,2.8v0.1c0,1.6,1.3,2.5,3.2,2.5
			C208.5,63.4,210.3,61.9,210.3,59.8z"/>
		<path d="M218.5,46.6h5.8v4.1c1.2-2.8,3.1-4.6,6.5-4.5v6h-0.3c-3.8,0-6.2,2.3-6.2,7.2V67h-5.8V46.6z"/>
		<path d="M235.3,61.2v-9.6h-2.4v-4.9h2.4v-5.2h5.8v5.2h4.8v4.9h-4.8v8.7c0,1.3,0.6,2,1.9,2c1.1,0,2-0.3,2.8-0.7v4.6
			c-1.2,0.7-2.6,1.2-4.6,1.2C237.7,67.3,235.3,65.9,235.3,61.2z"/>
		<path d="M248.5,59.8V46.6h5.8V58c0,2.7,1.3,4.1,3.5,4.1c2.2,0,3.6-1.4,3.6-4.1V46.6h5.8V67h-5.8v-2.9c-1.3,1.7-3,3.3-6,3.3
			C251,67.4,248.5,64.5,248.5,59.8z"/>
		<path d="M270,46.6h5.8v2.9c1.4-1.9,3.3-3.3,6.3-3.3c4.7,0,9.3,3.7,9.3,10.5v0.1c0,6.8-4.4,10.5-9.3,10.5c-3.1,0-5-1.4-6.3-3v8.7
			H270V46.6z M285.6,56.8L285.6,56.8c0-3.5-2.3-5.7-5-5.7c-2.7,0-4.9,2.2-4.9,5.6v0.1c0,3.4,2.2,5.6,4.9,5.6
			C283.3,62.5,285.6,60.3,285.6,56.8z"/>
		<path d="M160.2,73.9h5.8v10.5h10.8V73.9h5.8v26.6h-5.8V89.9H166v10.7h-5.8V73.9z"/>
		<path d="M184.9,94.7L184.9,94.7c0-4.5,3.4-6.6,8.2-6.6c2.1,0,3.5,0.3,5,0.8v-0.3c0-2.4-1.5-3.7-4.4-3.7c-2.2,0-3.8,0.4-5.6,1.1
			l-1.4-4.4c2.2-1,4.4-1.6,7.9-1.6c3.2,0,5.4,0.8,6.9,2.3c1.5,1.5,2.2,3.8,2.2,6.5v11.8h-5.6v-2.2c-1.4,1.6-3.3,2.6-6.2,2.6
			C188.1,100.9,184.9,98.7,184.9,94.7z M198.2,93.3v-1c-1-0.5-2.3-0.8-3.7-0.8c-2.5,0-4,1-4,2.8v0.1c0,1.6,1.3,2.5,3.2,2.5
			C196.4,96.9,198.2,95.4,198.2,93.3z"/>
		<path d="M206.2,93.3V80.2h5.8v11.4c0,2.7,1.3,4.1,3.5,4.1c2.2,0,3.6-1.4,3.6-4.1V80.2h5.8v20.4h-5.8v-2.9c-1.3,1.7-3,3.3-6,3.3
			C208.7,100.9,206.2,98,206.2,93.3z"/>
		<path d="M227.3,97.8l2.5-3.8c2.2,1.6,4.5,2.4,6.4,2.4c1.7,0,2.4-0.6,2.4-1.5v-0.1c0-1.3-2-1.7-4.2-2.4c-2.8-0.8-6.1-2.2-6.1-6.1
			v-0.1c0-4.1,3.3-6.5,7.4-6.5c2.6,0,5.4,0.9,7.6,2.4l-2.2,4c-2-1.2-4-1.9-5.5-1.9c-1.4,0-2.1,0.6-2.1,1.4v0.1
			c0,1.1,1.9,1.7,4.1,2.4c2.8,0.9,6.2,2.3,6.2,6v0.1c0,4.5-3.4,6.6-7.8,6.6C233.2,100.9,230,100,227.3,97.8z"/>
		<path d="M158.6,120.9L158.6,120.9c0-7.6,5.7-13.8,13.9-13.8c5,0,8,1.7,10.5,4.1l-3.7,4.3c-2.1-1.9-4.1-3-6.8-3
			c-4.5,0-7.7,3.7-7.7,8.3v0.1c0,4.6,3.2,8.4,7.7,8.4c3,0,4.9-1.2,7-3.1l3.7,3.8c-2.7,2.9-5.8,4.7-10.9,4.7
			C164.4,134.5,158.6,128.5,158.6,120.9z"/>
		<path d="M184.1,128.2L184.1,128.2c0-4.5,3.4-6.6,8.2-6.6c2.1,0,3.5,0.3,5,0.8v-0.3c0-2.4-1.5-3.7-4.4-3.7c-2.2,0-3.8,0.4-5.6,1.1
			l-1.4-4.4c2.2-1,4.4-1.6,7.9-1.6c3.2,0,5.4,0.8,6.9,2.3c1.5,1.5,2.2,3.8,2.2,6.5v11.8h-5.6v-2.2c-1.4,1.6-3.3,2.6-6.2,2.6
			C187.2,134.5,184.1,132.3,184.1,128.2z M197.3,126.9v-1c-1-0.5-2.3-0.8-3.7-0.8c-2.5,0-4,1-4,2.8v0.1c0,1.6,1.3,2.5,3.2,2.5
			C195.5,130.5,197.3,129,197.3,126.9z"/>
		<path d="M206,106.4h6.1v5.1H206V106.4z M206.2,113.7h5.8v20.4h-5.8V113.7z"/>
		<path d="M215.5,113.7h5.8v4.1c1.2-2.8,3.1-4.6,6.5-4.5v6h-0.3c-3.8,0-6.2,2.3-6.2,7.2v7.5h-5.8V113.7z"/>
		<path d="M227.9,124L227.9,124c0-5.9,4.7-10.7,11.1-10.7c6.3,0,11,4.7,11,10.5v0.1c0,5.8-4.7,10.6-11.1,10.6
			C232.6,134.5,227.9,129.9,227.9,124z M244.2,124L244.2,124c0-3.1-2.2-5.7-5.4-5.7c-3.3,0-5.3,2.5-5.3,5.5v0.1c0,3,2.2,5.6,5.4,5.6
			C242.2,129.6,244.2,127,244.2,124z"/>
	</g>
	<g>
		<path d="M166.4,160.2c-0.5,0.5-1.2,0.8-2,0.8c-0.5,0-0.9-0.1-1.2-0.2c-0.3-0.1-0.6-0.4-0.9-0.7v0.8h-2v-11.4h2.1v3.8
			c0.3-0.3,0.6-0.5,0.9-0.7c0.3-0.1,0.7-0.2,1.1-0.2c0.9,0,1.5,0.2,1.9,0.6c0.4,0.4,0.7,0.8,0.8,1.3c0.1,0.5,0.2,1.3,0.2,2.3
			c0,0.8,0,1.5-0.1,2.1C167,159.4,166.8,159.9,166.4,160.2z M163.8,154.3c-0.6,0-1,0.2-1.1,0.6c-0.2,0.4-0.3,1-0.3,1.8
			c0,0.8,0.1,1.4,0.3,1.8c0.2,0.4,0.6,0.6,1.1,0.6c0.6,0,0.9-0.2,1.1-0.6c0.2-0.4,0.3-1,0.3-1.8c0-0.8-0.1-1.4-0.3-1.8
			C164.7,154.5,164.4,154.3,163.8,154.3z"/>
		<path d="M171.4,162.3c-0.1,0.3-0.2,0.5-0.3,0.6c-0.1,0.2-0.2,0.3-0.4,0.5c-0.2,0.2-0.4,0.3-0.7,0.4c-0.3,0.1-0.6,0.2-1,0.2h-0.8
			v-1.9h0.5c0.3,0,0.5-0.1,0.7-0.2c0.1-0.1,0.3-0.3,0.4-0.6l0.4-1l-2.9-7.8h2.2l1.7,5.2l1.7-5.2h2.2L171.4,162.3z"/>
	</g>
	<g>
		<path class="st0" d="M178.8,155.9v2.1c0,2,1.2,3,3.6,3c1.4,0,2.2-0.3,3-1.2l-1.3-1.3c-0.4,0.5-0.8,0.7-1.6,0.7
			c-1.1,0-1.6-0.4-1.6-1.3v-0.4h2c1.9,0,2.9-1.1,2.9-2.4c0-0.7-0.2-1.4-0.7-1.9c-0.5-0.5-1.2-0.7-2.1-0.7c-1,0-2,0-2.8,0.6
			C179.1,153.7,178.8,154.7,178.8,155.9L178.8,155.9z M180.9,155.5c0-0.5,0.1-0.9,0.3-1.1c0.4-0.4,0.7-0.4,1.3-0.4
			c0.8,0,1.2,0.4,1.2,1c0,0.6-0.4,0.9-1.2,0.9h-1.7V155.5z"/>
		<path class="st0" d="M209.1,157.4v-2.1c0-2-1.2-3-3.6-3c-1.4,0-2.2,0.3-3,1.2l1.3,1.3c0.4-0.5,0.8-0.7,1.6-0.7
			c1.1,0,1.6,0.4,1.6,1.3v0.4h-2c-1.9,0-2.9,1.1-2.9,2.4c0,0.7,0.2,1.4,0.7,1.9c0.5,0.5,1.2,0.7,2.1,0.7c1,0,2,0,2.8-0.6
			C208.8,159.5,209.1,158.6,209.1,157.4L209.1,157.4z M207,157.7c0,0.5-0.1,0.9-0.3,1.1c-0.4,0.4-0.7,0.4-1.3,0.4
			c-0.8,0-1.2-0.4-1.2-1c0-0.6,0.4-0.9,1.2-0.9h1.7V157.7z"/>
		<path class="st0" d="M193.6,160.9v-5.4c0-0.9-0.2-1.7-0.9-2.4c-0.5-0.5-1.2-0.7-2-0.7c-0.8,0-1.6,0.3-2.1,0.9v-0.8h-2.1v8.5h2.1
			v-5.1c0-1.2,0.7-1.5,1.4-1.5c0.7,0,1.4,0.4,1.4,1.5v5.1H193.6L193.6,160.9z M201.6,156.7c0-1.3,0-2.7-0.9-3.6
			c-0.5-0.5-1.2-0.8-2.1-0.8c-0.9,0-1.5,0.2-2.1,0.9v-0.8h-2V164h2.1v-3.8c0.6,0.6,1.2,0.8,2,0.8c0.8,0,1.6-0.3,2.1-0.8
			C201.6,159.4,201.6,157.9,201.6,156.7L201.6,156.7z M199.5,156.7c0,1.4-0.2,2.4-1.4,2.4c-1.3,0-1.4-1.1-1.4-2.4s0.2-2.4,1.4-2.4
			C199.4,154.2,199.5,155.3,199.5,156.7L199.5,156.7z M216.2,159.8l-1.4-1.4c-0.4,0.5-0.8,0.7-1.4,0.7c-0.5,0-0.9-0.2-1.2-0.6
			c-0.3-0.4-0.5-1-0.5-1.9c0-0.9,0.1-1.5,0.5-1.9c0.3-0.4,0.7-0.6,1.2-0.6c0.6,0,0.9,0.2,1.4,0.7l1.4-1.4c-0.7-0.8-1.6-1.1-2.8-1.1
			c-1.7,0-3.8,0.9-3.8,4.3c0,3.4,2.1,4.3,3.8,4.3C214.5,161,215.4,160.6,216.2,159.8L216.2,159.8z M221.3,160.9v-1.8h-0.8
			c-0.5,0-0.7-0.3-0.7-0.8v-4.1h1.5v-1.6h-1.5v-2.5h-2.1v2.5h-0.9v1.6h0.9v4.2c0,1.2,0.7,2.4,2.4,2.4H221.3z"/>
	</g>
</g>
</svg>
