<?xml version="1.0" encoding="utf-8"?>
<!-- Generator: Adobe Illustrator 22.1.0, SVG Export Plug-In . SVG Version: 6.00 Build 0)  -->
<svg version="1.1" id="Layer_1" xmlns="http://www.w3.org/2000/svg" xmlns:xlink="http://www.w3.org/1999/xlink" x="0px" y="0px"
	 viewBox="0 0 450 200" style="enable-background:new 0 0 450 200;" xml:space="preserve">
<g>
	<path d="M218.5,90.4c-3.3,0-6.9-1.2-8.9-4.1l-1.8,1.6c2.1,3.3,6.4,4.9,10.7,4.9s9.9-1.4,10-6.8c0.2-5.7-5.7-6.4-10.1-7.2
		c-3.1-0.5-7.3-1.2-7.4-4.4c-0.1-3.1,3.6-4.5,7.4-4.5c2.7,0,5.1,0.4,7.6,2.6l1.5-1.6c-2.4-2.3-5.5-3.3-9.1-3.3c-4.9,0-9.7,2-9.7,6.8
		c0,4.9,4.7,5.8,9.5,6.6c4,0.6,8,1.3,7.9,4.8C226,89.6,221.5,90.4,218.5,90.4z"/>
	<path d="M237.1,84.8c0,4.8,1.7,7.8,6.9,7.8c1.5,0,3.1-0.5,4.6-1.2l-0.8-2c-1.2,0.6-2.6,1-3.8,1c-3.8,0-4.5-2.3-4.5-5.6V70h8.3v-2
		h-8.3v-7.4l-2.4,0.2v7.1h-5.2v2h5.2V84.8z"/>
	<path d="M276.8,92.3c0-8.1,0-16.2,0-24.4h-2.4v5.3c-2-3.8-6-5.6-10-5.6c-6.8,0-12.4,5-12.4,12.5s5.6,12.6,12.4,12.6
		c3.9,0,7.6-1.8,10-5.6v5.2H276.8z M264.4,90.4c-5.5,0-10-4.1-10-10.2s4.4-10.2,10-10.2C277.9,70,277.9,90.4,264.4,90.4z"/>
	<path d="M285.7,78.1c0-4.4,3.5-8.1,8-8.1c1.4,0,2.9,0.3,4.1,1.1l1.1-2c-1.6-1-3.4-1.5-5.2-1.4c-3.1,0-6.6,1.3-8.1,4.6l-0.1-4.3
		h-2.3v24.4h2.4V78.1H285.7z"/>
	<path d="M307.4,84.8c0,4.8,1.7,7.8,6.9,7.8c1.5,0,3.1-0.5,4.6-1.2l-0.8-2c-1.2,0.6-2.6,1-3.8,1c-3.8,0-4.5-2.3-4.5-5.6V70h8.3v-2
		h-8.3v-7.4l-2.4,0.2v7.1h-5.2v2h5.2L307.4,84.8L307.4,84.8z"/>
	<path d="M334.6,92.7c3.4,0,6.8-1.4,8.7-4.8v4.4h2.4V67.9h-2.4v13.6c0,5-3.5,8.8-8.5,8.9c-5.3,0-8.7-2.9-8.7-8.4V68h-2.4v14
		C323.6,88.7,328.1,92.7,334.6,92.7z"/>
	<path d="M365,67.6c-4.7,0-8.6,2.4-10.6,6.1v-5.8H352v34.6h2.3V86.7c2.1,4,5.9,6.1,10.1,6.1c6.9,0,12.4-4.4,12.4-12.6
		C376.8,72.3,371.6,67.8,365,67.6z M364.4,90.5c-5.6,0-9.9-4.3-9.9-10.3s4.2-10.3,9.9-10.3c5.5,0,10,3.4,10,10.2
		C374.4,87,369.9,90.5,364.4,90.5z"/>
	<path d="M391.9,78.8c-3.1-0.5-7.3-1.2-7.4-4.4c-0.1-3.1,3.6-4.5,7.4-4.5c2.7,0,5.1,0.4,7.6,2.6l1.5-1.6c-2.4-2.3-5.5-3.3-9.1-3.3
		c-4.9,0-9.7,2-9.7,6.8c0,4.9,4.7,5.8,9.5,6.6c4,0.6,8,1.3,7.9,4.8c-0.1,3.8-4.6,4.6-7.6,4.6c-3.3,0-6.9-1.2-8.9-4.1l-1.8,1.6
		c2.1,3.3,6.4,4.9,10.7,4.9c4.3,0,9.9-1.4,10-6.8C402.2,80.2,396.3,79.5,391.9,78.8z"/>
	<path d="M226.6,106.1l-2.4,3.1c-1.7-1.1-3.7-1.4-5.6-1.4c-6.8,0-12.3,4.7-12.3,12.3c0,7.6,4.7,12.2,12.3,12.2c3,0,6.2,1.5,6.2,4.9
		s-2.7,5.2-6.2,5.2s-6.4-2.1-6.4-5.2h-6c0,6.6,5.3,10.9,12.3,10.9c7.1,0,12.2-4.1,12.2-10.9c0-3.1-1-6-5-8c4-1.8,5.1-6.1,5.1-9.1
		c0-2.7-0.7-5.1-2.6-7.2l2.7-3.5L226.6,106.1z M218.6,126.9c-3.5,0-6.4-2.5-6.4-6.8c0-4.2,2.9-6.9,6.4-6.9s6.3,2.7,6.3,6.9
		C224.9,124.3,222.1,126.9,218.6,126.9z"/>
	<path d="M253.9,111.9c-1.4-2.4-4.5-3.9-7.7-3.9c-7.1,0-12.7,4.3-12.7,12.7c0,8.5,5.3,13,12.5,12.9c2.7,0,6.5-1.4,7.9-4.3l0.3,3.6
		h5.7v-24.3h-5.8L253.9,111.9z M246.7,128.1c-4,0-7.2-2.8-7.2-7.4s3.2-7.4,7.2-7.4C256.1,113.4,256.1,128.1,246.7,128.1z"/>
	<rect x="264.9" y="98.4" width="6" height="34.5"/>
	<path d="M295.3,111.9c-1.4-2.4-4.5-3.9-7.7-3.9c-7.1,0-12.7,4.3-12.7,12.7c0,8.5,5.3,13,12.5,12.9c2.7,0,6.5-1.4,7.9-4.3l0.3,3.6
		h5.7v-24.3h-5.8L295.3,111.9z M288.1,128.1c-4,0-7.2-2.8-7.2-7.4s3.2-7.4,7.2-7.4C297.6,113.4,297.6,128.1,288.1,128.1z"/>
	<polygon points="329,108.8 329,108.6 321.8,108.6 317,116.8 312.3,108.6 305.1,108.6 305.1,108.8 313,120.6 304.6,132.8 
		304.6,132.9 311.8,132.9 317,124.8 322.3,132.9 329.5,132.9 329.5,132.8 321,120.6 	"/>
	<polygon points="347.6,119.2 345.1,125.9 342.8,119.1 339.1,108.6 332.1,108.6 341.8,132.5 337.2,143.1 343.8,143.1 358.7,108.6 
		352,108.6 	"/>
	<path d="M182.8,81.9c-2,0-3.6,1.6-3.6,3.6c0,0.5,0.1,1,0.3,1.4L145,111.8c-0.6-0.6-1.5-0.9-2.4-0.9c-2,0-3.6,1.6-3.6,3.6
		s1.6,3.6,3.6,3.6c0.1,0,0.2,0,0.3,0l13,41.3c-0.2,0.1-0.4,0.3-0.6,0.5l-34.6-24.4c0.2-0.4,0.3-0.9,0.3-1.4c0-1.3-0.7-2.4-1.8-3.1
		L133,88.8c0.1,0,0.2,0,0.3,0c2,0,3.6-1.6,3.6-3.6s-1.6-3.6-3.6-3.6c-0.1,0-0.3,0-0.4,0l-13.9-41c1-0.6,1.7-1.7,1.7-3
		c0-2-1.6-3.6-3.6-3.6s-3.6,1.6-3.6,3.6c0,1.3,0.7,2.4,1.8,3.1l-13.3,41c-0.1,0-0.2,0-0.4,0c-1.7,0-3.1,1.2-3.5,2.8H55
		c-0.3-1.6-1.8-2.8-3.5-2.8c-2,0-3.6,1.6-3.6,3.6s1.6,3.6,3.6,3.6c0.9,0,1.7-0.3,2.4-0.9l34.7,25c-0.2,0.4-0.3,0.9-0.3,1.4
		c0,1.3,0.7,2.5,1.8,3.1l-13.3,41.3c-0.1,0-0.2,0-0.3,0c-2,0-3.6,1.6-3.6,3.6s1.6,3.6,3.6,3.6s3.6-1.6,3.6-3.6
		c0-1.3-0.7-2.5-1.8-3.1L91.6,118c0.1,0,0.2,0,0.3,0c2,0,3.6-1.6,3.6-3.6c0-0.5-0.1-1-0.3-1.4L131,87.8c0.2,0.2,0.4,0.3,0.6,0.4
		l-13.7,42.1c-0.1,0-0.2,0-0.3,0c-2,0-3.6,1.6-3.6,3.6s1.6,3.6,3.6,3.6c0.9,0,1.8-0.4,2.4-0.9l34.6,24.4c-0.2,0.4-0.3,0.9-0.3,1.4
		c0,2,1.6,3.6,3.6,3.6s3.6-1.6,3.6-3.6s-1.6-3.6-3.6-3.6c-0.1,0-0.2,0-0.3,0l-13-41.3c1.1-0.6,1.8-1.8,1.8-3.1c0-0.5-0.1-1-0.3-1.4
		l34.5-24.9c0.6,0.6,1.5,0.9,2.4,0.9c2,0,3.6-1.6,3.6-3.6C186.4,83.5,184.8,81.9,182.8,81.9z M116.8,41.1c0.1,0,0.2,0,0.4,0
		c0.1,0,0.3,0,0.4,0l13.9,41.1c-1,0.6-1.7,1.7-1.7,3c0,0.5,0.1,1,0.3,1.4l-35.8,25.2c-0.6-0.6-1.5-0.9-2.4-0.9s-1.7,0.3-2.4,0.9
		L54.8,86.7c0.1-0.2,0.2-0.4,0.2-0.7h43.1c0.3,1.6,1.8,2.8,3.5,2.8c2,0,3.6-1.6,3.6-3.6c0-1.3-0.7-2.4-1.8-3.1L116.8,41.1z"/>
</g>
</svg>
