<?xml version="1.0" encoding="utf-8"?>
<!-- Generator: Adobe Illustrator 22.0.1, SVG Export Plug-In . SVG Version: 6.00 Build 0)  -->
<svg version="1.1" id="Layer_1" xmlns="http://www.w3.org/2000/svg" xmlns:xlink="http://www.w3.org/1999/xlink" x="0px" y="0px"
	 viewBox="0 0 450 200" style="enable-background:new 0 0 450 200;" xml:space="preserve">
<style type="text/css">
	.st0{fill:#1D1D1B;}
</style>
<g>
	<g>
		<path class="st0" d="M217.4,91.4c-3.2,0-6.9-1.2-8.9-4.1l-1.8,1.6c2.1,3.2,6.3,4.9,10.6,4.9c4.3,0,9.8-1.4,10-6.8
			c0.2-5.7-5.7-6.4-10-7.1c-3-0.5-7.3-1.2-7.4-4.4c-0.1-3.1,3.5-4.5,7.3-4.5c2.7,0,5.1,0.4,7.6,2.6l1.5-1.6c-2.4-2.3-5.5-3.2-9-3.2
			c-4.9,0-9.7,2-9.6,6.8c0,4.9,4.7,5.8,9.4,6.5c4,0.6,8,1.3,7.9,4.8C224.8,90.7,220.3,91.4,217.4,91.4z"/>
		<path class="st0" d="M235.8,85.9c0,4.8,1.7,7.8,6.8,7.8c1.5,0,3-0.5,4.6-1.2l-0.8-2c-1.2,0.6-2.6,1-3.7,1c-3.8,0-4.5-2.3-4.5-5.6
			l0-14.8h8.3v-2h-8.3v-7.3l-2.4,0.2v7.1h-5.2v2h5.2V85.9z"/>
		<path class="st0" d="M275.4,93.4c0-8.1,0-16.2,0-24.3H273v5.3c-2-3.8-6-5.6-9.9-5.6c-6.8,0-12.3,5-12.3,12.4
			c0,7.4,5.6,12.5,12.3,12.5c3.9,0,7.6-1.8,9.9-5.6v5.2H275.4z M263,91.4c-5.5,0-9.9-4.1-9.9-10.2c0-6.1,4.4-10.1,9.9-10.1
			C276.6,71.1,276.6,91.4,263,91.4z"/>
		<path class="st0" d="M284.3,79.2c0-4.4,3.5-8.1,8-8.1c1.4,0,2.9,0.3,4.1,1.1l1.1-2c-1.6-1-3.4-1.5-5.2-1.4c-3.1,0-6.5,1.3-8.1,4.6
			l-0.1-4.3h-2.3v24.3h2.4V79.2z"/>
		<path class="st0" d="M305.9,85.9c0,4.8,1.7,7.8,6.8,7.8c1.5,0,3-0.5,4.6-1.2l-0.8-2c-1.2,0.6-2.6,1-3.7,1c-3.8,0-4.5-2.3-4.5-5.6
			V71.1l8.3,0v-2h-8.3v-7.3l-2.4,0.2v7.1h-5.2v2h5.2V85.9z"/>
		<path class="st0" d="M333,93.7c3.4,0,6.8-1.4,8.7-4.8v4.4h2.4V69h-2.4v13.5c0,5-3.5,8.8-8.5,8.8c-5.3,0-8.7-2.9-8.7-8.4V69H322v14
			C322,89.8,326.5,93.7,333,93.7z"/>
		<path class="st0" d="M363.2,68.7c-4.7,0-8.6,2.4-10.5,6.1v-5.8h-2.4v34.4h2.3V87.8c2.1,4,5.9,6,10,6c6.8,0,12.3-4.4,12.3-12.6
			C375,73.4,369.8,69,363.2,68.7z M362.7,91.5c-5.6,0-9.8-4.3-9.8-10.2c0-5.9,4.2-10.2,9.8-10.2c5.5,0,9.9,3.3,9.9,10.2
			C372.6,88,368.2,91.5,362.7,91.5z"/>
		<path class="st0" d="M390.1,79.8c-3-0.5-7.3-1.2-7.4-4.4c-0.1-3.1,3.5-4.5,7.3-4.5c2.7,0,5.1,0.4,7.6,2.6l1.5-1.6
			c-2.4-2.3-5.5-3.2-9-3.2c-4.9,0-9.7,2-9.6,6.8c0,4.9,4.7,5.8,9.4,6.5c4,0.6,8,1.3,7.9,4.8c-0.1,3.8-4.6,4.6-7.6,4.6
			c-3.2,0-6.9-1.2-8.9-4.1l-1.8,1.6c2.1,3.2,6.3,4.9,10.6,4.9c4.3,0,9.8-1.4,10-6.8C400.3,81.3,394.4,80.6,390.1,79.8z"/>
		<path class="st0" d="M225.4,107.1l-2.4,3c-1.7-1.1-3.6-1.4-5.6-1.4c-6.8,0-12.3,4.7-12.3,12.3c0,7.6,4.7,12.2,12.3,12.2
			c3,0,6.1,1.5,6.1,4.9c0,3.3-2.7,5.2-6.1,5.2c-3.4,0-6.3-2.1-6.3-5.2h-5.9c0,6.5,5.3,10.8,12.3,10.8c7,0,12.1-4.1,12.1-10.8
			c0-3.1-1-6-5-8c4-1.8,5.1-6,5.1-9c0-2.7-0.7-5.1-2.6-7.2l2.7-3.4L225.4,107.1z M217.5,127.8c-3.5,0-6.3-2.5-6.3-6.7
			c0-4.2,2.9-6.8,6.3-6.8c3.4,0,6.3,2.7,6.3,6.8C223.8,125.2,220.9,127.8,217.5,127.8z"/>
		<path class="st0" d="M252.6,112.9c-1.4-2.4-4.5-3.9-7.7-3.9c-7.1,0-12.6,4.3-12.6,12.7c0,8.5,5.3,12.9,12.5,12.9
			c2.7,0,6.5-1.4,7.9-4.3l0.3,3.5h5.7l0-24.2l-5.8,0L252.6,112.9z M245.4,129c-4,0-7.2-2.8-7.2-7.4c0-4.6,3.2-7.3,7.2-7.3
			C254.8,114.3,254.8,129,245.4,129z"/>
		<rect x="263.6" y="99.4" class="st0" width="5.9" height="34.4"/>
		<path class="st0" d="M293.8,112.9c-1.4-2.4-4.5-3.9-7.7-3.9c-7.1,0-12.6,4.3-12.6,12.7c0,8.5,5.3,12.9,12.5,12.9
			c2.7,0,6.5-1.4,7.9-4.3l0.3,3.5h5.7v-24.2H294L293.8,112.9z M286.6,129c-4,0-7.2-2.8-7.2-7.4c0-4.6,3.2-7.3,7.2-7.3
			C296.1,114.3,296.1,129,286.6,129z"/>
		<polygon class="st0" points="327.4,109.7 327.4,109.5 320.3,109.5 315.5,117.7 310.7,109.5 303.5,109.5 303.5,109.7 311.5,121.5 
			303.1,133.6 303.1,133.8 310.2,133.8 315.5,125.7 320.8,133.8 327.9,133.8 327.9,133.6 319.5,121.5 		"/>
		<polygon class="st0" points="345.9,120.2 343.4,126.8 341.1,120 337.4,109.5 330.4,109.5 340.1,133.4 335.6,143.9 342.2,143.9 
			357,109.5 350.3,109.5 		"/>
		<path class="st0" d="M181.8,83c-2,0-3.5,1.6-3.5,3.5c0,0.5,0.1,1,0.3,1.4l-34.4,24.8c-0.6-0.6-1.4-0.9-2.4-0.9
			c-2,0-3.5,1.6-3.5,3.5c0,2,1.6,3.5,3.5,3.5c0.1,0,0.2,0,0.3,0l13,41.2c-0.2,0.1-0.4,0.3-0.6,0.5L120,136.2
			c0.2-0.4,0.3-0.9,0.3-1.4c0-1.3-0.7-2.4-1.7-3.1l13.6-41.9c0.1,0,0.2,0,0.3,0c2,0,3.5-1.6,3.5-3.5c0-2-1.6-3.5-3.5-3.5
			c-0.1,0-0.3,0-0.4,0l-13.9-40.9c1-0.6,1.7-1.7,1.7-3c0-2-1.6-3.5-3.5-3.5c-2,0-3.5,1.6-3.5,3.5c0,1.3,0.7,2.4,1.7,3l-13.4,40.9
			c-0.1,0-0.2,0-0.4,0c-1.7,0-3.1,1.2-3.5,2.8l-42.9,0c-0.3-1.6-1.8-2.8-3.5-2.8c-2,0-3.5,1.6-3.5,3.5c0,2,1.6,3.5,3.5,3.5
			c0.9,0,1.7-0.3,2.4-0.9L88,114c-0.2,0.4-0.3,0.9-0.3,1.4c0,1.3,0.7,2.4,1.8,3.1l-13.3,41.2c-0.1,0-0.2,0-0.3,0
			c-2,0-3.5,1.6-3.5,3.5s1.6,3.5,3.5,3.5c2,0,3.5-1.6,3.5-3.5c0-1.3-0.7-2.4-1.8-3.1l13.3-41.2c0.1,0,0.2,0,0.3,0
			c2,0,3.5-1.6,3.5-3.5c0-0.5-0.1-1-0.3-1.4l35.6-25.1c0.2,0.2,0.4,0.3,0.6,0.4l-13.6,41.9c-0.1,0-0.2,0-0.3,0c-2,0-3.5,1.6-3.5,3.5
			c0,2,1.6,3.5,3.5,3.5c0.9,0,1.8-0.4,2.4-0.9l34.5,24.3c-0.2,0.4-0.3,0.9-0.3,1.4c0,2,1.6,3.5,3.5,3.5c2,0,3.5-1.6,3.5-3.5
			s-1.6-3.5-3.5-3.5c-0.1,0-0.2,0-0.3,0l-13-41.2c1.1-0.6,1.8-1.8,1.8-3.1c0-0.5-0.1-1-0.3-1.4l34.4-24.8c0.6,0.6,1.4,0.9,2.4,0.9
			c2,0,3.5-1.6,3.5-3.5C185.3,84.6,183.8,83,181.8,83z M116.1,42.4c0.1,0,0.2,0,0.4,0c0.1,0,0.3,0,0.4,0l13.9,40.9
			c-1,0.6-1.7,1.7-1.7,3c0,0.5,0.1,1,0.3,1.4l-35.6,25.1c-0.6-0.6-1.5-0.9-2.4-0.9c-0.9,0-1.7,0.3-2.4,0.9l-34.6-25
			c0.1-0.2,0.2-0.4,0.2-0.7l42.9,0c0.3,1.6,1.8,2.8,3.5,2.8c2,0,3.5-1.6,3.5-3.5c0-1.3-0.7-2.4-1.7-3L116.1,42.4z"/>
	</g>
</g>
</svg>
