<?xml version="1.0" encoding="utf-8"?>
<!-- Generator: Adobe Illustrator 22.1.0, SVG Export Plug-In . SVG Version: 6.00 Build 0)  -->
<svg version="1.1" id="Layer_1" xmlns="http://www.w3.org/2000/svg" xmlns:xlink="http://www.w3.org/1999/xlink" x="0px" y="0px"
	 viewBox="0 0 450 200" style="enable-background:new 0 0 450 200;" xml:space="preserve">
<g id="Layer_1_1_">
</g>
<g id="Layer_2_1_">
	<g>
		<path d="M215.5,128.2c1.3,0,2.4-0.4,3.2-1.2c0.8-0.8,1.2-1.9,1.2-3.2s-0.4-2.4-1.2-3.2c-0.8-0.8-1.9-1.2-3.2-1.2s-2.4,0.4-3.2,1.2
			c-0.8,0.8-1.2,1.9-1.2,3.2s0.4,2.4,1.2,3.2C213.2,127.8,214.2,128.2,215.5,128.2z"/>
		<path d="M218.9,108.9c-0.5,0-0.9-0.1-1.2-0.4s-0.5-0.8-0.5-1.4v-6.4h5v-5.5h-5v-5.9h-8.7v5.9h-2.9v5.5h2.9v7.7
			c0,2.2,0.7,4,2.1,5.3c1.5,1.3,3.4,1.9,5.8,1.9c1.2,0,2.3-0.1,3.4-0.3c1.1-0.2,2.1-0.6,2.8-1l-1.5-6
			C220.1,108.7,219.4,108.9,218.9,108.9z"/>
		<rect x="211.3" y="129.8" width="8.7" height="21.3"/>
		<path d="M203.1,130.5c-1.1-0.7-2.4-1-3.9-1c-1.4,0-2.6,0.3-3.7,0.9c-1.1,0.6-2,1.4-2.7,2.5v-3H184v21.3h8.7v-10.5
			c0-1,0.2-1.9,0.7-2.5s1.2-0.9,2.1-0.9c0.8,0,1.4,0.3,1.8,0.8c0.5,0.5,0.7,1.2,0.7,2.1v11h8.7v-13.6c0-1.6-0.3-3-1-4.2
			C205.2,132.1,204.3,131.1,203.1,130.5z"/>
		<path d="M176.9,131.6c-1.7-1.4-4.1-2.1-7.2-2.1c-1.6,0-3.3,0.2-5.1,0.5s-3.6,0.8-5.4,1.5l1.9,5.8c1.2-0.4,2.3-0.8,3.5-1
			s2.2-0.3,3-0.3c1.1,0,1.9,0.2,2.4,0.6c0.6,0.4,0.9,1,0.9,1.7H166c-2.7,0.1-4.7,0.6-6.1,1.7c-1.4,1.1-2.1,2.7-2.1,4.8
			c0,2,0.6,3.7,1.9,4.9c1.3,1.2,3,1.8,5.2,1.8c2.7,0,4.7-0.9,6-2.7v2.3h8.6v-13.8C179.5,134.9,178.6,132.9,176.9,131.6z
			 M170.9,144.3c-0.3,0.5-0.8,0.9-1.3,1.2s-1.1,0.4-1.6,0.4c-0.6,0-1.1-0.2-1.4-0.5c-0.3-0.3-0.5-0.8-0.5-1.4c0-1.1,0.6-1.7,1.9-1.7
			h3L170.9,144.3L170.9,144.3z"/>
		<path d="M163.1,114.3l-1.5-6c-1,0.4-1.7,0.5-2.2,0.5s-0.9-0.1-1.2-0.4s-0.5-0.8-0.5-1.4v-6.4h5v-5.5h-5v-5.9H149v5.9h-2.9v5.5h2.9
			v7.7c0,2.2,0.7,4,2.1,5.3c1.5,1.3,3.4,1.9,5.8,1.9c1.2,0,2.3-0.1,3.4-0.3C161.4,115,162.4,114.7,163.1,114.3z"/>
		<path d="M328.5,134.7c-1-1.7-2.4-2.9-4.2-3.8c-1.8-0.9-3.9-1.4-6.3-1.4s-4.5,0.5-6.3,1.4s-3.2,2.2-4.2,3.8s-1.5,3.5-1.5,5.8
			c0,2.2,0.5,4.1,1.5,5.8c1,1.6,2.4,2.9,4.2,3.8c1.8,0.9,3.9,1.4,6.3,1.4s4.5-0.5,6.3-1.4s3.2-2.2,4.2-3.8c1-1.7,1.5-3.6,1.5-5.8
			S329.5,136.3,328.5,134.7z M320.3,143.6c-0.6,0.8-1.3,1.1-2.3,1.1s-1.7-0.4-2.3-1.1c-0.6-0.8-0.9-1.7-0.9-3c0-1.2,0.3-2.2,0.9-3
			s1.4-1.1,2.3-1.1c1,0,1.7,0.4,2.3,1.1c0.6,0.8,0.9,1.7,0.9,3C321.2,141.8,320.9,142.8,320.3,143.6z"/>
		<path d="M300.4,144.7c-0.5,0-0.9-0.1-1.2-0.4c-0.3-0.3-0.5-0.8-0.5-1.4v-6.4h5V131h-5v-5.9H290v5.9h-2.9v5.5h2.9v7.7
			c0,2.2,0.7,4,2.1,5.3c1.5,1.3,3.4,1.9,5.8,1.9c1.2,0,2.3-0.1,3.4-0.3s2.1-0.6,2.8-1l-1.5-6C301.6,144.5,300.9,144.7,300.4,144.7z"
			/>
		<path d="M229,123.9c-1.6,1.3-2.4,3-2.4,5.2v1.9h-2.9v5.5h2.9v14.6h8.7v-14.6h4.1V131h-4.1v-0.6c0-0.5,0.2-1,0.5-1.3
			c0.4-0.3,0.8-0.5,1.4-0.5c0.5,0,1.3,0.1,2.3,0.4l0.9-6.5c-1.6-0.5-3.3-0.7-5.1-0.7C232.7,121.9,230.6,122.5,229,123.9z"/>
		<path d="M257.9,131c-1.7-1-3.7-1.4-6.1-1.4c-2.3,0-4.2,0.5-6,1.4c-1.7,0.9-3,2.2-4,3.8c-0.9,1.7-1.4,3.6-1.4,5.8s0.5,4.1,1.4,5.7
			c0.9,1.6,2.3,2.9,4,3.8c1.8,0.9,3.8,1.3,6.2,1.3c2,0,3.9-0.3,5.5-1c1.6-0.7,3-1.6,4.2-2.9l-4.5-4.5c-1.3,1.3-2.8,1.9-4.3,1.9
			c-0.9,0-1.6-0.2-2.2-0.6c-0.6-0.4-1-1.1-1.3-1.9h13.8c0-0.3,0-0.6,0-1.1c0-2.4-0.5-4.5-1.4-6.2C260.9,133.3,259.6,131.9,257.9,131
			z M249.1,138.4c0.2-0.9,0.5-1.7,1-2.2s1.1-0.8,1.8-0.8c0.8,0,1.4,0.3,1.8,0.9c0.5,0.6,0.7,1.3,0.7,2.2L249.1,138.4L249.1,138.4z"
			/>
		<path d="M274.3,135.4c0.2-0.1,0.5-0.2,0.9-0.2c1.6,0,4,0.8,7.2,2.3l2.9-5.4c-3.2-1.8-6.5-2.7-9.9-2.7c-1.9,0-3.5,0.3-4.9,0.9
			c-1.4,0.6-2.5,1.5-3.3,2.6s-1.2,2.4-1.2,3.8c0,1.5,0.4,2.7,1.2,3.6c0.8,0.9,1.8,1.6,2.8,2c1.1,0.4,2.4,0.9,3.9,1.2
			c1,0.3,1.7,0.5,2.2,0.7s0.7,0.4,0.7,0.7c0,0.2-0.1,0.3-0.3,0.5c-0.2,0.1-0.6,0.2-1,0.2c-2.4,0-5-0.9-7.9-2.6l-2.6,5.4
			c3,2,6.4,3,10.4,3c1.9,0,3.6-0.3,5.1-0.9c1.5-0.6,2.6-1.4,3.3-2.5c0.8-1.1,1.2-2.4,1.2-3.8c0-1.5-0.4-2.6-1.2-3.5
			c-0.8-0.9-1.7-1.6-2.8-2c-1.1-0.4-2.4-0.9-3.9-1.3c-1.1-0.3-1.9-0.5-2.3-0.7c-0.5-0.2-0.7-0.5-0.7-0.8
			C274,135.7,274.1,135.5,274.3,135.4z"/>
		<polygon points="138.2,138.1 131.5,123.9 121.9,123.9 121.9,151.1 129.8,151.1 129.8,136.2 135.3,148.5 141.1,148.5 146.6,136.2 
			146.6,151.1 154.5,151.1 154.5,123.9 144.9,123.9 		"/>
		<path d="M135.6,108.5c-0.4,0.2-0.9,0.3-1.6,0.3c-1.4,0-3.1-0.4-5.2-1.2c-2.1-0.9-3.8-1.9-5.2-3.1l-3.3,6.8
			c1.8,1.4,3.9,2.5,6.3,3.3c2.5,0.8,4.9,1.2,7.3,1.2c2.1,0,4.1-0.3,5.8-1c1.7-0.6,3.1-1.6,4.1-3c1-1.3,1.6-3,1.6-5
			c0-1.9-0.5-3.5-1.4-4.6c-1-1.2-2.1-2.1-3.4-2.6c-1.3-0.5-2.9-1.1-4.8-1.6c-1.6-0.4-2.7-0.8-3.4-1.1c-0.7-0.3-1-0.8-1-1.4
			c0-0.8,0.6-1.2,1.7-1.2c1.1,0,2.6,0.3,4.4,1c1.8,0.6,3.5,1.4,4.9,2.3l3.3-6.9c-1.6-1-3.4-1.8-5.5-2.4s-4.2-0.9-6.3-0.9
			c-2.3,0-4.4,0.4-6.1,1.1c-1.8,0.7-3.1,1.8-4.1,3.1c-1,1.3-1.4,2.9-1.4,4.7c0,1.9,0.5,3.4,1.4,4.5s2,1.9,3.3,2.5
			c1.3,0.5,2.9,1,4.8,1.5c1.6,0.4,2.7,0.8,3.5,1.1c0.8,0.3,1.1,0.8,1.1,1.4C136.2,107.8,136,108.2,135.6,108.5z"/>
		<path d="M189.6,94v21.3h8.7v-10.1c0-1.2,0.4-2.1,1.3-2.7c0.9-0.7,2-1,3.5-1c0.5,0,1.1,0,1.7,0.1v-7.9c-1.4,0-2.6,0.3-3.7,0.9
			c-1.1,0.6-2,1.5-2.8,2.6V94H189.6z"/>
		<path d="M185.9,115.2v-13.8c0-2.5-0.9-4.4-2.6-5.8c-1.7-1.4-4.1-2.1-7.2-2.1c-1.6,0-3.3,0.2-5.1,0.5s-3.6,0.8-5.4,1.5l1.9,5.8
			c1.2-0.4,2.3-0.8,3.5-1s2.2-0.3,3-0.3c1.1,0,1.9,0.2,2.4,0.6c0.6,0.4,0.9,1,0.9,1.7h-4.9c-2.7,0.1-4.7,0.6-6.1,1.7
			c-1.4,1.1-2.1,2.7-2.1,4.8c0,2,0.6,3.7,1.9,4.9c1.3,1.2,3,1.8,5.2,1.8c2.7,0,4.7-0.9,6-2.7v2.3L185.9,115.2L185.9,115.2z
			 M176,109.6c-0.5,0.3-1.1,0.4-1.6,0.4c-0.6,0-1.1-0.2-1.4-0.5c-0.3-0.3-0.5-0.8-0.5-1.4c0-1.1,0.6-1.7,1.9-1.7h3v1.9
			C177,108.9,176.5,109.3,176,109.6z"/>
		<path d="M260.3,113c0.7,0.8,1.5,1.4,2.5,1.9c1,0.4,2,0.6,3.1,0.6c1.9,0,3.6-0.4,5-1.3c1.5-0.9,2.6-2.1,3.3-3.8
			c0.8-1.6,1.2-3.5,1.2-5.7s-0.4-4.2-1.2-5.8c-0.8-1.7-1.9-3-3.4-3.9s-3.2-1.4-5.1-1.4c-2.2,0-4,0.8-5.4,2.4v-2h-8.7v28.8h8.7V113z
			 M261.2,101.5c0.6-0.8,1.3-1.1,2.3-1.1s1.7,0.4,2.3,1.1c0.6,0.8,0.9,1.7,0.9,3c0,1.2-0.3,2.2-0.9,3s-1.3,1.1-2.3,1.1
			s-1.7-0.4-2.3-1.1c-0.6-0.8-0.9-1.7-0.9-3C260.3,103.3,260.6,102.3,261.2,101.5z"/>
		<path d="M228.2,114.6c1.1,0.7,2.4,1,3.8,1c1.3,0,2.6-0.3,3.6-0.9c1.1-0.6,1.9-1.4,2.6-2.5v3h8.7V94h-8.7v10.5c0,1-0.2,1.9-0.7,2.5
			s-1.1,0.9-1.9,0.9c-0.7,0-1.3-0.3-1.7-0.8s-0.6-1.3-0.6-2.1V94h-8.7v13.6c0,1.6,0.3,3,0.9,4.2C226.2,113,227.1,113.9,228.2,114.6z
			"/>
		<path d="M154.5,68.8c0-1,0.2-1.9,0.7-2.5s1.2-0.9,2.1-0.9c0.8,0,1.4,0.3,1.8,0.8c0.5,0.5,0.7,1.2,0.7,2.1v11h8.7V65.8
			c0-1.6-0.3-3-1-4.2c-0.6-1.2-1.6-2.2-2.7-2.8c-1.1-0.7-2.4-1-3.9-1c-1.4,0-2.6,0.3-3.7,0.9c-1.1,0.6-2,1.4-2.7,2.5V50.5h-8.7v28.8
			h8.7L154.5,68.8L154.5,68.8z"/>
		<path d="M176,78.3c1.8,0.9,3.8,1.3,6.2,1.3c2,0,3.9-0.3,5.5-1s3-1.6,4.2-2.9l-4.5-4.5c-1.3,1.3-2.8,1.9-4.3,1.9
			c-0.9,0-1.6-0.2-2.2-0.6c-0.6-0.4-1-1.1-1.3-1.9h13.8c0-0.3,0-0.6,0-1.1c0-2.4-0.5-4.5-1.4-6.2c-0.9-1.8-2.2-3.2-3.9-4.1
			c-1.7-1-3.7-1.4-6.1-1.4c-2.3,0-4.2,0.5-6,1.4c-1.7,0.9-3,2.2-4,3.8c-0.9,1.7-1.4,3.6-1.4,5.8c0,2.2,0.5,4.1,1.4,5.7
			C172.9,76.2,174.3,77.4,176,78.3z M180.2,64.4c0.5-0.5,1.1-0.8,1.8-0.8c0.8,0,1.4,0.3,1.8,0.9c0.5,0.6,0.7,1.3,0.7,2.2h-5.3
			C179.5,65.7,179.8,65,180.2,64.4z"/>
		<polygon points="127.7,79.3 136.8,79.3 136.8,59.2 144.5,59.2 144.5,52.1 120,52.1 120,59.2 127.7,59.2 		"/>
	</g>
</g>
</svg>
