<?xml version="1.0" encoding="utf-8"?>
<!-- Generator: Adobe Illustrator 22.1.0, SVG Export Plug-In . SVG Version: 6.00 Build 0)  -->
<svg version="1.1" id="Layer_1" xmlns="http://www.w3.org/2000/svg" xmlns:xlink="http://www.w3.org/1999/xlink" x="0px" y="0px"
	 viewBox="0 0 450 200" style="enable-background:new 0 0 450 200;" xml:space="preserve">
<style type="text/css">
	.st0{fill:#231F20;}
</style>
<g>
	<g>
		<g>
			<path d="M156.7,64.9l3.4-4.1c2.4,2,4.9,3.2,7.9,3.2c2.4,0,3.8-0.9,3.8-2.5v-0.1c0-1.5-0.9-2.2-5.3-3.4c-5.3-1.4-8.8-2.8-8.8-8.1
				v-0.1c0-4.8,3.8-8,9.2-8c3.8,0,7.1,1.2,9.8,3.4l-3,4.4c-2.3-1.6-4.6-2.6-6.9-2.6c-2.2,0-3.4,1-3.4,2.3v0.1c0,1.7,1.1,2.3,5.7,3.5
				c5.4,1.4,8.4,3.3,8.4,7.9V61c0,5.2-4,8.2-9.7,8.2C163.9,69.1,159.9,67.7,156.7,64.9z"/>
			<path d="M181.3,63v-9.6h-2.4v-4.9h2.4v-5.2h5.7v5.2h4.8v4.9H187V62c0,1.3,0.6,2,1.8,2c1.1,0,2-0.3,2.8-0.7v4.6
				c-1.2,0.7-2.6,1.2-4.5,1.2C183.7,69.1,181.3,67.7,181.3,63z"/>
			<path d="M194.1,63L194.1,63c0-4.5,3.4-6.5,8.1-6.5c2,0,3.5,0.3,4.9,0.8V57c0-2.4-1.5-3.7-4.3-3.7c-2.2,0-3.7,0.4-5.6,1.1
				l-1.4-4.4c2.2-1,4.4-1.6,7.8-1.6c3.1,0,5.4,0.8,6.8,2.3c1.5,1.5,2.2,3.7,2.2,6.4v11.7h-5.5v-2.2c-1.4,1.5-3.3,2.6-6.1,2.6
				C197.2,69.1,194.1,67,194.1,63z M207.2,61.6v-1c-1-0.5-2.3-0.8-3.7-0.8c-2.5,0-4,1-4,2.8v0.1c0,1.5,1.3,2.5,3.1,2.5
				C205.4,65.2,207.2,63.7,207.2,61.6z"/>
			<path d="M215.3,48.6h5.7v4.1c1.2-2.8,3.1-4.6,6.4-4.5v6h-0.3c-3.8,0-6.1,2.3-6.1,7.1v7.5h-5.7L215.3,48.6L215.3,48.6z"/>
			<path d="M232,63v-9.6h-2.4v-4.9h2.4v-5.2h5.7v5.2h4.8v4.9h-4.8V62c0,1.3,0.6,2,1.8,2c1.1,0,2-0.3,2.8-0.7v4.6
				c-1.2,0.7-2.6,1.2-4.5,1.2C234.4,69.1,232,67.7,232,63z"/>
			<path d="M245.1,61.6v-13h5.7v11.3c0,2.7,1.3,4.1,3.5,4.1s3.6-1.4,3.6-4.1V48.6h5.7v20.2h-5.7v-2.9c-1.3,1.7-3,3.2-5.9,3.2
				C247.6,69.1,245.1,66.3,245.1,61.6z"/>
			<path d="M266.5,48.6h5.7v2.9c1.4-1.9,3.3-3.3,6.3-3.3c4.7,0,9.2,3.7,9.2,10.4v0.1c0,6.8-4.4,10.4-9.2,10.4c-3.1,0-4.9-1.4-6.3-3
				v8.7h-5.7V48.6z M282,58.7L282,58.7c0-3.4-2.3-5.7-4.9-5.7c-2.7,0-4.9,2.2-4.9,5.6v0.1c0,3.4,2.2,5.6,4.9,5.6
				C279.7,64.3,282,62.1,282,58.7z"/>
			<path d="M157.4,75.7h5.8v10.4h10.7V75.7h5.8v26.4h-5.8V91.5h-10.7v10.6h-5.8V75.7z"/>
			<path d="M182,96.3L182,96.3c0-4.5,3.4-6.5,8.1-6.5c2,0,3.5,0.3,4.9,0.8v-0.3c0-2.4-1.5-3.7-4.3-3.7c-2.2,0-3.7,0.4-5.6,1.1
				l-1.4-4.4c2.2-1,4.4-1.6,7.8-1.6c3.1,0,5.4,0.8,6.8,2.3c1.5,1.5,2.2,3.7,2.2,6.4v11.7H195v-2.2c-1.4,1.5-3.3,2.6-6.1,2.6
				C185.1,102.5,182,100.3,182,96.3z M195.2,95v-1c-1-0.5-2.3-0.8-3.7-0.8c-2.5,0-4,1-4,2.8l0,0c0,1.5,1.3,2.5,3.1,2.5
				C193.3,98.5,195.2,97,195.2,95z"/>
			<path d="M203.1,95V81.9h5.7v11.3c0,2.7,1.3,4.1,3.5,4.1s3.6-1.4,3.6-4.1V81.9h5.7v20.2h-5.7v-2.9c-1.3,1.7-3,3.2-5.9,3.2
				C205.6,102.5,203.1,99.6,203.1,95z"/>
			<path d="M224.1,99.4l2.5-3.8c2.2,1.6,4.5,2.4,6.4,2.4c1.7,0,2.4-0.6,2.4-1.5v-0.1c0-1.2-2-1.7-4.2-2.3c-2.8-0.8-6-2.1-6-6.1l0,0
				c0-4.1,3.3-6.4,7.4-6.4c2.6,0,5.4,0.9,7.5,2.3l-2.2,4c-2-1.2-4-1.9-5.5-1.9c-1.4,0-2.1,0.6-2.1,1.4v0.1c0,1.1,1.9,1.7,4.1,2.4
				c2.8,0.9,6.1,2.3,6.1,6V96c0,4.5-3.4,6.5-7.7,6.5C229.9,102.5,226.7,101.5,224.1,99.4z"/>
			<path d="M155.9,122.3L155.9,122.3c0-7.6,5.7-13.7,13.8-13.7c5,0,8,1.7,10.4,4.1l-3.7,4.3c-2-1.8-4.1-3-6.8-3
				c-4.5,0-7.7,3.7-7.7,8.2v0.1c0,4.5,3.1,8.3,7.7,8.3c3,0,4.9-1.2,6.9-3.1l3.7,3.7c-2.7,2.9-5.7,4.7-10.8,4.7
				C161.6,135.9,155.9,129.9,155.9,122.3z"/>
			<path d="M181.2,129.6L181.2,129.6c0-4.5,3.4-6.5,8.1-6.5c2,0,3.5,0.3,4.9,0.8v-0.3c0-2.4-1.5-3.7-4.3-3.7c-2.2,0-3.7,0.4-5.6,1.1
				l-1.4-4.4c2.2-1,4.4-1.6,7.8-1.6c3.1,0,5.4,0.8,6.8,2.3c1.5,1.5,2.2,3.7,2.2,6.4v11.7h-5.5v-2.2c-1.4,1.5-3.3,2.6-6.1,2.6
				C184.3,135.8,181.2,133.6,181.2,129.6z M194.3,128.3v-1c-1-0.5-2.3-0.8-3.7-0.8c-2.5,0-4,1-4,2.8v0.1c0,1.5,1.3,2.5,3.1,2.5
				C192.5,131.8,194.3,130.3,194.3,128.3z"/>
			<path d="M202.9,107.9h6v5.1h-6V107.9z M203.1,115.2h5.7v20.2h-5.7V115.2z"/>
			<path d="M212.3,115.2h5.7v4.1c1.2-2.8,3.1-4.6,6.4-4.5v6h-0.3c-3.8,0-6.1,2.3-6.1,7.1v7.5h-5.7L212.3,115.2L212.3,115.2z"/>
			<path d="M224.7,125.4L224.7,125.4c0-5.9,4.7-10.6,11-10.6s10.9,4.6,10.9,10.4v0.1c0,5.8-4.7,10.5-11,10.5
				C229.3,135.9,224.7,131.2,224.7,125.4z M240.9,125.4L240.9,125.4c0-3.1-2.2-5.7-5.3-5.7c-3.3,0-5.2,2.5-5.2,5.5v0.1
				c0,3,2.2,5.6,5.3,5.6C238.9,130.9,240.9,128.4,240.9,125.4z"/>
		</g>
		<g>
			<path d="M163.6,161.4c-0.5,0.5-1.2,0.7-2,0.7c-0.5,0-0.8-0.1-1.2-0.2c-0.3-0.1-0.6-0.4-0.9-0.7v0.8h-2v-11.4h2.1v3.8
				c0.3-0.3,0.6-0.5,0.9-0.7c0.3-0.1,0.7-0.2,1.1-0.2c0.9,0,1.5,0.2,1.9,0.6c0.4,0.4,0.7,0.8,0.8,1.3s0.2,1.3,0.2,2.3
				c0,0.8,0,1.5-0.1,2.1C164.2,160.5,164,161,163.6,161.4z M161,155.5c-0.6,0-1,0.2-1.1,0.6c-0.2,0.4-0.3,1-0.3,1.8s0.1,1.4,0.3,1.8
				c0.2,0.4,0.6,0.6,1.1,0.6c0.6,0,0.9-0.2,1.1-0.6c0.2-0.4,0.3-1,0.3-1.8s-0.1-1.4-0.3-1.8C162,155.7,161.6,155.5,161,155.5z"/>
			<path d="M168.6,163.4c-0.1,0.3-0.2,0.5-0.3,0.6c-0.1,0.2-0.2,0.3-0.4,0.5s-0.4,0.3-0.7,0.4c-0.3,0.1-0.6,0.2-1,0.2h-0.8v-1.9h0.5
				c0.3,0,0.5-0.1,0.7-0.2c0.1-0.1,0.3-0.3,0.4-0.6l0.4-1l-2.8-7.7h2.2l1.7,5.1l1.7-5.1h2.2L168.6,163.4z"/>
		</g>
		<g>
			<path class="st0" d="M175.9,157v2c0,1.9,1.2,2.9,3.5,2.9c1.4,0,2.2-0.3,3-1.1l-1.3-1.3c-0.4,0.5-0.8,0.7-1.6,0.7
				c-1.1,0-1.5-0.4-1.5-1.3v-0.4h2c1.9,0,2.8-1.1,2.8-2.4c0-0.7-0.2-1.4-0.7-1.9s-1.2-0.7-2.1-0.7c-1,0-2,0-2.8,0.6
				C176.2,154.9,175.9,155.9,175.9,157L175.9,157z M178,156.7c0-0.5,0.1-0.8,0.3-1.1c0.4-0.4,0.7-0.4,1.3-0.4c0.8,0,1.2,0.4,1.2,1
				s-0.4,0.9-1.2,0.9H178V156.7z"/>
			<path class="st0" d="M206,158.5v-2c0-1.9-1.2-2.9-3.5-2.9c-1.4,0-2.2,0.3-3,1.1l1.3,1.3c0.4-0.5,0.8-0.7,1.6-0.7
				c1.1,0,1.5,0.4,1.5,1.3v0.4h-2c-1.9,0-2.8,1.1-2.8,2.4c0,0.7,0.2,1.4,0.7,1.9s1.2,0.7,2.1,0.7c1,0,2,0,2.8-0.6
				C205.7,160.6,206,159.7,206,158.5L206,158.5z M204,158.9c0,0.5-0.1,0.8-0.3,1.1c-0.4,0.4-0.7,0.4-1.3,0.4c-0.8,0-1.2-0.4-1.2-1
				s0.4-0.9,1.2-0.9h1.6V158.9z"/>
			<path class="st0" d="M190.6,162v-5.4c0-0.9-0.2-1.7-0.9-2.4c-0.5-0.5-1.1-0.7-2-0.7c-0.8,0-1.5,0.3-2.1,0.9v-0.8h-2v8.4h2.1v-5.1
				c0-1.1,0.7-1.5,1.4-1.5s1.4,0.4,1.4,1.5v5.1H190.6L190.6,162z M198.6,157.8c0-1.3,0-2.7-0.9-3.5c-0.5-0.5-1.2-0.8-2-0.8
				c-0.9,0-1.5,0.2-2.1,0.9v-0.8h-2v11.5h2.1v-3.8c0.5,0.6,1.2,0.8,2,0.8s1.6-0.3,2-0.8C198.6,160.5,198.6,159.1,198.6,157.8
				L198.6,157.8z M196.5,157.8c0,1.4-0.2,2.4-1.4,2.4c-1.3,0-1.4-1-1.4-2.4s0.2-2.4,1.4-2.4C196.3,155.4,196.5,156.4,196.5,157.8
				L196.5,157.8z M213,161l-1.4-1.4c-0.4,0.5-0.8,0.7-1.4,0.7c-0.5,0-0.9-0.2-1.2-0.5c-0.3-0.4-0.5-1-0.5-1.9s0.1-1.5,0.5-1.9
				c0.3-0.4,0.7-0.5,1.2-0.5s0.9,0.2,1.4,0.7l1.4-1.4c-0.7-0.8-1.6-1.1-2.8-1.1c-1.7,0-3.8,0.9-3.8,4.3c0,3.4,2.1,4.3,3.8,4.3
				C211.4,162.1,212.3,161.7,213,161L213,161z M218.1,162v-1.8h-0.8c-0.5,0-0.7-0.3-0.7-0.8v-4h1.5v-1.6h-1.5v-2.5h-2.1v2.5h-0.9
				v1.6h0.9v4.2c0,1.2,0.7,2.4,2.4,2.4L218.1,162L218.1,162z"/>
		</g>
	</g>
</g>
</svg>
