<?xml version="1.0" encoding="utf-8"?>
<!-- Generator: Adobe Illustrator 16.0.0, SVG Export Plug-In . SVG Version: 6.00 Build 0)  -->
<!DOCTYPE svg PUBLIC "-//W3C//DTD SVG 1.1//EN" "http://www.w3.org/Graphics/SVG/1.1/DTD/svg11.dtd">
<svg version="1.1" id="Layer_1" xmlns="http://www.w3.org/2000/svg" xmlns:xlink="http://www.w3.org/1999/xlink" x="0px" y="0px"
	 width="250px" height="250px" viewBox="0 0 250 250" enable-background="new 0 0 250 250" xml:space="preserve">
<g>
	<defs>
		<rect id="SVGID_1_" x="41.291" y="41.291" width="167.418" height="167.418"/>
	</defs>
	<clipPath id="SVGID_2_">
		<use xlink:href="#SVGID_1_"  overflow="visible"/>
	</clipPath>
	<path clip-path="url(#SVGID_2_)" d="M41.375,125.011c0,46.271,37.511,83.782,83.783,83.782s83.781-37.511,83.781-83.782
		c0-46.272-37.51-83.783-83.781-83.783S41.375,78.739,41.375,125.011"/>
	<path clip-path="url(#SVGID_2_)" fill="#FFFFFF" d="M106.249,148.96v-8.904c0-4.104-2.292-5.566-4.532-5.566l-4.174,1.27v-8.262
		c0-0.777-0.06-1.515-0.764-1.64c-0.306-0.021-0.629,0.184-1.16,0.375c-0.8,0.288-1.878,0.776-3.452,0.776h-0.651v1.207l2.275-0.074
		c0.062,0.139,0.403,0.679,0.403,2.646v18.172c0,0.087,0.037,0.289,0.028,0.393l-2.037,0.272v0.822h7.366v-0.823l-2.037-0.271
		c-0.009-0.104,0.028-0.306,0.028-0.393v-9.297c0-0.507,0.114-3.037,2.86-3.037c1.709,0,2.497,0.649,2.497,4.336v7.998
		c0,0.087,0.037,0.289,0.028,0.393l-2.037,0.272v0.822h8.036v-0.823l-2.372-0.271C106.547,149.249,106.249,149.047,106.249,148.96"
		/>
	<path clip-path="url(#SVGID_2_)" fill="#FFFFFF" d="M152.457,148.96v-8.904c0-4.104-2.293-5.566-4.532-5.566l-4.174,1.27v-8.262
		c0-0.777-0.239-1.515-0.941-1.64c-0.327-0.023-0.754,0.197-1.248,0.375c-0.8,0.287-1.966,0.776-3.542,0.776h-0.296v1.207
		l1.939-0.074c0.062,0.138,0.069,0.676,0.069,2.646v18.172c0,0.087,0.037,0.289,0.028,0.393l-2.037,0.272v0.822h8.036v-0.823
		l-2.037-0.271c-0.009-0.104,0.028-0.306,0.028-0.393v-9.297c0-0.507,0.113-3.037,2.86-3.037c1.709,0,2.497,0.649,2.497,4.336v7.998
		c0,0.087,0.036,0.289,0.028,0.393l-2.037,0.272v0.822h7.366v-0.823l-2.037-0.271C152.42,149.246,152.457,149.038,152.457,148.96"/>
	<path clip-path="url(#SVGID_2_)" fill="#FFFFFF" d="M135.343,148.323c-0.117,0.187-0.972,1.197-2.212,1.197
		c-1.479,0-1.435-2.882-1.435-3.004v-10.132h3.349v-1.34h-3.349v-4.018h-1.314l-0.041,0.325c-0.003,0.023-0.325,2.334-1.35,2.963
		c-1.036,0.65-2.672,0.631-2.844,0.62l-0.478-0.014v1.463h2.009v10.282c0,2.551,0.415,4.661,3.638,4.661
		c2.448,0,4.531-1.727,4.945-2.32l0.236-0.279l-0.98-0.715L135.343,148.323z"/>
	<path clip-path="url(#SVGID_2_)" fill="#FFFFFF" d="M118.973,136.042l2.056,0.28c0.014,0.001-0.019,0.003-0.011,0.003
		c0,0.016-0.022,0.037-0.029,0.063l-3.011,9.33l-3.107-9.414l2.093-0.263v-0.997h-8.036v0.997l2.226,0.277
		c0.079,0.014,0.202,0.026,0.35,0.492l4.788,14.114l-1.89,5.882c-0.153,0.546-0.438,0.915-0.838,1.064
		c-0.016,0.005-0.029,0.011-0.045,0.016c0.219-0.203,0.374-0.462,0.443-0.757c0.153-0.629,0.021-1.291-0.353-1.767
		c-0.331-0.419-0.806-0.65-1.339-0.65c-1.467,0-1.786,1.164-1.849,1.522c-0.121,0.706,0.031,1.376,0.437,1.936
		c0.433,0.598,1.117,1.007,1.879,1.123c0.128,0.016,0.261,0.025,0.396,0.025c1.286,0,2.306-0.833,2.727-2.226l6.515-20.298
		c0.109-0.293,0.238-0.446,0.45-0.475l2.175-0.28v-0.997h-6.027V136.042z"/>
	<path clip-path="url(#SVGID_2_)" fill="#FFFFFF" d="M178.88,149.353c-0.009-0.104-0.307-0.306-0.307-0.393v-8.904
		c0-4.104-2.242-5.566-4.481-5.566l-4.716,1.654c-1.098-1.437-2.626-1.654-3.474-1.654l-3.663,1.254
		c-0.034-0.594-0.136-0.912-0.363-1.104c-0.237-0.2-0.518-0.177-0.719-0.144c-0.224,0.047-0.478,0.271-0.775,0.381
		c-0.765,0.282-1.919,0.838-3.559,0.838h-0.35v1.135l1.941-0.074c0.062,0.138,0.068,0.675,0.068,2.646v9.538
		c0,0.087,0.037,0.289,0.029,0.392l-2.039,0.273v0.822h8.036v-0.823l-2.035-0.271c-0.01-0.104,0.026-0.306,0.026-0.393v-9.341
		c0-0.468-0.12-1.712,0.602-2.436c0.369-0.369,0.895-0.558,1.564-0.558c1.954,0,2.521,0.57,2.521,4.336v7.998
		c0,0.087,0.038,0.289,0.028,0.393l-2.037,0.272v0.822h7.366v-0.822l-2.037-0.272c-0.009-0.104,0.028-0.306,0.028-0.393v-9.34
		c0-0.468,0.013-1.712,0.735-2.437c0.369-0.369,0.828-0.558,1.496-0.558c1.956,0,2.456,0.57,2.456,4.336v7.998
		c0,0.087,0.038,0.289,0.028,0.393l-2.037,0.272v0.822h8.036v-0.823L178.88,149.353z"/>
	<path clip-path="url(#SVGID_2_)" fill="#FFFFFF" d="M85.023,144.342c-0.384-3.383-2.344-5.458-4.088-6.28
		c2.305-0.63,4.815-2.285,4.815-6.402c0-1.693-0.519-3.067-1.542-4.062c-1.431-1.389-3.755-2.045-6.981-1.947l-7.809,0.246v1.09
		l2.038,0.271c0.008,0.104-0.029,0.305-0.029,0.392v21.311c0,0.087,0.037,0.288,0.029,0.393l-2.038,0.272v0.822h8.036v-0.822
		l-2.037-0.272c-0.009-0.104,0.028-0.306,0.028-0.393v-10.493c0.669-0.055,1.131-0.045,1.451,0.026
		c3.375,0.675,3.666,3.718,3.903,6.162c0.073,0.753,0.14,1.465,0.29,2.064c0.425,1.7,1.27,2.938,2.514,3.679
		c0.923,0.551,2.08,0.829,3.44,0.829c1.071,0,2.285-0.173,3.61-0.514l0.147,0.062l0.583-0.997h-0.574
		C87.814,149.778,85.486,149.287,85.023,144.342 M76.259,136.385h-0.815v-9.179c1.339-0.253,3.171-0.326,4.406,0.672
		c0.959,0.776,1.441,1.973,1.441,3.828C81.292,134.244,80.903,136.385,76.259,136.385"/>
	<path clip-path="url(#SVGID_2_)" fill="#FFFFFF" d="M122.991,116.033V94.36c0-0.669-0.165-1.044-0.417-1.254
		c-0.245-0.202-0.57-0.177-0.778-0.141c-0.208,0.044-0.454,0.276-0.775,0.391c-0.768,0.273-1.941,0.839-3.589,0.839h-0.468v1.096
		l2.277-0.074c0.061,0.137,0.402,0.67,0.402,2.615v18.202c0,0.086-0.298,0.289-0.307,0.391l-2.372,0.273v0.937H125v-0.937
		l-2.037-0.272C122.954,116.321,122.991,116.12,122.991,116.033"/>
	<path clip-path="url(#SVGID_2_)" fill="#FFFFFF" d="M134.698,118.281c5.344,0,6.106-4.275,6.137-4.463l0.022-0.163l-0.57-0.608
		l-0.372-0.37l-0.199,0.493c-0.858,2.142-2.187,3.274-3.84,3.274c-2.453,0-3.943-1.361-4.554-4.157
		c-0.153-0.869-0.206-1.466-0.224-1.766l9.231-2.764c0.202-0.067,0.508-0.169,0.508-0.538c0-1.519-1.455-5.688-6.14-5.688
		c-4.822,0-7.378,4.227-7.408,8.402c-0.019,2.505,0.839,4.816,2.352,6.341C130.945,117.587,132.693,118.281,134.698,118.281
		 M131.018,109.115c0.002-1.125,0.146-3.931,1.479-5.342c0.519-0.548,1.178-0.827,1.959-0.827c2.473,0,2.849,3.328,2.904,4.291
		L131.018,109.115z"/>
	<path clip-path="url(#SVGID_2_)" fill="#FFFFFF" d="M69.291,117.634h1.429l0.053-0.202c0.001-0.009,0.17-0.823,0.808-0.823
		c0.295,0,0.947,0.26,1.636,0.515c1.265,0.467,2.996,1.116,4.613,1.116c1.589,0,4.524-0.297,6.326-2.317
		c1.234-1.382,1.719-3.308,1.441-5.729c-0.471-3.83-3.061-5.1-6.34-6.708l-0.099-0.048c-0.238-0.116-0.543-0.25-0.917-0.415
		c-1.964-0.862-5.622-2.47-5.622-4.828c0-1.518,0.672-4.062,4.417-4.062c4.912,0,5.775,4.066,5.775,5.3v0.791h1.204l-0.052-0.494
		c-0.072-0.584-0.314-2.632-0.417-3.973c-0.137-1.588,0.14-2.314,0.148-2.337l0.236-0.562h-1.383l-0.102,0.152
		c-0.006,0.005-0.558,0.561-1.271,0.442c-0.304-0.047-0.69-0.158-1.137-0.3c-0.919-0.293-2.065-0.65-3.354-0.65
		c-0.746,0-7.288,0.208-7.288,7.32c0,3.957,3.479,5.673,6.844,7.332l0.073-0.149l-0.035,0.169c0.481,0.238,0.96,0.475,1.426,0.717
		c2.532,1.297,4.219,2.589,4.219,4.673c0,2.689-1.16,3.942-3.952,3.942c-0.074,0-7.213-0.069-7.213-5.511v-0.056h-1.711l0.084,0.272
		c0.052,0.26,0.506,2.515,0.506,3.991c0,1.322-0.22,2.083-0.229,2.118L69.291,117.634z"/>
	<path clip-path="url(#SVGID_2_)" fill="#FFFFFF" d="M102.736,103.886l4.764,14.113l-1.9,5.88c-0.154,0.547-0.446,0.917-0.843,1.065
		c-0.017,0.006-0.034,0.012-0.051,0.018c0.22-0.204,0.374-0.463,0.444-0.758c0.152-0.631,0.02-1.292-0.354-1.767
		c-0.331-0.419-0.806-0.65-1.339-0.65c-1.466,0-1.786,1.167-1.85,1.524c-0.12,0.704,0.031,1.373,0.437,1.935
		c0.434,0.598,1.117,1.007,1.879,1.122c0.128,0.018,0.262,0.026,0.396,0.026c1.286,0,2.306-0.833,2.727-2.226l6.515-20.299
		c0.108-0.292,0.292-0.445,0.505-0.473l2.23-0.281v-0.884h-6.027v0.884l2.001,0.366c0.012,0.002-0.046,0.089-0.04,0.089h-0.034
		c0,0-0.019-0.049-0.025-0.023l-3.009,9.288l-3.052-9.435l2.149-0.285v-0.884h-8.036v0.884l2.171,0.279
		C102.469,103.407,102.587,103.419,102.736,103.886"/>
	<path clip-path="url(#SVGID_2_)" fill="#FFFFFF" d="M98.818,116.08l0.195-0.279l-0.999-0.714l-0.193,0.311
		c-0.099,0.158-0.959,1.197-2.201,1.197c-1.456,0-1.425-2.698-1.425-3.006v-10.687h3.348v-0.67h-3.348v-4.018h-1.333l-0.041,0.27
		c-0.002,0.023-0.326,2.307-1.35,2.937c-1.093,0.682-2.811,0.604-2.835,0.604l-0.468-0.026v0.903h2.009v10.838
		c0,2.55,0.406,4.661,3.627,4.661C96.25,118.4,98.401,116.676,98.818,116.08"/>
	<path clip-path="url(#SVGID_2_)" fill="#FFFFFF" d="M162.183,124.351c1.021-0.67,1.939-1.595,2.729-2.749l0.299-0.436
		c0.343,0.463,0.707,0.911,1.085,1.333c0.504,0.565,1.067,1.067,1.676,1.493c0.615,0.431,1.293,0.773,2.013,1.017
		c0.727,0.248,1.531,0.373,2.393,0.373c1.061,0,2.013-0.238,2.828-0.709c0.801-0.463,1.495-1.048,2.063-1.74
		c0.56-0.681,1.039-1.452,1.421-2.292c0.37-0.814,0.68-1.609,0.922-2.361c0.238-0.745,0.427-1.417,0.562-1.998
		c0.159-0.693,0.239-0.98,0.278-1.1l0.118-0.364l-1.355-0.29l-0.052,0.367c-0.025,0.188-0.101,0.536-0.235,1.095
		c-0.129,0.523-0.319,1.146-0.567,1.848c-0.246,0.694-0.546,1.429-0.895,2.185c-0.342,0.741-0.754,1.426-1.224,2.038
		c-0.458,0.6-0.988,1.103-1.576,1.495c-0.559,0.373-1.195,0.562-1.891,0.562c-0.507,0-0.95-0.086-1.316-0.254
		c-0.379-0.176-0.707-0.389-0.977-0.63s-0.502-0.516-0.692-0.815c-0.194-0.303-0.368-0.595-0.52-0.866
		c-0.345-0.63-0.672-1.394-0.972-2.271c-0.288-0.834-0.493-1.561-0.607-2.162l1.562-3.128c0.31-0.619,0.626-1.245,0.951-1.879
		c0.317-0.623,0.642-1.22,0.966-1.775c0.88-1.509,1.746-2.559,2.574-3.121c0.808-0.548,1.493-0.826,2.04-0.826
		c0.342,0,0.615,0.063,0.809,0.187c0.147,0.097,0.22,0.285,0.22,0.575c0,0.31-0.023,0.461-0.036,0.524
		c-0.027,0.126-0.059,0.23-0.099,0.333c-0.045,0.126-0.092,0.275-0.14,0.447c-0.053,0.193-0.079,0.433-0.079,0.733
		c0,1.193,0.689,1.851,1.939,1.851c0.701,0,1.241-0.249,1.604-0.738c0.338-0.456,0.509-1.023,0.509-1.688
		c0-1.049-0.406-1.913-1.21-2.569c-0.783-0.639-1.788-0.963-2.986-0.963c-1.155,0-2.18,0.295-3.046,0.878
		c-0.841,0.563-1.631,1.351-2.346,2.342c-0.705,0.977-1.387,2.132-2.022,3.437l-1.687,3.447l-0.435-1.952
		c-0.437-2.013-0.726-4-0.856-5.905c-0.127-1.833-0.219-3.537-0.277-5.068c0.574-0.202,1.254-0.475,2.021-0.813
		c0.884-0.389,1.743-0.859,2.554-1.4c0.821-0.547,1.533-1.19,2.114-1.908c0.607-0.753,0.916-1.593,0.916-2.497
		c0-1.033-0.338-1.903-1.004-2.587c-0.67-0.686-1.639-1.033-2.882-1.033c-1.287,0-2.41,0.383-3.339,1.139
		c-0.9,0.734-1.672,1.644-2.292,2.706c-0.62,1.058-1.108,2.178-1.45,3.33c-0.318,1.065-0.543,2.033-0.668,2.877l-2.638,0.948
		c-1.265,0.451-2.49,1.076-3.643,1.854c-1.161,0.787-2.199,1.733-3.083,2.812c-0.891,1.086-1.609,2.332-2.136,3.702
		c-0.53,1.378-0.799,2.902-0.799,4.53c0,1.725,0.303,3.207,0.9,4.403c0.593,1.187,1.344,2.17,2.232,2.921
		c0.889,0.749,1.866,1.3,2.907,1.637c1.032,0.333,2.006,0.502,2.895,0.502C159.819,125.381,161.141,125.035,162.183,124.351
		 M155.724,121.824c-0.369-0.713-0.674-1.522-0.9-2.408c-0.232-0.894-0.409-1.795-0.524-2.682c-0.117-0.894-0.198-1.748-0.241-2.541
		c-0.044-0.851-0.066-1.504-0.066-1.996c0-0.857,0.073-1.686,0.217-2.46c0.141-0.755,0.416-1.468,0.818-2.119
		c0.401-0.652,0.964-1.27,1.671-1.837c0.704-0.564,1.626-1.068,2.741-1.497l1.998-0.771c-0.061,0.613-0.108,1.263-0.143,1.937
		c-0.044,0.874-0.066,1.67-0.066,2.364c0,0.671,0.045,1.493,0.135,2.444c0.089,0.975,0.255,2.023,0.494,3.117
		c0.237,1.106,0.578,2.254,1.009,3.412c0.41,1.103,0.94,2.194,1.578,3.244c-0.207,0.325-0.463,0.706-0.764,1.132
		c-0.336,0.479-0.744,0.944-1.215,1.385c-0.458,0.431-0.99,0.809-1.583,1.118c-0.567,0.298-1.229,0.448-1.965,0.448
		c-0.715,0-1.335-0.205-1.846-0.611C156.537,123.081,156.083,122.515,155.724,121.824 M167.118,100.285
		c-0.546,0.248-1.039,0.454-1.465,0.614c0.034-0.855,0.088-1.69,0.161-2.485c0.083-0.967,0.255-1.849,0.512-2.621
		c0.247-0.737,0.625-1.344,1.124-1.803c0.478-0.439,1.166-0.662,2.048-0.662c0.759,0,1.362,0.213,1.796,0.633
		c0.437,0.421,0.647,0.941,0.647,1.59c0,0.652-0.239,1.271-0.715,1.838c-0.509,0.605-1.132,1.156-1.854,1.638
		C168.644,99.514,167.886,99.938,167.118,100.285"/>
</g>
</svg>
