<?xml version="1.0" encoding="utf-8"?>
<!-- Generator: Adobe Illustrator 16.0.0, SVG Export Plug-In . SVG Version: 6.00 Build 0)  -->
<!DOCTYPE svg PUBLIC "-//W3C//DTD SVG 1.1//EN" "http://www.w3.org/Graphics/SVG/1.1/DTD/svg11.dtd">
<svg version="1.1" id="Layer_1" xmlns="http://www.w3.org/2000/svg" xmlns:xlink="http://www.w3.org/1999/xlink" x="0px" y="0px"
	 width="250px" height="125px" viewBox="0 62.805 250 125" enable-background="new 0 62.805 250 125" xml:space="preserve">
<g>
	<polygon fill="#ED3724" points="33.083,110.242 33.083,117.927 41.537,117.927 41.537,140.368 50.759,140.368 50.759,117.927 
		59.213,117.927 59.213,110.242 	"/>
	<polygon fill="#ED3724" points="60.751,110.242 60.751,140.368 86.112,140.368 86.112,132.686 69.973,132.686 69.973,128.842 
		86.112,128.842 86.112,121.77 69.973,121.77 69.973,117.927 86.112,117.927 86.112,110.242 	"/>
	<g>
		<g>
			<g>
				<g>
					<defs>
						<rect id="SVGID_1_" x="33.083" y="109.627" width="183.834" height="30.741"/>
					</defs>
					<clipPath id="SVGID_2_">
						<use xlink:href="#SVGID_1_"  overflow="visible"/>
					</clipPath>
					<path clip-path="url(#SVGID_2_)" fill="#ED3724" d="M96.872,132.531h3.688c5.842,0,6.611-4.613,6.611-7.533
						c0-1.845-0.615-7.225-7.224-7.225h-2.92v14.758H96.872z M87.65,110.242h15.217c9.991,0,13.527,7.379,13.527,15.065
						c0,9.222-4.919,15.062-15.371,15.062H87.65V110.242z"/>
				</g>
			</g>
		</g>
	</g>
	<polygon fill="#ED3724" points="129.611,110.242 126.998,114.699 124.386,110.242 117.622,110.242 123.771,119.311 
		117.315,128.688 124.231,128.688 126.998,124.077 129.766,128.688 136.527,128.688 130.07,119.311 136.374,110.242 	"/>
	<g>
		<g>
			<g>
				<g>
					<defs>
						<rect id="SVGID_3_" x="33.083" y="109.627" width="183.834" height="30.741"/>
					</defs>
					<clipPath id="SVGID_4_">
						<use xlink:href="#SVGID_3_"  overflow="visible"/>
					</clipPath>
					<path clip-path="url(#SVGID_4_)" d="M158.355,111.318c2.92,1.537,4.61,4.149,5.226,7.993h-3.843
						c-0.463-2.152-1.383-3.689-2.92-4.611c-1.536-0.922-3.381-1.383-5.533-1.383c-2.614,0-4.918,1.076-6.609,3.074
						c-1.843,1.999-2.768,5.073-2.768,9.069c0,3.536,0.769,6.302,2.306,8.456c1.537,2.152,3.997,3.227,7.226,3.227
						c2.612,0,4.764-0.769,6.455-2.306c1.69-1.537,2.612-3.996,2.612-7.379h-9.067v-3.535h12.756v15.679h-2.611l-0.923-3.689
						c-1.386,1.538-2.459,2.46-3.534,3.074c-1.691,0.924-3.843,1.537-6.458,1.537c-3.381,0-6.301-1.074-8.76-3.381
						c-2.614-2.768-3.996-6.609-3.996-11.527c0-4.919,1.229-8.762,3.843-11.683c2.459-2.92,5.688-4.303,9.684-4.303
						C154.052,109.627,156.51,110.242,158.355,111.318"/>
				</g>
			</g>
		</g>
		<g>
			<g>
				<g>
					<defs>
						<rect id="SVGID_5_" x="33.083" y="109.627" width="183.834" height="30.741"/>
					</defs>
					<clipPath id="SVGID_6_">
						<use xlink:href="#SVGID_5_"  overflow="visible"/>
					</clipPath>
					<path clip-path="url(#SVGID_6_)" d="M170.499,110.396v17.984c0,2.151,0.461,3.843,1.228,5.226
						c1.229,2.151,3.229,3.229,5.996,3.229c3.381,0,5.687-1.076,6.916-3.381c0.615-1.229,0.924-2.921,0.924-5.072v-17.984h3.994
						v16.449c0,3.533-0.461,6.301-1.382,8.299c-1.846,3.535-5.071,5.226-10.146,5.226c-4.92,0-8.301-1.688-9.992-5.226
						c-0.921-1.998-1.383-4.766-1.383-8.299v-16.449L170.499,110.396L170.499,110.396z"/>
				</g>
			</g>
		</g>
		<g>
			<g>
				<g>
					<defs>
						<rect id="SVGID_7_" x="33.083" y="109.627" width="183.834" height="30.741"/>
					</defs>
					<clipPath id="SVGID_8_">
						<use xlink:href="#SVGID_7_"  overflow="visible"/>
					</clipPath>
					<path clip-path="url(#SVGID_8_)" d="M213.382,112.547c1.999,1.999,3.073,4.151,3.384,6.611h-3.845
						c-0.46-1.845-1.229-3.382-2.612-4.458c-1.229-1.076-3.074-1.69-5.379-1.69c-2.769,0-5.072,1.075-6.763,3.074
						s-2.615,5.072-2.615,9.224c0,3.381,0.771,6.148,2.308,8.299c1.537,2.152,3.842,3.229,7.07,3.229
						c2.918,0,5.071-1.076,6.608-3.382c0.769-1.229,1.383-2.767,1.844-4.61h3.845c-0.31,3.073-1.537,5.688-3.383,7.686
						c-2.306,2.459-5.38,3.688-9.223,3.688c-3.38,0-6.148-1.075-8.453-3.073c-2.919-2.768-4.458-6.918-4.458-12.604
						c0-4.304,1.077-7.839,3.381-10.605c2.151-2.767,5.533-4.303,9.685-4.303C208.462,109.627,211.384,110.55,213.382,112.547"/>
				</g>
			</g>
		</g>
	</g>
</g>
</svg>
