<?xml version="1.0" encoding="utf-8"?>
<!-- Generator: Adobe Illustrator 22.0.1, SVG Export Plug-In . SVG Version: 6.00 Build 0)  -->
<svg version="1.1" id="Layer_1" xmlns="http://www.w3.org/2000/svg" xmlns:xlink="http://www.w3.org/1999/xlink" x="0px" y="0px"
	 viewBox="0 0 450 200" style="enable-background:new 0 0 450 200;" xml:space="preserve">
<g>
	<g>
		<g>
			<path d="M156.8,64.3c0.4,0.3,0.7,0.4,1,0.4c0.7,0,1.1-0.9,1.2-2.9h1.1c-0.1,2.4-0.2,5.5-0.2,11.2h-1.1c-0.7-4.1-1.1-5.4-2.4-7.2
				c-2-2.6-5.3-3.8-8.6-3.8c-6.3,0-10.5,6.6-10.5,17.1c0,10.9,4.7,16.8,11,16.8c2.9,0,6.5-1.1,8.3-3.7c1.4-1.9,1.8-3.8,2.3-7.7h1.1
				c0,5.9,0,9.2,0.2,11.7H159c-0.2-2-0.5-2.9-1.2-2.9c-0.3,0-0.6,0.1-1,0.4c-2.4,1.7-4.8,3.2-9,3.2c-9.2,0-15.4-6.5-15.4-17.6
				c0-10.9,6.4-18.2,15.5-18.2C152.1,61.1,154.6,62.6,156.8,64.3z"/>
			<path d="M180.1,62.8c-3.3,0.1-3.9,0.6-3.9,4.2v24.1c0,3.5,0.6,4,3.9,4h3.6c6.1,0,7.3-2.3,8-9.1h1.1c-0.1,1-0.1,2.4-0.1,4
				c0,1.2,0.1,3.8,0.3,6.2c-3.3-0.1-7.9-0.1-11.1-0.1c-2.9,0-9.3,0-14.1,0.1v-1c3.3-0.1,3.9-0.6,3.9-4.2V67c0-3.5-0.6-4-3.9-4.2v-1
				c1.4,0.1,3.7,0.1,6.2,0.1c2.2,0,4.7,0,6.2-0.1V62.8z"/>
			<path d="M225.3,92.2c1,2.5,2.4,3.1,3.4,3.1v1c-1.3-0.1-3.4-0.1-5.2-0.1c-2.5,0-4.8,0-6.2,0.1v-1c2.4-0.1,3.4-0.5,3.4-1.8
				c0-0.6-0.2-1.3-0.6-2.3l-3-8h-11.7l-2,5.2c-0.7,1.7-1,3-1,4c0,2.1,1.4,2.9,4.2,2.9v1c-1.9-0.1-3.9-0.1-5.6-0.1
				c-1.6,0-2.7,0-3.6,0.1v-1c1.3-0.3,2.7-1.3,3.8-4.2l11.5-29.5h0.8L225.3,92.2z M211.3,67.7l-5.6,14.5h11L211.3,67.7z"/>
			<path d="M250.1,63.1c0.8,0.5,1.2,0.7,1.7,0.7c0.6,0,0.9-0.7,1.1-2.1h1.1c-0.1,1.7-0.2,3.8-0.2,9.9h-1.1c-0.4-4.6-2.6-9.4-8-9.4
				c-3.5,0-5.9,2.3-5.9,5.7c0,4.4,3.8,6.2,8.2,8.9c5.1,3.2,8.8,5.7,8.8,11c0,6.2-4.7,9.2-10.3,9.2c-3.4,0-5.2-0.9-6.7-1.8
				c-0.8-0.5-1.3-0.7-1.7-0.7c-0.6,0-0.9,0.7-1.1,2.1h-1.1c0.1-2,0.2-4.8,0.2-11.7h1.1c0.4,5.9,2.6,11,8.9,11c3.2,0,6.3-1.9,6.3-6.5
				c0-3.9-3.1-6.2-7.6-8.9c-4.6-2.8-8.7-5.4-8.7-10.9c0-5.7,4.3-8.4,9.1-8.4C247.4,61.3,248.8,62.2,250.1,63.1z"/>
			<path d="M279,63.1c0.8,0.5,1.2,0.7,1.7,0.7c0.6,0,0.9-0.7,1.1-2.1h1.1c-0.1,1.7-0.2,3.8-0.2,9.9h-1.1c-0.4-4.6-2.6-9.4-8-9.4
				c-3.5,0-5.9,2.3-5.9,5.7c0,4.4,3.8,6.2,8.2,8.9c5.1,3.2,8.8,5.7,8.8,11c0,6.2-4.7,9.2-10.3,9.2c-3.4,0-5.2-0.9-6.7-1.8
				c-0.8-0.5-1.3-0.7-1.7-0.7c-0.6,0-0.9,0.7-1.1,2.1h-1.1c0.1-2,0.2-4.8,0.2-11.7h1.1c0.4,5.9,2.6,11,8.9,11c3.2,0,6.3-1.9,6.3-6.5
				c0-3.9-3.1-6.2-7.6-8.9c-4.6-2.8-8.7-5.4-8.7-10.9c0-5.7,4.3-8.4,9.1-8.4C276.3,61.3,277.7,62.2,279,63.1z"/>
			<path d="M318.1,61.8v1c-1.3,0.3-2.4,1.4-3.9,4.3l-7.6,15.1v8.9c0,3.5,0.6,4,3.9,4.2v1c-1.5-0.1-3.9-0.1-6.2-0.1
				c-2.5,0-4.9,0-6.2,0.1v-1c3.3-0.1,3.9-0.6,3.9-4.2v-7.3l-9.9-18.2c-1.3-2.4-2.1-2.7-2.8-2.7v-1c1.3,0.1,2.6,0.1,4.3,0.1
				c2.1,0,4.7,0,6.8-0.1v1c-1.9,0-3.4,0.4-3.4,1.9c0,0.5,0.1,1,0.5,1.7l8.1,15.5l6.2-12.4c0.9-1.8,1.3-3.2,1.3-4.2
				c0-1.9-1.6-2.5-4.3-2.6v-1c1.9,0.1,3.9,0.1,5.6,0.1C316.1,62,317.2,61.9,318.1,61.8z"/>
		</g>
		<g>
			<path d="M148.7,121.2c7.7,1,9.9,4.8,9.9,8.7c0,5.5-4.4,9.4-11.6,9.4c-1.4,0-4.3-0.1-8.3-0.1c-2.3,0-4.7,0-6,0.1v-1
				c3.3-0.1,3.9-0.6,3.9-4.2v-24c0-3.5-0.6-4-3.9-4.2v-1c1.3,0.1,3.8,0.1,5.9,0.1c3,0,6.1-0.1,7.3-0.1c6.8,0,10.2,3.1,10.2,7.6
				C156.1,116.2,154.2,119.5,148.7,121.2L148.7,121.2z M141.1,110.2v10.9h3.3c5.7,0,7.1-3.7,7.1-7.9c0-4.8-1.9-7.2-6.8-7.2
				C141.7,106,141.1,106.9,141.1,110.2z M153.8,129.7c0-4.9-2.5-7.8-8.6-7.8h-4.1v12.2c0,3.4,0.6,4,3.6,4
				C151.1,138.2,153.8,135.2,153.8,129.7z"/>
			<path d="M171.9,106c-3.3,0.1-3.9,0.6-3.9,4.2v24c0,3.5,0.6,4,3.9,4h3.5c6.1,0,7.3-2.3,7.9-9.1h1.1c-0.1,1-0.1,2.4-0.1,4
				c0,1.2,0.1,3.7,0.3,6.2c-3.3-0.1-7.8-0.1-11.1-0.1c-2.9,0-9.3,0-14,0.1v-1c3.3-0.1,3.9-0.6,3.9-4.2v-24c0-3.5-0.6-4-3.9-4.2v-1
				c1.3,0.1,3.7,0.1,6.2,0.1c2.2,0,4.7,0,6.1-0.1V106z"/>
			<path d="M217.9,121.9c0,10.8-6.4,18.1-15.4,18.1c-9.2,0-15.3-6.5-15.3-17.5c0-10.8,6.4-18.1,15.4-18.1
				C211.8,104.4,217.9,110.8,217.9,121.9z M192,122.3c0,10.3,4.8,16.9,10.7,16.9c6.3,0,10.4-7,10.4-17c0-10.3-4.7-16.9-10.7-16.9
				C196.1,105.3,192,112.3,192,122.3z"/>
			<path d="M252.3,121.9c0,10.8-6.4,18.1-15.4,18.1c-9.2,0-15.3-6.5-15.3-17.5c0-10.8,6.4-18.1,15.4-18.1
				C246.2,104.4,252.3,110.8,252.3,121.9z M226.4,122.3c0,10.3,4.8,16.9,10.7,16.9c6.3,0,10.4-7,10.4-17c0-10.3-4.7-16.9-10.7-16.9
				C230.5,105.3,226.4,112.3,226.4,122.3z"/>
			<path d="M293.2,106c-3.3,0.1-3.9,0.6-3.9,4.2v24c0,3.5,0.6,4,3.9,4.2v1c-1.5-0.1-3.9-0.1-6.1-0.1c-2.5,0-4.8,0-6.2,0.1v-1
				c3.3-0.1,3.9-0.6,3.9-4.2v-25.9l-11.7,31.3h-0.8l-12.2-31.4v25.6c0,3.5,0.6,4.5,4.4,4.7l0,1c-1.2-0.1-3.3-0.1-4.9-0.1
				c-1.6,0-3.4,0-4.5,0.1v-1c3.3-0.1,3.9-1.1,3.9-4.7v-23.5c0-3.5-0.6-4-3.9-4.2v-1c1.1,0.1,2.9,0.1,4.5,0.1c1.4,0,3.1,0,4.1-0.1
				l10.6,28.1l10.4-27.9h2.3c2.2,0,4.6,0,6.1-0.1V106z"/>
			<path d="M312.1,106.3c0.8,0.5,1.2,0.7,1.7,0.7c0.6,0,0.9-0.7,1.1-2.1h1.1c-0.1,1.7-0.2,3.8-0.2,9.9h-1.1
				c-0.4-4.6-2.6-9.3-7.9-9.3c-3.5,0-5.9,2.3-5.9,5.6c0,4.4,3.8,6.1,8.1,8.9c5,3.1,8.7,5.7,8.7,10.9c0,6.1-4.7,9.2-10.3,9.2
				c-3.4,0-5.2-0.9-6.6-1.8c-0.8-0.5-1.3-0.7-1.7-0.7c-0.6,0-0.9,0.7-1.1,2.1h-1.1c0.1-2,0.2-4.8,0.2-11.6h1.1
				c0.4,5.9,2.6,11,8.8,11c3.1,0,6.3-1.9,6.3-6.5c0-3.9-3-6.1-7.5-8.8c-4.6-2.8-8.6-5.4-8.6-10.8c0-5.7,4.3-8.4,9.1-8.4
				C309.4,104.5,310.8,105.5,312.1,106.3z"/>
		</g>
	</g>
	<path d="M167.2,44.4c-0.3,0-1.2,0.4-2,0.7c-0.3,0.1-0.5,0.2-0.7,0.3c-0.3,0.1-0.6,0.2-1,0.2c-0.1,0-0.2,0-0.3,0.1
		c-0.3,0.1-0.6,0.1-1,0.1c-0.4,0-0.7,0-1.1-0.1c-0.4-0.1-0.6-0.2-0.9-0.4c-0.2-0.2-0.4-0.4-0.5-0.7h0c0.1,0,0.1,0,0.2,0
		c0.4,0,0.7-0.1,1-0.2c0.3-0.1,0.7-0.2,1.1-0.5c0,0,0.1-0.1,0.2-0.1c0.1-0.1,0.2-0.1,0.3-0.2c0.2-0.1,0.4-0.3,0.5-0.4
		c0.2-0.2,0.3-0.3,0.4-0.5c0.1-0.2,0-0.4-0.1-0.5c-0.2-0.3-0.5-0.4-0.8-0.4c-0.2,0-0.3,0-0.5,0c-0.2,0-0.3,0-0.4,0
		c-0.5,0.1-1,0.3-1.4,0.5c-0.4,0.3-0.8,0.6-1,1c-0.4,0.1-0.7,0.3-1.1,0.5c-0.3,0.2-0.7,0.4-1,0.5c0,0,0,0,0,0
		c-0.2,0.1-0.3,0.1-0.5,0.3c-0.2,0.1-0.4,0.2-0.5,0.3c-0.4,0.2-0.9,0.5-1.4,0.7c-0.5,0.2-1,0.4-1.4,0.4c0-0.2,0.1-0.4,0.2-0.6
		c0.1-0.2,0.3-0.5,0.5-0.7c0.2-0.2,0.4-0.5,0.5-0.7c0.2-0.2,0.3-0.5,0.4-0.7c0.2-0.3,0.2-0.6,0.1-0.8c-0.1-0.3-0.3-0.5-0.6-0.6
		c-0.3-0.1-0.6-0.1-0.8,0c-0.3,0.1-0.5,0.2-0.7,0.3c-0.6,0.3-1.2,0.5-1.8,0.8c-0.5,0.2-1,0.5-1.5,0.8c0.1-0.2,0.3-0.5,0.4-0.7l0,0
		c0.2-0.3,0.3-0.6,0.5-0.9l0,0c0.1-0.2,0.2-0.4,0.3-0.6c0.1-0.2,0.2-0.4,0.3-0.6c0.4-0.3,0.8-0.7,1.2-1c0.4-0.4,0.8-0.8,1.2-1.1l0,0
		c0.2-0.2,0.4-0.4,0.6-0.6c0.2-0.2,0.4-0.4,0.7-0.6c0.2-0.2,0.4-0.5,0.6-0.7c0.2-0.2,0.3-0.5,0.4-0.8c0.1-0.4,0.1-0.6,0-0.8
		c-0.1-0.1-0.3-0.2-0.6-0.2c-0.2,0-0.5,0-0.7,0.1c-0.2,0.1-0.4,0.2-0.6,0.2l0,0c-0.5,0.4-1,0.8-1.4,1.4c-0.4,0.6-0.7,1.1-1,1.7
		l-1,1.8c-0.8,0.8-1.7,1.5-2.8,2.1c-1.1,0.6-2.2,1.2-3.4,1.8c0,0,0,0,0,0c-0.1,0-0.2,0-0.3,0.1l0,0c-0.4,0.2-0.9,0.4-1.3,0.5
		c-0.4,0.1-0.8,0.3-1.3,0.4c-0.4,0.1-0.8,0.2-1.2,0.3c-0.4,0.1-0.8,0.2-1.2,0.1c0,0,0-0.1,0-0.2c0-0.2,0.1-0.4,0.2-0.6
		c0.1-0.2,0.1-0.5,0.2-0.7c0.1-0.3,0.1-0.4,0.2-0.4l0,0c0.1-0.2,0.2-0.4,0.3-0.6c0.1-0.2,0.2-0.4,0.3-0.5c0.3-0.2,0.5-0.4,0.7-0.6
		c0.3-0.2,0.5-0.4,0.7-0.6l0.4-0.1c0.9-0.1,1.8-0.2,2.7-0.4c0.9-0.2,1.8-0.4,2.7-0.7c0.2-0.1,0.3-0.2,0.3-0.4c0.1-0.2,0-0.4-0.1-0.5
		c-0.1-0.2-0.3-0.2-0.4-0.2c-0.1,0-0.3,0.1-0.4,0.1l-2.7,0.8l-1.4,0.3c0.3-0.3,0.5-0.6,0.8-0.8c0.3-0.4,0.6-0.7,0.9-1.1
		c0.2-0.3,0.5-0.6,0.8-0.9c0.3-0.3,0.5-0.7,0.6-1.1c0.1-0.2,0-0.4-0.1-0.5c-0.1-0.2-0.3-0.3-0.5-0.3l0,0c-0.2,0-0.4,0.1-0.5,0.2
		c-0.2,0.1-0.3,0.2-0.5,0.3l0,0c-0.8,0.6-1.5,1.3-2.1,2.2c-0.6,0.8-1.1,1.7-1.7,2.5c-0.3,0-0.6,0.1-1,0.1c-0.3,0-0.7,0-1,0l0,0
		c-0.2,0-0.3,0.1-0.4,0.3c-0.1,0.2,0,0.4,0.2,0.5l0,0c0.2,0.1,0.5,0.1,0.9,0.1c0.3,0,0.5-0.1,0.8-0.1l-0.3,0.5
		c-0.6,0.4-1.2,0.8-1.7,1.2c-0.7,0.4-1.8,0.9-2.8,0.9c-0.2,0-0.6,0-0.7,0l-18.2,0l-0.1,0v112.4h218.2V44.4H167.2z M138.1,44.8
		c-0.2,0.4-0.3,0.9-0.2,1.3l0,0c0.1,0.5,0.3,0.7,0.7,0.8c0.3,0.1,0.7,0.1,1.1,0c0.4-0.1,0.8-0.2,1.2-0.4c0.2-0.1,0.5-0.2,0.6-0.3
		c0.1,0,0.2-0.1,0.3-0.1l2-0.7l0,0c0.1-0.1,0.3-0.1,0.5-0.2c0,0,0.1,0,0.1,0c0.1,0,0.1,0,0.2,0c0.1,0,0.2-0.1,0.3-0.1l0,0
		c0.3-0.2,0.6-0.3,0.9-0.5c0.3-0.2,0.6-0.4,0.9-0.6c0.5-0.3,1-0.6,1.5-1c0.4-0.3,0.8-0.6,1.2-0.9c-0.3,0.5-0.7,1.1-1,1.6
		c-0.5,0.6-0.9,1.2-1.5,1.8l0,0c-0.1,0.1-0.2,0.3-0.2,0.4c0,0.1,0.1,0.3,0.2,0.4l0,0c0.2,0.1,0.3,0.2,0.5,0.1c0.1,0,0.2-0.1,0.3-0.2
		c0.1-0.1,0.3-0.2,0.5-0.5c0.2-0.2,0.7-0.5,1.2-0.9c0.4-0.2,0.7-0.5,1.1-0.7c0.4-0.2,0.8-0.4,1.2-0.6c0.1,0,0.3-0.1,0.5-0.2
		c0.2-0.1,0.4-0.1,0.5-0.2c0.2-0.1,0.4-0.1,0.5-0.1c0.1,0,0.3,0,0.4,0c0,0.3-0.2,0.5-0.3,0.8c-0.2,0.3-0.4,0.6-0.6,0.8
		c-0.1,0.1-0.1,0.2-0.2,0.3l-0.1,0.2c-0.1,0.2-0.2,0.3-0.3,0.5c-0.1,0.2-0.1,0.4-0.1,0.6c0,0.2,0.1,0.4,0.2,0.6
		c0.2,0.2,0.4,0.3,0.6,0.4c0.2,0,0.5,0,0.7-0.1c0.2-0.1,0.5-0.2,0.7-0.3c0.2-0.1,0.4-0.2,0.6-0.3c0.4-0.2,0.8-0.5,1.2-0.6
		c0.4-0.2,0.8-0.4,1.2-0.6c0,0,0.1,0,0.1-0.1c0.1-0.1,0.3-0.2,0.3-0.2l0,0c0.1-0.1,0.3-0.2,0.5-0.3c0.2-0.1,0.3-0.2,0.5-0.3
		c0,0.1,0,0.2,0,0.3c0,0.2,0.1,0.3,0.1,0.4c0.1,0.4,0.3,0.8,0.6,1c0.3,0.3,0.6,0.5,0.9,0.6c0.3,0.1,0.7,0.2,1.1,0.3
		c0.4,0,0.8,0,1.1-0.1l0,0c0.8-0.2,1.7-0.5,2.5-0.8l1.1-0.4l0,0c0.1-0.1,0.5-0.2,0.8-0.3c1.3,0,162.1,0,166.1,0v110.5H116.9V45.3
		c0.6,0,17.2,0,17.5,0c1.4,0,2.4-0.3,3.4-0.9c0,0,0.1-0.1,0.1-0.1c0.2-0.1,0.4-0.3,0.6-0.4C138.4,44.2,138.2,44.5,138.1,44.8z
		 M159.9,43.6c0.1-0.1,0.2-0.3,0.3-0.4c0.2-0.2,0.3-0.3,0.5-0.4c0.2-0.1,0.4-0.2,0.7-0.2c0.1,0,0.1,0,0.2,0c0.1,0,0.3,0,0.4,0.1
		c-0.3,0.3-0.6,0.5-1,0.7C160.7,43.4,160.3,43.5,159.9,43.6z M152.1,38.9l0.3-0.5c0.3-0.4,0.5-0.7,0.9-1.1c0.3-0.3,0.6-0.5,0.9-0.7
		c-0.1,0.2-0.3,0.5-0.5,0.7c-0.2,0.3-0.5,0.5-0.7,0.8c-0.2,0.2-0.4,0.4-0.6,0.6C152.3,38.8,152.2,38.8,152.1,38.9z M141.6,40.4
		c0.2-0.2,0.3-0.4,0.5-0.7c0.3-0.4,0.6-0.8,1-1.1c0.1-0.1,0.2-0.3,0.4-0.4c0,0,0,0,0,0c-0.1,0.1-0.1,0.2-0.2,0.2
		C142.8,39,142.2,39.7,141.6,40.4z"/>
</g>
</svg>
