<?xml version="1.0" encoding="utf-8"?>
<!-- Generator: Adobe Illustrator 22.1.0, SVG Export Plug-In . SVG Version: 6.00 Build 0)  -->
<svg version="1.1" id="Layer_1" xmlns="http://www.w3.org/2000/svg" xmlns:xlink="http://www.w3.org/1999/xlink" x="0px" y="0px"
	 viewBox="0 0 450 200" style="enable-background:new 0 0 450 200;" xml:space="preserve">
<g>
	<g>
		<g>
			<path d="M154.9,58.9c0.4,0.3,0.7,0.5,1,0.5c0.7,0,1.1-1,1.3-3.1h1.2c-0.2,2.5-0.2,5.8-0.2,11.8H157c-0.7-4.4-1.1-5.7-2.6-7.6
				c-2.2-2.8-5.5-4-9.1-4c-6.7,0-11.1,6.9-11.1,18.1c0,11.5,5,17.8,11.6,17.8c3.1,0,6.8-1.1,8.8-3.9c1.5-2,1.9-4,2.4-8.1h1.2
				c0,6.2,0,9.7,0.2,12.3h-1.2c-0.2-2.1-0.5-3-1.3-3c-0.3,0-0.6,0.2-1.1,0.4c-2.5,1.8-5.1,3.3-9.5,3.3c-9.7,0-16.3-6.8-16.3-18.6
				c0-11.5,6.8-19.2,16.3-19.2C150,55.5,152.7,57.1,154.9,58.9z"/>
			<path d="M179.5,57.3c-3.5,0.2-4.2,0.7-4.2,4.4v25.5c0,3.7,0.7,4.3,4.2,4.3h3.8c6.4,0,7.7-2.5,8.4-9.6h1.2
				c-0.1,1.1-0.2,2.6-0.2,4.2c0,1.3,0.1,4,0.4,6.6c-3.5-0.2-8.3-0.2-11.8-0.2c-3.1,0-9.8,0-14.9,0.2v-1c3.5-0.2,4.2-0.7,4.2-4.4
				V61.7c0-3.7-0.7-4.3-4.2-4.4v-1c1.4,0.1,3.9,0.2,6.6,0.2c2.4,0,4.9-0.1,6.5-0.2V57.3z"/>
			<path d="M227.2,88.3c1,2.6,2.5,3.2,3.6,3.3v1c-1.4-0.1-3.6-0.2-5.5-0.2c-2.7,0-5.1,0-6.6,0.2v-1c2.5-0.1,3.6-0.5,3.6-1.9
				c0-0.6-0.2-1.4-0.6-2.4l-3.2-8.4h-12.4l-2.1,5.4c-0.7,1.8-1,3.2-1,4.2c0,2.2,1.5,3,4.5,3.1v1c-2-0.1-4.1-0.2-5.9-0.2
				c-1.7,0-2.8,0-3.8,0.2v-1c1.3-0.3,2.9-1.4,4-4.5l12-31.1h0.8L227.2,88.3z M212.4,62.5l-5.9,15.3h11.6L212.4,62.5z"/>
			<path d="M253.3,57.6c0.8,0.5,1.3,0.7,1.8,0.7c0.7,0,0.9-0.8,1.1-2.3h1.2c-0.1,1.8-0.3,4-0.3,10.5H256c-0.4-4.9-2.7-9.9-8.4-9.9
				c-3.7,0-6.3,2.4-6.3,6c0,4.7,4,6.5,8.6,9.4c5.3,3.3,9.2,6,9.2,11.6c0,6.5-4.9,9.7-10.9,9.7c-3.6,0-5.5-1-7-1.9
				c-0.8-0.5-1.3-0.7-1.8-0.7c-0.7,0-0.9,0.8-1.1,2.3h-1.2c0.2-2.1,0.2-5.1,0.2-12.3h1.2c0.4,6.2,2.8,11.7,9.3,11.7
				c3.3,0,6.7-2,6.7-6.8c0-4.2-3.2-6.5-8-9.4c-4.9-2.9-9.1-5.7-9.1-11.5c0-6.1,4.6-8.9,9.6-8.9C250.5,55.7,252,56.7,253.3,57.6z"/>
			<path d="M283.9,57.6c0.8,0.5,1.3,0.7,1.8,0.7c0.7,0,0.9-0.8,1.1-2.3h1.2c-0.1,1.8-0.3,4-0.3,10.5h-1.2c-0.4-4.9-2.7-9.9-8.4-9.9
				c-3.7,0-6.3,2.4-6.3,6c0,4.7,4,6.5,8.6,9.4c5.3,3.3,9.2,6,9.2,11.6c0,6.5-4.9,9.7-10.9,9.7c-3.6,0-5.5-1-7-1.9
				c-0.8-0.5-1.3-0.7-1.8-0.7c-0.7,0-0.9,0.8-1.1,2.3h-1.2c0.2-2.1,0.2-5.1,0.2-12.3h1.2c0.4,6.2,2.8,11.7,9.3,11.7
				c3.3,0,6.7-2,6.7-6.8c0-4.2-3.2-6.5-8-9.4c-4.9-2.9-9.1-5.7-9.1-11.5c0-6.1,4.6-8.9,9.6-8.9C281,55.7,282.5,56.7,283.9,57.6z"/>
			<path d="M325.1,56.3v1c-1.3,0.3-2.6,1.5-4.1,4.6l-8,16v9.3c0,3.7,0.7,4.3,4.2,4.4v1c-1.6-0.1-4.2-0.2-6.5-0.2
				c-2.7,0-5.1,0-6.6,0.2v-1c3.5-0.2,4.2-0.7,4.2-4.4v-7.7l-10.4-19.2c-1.4-2.5-2.3-2.9-3-2.9v-1.1c1.3,0.1,2.8,0.2,4.5,0.2
				c2.3,0,5,0,7.2-0.2v1.1c-2,0-3.6,0.5-3.6,2c0,0.5,0.2,1.1,0.5,1.8l8.5,16.4l6.5-13c1-1.9,1.4-3.4,1.4-4.4c0-2-1.7-2.7-4.5-2.7v-1
				c2,0.1,4.1,0.2,5.9,0.2C323,56.4,324.1,56.4,325.1,56.3z"/>
		</g>
		<g>
			<path d="M146.4,118.9c8.1,1.1,10.4,5.1,10.4,9.2c0,5.8-4.6,9.9-12.3,9.9c-1.5,0-4.6-0.1-8.8-0.1c-2.4,0-4.9,0.1-6.3,0.1v-1
				c3.5-0.2,4.1-0.7,4.1-4.4v-25.3c0-3.7-0.7-4.2-4.1-4.4v-1c1.4,0.1,4,0.1,6.2,0.1c3.2,0,6.5-0.1,7.7-0.1c7.2,0,10.8,3.3,10.8,8
				C154.2,113.6,152.1,117.1,146.4,118.9L146.4,118.9z M138.4,107.3v11.5h3.4c6,0,7.5-3.9,7.5-8.3c0-5-2-7.6-7.2-7.6
				C139,102.9,138.4,103.8,138.4,107.3z M151.7,127.9c0-5.2-2.6-8.2-9.1-8.2h-4.3v12.9c0,3.6,0.7,4.2,3.8,4.2
				C148.9,136.9,151.7,133.7,151.7,127.9z"/>
			<path d="M170.9,102.9c-3.5,0.1-4.1,0.7-4.1,4.4v25.3c0,3.7,0.7,4.2,4.1,4.2h3.7c6.4,0,7.7-2.4,8.4-9.6h1.2
				c-0.1,1.1-0.1,2.5-0.1,4.2c0,1.3,0.1,3.9,0.3,6.5c-3.5-0.1-8.3-0.1-11.7-0.1c-3.1,0-9.8,0-14.8,0.1v-1c3.5-0.2,4.1-0.7,4.1-4.4
				v-25.3c0-3.7-0.7-4.2-4.1-4.4v-1c1.4,0.1,3.9,0.1,6.5,0.1c2.3,0,4.9,0,6.5-0.1L170.9,102.9L170.9,102.9z"/>
			<path d="M219.4,119.7c0,11.4-6.7,19.1-16.2,19.1c-9.7,0-16.2-6.8-16.2-18.5c0-11.4,6.7-19.1,16.2-19.1
				C212.9,101.2,219.4,108,219.4,119.7z M192.1,120.1c0,10.9,5,17.8,11.3,17.8c6.6,0,10.9-7.4,10.9-18c0-10.9-5-17.8-11.3-17.8
				C196.4,102.1,192.1,109.5,192.1,120.1z"/>
			<path d="M255.7,119.7c0,11.4-6.7,19.1-16.2,19.1c-9.7,0-16.2-6.8-16.2-18.5c0-11.4,6.7-19.1,16.2-19.1
				C249.2,101.2,255.7,108,255.7,119.7z M228.4,120.1c0,10.9,5,17.8,11.3,17.8c6.6,0,10.9-7.4,10.9-18c0-10.9-5-17.8-11.3-17.8
				C232.7,102.1,228.4,109.5,228.4,120.1z"/>
			<path d="M298.8,102.9c-3.5,0.1-4.1,0.7-4.1,4.4v25.3c0,3.7,0.7,4.2,4.1,4.4v1c-1.6-0.1-4.1-0.1-6.5-0.1c-2.7,0-5.1,0.1-6.5,0.1
				v-1c3.5-0.2,4.1-0.7,4.1-4.4v-27.3l-12.3,33h-0.8L264,105.2v27c0,3.7,0.7,4.8,4.6,4.9v1c-1.2-0.1-3.5-0.1-5.2-0.1
				s-3.6,0.1-4.7,0.1v-1c3.5-0.2,4.1-1.2,4.1-4.9v-24.8c0-3.7-0.7-4.2-4.1-4.4v-1c1.1,0.1,3,0.1,4.7,0.1c1.5,0,3.2,0,4.4-0.1
				l11.2,29.6l11-29.5h2.4c2.3,0,4.9,0,6.5-0.1v0.9H298.8z"/>
			<path d="M318.8,103.2c0.8,0.5,1.3,0.7,1.7,0.7c0.6,0,0.9-0.8,1.1-2.2h1.2c-0.1,1.8-0.2,4-0.2,10.4h-1.2c-0.4-4.9-2.7-9.8-8.4-9.8
				c-3.6,0-6.2,2.4-6.2,5.9c0,4.6,4,6.5,8.6,9.4c5.3,3.3,9.2,6,9.2,11.5c0,6.5-4.9,9.7-10.8,9.7c-3.6,0-5.5-1-7-1.9
				c-0.8-0.5-1.3-0.7-1.7-0.7c-0.6,0-0.9,0.8-1.1,2.2h-1.2c0.1-2.1,0.2-5,0.2-12.2h1.2c0.4,6.2,2.8,11.6,9.3,11.6
				c3.3,0,6.6-2,6.6-6.8c0-4.1-3.2-6.5-8-9.3c-4.9-2.9-9.1-5.7-9.1-11.4c0-6,4.6-8.9,9.6-8.9C315.9,101.3,317.4,102.3,318.8,103.2z"
				/>
		</g>
	</g>
	<path d="M165.9,37.9c-0.3,0-1.3,0.4-2.1,0.7c-0.3,0.1-0.5,0.2-0.8,0.3s-0.7,0.2-1,0.3c-0.1,0-0.2,0-0.3,0.1
		c-0.3,0.1-0.7,0.1-1.1,0.1c-0.4,0-0.8,0-1.1-0.1c-0.4-0.1-0.7-0.2-0.9-0.4s-0.4-0.4-0.5-0.8l0,0c0.1,0,0.1,0,0.2,0
		c0.4,0,0.7-0.1,1.1-0.2c0.4-0.1,0.7-0.3,1.2-0.5c0,0,0.1-0.1,0.2-0.1c0.1-0.1,0.2-0.1,0.3-0.2c0.2-0.1,0.4-0.3,0.6-0.4
		c0.2-0.2,0.3-0.3,0.4-0.5c0.1-0.2,0-0.4-0.1-0.6c-0.2-0.3-0.5-0.4-0.9-0.5c-0.2,0-0.4,0-0.5,0c-0.2,0-0.3,0-0.5,0
		c-0.5,0.1-1,0.3-1.5,0.6s-0.8,0.7-1.1,1.1c-0.4,0.2-0.8,0.3-1.1,0.5s-0.7,0.4-1,0.6l0,0c-0.2,0.1-0.3,0.2-0.5,0.3s-0.4,0.2-0.5,0.3
		c-0.5,0.2-1,0.5-1.5,0.7s-1,0.4-1.5,0.4c0-0.2,0.1-0.4,0.2-0.6c0.1-0.3,0.3-0.5,0.5-0.7s0.4-0.5,0.6-0.7c0.2-0.2,0.3-0.5,0.5-0.7
		c0.2-0.3,0.2-0.6,0.1-0.9c-0.1-0.3-0.3-0.5-0.6-0.6s-0.6-0.1-0.9,0c-0.3,0.1-0.5,0.2-0.8,0.3c-0.6,0.3-1.3,0.6-1.9,0.9
		c-0.5,0.3-1.1,0.5-1.6,0.8c0.1-0.2,0.3-0.5,0.4-0.7l0,0c0.2-0.3,0.3-0.7,0.5-1l0,0c0.1-0.2,0.2-0.4,0.3-0.6
		c0.1-0.2,0.2-0.4,0.3-0.6c0.4-0.4,0.9-0.7,1.3-1.1c0.5-0.4,0.9-0.8,1.3-1.2l0,0c0.2-0.2,0.4-0.4,0.6-0.6c0.2-0.2,0.5-0.4,0.7-0.7
		c0.2-0.2,0.4-0.5,0.6-0.7c0.2-0.2,0.3-0.5,0.4-0.8c0.1-0.4,0.1-0.6,0-0.8c-0.1-0.1-0.3-0.2-0.6-0.2c-0.2,0-0.5,0-0.7,0.1
		c-0.3,0.1-0.5,0.2-0.6,0.3l0,0c-0.6,0.4-1,0.9-1.4,1.5s-0.8,1.2-1.1,1.7l-1,1.9c-0.8,0.8-1.8,1.6-3,2.2c-1.1,0.7-2.3,1.3-3.6,1.9
		l0,0c-0.1,0-0.2,0-0.3,0.1l0,0c-0.4,0.2-0.9,0.4-1.3,0.5c-0.4,0.2-0.9,0.3-1.3,0.5c-0.4,0.1-0.8,0.2-1.2,0.4
		c-0.5,0.1-0.9,0.2-1.3,0.1c0,0,0-0.1,0-0.2c0-0.2,0.1-0.4,0.2-0.7c0.1-0.2,0.1-0.5,0.2-0.7c0.1-0.3,0.1-0.4,0.2-0.4l0,0
		c0.1-0.2,0.2-0.4,0.3-0.6c0.1-0.2,0.2-0.4,0.3-0.6c0.3-0.2,0.5-0.4,0.8-0.6c0.3-0.2,0.5-0.4,0.7-0.6l0.4-0.1
		c0.9-0.1,1.9-0.3,2.9-0.4c1-0.2,1.9-0.4,2.8-0.7c0.2-0.1,0.3-0.2,0.4-0.4c0.1-0.2,0-0.4-0.1-0.6c-0.1-0.2-0.3-0.3-0.5-0.2
		c-0.2,0-0.3,0.1-0.4,0.1l-2.9,0.9l-1.5,0.3c0.3-0.3,0.5-0.6,0.8-0.9c0.3-0.4,0.6-0.8,0.9-1.1c0.2-0.3,0.5-0.6,0.8-1
		s0.6-0.8,0.7-1.2c0.1-0.2,0-0.4-0.1-0.6s-0.3-0.3-0.5-0.3l0,0c-0.2,0-0.4,0.1-0.5,0.2c-0.2,0.1-0.3,0.2-0.5,0.3l0,0
		c-0.8,0.6-1.5,1.4-2.2,2.3c-0.6,0.9-1.2,1.8-1.7,2.6c-0.3,0-0.7,0.1-1,0.1s-0.7,0-1,0l0,0c-0.2,0-0.4,0.1-0.4,0.3
		c-0.1,0.2,0,0.4,0.2,0.5l0,0c0.2,0.1,0.5,0.2,0.9,0.1c0.3,0,0.6-0.1,0.8-0.1l-0.3,0.6c-0.6,0.4-1.2,0.9-1.8,1.2c-0.7,0.4-1.9,1-3,1
		c-0.2,0-0.6,0-0.8,0h-19.2h-0.1v118.6H342V37.9H165.9z M135.2,38.3c-0.2,0.4-0.3,0.9-0.3,1.4l0,0c0.1,0.5,0.3,0.8,0.7,0.9
		c0.4,0.1,0.7,0.1,1.2,0c0.4-0.1,0.8-0.3,1.3-0.4c0.3-0.1,0.5-0.2,0.7-0.3c0.1,0,0.2-0.1,0.3-0.1l2.1-0.8l0,0
		c0.1-0.1,0.3-0.1,0.5-0.2h0.1c0.1,0,0.1,0,0.2,0c0.1,0,0.2-0.1,0.3-0.1l0,0c0.4-0.2,0.7-0.4,1-0.5c0.3-0.2,0.7-0.4,1-0.6
		c0.5-0.3,1.1-0.7,1.6-1c0.4-0.3,0.9-0.6,1.3-0.9c-0.3,0.6-0.7,1.1-1.1,1.7c-0.5,0.7-1,1.3-1.6,1.9l0,0c-0.1,0.1-0.2,0.3-0.2,0.4
		c0,0.2,0.1,0.3,0.2,0.5l0,0c0.2,0.1,0.3,0.2,0.5,0.1c0.1,0,0.3-0.1,0.4-0.2c0.1-0.1,0.3-0.3,0.6-0.5s0.7-0.6,1.3-1
		c0.4-0.3,0.8-0.5,1.2-0.7s0.8-0.4,1.2-0.6c0.1,0,0.3-0.1,0.5-0.2c0.2-0.1,0.4-0.2,0.6-0.2c0.2-0.1,0.4-0.1,0.6-0.2
		c0.1,0,0.3,0,0.4,0c0,0.3-0.2,0.6-0.3,0.8c-0.2,0.3-0.4,0.6-0.6,0.9c-0.1,0.1-0.1,0.2-0.2,0.3l-0.1,0.2c-0.1,0.2-0.2,0.4-0.3,0.6
		c-0.1,0.2-0.1,0.4-0.2,0.6c0,0.2,0.1,0.4,0.2,0.6c0.2,0.2,0.4,0.4,0.7,0.4s0.5,0,0.8-0.1c0.2-0.1,0.5-0.2,0.7-0.3s0.4-0.3,0.6-0.4
		c0.4-0.3,0.9-0.5,1.3-0.7c0.4-0.2,0.9-0.4,1.3-0.7c0,0,0.1,0,0.1-0.1c0.2-0.1,0.3-0.2,0.4-0.2l0,0c0.2-0.1,0.3-0.2,0.5-0.3
		s0.3-0.2,0.5-0.3c0,0.1,0,0.2,0,0.3c0,0.2,0.1,0.3,0.1,0.5c0.1,0.4,0.3,0.8,0.6,1.1s0.6,0.5,0.9,0.6c0.3,0.1,0.7,0.2,1.1,0.3
		c0.4,0,0.8,0,1.2-0.1l0,0c0.9-0.2,1.8-0.5,2.7-0.9l1.2-0.4l0,0c0.2-0.1,0.6-0.2,0.9-0.3c1.4,0,171,0,175.2,0v116.6H112.8V38.8
		c0.6,0,18.2,0,18.5,0c1.5,0,2.5-0.3,3.6-1c0,0,0.1-0.1,0.2-0.1c0.2-0.1,0.4-0.3,0.6-0.4C135.5,37.7,135.3,38,135.2,38.3z M158.2,37
		c0.1-0.1,0.2-0.3,0.3-0.4c0.2-0.2,0.4-0.3,0.6-0.4c0.2-0.1,0.5-0.2,0.7-0.2c0.1,0,0.1,0,0.2,0c0.1,0,0.3,0,0.4,0.1
		c-0.3,0.3-0.7,0.5-1,0.7C159.1,36.9,158.6,37,158.2,37z M150,32.1l0.3-0.5c0.3-0.4,0.6-0.8,0.9-1.1c0.3-0.3,0.6-0.6,0.9-0.8
		c-0.1,0.3-0.3,0.5-0.5,0.7c-0.3,0.3-0.5,0.6-0.8,0.8c-0.2,0.2-0.4,0.4-0.7,0.6C150.1,31.9,150.1,32,150,32.1z M138.9,33.6
		c0.2-0.2,0.3-0.5,0.5-0.7c0.3-0.4,0.7-0.8,1-1.2c0.1-0.1,0.3-0.3,0.4-0.5l0,0c-0.1,0.1-0.1,0.2-0.2,0.3
		C140.2,32.2,139.5,33,138.9,33.6z"/>
</g>
</svg>
