<?xml version="1.0" encoding="utf-8"?>
<!-- Generator: Adobe Illustrator 16.0.0, SVG Export Plug-In . SVG Version: 6.00 Build 0)  -->
<!DOCTYPE svg PUBLIC "-//W3C//DTD SVG 1.1//EN" "http://www.w3.org/Graphics/SVG/1.1/DTD/svg11.dtd">
<svg version="1.1" id="Layer_1" xmlns="http://www.w3.org/2000/svg" xmlns:xlink="http://www.w3.org/1999/xlink" x="0px" y="0px"
	 width="450px" height="200px" viewBox="25 0 450 200" enable-background="new 25 0 450 200" xml:space="preserve">
<g>
	<path d="M103.58,83.663v51.146H86.242V83.663h-6.934V67.194h31.204v16.469H103.58z"/>
	<path d="M134.783,134.809v-26.008h-4.335v26.008h-17.335V67.196h17.335v26.003h4.335V67.196h17.335v67.613H134.783z"/>
	<path d="M156.021,134.809V67.196h24.271v15.603h-6.934V93.2h6.5v15.6h-6.5v10.407h6.934v15.602H156.021L156.021,134.809z"/>
	<path d="M202.393,134.809V67.196h17.337v52.012h6.066v15.601H202.393z"/>
	<path d="M229.787,134.809V67.196h24.27v15.603h-6.935V93.2h6.5v15.6h-6.5v10.407h6.935v15.602H229.787L229.787,134.809z"/>
	<path d="M280.493,134.809l-0.869-9.535h-4.161l-0.863,9.535h-18.291l7.367-67.613h27.735l7.366,67.613H280.493z M277.547,84.01
		l-1.82,25.66h3.644L277.547,84.01z"/>
	<path d="M320.452,135.673c-12.394,0-21.667-3.642-21.667-34.585c0-29.385,12.828-34.761,23.404-34.761
		c7.629,0,12.832,2.689,16.035,4.333l-3.379,14.823c-2.34-1.04-6.242-2.687-10.055-2.687c-4.596,0-8.234,3.293-8.234,18.636
		c0,15.17,0.866,18.639,2.947,18.639c0.605,0,1.385-0.176,1.385-0.176V94.932h17.338v38.136
		C334.844,134.023,327.217,135.673,320.452,135.673z"/>
	<path d="M361.628,135.673c-13.261,0-19.504-5.636-19.504-21.582V67.196h17.338v46.805c0,5.113,0.086,6.938,2.166,6.938
		c1.994,0,2.167-1.73,2.167-6.938V67.196h17.337v46.805C381.128,130.818,374.801,135.673,361.628,135.673z"/>
	<path d="M385.465,134.809V67.196h24.271v15.603h-6.937V93.2h6.503v15.6h-6.503v10.407h6.937v15.602H385.465L385.465,134.809z"/>
	<path d="M422.307,135.673c-5.897,0-8.67-2.254-8.67-8.67c0-6.241,2.859-8.671,8.67-8.671c5.458,0,8.665,2.168,8.665,8.671
		C430.972,133.852,428.026,135.673,422.307,135.673z"/>
</g>
</svg>
