<?xml version="1.0" encoding="utf-8"?>
<!-- Generator: Adobe Illustrator 22.1.0, SVG Export Plug-In . SVG Version: 6.00 Build 0)  -->
<svg version="1.1" id="Layer_1" xmlns="http://www.w3.org/2000/svg" xmlns:xlink="http://www.w3.org/1999/xlink" x="0px" y="0px"
	 viewBox="0 0 450 200" style="enable-background:new 0 0 450 200;" xml:space="preserve">
<g>
	<path d="M93.3,85.4v46.1H77.6V85.4h-6.2V70.5h28.2v14.9H93.3z"/>
	<path d="M121.5,131.5V108h-3.9v23.5h-15.7v-61h15.6V94h3.9V70.5H137v61H121.5L121.5,131.5z"/>
	<path d="M140.6,131.5v-61h21.9v14.1h-6.2V94h5.9v14h-5.9v9.4h6.2v14.1H140.6L140.6,131.5z"/>
	<path d="M182.5,131.5v-61h15.6v47h5.5v14.1h-21.1V131.5z"/>
	<path d="M207.3,131.5v-61h21.9v14.1H223V94h5.9v14H223v9.4h6.2v14.1H207.3L207.3,131.5z"/>
	<path d="M253,131.5l-0.8-8.6h-3.8l-0.8,8.6h-16.5l6.7-61h25l6.7,61H253z M250.3,85.6l-1.6,23.2h3.3L250.3,85.6z"/>
	<path d="M289.2,132.3c-11.2,0-19.6-3.3-19.6-31.2c0-26.5,11.6-31.4,21.1-31.4c6.9,0,11.6,2.4,14.4,3.9L302,87
		c-2.1-0.9-5.6-2.4-9.1-2.4c-4.2,0-7.4,3-7.4,16.8c0,13.7,0.8,16.8,2.6,16.8c0.5,0,1.3-0.2,1.3-0.2V95.3H305v34.4
		C302.1,130.8,295.2,132.3,289.2,132.3z"/>
	<path d="M326.3,132.3c-12,0-17.6-5.1-17.6-19.5V70.5h15.6v42.3c0,4.6,0.1,6.2,2,6.2c1.8,0,2-1.5,2-6.2V70.5h15.6v42.3
		C343.9,127.9,338.2,132.3,326.3,132.3z"/>
	<path d="M347.9,131.5v-61h21.9v14.1h-6.2V94h5.9v14h-5.9v9.4h6.2v14.1H347.9L347.9,131.5z"/>
	<path d="M381.1,132.3c-5.3,0-7.9-2.1-7.9-7.9c0-5.6,2.6-7.9,7.9-7.9c5,0,7.9,2,7.9,7.9C388.9,130.7,386.2,132.3,381.1,132.3z"/>
</g>
</svg>
