<?xml version="1.0" encoding="utf-8"?>
<!-- Generator: Adobe Illustrator 22.1.0, SVG Export Plug-In . SVG Version: 6.00 Build 0)  -->
<svg version="1.1" id="Layer_1" xmlns="http://www.w3.org/2000/svg" xmlns:xlink="http://www.w3.org/1999/xlink" x="0px" y="0px"
	 viewBox="0 0 450 200" style="enable-background:new 0 0 450 200;" xml:space="preserve">
<g>
	<g>
		<path d="M152.3,144.7H98.1c-9.7,0-17.6-7.9-17.6-17.6V72.9c0-9.7,7.9-17.6,17.6-17.6h54.2c9.7,0,17.6,7.9,17.6,17.6v54.2
			C169.9,136.8,162,144.7,152.3,144.7 M152.3,49.5H98.1c-12.9,0-23.4,10.5-23.4,23.4v54.2c0,12.9,10.5,23.4,23.4,23.4h54.2
			c12.9,0,23.4-10.5,23.4-23.4V72.9C175.7,60,165.2,49.5,152.3,49.5"/>
	</g>
	<polygon points="217.5,97.3 212.6,78.3 207.8,97.3 201.6,97.3 193.7,69.6 200.2,69.6 205.1,89.6 210.4,69.6 215,69.6 220.2,89.6 
		225,69.6 231.6,69.6 223.7,97.3 	"/>
	<g>
		<path d="M241.7,80.9c-3.3,0-4.7,2.4-4.9,4.4h9.9C246.5,83.5,245.2,80.9,241.7,80.9 M231.3,87.2c0-5.8,4.3-10.5,10.4-10.5
			c6,0,10,4.5,10,11v1.2h-14.9c0.3,2.5,2.4,4.6,5.8,4.6c1.7,0,4.1-0.7,5.3-2l2.3,3.4c-2,1.8-5.1,2.8-8.2,2.8
			C235.9,97.8,231.3,93.7,231.3,87.2"/>
	</g>
	<polygon points="328.4,97.3 323.1,89.6 320.7,92.1 320.7,97.3 315.4,97.3 315.4,69.6 320.7,69.6 320.7,86.2 328.3,77.3 334.7,77.3 
		326.8,86.3 335,97.3 	"/>
	<g>
		<path d="M345.4,80.9c-3.3,0-4.7,2.4-4.9,4.4h9.9C350.2,83.5,348.9,80.9,345.4,80.9 M335.1,87.2c0-5.8,4.3-10.5,10.4-10.5
			c6,0,10,4.5,10,11v1.2h-14.9c0.3,2.5,2.4,4.6,5.8,4.6c1.7,0,4.1-0.7,5.3-2L354,95c-2,1.8-5.1,2.8-8.2,2.8
			C339.7,97.8,335.1,93.7,335.1,87.2"/>
		<path d="M195,116.2c0-8.5,6.4-14.3,14.7-14.3c6.1,0,9.6,3.3,11.6,6.8l-5.1,2.5c-1.2-2.2-3.6-4-6.5-4c-5,0-8.7,3.9-8.7,9.1
			s3.6,9.1,8.7,9.1c2.9,0,5.3-1.7,6.5-4l5.1,2.4c-2,3.4-5.5,6.8-11.6,6.8C201.4,130.5,195,124.7,195,116.2"/>
		<path d="M239.1,120c0-3.1-1.9-5.8-5.1-5.8s-5.1,2.7-5.1,5.8c0,3.1,1.8,5.8,5.1,5.8S239.1,123.1,239.1,120 M223.4,120
			c0-5.7,4-10.5,10.6-10.5s10.6,4.8,10.6,10.5s-4,10.5-10.6,10.5S223.4,125.7,223.4,120"/>
		<path d="M262.9,120c0-3.1-1.9-5.8-5.1-5.8s-5.1,2.7-5.1,5.8c0,3.1,1.8,5.8,5.1,5.8C261.1,125.8,262.9,123.1,262.9,120 M247.2,120
			c0-5.7,4-10.5,10.6-10.5c6.6,0,10.6,4.8,10.6,10.5s-4,10.5-10.6,10.5C251.2,130.5,247.2,125.7,247.2,120"/>
	</g>
	<rect x="272.3" y="102.3" width="5.3" height="27.6"/>
	<path d="M294.3,108.2l-4.3,11.9h8.6L294.3,108.2z M301.9,130l-1.7-4.7h-11.9l-1.7,4.7h-6.7l10.7-27.6h7.4l10.6,27.6H301.9z"/>
	<g>
		<path d="M325.9,120c0-3.4-2-5.8-5.1-5.8c-1.7,0-3.6,1-4.5,2.3v7.1c0.9,1.2,2.8,2.3,4.5,2.3C323.9,125.8,325.9,123.4,325.9,120
			 M316.4,127.4v10.2h-5.3V110h5.3v2.5c1.5-1.9,3.7-3,6.2-3c5.1,0,8.9,3.8,8.9,10.5s-3.7,10.5-8.9,10.5
			C320.2,130.5,318,129.5,316.4,127.4"/>
		<path d="M350.1,120c0-3.4-2-5.8-5.1-5.8c-1.7,0-3.6,1-4.5,2.3v7.1c0.9,1.2,2.8,2.3,4.5,2.3C348.1,125.8,350.1,123.4,350.1,120
			 M340.5,127.4v10.2h-5.3V110h5.3v2.5c1.5-1.9,3.7-3,6.2-3c5.1,0,8.9,3.8,8.9,10.5s-3.7,10.5-8.9,10.5
			C344.3,130.5,342.1,129.5,340.5,127.4"/>
		<path d="M357.7,127.4l2.3-3.7c1.4,1.4,4.4,2.7,6.9,2.7c2.3,0,3.4-0.9,3.4-2.2c0-3.3-11.9-0.6-11.9-8.5c0-3.4,2.9-6.3,8.2-6.3
			c3.4,0,6.1,1.2,8.1,2.7l-2.1,3.6c-1.2-1.3-3.5-2.3-5.9-2.3c-1.9,0-3.1,0.9-3.1,2c0,3,11.9,0.5,11.9,8.6c0,3.6-3.1,6.4-8.7,6.4
			C363.1,130.5,359.8,129.3,357.7,127.4"/>
	</g>
	<polygon points="267.8,69.4 272.7,88.6 277.6,69.4 283.9,69.4 291.9,97.3 285.2,97.3 280.3,77.1 275,97.3 270.4,97.3 265.1,77.1 
		260.2,97.3 253.5,97.3 261.5,69.4 	"/>
	<g>
		<path d="M306.7,92.5V90c-0.9-1.2-2.6-1.8-4.3-1.8c-2.1,0-3.8,1.1-3.8,3.1c0,1.9,1.7,3,3.8,3C304.2,94.2,305.8,93.6,306.7,92.5
			 M306.7,97.3v-2.1c-1.4,1.6-3.8,2.6-6.4,2.6c-3.2,0-7-2.2-7-6.7c0-4.7,3.8-6.5,7-6.5c2.7,0,5.1,0.9,6.4,2.5v-2.7
			c0-2.1-1.8-3.4-4.4-3.4c-2.2,0-4.2,0.8-5.9,2.4l-2-3.6c2.5-2.2,5.7-3.2,8.8-3.2c4.6,0,8.8,1.8,8.8,7.7v13.1h-5.3V97.3z"/>
	</g>
	<polygon points="106.2,109.3 103,96.7 99.8,109.3 95.6,109.3 90.4,90.9 94.8,90.9 98,104.2 101.5,90.9 104.5,90.9 108,104.2 
		111.2,90.9 115.6,90.9 110.4,109.3 	"/>
	<polygon points="115.9,91 119.1,103.6 122.3,91 126.5,91 131.7,109.3 127.3,109.3 124.1,96.1 120.6,109.3 117.6,109.3 114.1,96.1 
		110.9,109.3 106.5,109.3 111.7,91 	"/>
	<polygon points="157.7,109.3 150.1,90.8 154.9,90.8 162.1,109.3 	"/>
	<g>
		<path d="M154.4,90.8H150l-1.7,4.1l0,0l0,0V95l0,0l-3.4,8.5c-0.8,1.5-2.4,2.7-4.4,2.7c-3.4,0-5.8-2.6-5.8-6.1s2.4-6.1,5.8-6.1
			c1.8,0,3.4,1.1,4.2,2.5l2.7-2.7c-1.4-1.8-3.6-3.3-6.9-3.3c-5.6,0-9.9,3.9-9.9,9.6s4.3,9.6,9.9,9.6c4.1,0,6.4-2.3,7.8-4.6"/>
		<path d="M148.1,106.3"/>
	</g>
</g>
</svg>
